<?xml version="1.0" encoding="UTF-8" standalone="no"?>
<svg xmlns="http://www.w3.org/2000/svg" xmlns:xlink="http://www.w3.org/1999/xlink" clip-rule="evenodd" stroke-miterlimit="10" viewBox="0 0 612.00 792.00">
    <desc>SVG generated by Lineform</desc>
    <metadata><split-at-sharp-angles/></metadata>
    <defs/>
    <g>
        <path d="M 69.36 458.06 C 67.57 458.06 65.18 457.76 64.87 455.12 C 64.57 452.47 66.51 450.41 69.20 450.41 C 71.90 450.41 71.12 451.86 77.42 451.86 C 79.75 451.86 79.88 456.69 77.52 456.69 C 71.91 456.69 72.68 458.06 69.36 458.06 Z M 69.36 458.06 " fill="#000000" id="start_section"/>
        <path d="M 309.34 450.38 C 312.59 450.38 313.90 451.61 313.98 454.18 C 314.06 456.85 312.24 458.08 309.34 458.08 C 306.45 458.08 306.58 456.63 301.73 456.67 C 299.13 456.70 299.58 451.84 301.70 451.84 C 306.84 451.84 306.09 450.38 309.34 450.38 Z M 309.34 450.38 " fill="#000000" id="end_section"/>
        <path d="M 162.85 456.70 C 160.55 456.70 160.50 451.84 163.19 451.84 C 166.04 451.84 172.25 452.71 173.88 452.61 C 175.51 452.51 180.01 451.59 181.44 451.59 C 182.86 451.59 189.74 453.01 192.70 452.61 C 195.64 452.20 196.48 452.42 198.52 452.42 C 200.55 452.42 203.78 452.71 205.71 452.82 C 207.65 452.92 209.38 451.64 211.91 451.98 C 214.44 452.33 215.81 451.84 217.55 451.84 C 220.35 451.84 220.19 456.66 217.58 456.66 C 215.06 456.66 213.34 456.98 211.20 456.88 C 209.07 456.78 207.23 456.27 205.20 456.78 C 203.17 457.28 199.24 456.74 196.80 456.43 C 194.36 456.12 191.66 456.26 189.74 456.47 C 185.88 456.86 176.63 455.96 175.31 456.37 C 173.98 456.77 169.76 456.38 168.25 456.38 C 166.76 456.38 165.95 456.70 162.85 456.70 Z M 162.85 456.70 " fill="#000000" id="middle_2_section"/>
        <path d="M 286.16 451.84 C 288.70 451.84 289.16 456.67 286.16 456.67 C 283.16 456.67 277.63 456.22 276.01 456.32 C 274.38 456.43 267.61 456.72 266.19 456.72 C 264.77 456.72 259.68 456.01 256.73 456.42 C 253.78 456.82 250.90 456.02 248.88 456.24 C 246.36 456.51 245.01 456.24 243.08 456.14 C 241.15 456.04 238.18 457.01 236.55 456.61 C 234.92 456.20 234.00 456.67 231.72 456.67 C 229.43 456.67 229.44 451.86 231.59 451.86 C 233.75 451.86 235.59 451.93 237.72 452.04 C 239.86 452.14 242.46 452.22 244.77 452.22 C 246.87 452.22 250.01 451.63 252.45 451.94 C 254.89 452.24 258.43 452.37 259.85 452.42 C 261.63 452.48 265.42 452.34 267.05 452.61 C 269.13 452.95 272.74 452.45 274.06 452.04 C 275.39 451.63 276.30 452.20 279.18 452.10 C 280.89 452.04 283.61 451.84 286.16 451.84 Z M 286.16 451.84 " fill="#000000" id="middle_3_section"/>
        <path d="M 92.53 451.84 C 95.59 451.84 100.58 452.49 101.80 452.49 C 103.02 452.49 107.11 452.12 109.05 452.22 C 110.98 452.33 111.63 452.71 114.89 452.81 C 118.96 452.94 121.63 452.46 121.82 452.40 C 122.40 452.23 124.37 451.75 127.11 451.90 C 130.77 452.10 131.87 451.64 133.50 451.84 C 136.30 452.42 136.57 451.89 138.70 451.98 C 140.85 452.08 142.18 451.87 143.89 452.13 C 145.76 452.43 147.12 451.80 148.84 451.84 C 151.57 451.84 151.31 456.69 148.75 456.69 C 147.20 456.69 145.81 456.17 144.19 456.17 C 142.56 456.17 141.14 456.27 139.51 456.47 C 137.88 456.68 134.56 456.37 131.92 456.47 C 129.27 456.58 124.88 456.86 121.83 456.75 C 118.77 456.66 116.88 455.52 110.63 456.27 C 108.62 456.51 104.61 456.30 102.98 456.30 C 100.12 456.30 94.61 456.66 92.23 456.66 C 89.39 456.66 89.47 451.84 92.53 451.84 Z M 92.53 451.84 " fill="#000000" id="middle_section"/>
        <rect x="68.06" y="450.30" width="9.59" height="7.90" stroke="#ED2024" stroke-width="0.43" fill="none" id="start_section_bounds"/>
        <rect x="92.05" y="450.30" width="57.12" height="7.90" stroke="#ED2024" stroke-width="0.50" fill="none" id="middle_section_bounds"/>
        <rect x="162.82" y="450.30" width="54.95" height="7.90" stroke="#ED2024" stroke-width="0.50" fill="none" id="middle_2_section_bounds"/>
        <rect x="231.54" y="450.30" width="54.95" height="7.90" stroke="#ED2024" stroke-width="0.50" fill="none" id="middle_3_section_bounds"/>
        <rect x="301.41" y="450.27" width="9.54" height="7.90" stroke="#ED2024" stroke-width="0.42" fill="none" id="end_section_bounds"/>
        <path d="M 463.04 493.58 C 461.80 494.21 460.29 493.93 459.61 492.84 C 458.92 491.75 459.06 491.43 459.24 489.83 C 459.43 488.22 460.11 488.04 460.11 487.09 C 460.11 486.12 459.88 485.17 459.88 484.21 C 459.88 483.25 459.57 482.25 459.70 480.88 C 459.84 479.51 459.75 479.05 459.61 478.00 C 459.47 476.94 459.52 476.63 459.11 475.48 C 458.69 474.34 458.97 472.88 460.34 472.25 C 461.71 471.60 463.58 472.34 464.04 473.11 C 464.49 473.89 463.99 474.99 463.72 476.13 C 463.44 477.27 463.35 477.63 463.17 478.45 C 462.98 479.28 463.07 481.06 463.12 482.20 C 463.17 483.34 463.39 485.58 463.26 486.22 C 463.12 486.86 463.28 489.22 463.63 489.69 C 463.98 490.16 464.36 492.89 463.04 493.58 Z M 463.04 493.58 " fill="#000000" id="line_end"/>
        <path d="M 377.63 489.38 C 378.22 488.37 376.69 487.18 375.82 486.76 C 374.97 486.34 374.47 486.04 374.15 485.36 C 373.83 484.68 373.49 483.72 373.12 483.48 C 372.75 483.23 371.57 482.49 372.06 482.41 C 373.00 482.25 373.76 481.93 373.94 481.64 C 374.35 480.94 374.48 478.07 373.21 477.83 C 371.94 477.57 371.81 477.21 371.94 476.84 C 372.06 476.47 374.11 474.71 374.31 474.30 C 374.51 473.89 375.75 473.40 375.95 472.87 C 376.15 472.33 376.80 471.75 377.12 471.51 C 377.45 471.26 378.46 470.35 377.53 469.73 C 376.17 468.84 375.33 470.75 374.51 471.20 C 373.69 471.65 372.67 472.13 371.36 472.75 C 370.05 473.36 369.23 474.14 368.62 474.63 C 368.01 475.12 366.33 475.80 365.83 476.18 C 365.34 476.56 364.89 477.38 363.70 477.78 C 362.51 478.20 360.63 479.01 360.63 479.75 C 360.63 480.49 361.45 480.94 362.22 481.19 C 363.00 481.43 363.78 481.94 364.53 482.54 C 365.26 483.15 367.31 483.56 368.05 484.51 C 368.57 485.17 370.84 486.17 371.57 486.51 C 372.30 486.85 376.60 491.10 377.63 489.38 Z M 377.63 489.38 " fill="#000000" id="filled_arrow_end"/>
        <path d="M 366.87 328.57 C 366.56 326.93 366.83 326.97 367.44 326.71 C 368.05 326.44 368.09 326.45 368.86 326.42 C 369.62 326.40 369.46 325.80 369.88 325.57 C 370.30 325.34 371.25 324.34 371.86 324.34 C 372.47 324.34 372.90 323.36 373.54 323.28 C 374.19 323.20 374.50 322.74 374.95 322.32 C 375.41 321.90 376.13 321.83 376.40 321.37 C 376.67 320.91 377.55 319.82 378.16 319.72 C 378.76 319.61 379.77 320.44 379.46 321.25 C 379.15 322.05 379.03 322.28 379.26 322.90 C 379.49 323.50 379.30 323.81 379.34 324.61 C 379.38 325.41 379.53 326.29 379.53 326.63 C 379.53 326.98 380.18 327.28 379.84 328.50 C 379.49 329.72 379.61 329.35 379.45 330.54 C 379.30 331.74 379.07 331.82 379.18 332.47 C 379.30 333.11 378.99 333.80 379.30 334.72 C 379.61 335.63 379.45 336.62 378.84 336.81 C 378.23 337.00 377.58 336.51 376.90 335.70 C 376.21 334.91 375.63 334.22 374.80 333.80 C 373.96 333.38 373.15 333.08 372.59 332.47 C 372.02 331.86 369.65 330.26 369.15 329.91 C 368.66 329.57 367.06 329.57 366.87 328.57 Z M 366.87 328.57 " fill="#000000" id="simple_arrow_end"/>
        <path d="M 449.12 321.93 C 449.40 320.98 450.39 321.25 450.98 321.39 C 451.58 321.53 452.54 321.75 453.35 321.77 C 454.15 321.79 455.48 322.01 455.72 322.01 C 455.97 322.01 454.09 321.75 453.75 321.58 C 453.53 321.48 456.11 321.34 457.46 321.58 C 458.52 321.77 459.82 321.53 460.31 321.36 C 460.79 321.20 461.84 321.12 462.20 321.58 C 462.56 322.04 462.44 322.20 462.28 322.64 C 462.12 323.07 462.44 323.59 462.44 324.05 C 462.44 324.50 462.74 324.61 462.63 325.72 C 462.53 326.84 462.93 327.65 462.93 328.51 C 462.93 329.38 462.61 330.52 462.50 331.03 C 462.39 331.55 462.28 333.23 462.45 333.82 C 462.61 334.42 462.55 335.42 460.96 335.10 C 459.36 334.77 458.68 334.45 457.84 334.66 C 457.00 334.88 456.81 335.04 455.95 334.93 C 455.07 334.82 456.00 334.36 456.00 334.36 C 456.00 334.36 454.78 334.96 453.64 334.91 C 452.50 334.85 452.10 334.16 451.37 334.36 C 450.64 334.56 449.01 335.50 448.74 334.55 C 448.47 333.61 448.90 333.36 448.99 332.74 C 449.06 332.11 449.17 331.20 449.15 330.41 C 449.12 329.62 448.87 329.51 449.20 328.54 C 449.52 327.56 449.36 327.65 449.28 326.75 C 449.20 325.86 448.98 324.80 449.22 323.99 C 449.47 323.17 448.82 322.93 449.12 321.93 Z M 449.12 321.93 " fill="#000000" id="filled_square_end"/>
        <path d="M 365.46 359.62 C 366.78 359.59 366.97 358.19 368.42 358.19 C 369.85 358.19 368.93 357.67 370.93 357.67 C 372.93 357.67 373.97 358.78 375.33 359.75 C 376.69 360.70 377.05 360.79 376.81 361.55 C 376.57 362.30 376.20 362.70 376.72 362.70 C 377.24 362.70 377.44 362.34 377.60 363.02 C 377.76 363.70 378.09 363.90 377.76 364.71 C 377.44 365.50 377.17 365.62 377.37 366.74 C 377.57 367.86 377.73 368.82 377.25 369.50 C 376.77 370.18 376.41 370.94 375.13 371.74 C 373.85 372.54 372.35 372.56 371.24 372.91 C 370.13 373.26 367.85 372.94 367.13 372.13 C 366.41 371.34 366.10 370.82 364.90 370.02 C 363.70 369.22 363.30 367.93 363.26 367.50 C 363.22 367.07 362.94 367.06 362.82 365.34 C 362.70 363.62 362.85 363.31 363.10 363.11 C 363.35 362.90 363.12 362.68 363.24 362.43 C 363.35 362.17 363.59 362.67 363.44 361.77 C 363.28 360.86 363.86 359.66 365.46 359.62 Z M 365.46 359.62 " fill="#000000" id="filled_circle_end"/>
        <path d="M 371.77 409.55 C 371.24 410.46 369.75 410.41 369.36 409.36 C 368.98 408.30 368.26 407.52 367.24 406.80 C 366.23 406.08 365.56 405.31 365.51 404.78 C 365.46 404.25 364.40 405.00 363.65 404.02 C 362.91 403.05 361.80 402.90 361.56 401.84 C 361.32 400.78 363.22 400.41 363.39 400.15 C 363.56 399.89 365.12 397.80 365.12 397.80 C 365.12 397.80 365.66 397.22 366.33 396.69 C 367.00 396.15 367.44 395.92 368.45 394.95 C 368.55 394.85 369.08 394.09 369.08 393.80 C 369.08 393.51 369.75 392.54 370.23 392.54 C 370.71 392.54 371.24 393.65 372.01 393.89 C 372.78 394.14 373.49 395.70 374.18 396.35 C 374.87 397.00 375.77 398.23 376.20 398.57 C 376.63 398.90 377.55 399.29 378.08 399.91 C 378.61 400.54 378.94 400.68 378.52 401.21 C 378.08 401.75 377.41 403.38 376.92 403.72 C 376.44 404.06 375.72 404.75 375.16 405.22 C 374.61 405.70 373.70 406.75 373.46 407.33 C 373.21 407.91 372.44 408.39 371.77 409.55 Z M 371.77 409.55 " fill="#000000" id="filled_diamond_end"/>
        <path d="M 452.40 358.71 C 452.83 358.71 452.80 358.27 454.87 358.55 C 455.45 358.62 457.93 358.71 458.88 358.43 C 459.84 358.14 462.93 357.99 463.53 358.20 C 464.13 358.42 464.26 359.56 464.17 360.11 C 464.09 360.67 464.13 361.22 464.34 361.81 C 464.56 362.41 464.68 363.30 464.68 363.89 C 464.68 364.49 464.38 365.34 464.56 366.36 C 464.72 367.37 464.56 369.07 464.51 369.71 C 464.47 370.35 464.51 371.67 464.68 372.46 C 464.85 373.26 464.00 373.49 463.41 373.62 C 462.81 373.75 461.37 373.58 460.63 373.68 C 459.90 373.80 459.25 373.78 458.33 373.88 C 457.39 373.98 456.40 373.36 455.85 373.32 C 455.31 373.26 454.10 373.75 453.55 373.75 C 453.00 373.75 452.05 373.67 451.07 373.87 C 449.81 374.13 449.81 374.00 449.09 373.58 C 448.37 373.15 448.76 372.39 448.90 371.57 C 449.04 370.74 448.80 370.56 449.05 369.92 C 449.31 369.29 449.05 368.82 449.05 368.32 C 449.05 367.80 449.41 367.19 449.41 366.54 C 449.41 365.89 448.96 365.04 448.96 364.32 C 448.96 363.60 448.76 362.33 448.86 361.87 C 448.96 361.42 448.54 361.35 448.54 360.63 C 448.54 359.91 448.74 358.99 449.73 358.20 C 450.75 357.40 451.98 358.71 452.40 358.71 Z M 452.69 360.80 C 452.40 360.88 452.71 361.59 452.45 362.61 C 452.29 363.26 452.28 363.59 452.05 364.06 C 451.81 364.53 451.86 365.74 451.86 366.33 C 451.86 366.91 451.97 368.09 451.86 368.52 C 451.74 368.95 451.69 369.97 451.69 370.35 C 451.69 370.73 451.81 371.45 452.49 371.41 C 453.17 371.37 455.42 371.15 455.85 371.15 C 456.27 371.15 457.76 371.24 458.31 371.24 C 458.87 371.24 459.88 371.39 460.39 371.15 C 460.91 370.92 461.10 371.09 461.21 370.92 C 461.33 370.73 461.25 369.46 461.23 368.92 C 461.20 368.39 461.11 367.21 461.24 366.69 C 461.37 366.19 461.04 365.37 461.10 364.61 C 461.16 363.85 461.22 362.68 461.11 362.27 C 460.99 361.85 461.15 361.02 460.65 361.13 C 460.14 361.24 459.20 361.30 458.23 361.13 C 456.93 360.91 456.65 361.15 455.52 361.14 C 453.34 361.13 453.10 360.67 452.69 360.80 Z M 452.69 360.80 " fill="#000000" id="open_square_end"/>
        <path d="M 451.17 392.67 C 452.54 392.44 454.08 392.36 454.72 392.49 C 455.37 392.63 457.30 393.49 457.60 393.81 C 457.90 394.12 458.79 395.63 459.21 395.67 C 459.64 395.72 461.49 397.19 461.71 397.81 C 461.92 398.43 462.22 399.18 462.22 400.47 C 462.22 401.75 461.71 403.89 461.46 404.87 C 461.20 405.84 459.63 407.75 459.13 407.97 C 458.62 408.19 456.93 409.21 455.74 409.79 C 454.55 410.37 451.49 410.19 450.29 409.55 C 449.09 408.90 447.95 407.66 447.32 407.48 C 446.68 407.31 445.58 405.35 445.54 404.90 C 445.50 404.46 444.14 402.87 444.14 401.84 C 444.14 400.82 444.56 399.45 444.86 398.07 C 445.15 396.70 446.55 394.61 447.57 394.16 C 448.59 393.72 450.06 392.84 451.17 392.67 Z M 454.09 395.63 C 453.07 395.51 452.18 395.58 451.59 395.71 C 451.00 395.84 450.58 396.29 449.98 396.73 C 449.39 397.18 447.78 397.36 447.36 397.90 C 446.94 398.42 446.59 399.45 446.51 400.12 C 446.42 400.77 446.84 402.29 447.16 403.21 C 447.47 404.15 448.46 404.73 449.05 405.04 C 449.64 405.35 450.57 406.15 451.38 406.37 C 452.18 406.60 454.56 406.78 455.19 406.34 C 455.83 405.89 457.68 404.91 457.78 404.54 C 458.11 403.41 458.34 403.09 458.39 402.27 C 458.44 401.45 458.37 400.60 458.67 400.08 C 458.97 399.54 458.95 399.40 458.57 398.65 C 458.18 397.89 457.98 398.04 457.52 397.14 C 457.18 396.48 455.11 395.76 454.09 395.63 Z M 454.09 395.63 " fill="#000000" id="open_circle_end"/>
        <path d="M 459.44 449.91 C 458.68 449.86 458.25 448.99 458.37 448.23 C 458.48 447.46 458.52 446.80 458.60 446.44 C 458.67 446.08 458.79 445.28 458.75 444.59 C 458.71 443.90 458.57 443.45 458.76 442.95 C 458.94 442.45 458.21 442.22 458.21 441.38 C 458.21 440.53 458.40 440.02 458.47 439.61 C 458.54 439.19 458.65 438.41 458.67 437.81 C 458.70 437.22 458.63 436.78 458.67 436.05 C 458.71 435.33 458.90 434.72 458.90 434.26 C 458.90 433.80 458.75 433.40 458.72 432.84 C 458.69 432.28 459.28 431.55 459.66 431.53 C 460.44 431.49 460.89 432.81 460.93 433.04 C 460.97 433.27 462.01 434.26 462.44 434.97 C 462.89 435.71 463.22 436.10 463.68 436.42 C 464.15 436.74 465.56 438.09 465.64 438.32 C 465.72 438.54 466.71 439.16 467.21 439.47 C 467.71 439.77 468.28 440.12 468.20 440.65 C 468.13 441.19 467.47 441.53 466.86 442.03 C 466.25 442.53 465.72 443.00 465.41 443.51 C 465.10 444.02 464.64 444.71 463.88 445.24 C 463.11 445.78 462.79 446.47 462.28 446.68 C 461.78 446.89 461.42 447.31 461.31 447.77 C 461.19 448.22 460.39 449.03 460.24 449.07 C 460.09 449.11 460.09 449.95 459.44 449.91 Z M 459.44 449.91 " fill="#000000" id="inverted_arrow_end"/>
        <path d="M 381.21 441.66 C 379.49 440.61 380.25 438.70 381.64 438.32 C 382.81 437.99 384.61 437.16 385.22 436.40 C 385.83 435.65 387.49 434.88 388.44 434.34 C 389.38 433.80 389.49 433.74 389.88 433.15 C 390.27 432.56 391.27 432.50 391.55 431.75 C 391.82 430.99 392.27 430.35 393.55 430.35 C 394.82 430.35 396.33 431.75 395.55 432.78 C 394.77 433.80 393.16 434.24 392.61 434.34 C 392.05 434.45 390.43 435.32 390.05 435.85 C 389.66 436.39 389.05 436.50 388.54 437.04 C 388.05 437.58 388.75 437.74 387.43 438.65 C 386.91 439.00 386.89 440.33 386.95 440.66 C 387.00 440.98 386.76 441.40 387.09 441.76 C 387.52 442.24 388.09 442.46 388.52 443.05 C 389.05 443.77 390.18 444.82 390.29 445.14 C 390.40 445.46 392.15 445.99 392.57 446.06 C 393.00 446.13 393.42 446.20 393.92 446.31 C 394.42 446.42 395.26 446.76 395.65 447.08 C 396.04 447.41 396.36 448.27 396.36 449.13 C 396.34 449.91 395.68 450.32 394.91 450.54 C 394.13 450.75 393.07 450.10 392.16 449.21 C 391.06 448.16 391.22 448.34 389.65 447.71 C 388.07 447.08 388.37 446.47 387.48 446.20 C 386.59 445.93 386.23 444.92 385.33 444.24 C 384.51 443.65 383.77 443.27 383.22 443.00 C 382.66 442.73 382.54 442.47 381.21 441.66 Z M 381.21 441.66 " fill="#000000" id="open_arrow_end"/>
        <rect x="362.79" y="362.39" width="12.23" height="6.80" stroke="#ED2024" stroke-width="0.28" fill="none" id="filled_circle_end_bounds"/>
        <rect x="361.52" y="397.95" width="13.27" height="6.80" stroke="#ED2024" stroke-width="0.29" fill="none" id="filled_diamond_end_bounds"/>
        <rect x="444.06" y="398.30" width="16.87" height="6.80" stroke="#ED2024" stroke-width="0.30" fill="none" id="open_circle_end_bounds"/>
        <rect x="448.52" y="363.20" width="15.55" height="6.80" stroke="#ED2024" stroke-width="0.30" fill="none" id="open_square_end_bounds"/>
        <rect x="448.64" y="324.52" width="12.02" height="6.80" stroke="#ED2024" stroke-width="0.28" fill="none" id="filled_square_end_bounds"/>
        <rect x="458.20" y="437.57" width="5.40" height="6.80" stroke="#ED2024" stroke-width="0.27" fill="none" id="inverted_arrow_end_bounds"/>
        <rect x="459.30" y="478.97" width="3.49" height="6.80" stroke="#ED2024" stroke-width="0.30" fill="none" id="line_end_bounds"/>
        <rect x="380.17" y="436.85" width="10.03" height="7.18" stroke="#ED2024" stroke-width="0.30" fill="none" id="open_arrow_end_bounds"/>
        <rect x="360.59" y="476.68" width="10.31" height="6.80" stroke="#ED2024" stroke-width="0.27" fill="none" id="filled_arrow_end_bounds"/>
        <rect x="366.72" y="324.64" width="9.70" height="6.80" stroke="#ED2024" stroke-width="0.27" fill="none" id="simple_arrow_end_bounds"/>
        <path d="M 376.11 360.17 C 379.32 363.23 379.48 367.78 376.27 370.85 C 373.07 373.92 367.75 373.89 365.03 370.65 C 363.60 368.96 362.72 367.27 362.72 365.27 C 362.72 363.25 362.96 361.21 364.55 359.64 C 366.95 357.26 373.01 356.44 375.94 360.11 " stroke="#FF0000" stroke-width="0.10" fill="none" id="filled_circle_wrap"/>
        <path d="M 378.32 489.47 L 377.39 487.78 L 372.55 482.83 L 372.36 476.94 L 377.78 471.12 L 378.28 470.11 L 376.71 469.17 L 368.28 474.56 L 360.51 479.29 L 360.68 480.56 L 367.74 484.47 L 376.43 490.00 L 378.32 489.47 Z M 378.32 489.47 " stroke="#FF0000" stroke-width="0.10" fill="none" id="filled_arrow_wrap"/>
        <path d="M 370.13 392.21 L 361.01 401.78 L 370.67 410.83 L 379.82 400.58 L 370.13 392.21 Z M 370.13 392.21 " stroke="#FF0000" stroke-width="0.10" fill="none" id="filled_diamond_wrap"/>
        <path d="M 458.73 431.49 L 458.45 438.95 L 458.04 441.30 L 458.57 444.39 L 458.22 449.02 L 458.95 449.96 L 460.03 449.93 L 463.13 446.07 L 468.26 440.98 L 468.25 440.18 L 463.55 436.20 L 460.35 431.51 L 458.73 431.49 Z M 458.73 431.49 " stroke="#FF0000" stroke-width="0.10" fill="none" id="inverted_arrow_wrap"/>
        <path d="M 448.65 321.21 L 462.89 321.21 L 462.89 335.21 L 448.65 335.21 L 448.65 321.21 Z M 448.65 321.21 " stroke="#FF0000" stroke-width="0.10" fill="none" id="filled_square_wrap"/>
        <path d="M 458.89 471.98 L 464.27 471.98 L 464.27 493.94 L 458.89 493.94 L 458.89 471.98 Z M 458.89 471.98 " stroke="#FF0000" stroke-width="0.10" fill="none" id="line_wrap"/>
        <path d="M 396.23 432.90 L 395.27 430.79 L 393.00 430.05 L 386.99 435.05 L 380.25 438.88 L 380.16 441.03 L 384.74 444.45 L 389.68 447.93 L 394.86 451.15 L 396.74 449.28 L 395.78 446.79 L 390.73 445.21 L 387.14 440.76 L 388.49 437.94 L 390.70 435.41 L 396.23 432.90 Z M 396.23 432.90 " stroke="#FF0000" stroke-width="0.10" fill="none" id="open_arrow_wrap"/>
        <path d="M 448.54 357.96 L 464.67 357.96 L 464.67 374.05 L 448.54 374.05 L 448.54 357.96 Z M 448.54 357.96 " stroke="#FF0000" stroke-width="0.10" fill="none" id="open_square_wrap"/>
        <path d="M 377.88 319.71 L 372.62 323.78 L 366.68 327.07 L 366.69 328.90 L 369.95 330.53 L 378.18 336.93 L 379.56 336.98 L 379.59 329.59 L 380.18 327.92 L 379.61 326.53 L 379.64 319.61 L 377.88 319.71 Z M 377.88 319.71 " stroke="#FF0000" stroke-width="0.10" fill="none" id="simple_arrow_wrap"/>
        <path d="M 459.67 394.85 C 463.25 398.36 463.18 404.09 459.61 407.61 C 456.04 411.13 450.25 411.13 446.67 407.61 C 443.10 404.09 443.10 398.38 446.67 394.86 C 449.97 391.58 456.04 391.33 459.61 394.86 " stroke="#FF0000" stroke-width="0.10" fill="none" id="open_circle_wrap"/>
    </g>
</svg>