<?xml version="1.0" encoding="utf-8"?>
<!-- Generator: Adobe Illustrator 21.1.0, SVG Export Plug-In . SVG Version: 6.00 Build 0)  -->
<svg version="1.1" id="Layer_1" xmlns="http://www.w3.org/2000/svg" xmlns:xlink="http://www.w3.org/1999/xlink" x="0px" y="0px"
	 viewBox="0 0 1200 802.7" style="enable-background:new 0 0 1200 802.7;" xml:space="preserve">
<style type="text/css">
	.st0{fill:none;stroke:#ED2024;stroke-width:0.5;}
	.st1{fill:none;stroke:#ED2024;stroke-width:0.25;}
</style>
<g>
	<rect id="middle_section_bounds" x="180.5" y="507.8" class="st0" width="112" height="15.5"/>
	<rect id="middle_2_section_bounds" x="319.2" y="507.8" class="st0" width="107.8" height="15.5"/>
	<rect id="middle_3_section_bounds" x="454" y="507.8" class="st0" width="107.8" height="15.5"/>
	<rect id="small_middle_section_bounds" x="130" y="579.5" class="st1" width="27" height="5.4"/>
	<rect id="small_middle_2_section_bounds" x="186" y="579.5" class="st1" width="28" height="5.4"/>
	<rect id="small_middle_3_section_bounds" x="243" y="579.5" class="st1" width="27" height="5.4"/>
	<path id="middle_section" d="M264.2,520.8c-0.5,0.1-1.2,0.2-1.4,0.5c-0.6,1,1.2,0.1,0.9,0.9c0.2-0.3,0.4-0.5,0.6-0.8
		c0.7,0,1.3,0.1,2.1,0.1c0,0.1,0.2-0.1,0.6-0.3C265.9,521,265.1,520.9,264.2,520.8C264.3,520.7,264.2,520.7,264.2,520.8z
		 M189.7,510.6L189.7,510.6c-1-0.5-1.8-0.8-2.7-1c-0.1,0-0.4,0.5-0.4,0.5c0.4,0.2,0.7,0.6,1,0.7
		C188.3,510.9,188.9,510.7,189.7,510.6z M216,510.4c-0.4-1.1-1.2,0.5-1.8-0.1c-0.2,0.1-0.4,0.2-0.6,0.3c0.5,0.2,0.9,0.5,1.4,0.5
		C215.4,511.1,216.2,511,216,510.4z M283,521.2c-0.1-0.2-0.3-0.4-0.5-0.6c-0.2,0.2-0.7,0.1-0.7,0.7c0.1,1.2,1.1-0.5,1.2,0.5
		C283.2,521.6,283.9,521.4,283,521.2z M220.8,510.8c0,0.1,0,0.3-0.1,0.3c-0.4,0.2-0.2,0.3,0,0.5c0-0.1,0.1-0.1,0.1-0.2
		c0,0,0.1,0,0.1-0.1c0.1-0.1,0.1-0.1,0.2-0.2c-0.1-0.4-0.5-0.7,0.2-0.8c0-0.1-0.1-0.2-0.1-0.2c-0.2-0.1-0.4-0.2-0.5-0.1
		s-0.2,0.3-0.3,0.4h0.3C220.8,510.5,220.8,510.6,220.8,510.8z M190.6,509.5c-0.2-0.1-0.4-0.2-0.4-0.1c-0.2,0.2-1.1-0.3-1,0.6
		C189.6,509.9,190.2,509.7,190.6,509.5C190.6,509.6,190.6,509.6,190.6,509.5z M249.3,520.5c-0.3,0.2-0.5,0.5-0.8,0.7
		c0.4,0.3,0.8,0.7,1.2,0.8c0.2,0.1,0.5-0.3,0.8-0.5c-0.3-0.2-0.7-0.3-1-0.5C249.4,520.8,249.4,520.7,249.3,520.5z M191.3,519.7
		c0,0.1,0,0.1,0.1,0.1l0,0C191.4,519.7,191.4,519.7,191.3,519.7L191.3,519.7z M292.2,509.3c-0.9-0.1-1.9,0.3-2.8,0.1
		c-0.9-0.2-1.6,1.9-2.6,0.2c-0.5-0.9-1.3-0.2-2-0.3c-0.9-0.1-2.1,0.7-2.9,0.4c-2-1-4.1-0.7-6.1-0.4c-0.8,0.1-1.6,0-2.6,0
		c-1.1,0-2.1,0.2-3.3,0.2c-0.3,0-0.7-0.1-1-0.1c0.3-0.9-0.8,0.3-0.7-0.4c-0.1,0-0.2,0-0.2,0c-0.3,1-1.8-0.5-2,0.7
		c-0.1,0-0.2,0-0.2,0c0.1-0.4,0.2-1-0.3-0.8c-0.6,0.3-1.1,1-1.6,1.6c-0.1,0.2,0.1,0.7,0.1,1c-0.3-0.1-0.6-0.1-0.9-0.2
		c0.1-0.1,0.2-0.2,0.4-0.4c-0.5-0.4,0.1-0.4,0.2-0.6c0-0.1-0.1-0.2-0.1-0.2c-0.3,0.1-0.6,0.2-0.9,0.3c0,0,0.1,0.2,0.1,0.3
		c-0.1-0.1-0.4-0.3-0.4-0.4c0-0.2,0.2-0.4,0.3-0.5c0.1,0,0.1,0.1,0.2,0.1c0.1,0.1,0.2,0.1,0.3,0.2v-0.3c-0.5-0.8-1.2-1-1.9-0.2
		c-0.1,0.1-0.2,0.1-0.3,0.1c0-0.1,0.1-0.2,0.1-0.2c0-0.2-0.1-0.4-0.2-0.4c-0.4,0-0.7,0.1-1.1,0.2v0.1c1,0.3,0.7,0.3,0,0.6
		c-0.5,0.3-1.3-0.3-1.4,0.6c0,0.1,0.1,0.3,0.1,0.4c0,0.2-0.1,0.4-0.3,0.2c-0.8-0.7,0.3-0.9,0.3-1.4c0-0.1,0.3-0.2,0.4-0.2
		c0.2,0,0.5,0.1,0.7,0.1c-0.1-0.2-0.3-0.5-0.4-0.5c-0.3,0-0.9,0-1,0.2c-0.4,1.1-1.1,0.7-1.8,0.5c-0.2-0.1-0.4-0.2-0.6-0.2
		c0,0.2-0.1,0.4-0.1,0.6s-0.1,0.4-0.2,0.5h-0.1c0.1-0.1,0.2-0.3,0.1-0.4c-0.1-0.3-0.3-0.5-0.5-0.7c0,0.1-0.1,0.3-0.1,0.4
		s-0.1,0.2-0.2,0.4c-0.1,0-0.2-0.1-0.2-0.1c0-0.6-0.4-1.4-0.8-1.1c-0.9,0.8,0.9,0.8,0.7,1.5c0,0.1-0.3,0-0.4,0.1
		c-0.4,0.3,0.1,0.4,0.2,0.4c1.6-0.7-0.1,1.1,0.7,0.9c-0.1,0.1-0.2,0.2-0.3,0.2h-1c0-0.1,0-0.1,0-0.2c0.2-0.2,0.4-0.3,0.5-0.5
		c-0.3,0.1-0.7,0.2-1,0.4c-0.1,0-0.2,0-0.2,0c0-0.2,0-0.4-0.1-0.6c-0.1-0.3-0.3-0.6-0.6-0.7s-0.6,0.1-1,0.1c-0.1,0-0.2-0.3-0.3-0.4
		c-0.1-0.2,0.9,0.1,0.2-0.3c-0.1,0-0.4-0.3-0.5-0.3c-0.2,0.2-0.3,0.4-0.4,0.6c-0.2,0.2-0.4,0.3-0.6,0.5c-0.1-0.1-0.2-0.3-0.2-0.3
		c0.1-0.1,0.3-0.3,0.5-0.4c0.1-0.1,0.1-0.2,0.2-0.3c-0.1,0-0.2,0.1-0.3,0c-0.5-0.5-0.6,0.9-1.2,0.3c-0.1-0.1-0.5-0.5-0.8-0.4
		c-0.5,0.1-0.9,0.4-1.3,0.7v-0.7c0.2,0.1,0.3,0.2,0.5,0.3c0.1,0,0.2-0.2,0.3-0.3c-0.3-0.1-0.5-0.3-0.8-0.4c-1-0.3-1.8,0.2-2.8,0.4
		c-0.9,0.2-1.9-0.2-2.9,0.4c-0.2,0.2,0.6,0.9-0.4,0.7c-0.5-0.1-1-2.1-1.4,0.1c-0.8-0.5-1.7-1-2.6-1.4c-0.1-0.1-0.2-0.1-0.3-0.2v0.5
		c0,0.2,0,0.5-0.1,0.7c0,0.1-0.2,0.1-0.3,0.2l-0.1-0.1c0.1-0.1,0.2-0.3,0.3-0.4c-0.3-0.1-0.6-0.3-0.9-0.4c0.4,0.4-0.3,1.1,0.4,1.4
		c0.1,0.1,0.4,0.1,0.5,0.3l-1-0.1c-0.9,0.1-0.1,0.2-1,0.3c-0.3,0-1.2-0.2-1.2-0.3c0.2-0.1,0.6-0.1,0.6-0.7c0-0.1-0.7,0.4-0.9,0.3
		s-0.5-0.1-0.7-0.1c0.1-0.3,0-0.3,0.1-0.6c0.2,0.1,0.3,0.2,0.5,0.2c0.1,0,0.3,0,0.4-0.1c0.1,0,0.1-0.1,0.1-0.2
		c-0.1,0-0.2-0.1-0.3-0.1s-0.1-0.1-0.2-0.2c0.2-0.1,0.4-0.3,0.6-0.4c0,0,0.1,0.1,0.2,0.2c0,0.1,0,0.3,0.1,0.5
		c0.1-0.2,0.3-0.4,0.4-0.6c-0.2-0.1-0.4-0.1-0.5-0.2c-0.4-0.4-0.9,0.5-1.4-0.1c-0.2-0.2-1,0.2-1.5,0.3c-0.1,0-0.1,0.2-0.1,0.3
		c0.2,0.5-0.4,1.2-0.8,1.4c-0.6,0.4-0.7-0.4-1.1-0.4c-0.1,0-0.1,0.3-0.1,0.4c0,0-0.1,0-0.1-0.1c-0.1-0.2-0.1-0.5-0.1-0.7
		s0.2-0.4,0.2-0.6c-0.7,0-0.9,0.3-1.6,0.3c-0.1,0-0.1,0.3-0.1,0.4c0,0.2,0,0.4-0.1,0.6c-0.1-0.2-0.8-0.7-0.8-0.9
		c0.2-0.8-0.9-0.2-0.8-0.8c-0.2,0.1-0.5,0.1-0.6,0.2c-0.4,0.3-0.5,1-0.9,1.3c0,0.1,0,0.1,0,0.2l-0.1,0.1c-0.1,0.1-0.1,0.2-0.2,0.3
		l-0.1-0.1c0,0,0,0.1-0.1,0.1c-0.8,0.1-1.9,0.1-2.6-0.5l-0.1,0.1c0.1,0.1,0.1,0.1,0.2,0.2c0.2,0.2,0.4,0.4,0.6,0.7
		c-0.3-0.2-0.7-0.3-1-0.5c-0.1-0.1,0.1-0.4,0.2-0.6c0.7,0.1,1.1,0.2,1.4,0.1c0.2,0,0.4-0.1,0.5-0.3c-0.2-0.2-0.6-0.7-0.7-0.7
		c-0.3,0.1-0.6,0.3-1.1,0.6c-0.2,0.1-0.4,0.2-0.5,0.3c-0.1,0-0.3,0.1-0.3,0.1c-0.6-1.1-1.1-0.3-1.6,0.1c-0.1,0.1,0,0.5,0.1,0.7
		c0,0.3,0,0.5,0.1,0.8c-0.5,0-0.9,0.1-1.4,0.1c0,0-0.1-0.1-0.1-0.2c0.7-0.3,0.9-0.7,0.2-1.2c-0.3-0.2-0.9-0.1-1.4-0.1
		c-0.1,0-0.2,0.1-0.2,0.1c0,0.2,0.1,0.3,0.2,0.5c-0.2-0.2-0.5-0.4-0.7-0.6c-0.1-0.1,0-0.3,0.1-0.5c0,0,0.2,0,0.3,0
		c-0.2-0.7-1.6-0.1-1.4-1.2c-0.2,1.7-1.3-0.7-1.7,0.4c-0.4-1.2-1.2,1.3-1.5-0.2c0,0-0.2-0.1-0.3-0.1c-0.6,0-1.3-0.3-1.9,0.2
		c-0.3,0.2-1-1.1-1.1,0.3c0,0.3-0.6,1.3-1.3,0.4c-0.3-0.3,0.2,1.2-0.4,0.1c-0.6-1.2-4.7-1.9-5.8-1.2c-0.6,0.4-1.2,1.4-2.2,0.7
		c-0.1-0.1-0.5,0.2-0.7,0.3c0-0.1-0.1-0.2-0.1-0.2c0.2-0.3,0.3-0.5,0.5-0.8c-0.3,0-0.7-0.1-1,0c-0.3,0.2-0.5,0.6-0.8,0.7
		c-0.6,0.2,0.5-0.8-0.4-0.7c-0.6,0.1-1.3-0.1-1.9-0.2c0,0,0.1,0,0.1,0.1c0.5,0.7,0.6,0.7,1.2,0.4h0.4c-0.1,0.1-0.1,0.2-0.2,0.3
		c-0.4,1.3-1.4-0.3-2.1,0.2c0.1,0,0.1,0,0.2,0.1h-0.3c0,0-0.1,0.1-0.1,0.2c-0.2,0.3-1.2,0.3-1.3,0.5c-0.2,0.8,0.5,0.6,1,0.5
		c0.1,0,0.3,0,0.4,0.1c0.4,0.1,0.2,0.3,0,0.3c-1.1-0.2-2.2-0.3-3.4-0.6c-0.3-0.1-0.4-0.5-0.6-0.7c0.1,0,0.1-0.1,0.2-0.1
		s0.3,0.1,0.4,0.1v-0.4c-0.2-0.1-0.5-0.2-0.6-0.2c-0.5,0.6-0.5,0.3-0.4-0.2c-0.6,0.3,0.3-1.5-0.8-0.6c-0.3,0.2-0.9,0.4-0.9,0.4
		c-0.6-1.1-0.2,0.5-0.5,0.2h-0.2c-0.3-0.8-0.9-0.5-1.4-0.4c-0.2,0-0.5,0.6-0.7,0.6c-1-0.2-1.1-0.3-1.1,0.3c0,0.5-0.2,0.8-0.7,0.6
		c-0.1-0.1,0-0.6-0.1-0.8c-0.1-0.5-0.8,0.6-0.7-0.3c0-0.1,0.1-0.2,0.1-0.3c-0.1,0-0.3,0-0.3,0c-0.1,0.1-0.1,0.3-0.1,0.4
		c0.4,0.9-0.5,0.7-0.8,1c-0.1,0.1-0.2,0.2-0.2,0.3v0.3c0.1,0.1,0.1,0.2,0.1,0.3c-0.1-0.2-0.1,0.4-0.2,0.4v2.9
		c0.2,0.4,0.4,0.7,0.5-0.4c0-0.1,0.3-0.2,0.4-0.1c0.1,0.1,0.2,0.3,0.3,0.5c0.1,0.1,0.1,0.3,0.1,0.4c0.2-0.1,0.5,0,0.6-0.2
		c0.8-0.9,1.8-0.2,2.8-0.4c-0.1,0.2-0.2,0.4-0.3,0.6c-0.3,0.5,0,0.5,0.3,0.5c0.3,0.1,0.8-0.3,0.8,0.3c0,0.2-0.6,0.4-1,0.5
		c0,0-0.2-0.3-0.3-0.3c-1.1,0.7-2-0.7-3.3-0.3c-0.5,0.2-0.8,0-1-0.2v2.3c0.5,0.5,1,1.2,1.4-0.4h0.1c0.3,0.3,0.5,0.5,0.8,0.8
		c-0.1,0.2-0.4,0.4-0.4,0.6c0,0.2,0.1,0.3,0.1,0.4c-0.5-0.1-1.2,0.5-1.4-0.5c0-0.2-0.1-0.2-0.2-0.2v1.2c0.5,0.1,1.1,0.2,1.6,0.2
		c0.2,0,0.3-0.2,0.5-0.3c0.4,0.2,1,0.3,1.2,0.7c0,0,0.1-0.1,0.2,0c-0.1-0.1-0.1-0.3-0.2-0.4c-0.2-0.3-0.6-0.6-0.6-0.7
		c0-0.1,0.1-0.1,0.1-0.2c0.4,0.1,0.9,0,1.3,0.1c0.5,0.2,0.8,0.5,1.3,0.4c0,0.1,0.1,0.2,0.1,0.2c0.1,0.2,0.3,0.3,0.4,0.5
		c-0.3,0-0.6,0.1-0.9,0.1c0-0.1,0.1-0.2,0-0.3c-0.1-0.4-0.3-0.3-0.5-0.1c-0.1,0-0.3-0.2-0.6-0.4c-0.3,0.4-0.1,0.7,0.2,0.9
		c0,0,0,0,0.1,0.1l0.1,0.1c0,0,0.1,0,0.2,0c0.3,0.1,0.7,0.1,1,0.1c0.4,0,0.8-0.2,1.2-0.2c1.1,0.9,2.1-1.2,3.1-0.2
		c0.4,0.5,0.8-0.8,1.6-0.2c0.6,0.5,1.7,0.3,2.6,0.5c1.5,0.4,3.3,0.6,4.9,0.2c0.6-0.2,1.4-0.4,2.1-0.3c0.7,0,1.4,0.1,2.1,0.1
		c1.1,0.1,2.2,0.3,3.5,0.3s2.6-0.1,4-0.2c0.3,0,0.6,0.1,1,0.1c0.5,0.1,1,0.2,1.5,0.4c0-0.2-0.1-0.4-0.1-0.5c0.3-0.2,0.5-0.4,0.8-0.5
		c0.1,0,0.2,0.1,0.4,0.1c-0.1,0.1-0.2,0.2-0.3,0.2c-1-0.3,0.2,0.6-0.3,0.6c0.1,0,0.2,0.1,0.3,0.1c0.9-0.1,2.5-0.6,2.8-0.2
		c0.8,0.9,1.4-0.7,1.9,0.2c0.5-1,1-0.9,1.8-0.2c0.6,0.5,1.7,0.3,2.7,0.5c-0.1-0.3-0.3-0.5-0.4-0.8c0-0.1,0.2-0.3,0.3-0.5
		c0.2,0.2,0.3,0.4,0.5,0.5c0.1,0.1,0.4,0,0.6,0c0.4,0-1.1,0.6,0.1,0.2c0.6-0.2-0.7,0.8,0.4,0.6c0.6-0.1,0.6-1.4,1.1-0.8
		c0.4,0.5,0.7,0.4,1.1,0.5c0.9,0.3,1.7-0.5,2.9,0c0.6,0.3,2-0.4,2.5-0.1c0.5,0.5,1.2-0.9,1.2,0.5c0.1,0,0.3-0.1,0.4-0.1
		c-0.1,0,0.1-0.4,0-0.4c-0.6-0.5,0.9,0.2,0.3-0.2c0.1,0,0.3-0.1,0.3-0.1c0.4,0.3-0.2-0.7,0.3-0.2c0.3,0.3,0.8,0.2,1.1,0.5
		c0-0.2,0.1-0.6,0.1-0.8c0-0.1,0-0.1,0.1-0.2l0.1,0.1c0.1,0.1,0.1,0.2,0.2,0.3c0.1-0.1,0.2-0.1,0.2-0.2c0-0.1-0.1-0.3-0.2-0.4
		c-0.1-0.1-0.2-0.2-0.3-0.3c0.8-0.3,1.1,0.2,1.4,0.7c0.4,0.7,1.1,0,1.5,0.4c0.1-0.1,0.2-0.3,0.3-0.4l-0.1-0.1
		c0.1-0.2-0.2-0.6-0.5-1.1h-0.9l-0.1,0.2c-0.2,0-0.4,0-0.6-0.1c0.1-0.1,0.3-0.1,0.4-0.2c0.1-0.1,0.2-0.2,0.2-0.2
		c0-0.1-0.1-0.1-0.1-0.2c0.2-0.1,0.5-0.3,0.7-0.3c0.1,0.2,0.3,0.5,0.5,0.7c0.3,0,0.6,0,0.9,0.1c-0.1,0.4-0.1,0.7-0.2,1.1
		c0.9,0.9,1.5-0.4,2.5-0.2v-0.1h0.1c0.5,0.7,1.2,0.8,2,0.5c-0.1,0-0.2-0.1-0.3-0.2c0.1,0,0.2,0,0.3,0c0-0.2,0-0.4,0-0.4
		c-0.4-0.2-1-0.7-1.3-0.2c-0.4,0.5-0.7-0.4-0.9,0l0,0l-0.1-0.1c-0.2,0.1-1-1.1-0.9,0.1c0,0.1-0.1,0.2-0.1,0.2H239v-0.1
		c0.3-0.4,0.6-1,0.7-1.4c0.3-0.2,0.4-0.1,0.4,0.1c1-0.1,1.9-0.1,2.8,0.8c0.1,0.1,0.4-0.1,0.5-0.1c-0.3-1.1,0.5-0.2,0.6-0.4
		c0.3,0.4,0.8-0.6,1.1,0.1c0.1,0.1,0.1,0.3,0.1,0.4h-0.4c-0.4,0.2-1,0.4-1.2,0.7c-0.1,0.2-0.1,0.3-0.2,0.4c0,0.1,0,0.2,0,0.2
		s0,0-0.1,0c0.5,0.2,0.9,0.2,1.4-0.2c0.4,0,2.1,0,2.6,0.4c0.4,0.5,0.8-0.2,0.8-0.2l-1.9-0.7l-1.2,0.2c-0.2-0.1-0.4-0.2-0.5-0.3
		c0.1-0.1,0.1-0.3,0.2-0.3c1.1-0.2,2.1,0.4,3.3,0.2c0.3-0.1,0.8,0.2,1.1,0c0.7-0.5,0.7-0.5,1.2,0.1c0,0,0.2,0,0.2,0.1
		c0-0.3,0-0.7,0.1-1c0.1,0.4,0.3,0.8,0.4,1.2c0.1,0.2,0.1,0.3,0.2,0.5c0.3-0.1,0.6-0.3,0.9-0.4c-0.2,0-0.4,0-0.6-0.1
		c-0.1,0-0.1-0.2-0.1-0.3c0.1-0.1,0.2-0.4,0.3-0.3c0.7,0.2,1.8-0.7,1.8,0.9h0.1c0.2-0.5,1.4,0.7,1.2-0.7c0.9-0.1,1.8,0.7,2.8,0.6
		c0.1,0,0.1,0,0.2,0c0.2,0.4,0.5,0.8,0.7,1.2c0,0,0,0,0-0.1c0.1,0.1,0.3,0.2,0.5,0.1c0.3-0.2,0.2-0.8,0.3-1.2
		c-0.4,0.2-0.7,0.8-1.1,0.1c0-0.1,0.1-0.1,0.2-0.2c0.8-0.3,1.6-0.8,2.5-0.8c0.2,0,0.5,0.8,0.6,0c0.6,0.2,0.9,0.5,0,0.6
		c-0.5,0.1-0.4,0.4-0.4,0.6c0,0.2,0.3,0.3,0.4,0.5v-0.6c0-0.1,0.1-0.1,0.1-0.2c0.1,0.1,0.4,0.2,0.3,0.3c-0.2,0.8,0.6,0.4,0.8,0.7
		c0-0.2,0-0.4,0.1-0.5c0.4-0.4,0.8-0.9,1.3-1c0.6-0.2,1.3-0.1,2,0c1.5,0.3,3.2-0.8,4.7,0v-0.1c0.4-0.3,0.9,0,1.3,0
		c-0.3,0-0.7,0.1-1.1,0.3c0,0-0.1,0-0.2,0c0.2,1.2,1,0.2,1.4,0.5c0.1,0.1,0.4,0.1,0.6,0c-0.1,0.4-0.1,0.8-0.6,0.9
		c0.5,0.2,0.8,0,0.8-0.5c0.2-0.7,0.4-0.2,0.6,0c0.3-0.5,0.1-0.6-0.2-0.6c-0.3-0.3-0.7-0.5-1.1-0.5c0.3,0,0.5-0.1,0.7-0.4
		c0.6,0.6,1.2,1.1,2.1,0.6c0.1-0.1,0.4,0,0.5,0.1s0,0.3,0,0.4c0.2-0.6,0.7-0.4,1.1-0.3c0,0,0,0,0-0.1c0-0.6-0.3-1.3,0-1.8
		c0.4-0.6,0,0.5,0.6,0.5c0.3,0,0.8,0.8,1.2,1.2c0,0,0,0.2-0.1,0.2c-0.1,0.1-0.2,0.1-0.3,0.1c0.1,0.1,0.3,0.2,0.4,0.2
		s0.3-0.1,0.3-0.2c0.4-0.8,0.9-0.7,1.5,0c0.3,0.4,1-0.4,1.4,0.3c0-0.1,0-0.2,0.1-0.3c0.3-0.3-0.8-0.5,0-0.7c0.7-0.1,1.3-0.7,1.9-1
		c0.7-0.2,0.8,1.6,1.3,1.4c0.1,0,0.1-0.3,0.2-0.4c0,0.4,0.8-0.3,0.6,0.4c0.8-0.2,0.5,1.7,1.8,0.8c0.8-0.6-0.5-1,0.1-1.1
		c0.7-0.1,1.6-0.1,2.2,0.2c0.4,0.2,0.7,0.5,1.1,0.4c-0.7-0.4,1-0.7,0.1-1.1c0,0,0-0.3,0.1-0.4h0.2c0.3-0.5,0.3,1.9,0.8,0.1
		c-0.1,0.7,0.7,1.4,1.1,1.5v-0.5c0-0.8,0.1-1.7,0.3-2.5l0.1-0.3c0,0,0.2-0.9-0.4-0.8c-0.6,0.1,0.2-1.6,0.2-1.6h-1.2l-0.9,1.4
		l-0.5-0.7c0,0,0.5-1.3,1-1.3s1.2-1.3,1.2-1.3l-0.1-1.3c0,0,0-0.8,0.3-0.9c0.4-0.1,0-1.7,0-1.7C293.4,509.7,292.7,509.3,292.2,509.3
		z M187.6,517.1c0.3,0.1,0.6,0.4,0.9,0.5c-0.3,0.3-0.6,0.6-0.8,0.9c-0.2-0.3-0.4-0.6-0.5-0.9C187.1,517.5,187.5,517.1,187.6,517.1z
		 M181.9,515.4c0.1-0.1,0.2-0.2,0.3-0.2c0.7,1,1.7-0.5,2.3,0.3c0.1,0.1-0.3,0.5-0.5,0.8C183.8,515.1,182.4,516.5,181.9,515.4z
		 M184,519.2c-0.2-0.3-0.5-0.6-0.7-1c0.2-0.1,0.5-0.2,0.7-0.3c0,0,0.1,0.2,0.2,0.3c0.4,0.6-0.6,0-0.3,0.4c0.1,0.1,0.3,0.2,0.4,0.3
		C184.2,519,184.1,519.1,184,519.2z M183.9,517.3c0.1-0.2,0.2-0.3,0.2-0.4h2.2c-0.2,0.2-0.4,0.5-0.7,0.5
		C185.1,517.5,184.5,517.4,183.9,517.3z M200.5,518.9c-0.5,0.2-0.9,0.5-1.4,0.7c0.1-0.1,0.3-0.2,0.2-0.3c-0.1-0.3-0.2-0.5-0.3-0.7
		h0.9c0.2,0,0.4,0.1,0.6,0.1C200.6,518.7,200.5,518.8,200.5,518.9z M200.1,518.3c0,0-0.2-0.1-0.3-0.1c0,0-0.1-0.2,0-0.2
		c1.1-1.1,0.5-1.2-0.5-1h-0.4c0,0.1,0,0.3,0,0.3h0.5c0.1,0,0.3,0.1,0.3,0.1c-0.1,0.3-0.2,0.5-0.3,0.9c-0.1-0.1-0.1-0.2-0.2-0.2
		c-0.4-0.5-0.5-0.6-0.6-0.7c0.4,1-1.1-0.2-0.7,0.6c0,0.1,0,0.4,0,0.4c-0.5,0.1-1.2,0.3-1.5,0.1c-0.7-0.4-0.2,0.7-0.7,0.4
		c0.2,0.6,0.3,0.6,0.5,1.3c0,0-0.3,0.1-0.4,0.2c-0.1-0.2-0.1-0.4-0.2-0.5c0-0.1,0-0.2,0-0.2c-0.7-0.2-0.4-0.4,0.1-0.6
		c0-0.3,0-0.6-0.4-0.4c-0.1,0-0.2,0-0.3-0.1c0,0,0-0.2,0-0.3c0.9,0.5,1.3-1.3,2.2-0.6c0.1,0.1,0.3,0,0.3,0c0.1,0,0.1-0.2,0.1-0.3
		c-0.1-0.1-0.2-0.2-0.3-0.2c-0.7,0.1-1.6-0.1-2.5,0.1c-0.9,0.2-0.6,1.9-1.9,1.4c0,0.5,1.6-0.1,0.7,1c-0.2,0.2-0.6,0.4-0.9,0.5
		c-0.2,0-0.5-0.1-0.8-0.2c0.1,0.1,0.1,0.4,0.1,0.5s-0.2,0.1-0.3,0.2c-0.2-0.6-0.2,0.2-0.5,0.1c-1-0.4-2-0.6-3.1-0.9
		c0.5-0.5-0.3-0.3-0.3-0.5c-0.2,0.1-0.4,0.3-0.7,0.3c-0.2,0.1-0.5,0-0.7,0c0.3-0.7,0.8-0.7,1.3-0.4c1.2-0.4,1.9,0.4,2.9,0.8
		c0.1,0.1,0.2,0.2,0.3,0.1c0.2,0,0.3-0.1,0.5-0.1c-0.1,0-0.1-0.1-0.2-0.1c-0.1-0.1-0.2-0.2-0.3-0.3c0.3,0.1,0.6,0.1,0.8,0.2l0,0
		c-0.1-0.1-0.1-0.2-0.1-0.4h0.1c0.4,0,0.7-0.1,1-0.1c-0.2,0.1-0.3-0.3-0.4-0.2l-0.7,0.2c0-0.2,0.2-0.4,0.5-0.4
		c-0.6-0.6,0.4-0.1,0.3-0.4c0,0,0.2-0.2,0.3-0.2l-0.1-0.1c-0.2,0-0.5,0-0.7-0.1c-0.3-0.1-0.5-0.2-0.8-0.3c0,0,0-0.1,0-0.2h0.9
		c0.4,0.1,0.7,0.2,1.2,0.3c-0.1-0.2-0.3-0.4-0.4-0.6c0-0.1,0-0.4,0.1-0.4c0.2-0.1,0.6-0.3,0.8-0.2c1.3,0.7,2.8-0.7,4.2,0.3
		c-0.2-0.7,0.4-0.6,0.7-0.6c0.4,0,0.9,0.4,1.4,0.3c0.9-0.2,0.5,0.7,0.9,1C200.5,517.7,200.3,518,200.1,518.3z M196.5,514.6
		c1-0.2,1.4,0,1.7,0.5c0,0-0.2,0.2-0.3,0.2C197.5,514.8,196.7,515.4,196.5,514.6z M199.5,512.8c-0.1,0-0.1,0.1-0.2,0.2
		c0.1,0.1,0.1,0.1,0.2,0.1c0.2,0.4-0.6,0.2-0.3,0.6l-0.1-0.1c-0.5-0.1-0.9,0.1-1.4-0.1c0.1,0,0.2,0,0.4-0.1c0.1,0,0.1-0.2,0-0.2
		c-0.1-0.3-0.5-0.4-0.4-0.8c-0.1,0-0.2-0.1-0.2-0.1c0,0.1-0.1,0.2-0.1,0.3s0,0.2,0.1,0.2c-0.2,0-0.4,0.1-0.5,0.1
		c0.1-0.1,0.1-0.1,0.1-0.2c0.1-0.1,0.1-0.3,0.2-0.5c-0.1,0-0.3,0.1-0.4,0.1c0.1,0.1,0.1,0.1,0.2,0.1c0,0.1-0.1,0.1-0.1,0.2
		c-0.2,0.1-0.4-0.5-0.7,0v-1c0.1,0.1,0.2,0.2,0.2,0.2c0.7,0.4,1.1-0.3,1.7-0.4l0.1,0.1c0,0.1,0,0.1,0,0.1c0,0.1-0.1,0.2-0.1,0.3
		c0.1,0,0.1,0,0.1,0c0-0.3,0.5,0.1,0.4-0.4c-0.1-0.1,0-0.4,0-0.4c0.2-0.1,0.4-0.1,0.6-0.1c-0.1,0.1-0.1,0.2-0.2,0.3
		c0.3,0.1,0.7-0.2,0.9,0.3c0.4-0.6,0.9,0.1,1.3-0.2c0.2-0.1,0.6-0.1,0.9,0c0.1,0.1,0.2,0.3,0.3,0.5c0.1,0.1,0.1,0.2,0.2,0.3
		c0.2,0.1,0.4,0.1,0.6,0.2c-0.1,0.1-0.2,0.3-0.2,0.4c-0.1,1.1-0.5-0.2-0.7,0.1c0,0.4-0.4-0.1-0.4,0.1c-0.2-0.1-0.4-0.2-0.5-0.2
		c-0.5-0.1-0.1-0.2-0.1-0.4C200.9,512.7,200.3,512.7,199.5,512.8z M204.1,519c-0.1,0.3-0.7,1-1.5,0.7c-0.4-0.1-0.5,0-0.5,0.4
		c-0.2,0.2,0.6,0.7-0.1,0.9c-0.1,0-0.3,0-0.4-0.1l-0.1-0.1c0.1,0,0.3,0.1,0.3,0c0.6-0.5-0.3-0.6-0.3-1c0-0.3-0.3-0.5-0.5-0.7
		c0.3,0.2,0.7-1,0.9,0.1c0.2-0.2,0.5-0.3,0.7-0.5c0.2-0.1,0.4,0.3,0.6,0.2C203.1,519.8,204.3,518.4,204.1,519z M206.1,519.5
		c-0.6,0.6-0.9,1-1.2,1.4v-1.6c0.8,1.2,0.6-0.8,1.1-0.4C206.2,519.2,206.1,519.6,206.1,519.5z M216.2,516c0.3-0.1,0.8,0.1,1.2,0.2
		c-0.7,0.2-0.3,0.9-0.6,0.9c-0.7,0.1,0.1-0.7-0.3-0.7C216,516.4,215.9,516.1,216.2,516z M209.8,510.5c0.4,0,0.8,0.7,1.2,1.1
		c-0.1,0.1-0.3,0.2-0.4,0.3c-0.4-0.1-0.8-0.2-1.2-0.2C210.3,511.5,208.4,510.4,209.8,510.5z M210.8,518.2c-0.1,0.2-0.2,0.2-0.2,0.2
		c-0.2,0-0.5,0-0.7-0.1C210.2,518.2,210.6,518.1,210.8,518.2z M207.9,514.4c0.9-0.2,0.1-1,0.7-1c1-0.1-0.1,0.7,0.4,0.7
		s0.7,0.3,0.4,0.4C209.1,514.7,208.3,514.5,207.9,514.4z M209,519c-0.1-0.1-0.1-0.3-0.1-0.4c0-0.1,0.1-0.3,0.2-0.3h0.4
		c0,0.1,0,0.3,0.3,0.7c0,0-0.1,0.1-0.2,0.2C209.4,519.1,209.2,519.2,209,519z M217.7,519.6c-0.2,0.1-0.4,0.1-0.6,0.2
		c0-0.2-0.1-0.5,0-0.5c-1.3,0.1-2.7,0.5-3.3,1.8c0,0.1-0.5-0.9-1.2-0.4c-0.1,0.1-0.7-0.5-1.2-0.7c-0.4-0.2-0.7-0.2-1.1-0.5
		c-0.8-0.2-0.2-0.5,0-0.8c0.2-0.2,0.8,0.1,0.4-0.2c0-0.1,0.1-0.1,0.2-0.1c-0.2,1.2,1.3-0.7,1.3,0.1c0,0.2,0.2,0.5,0.2,0.5
		c0.4-0.1,0.7-0.2,0.9-0.4c0.1,0,0.1-0.1,0.2-0.2c0.9,1.2,2.7-0.9,3.4,0.7c0.2,0.1,0.5-0.8,0.7-0.1c0.1,0.4,0.1,0.7,0.1,1.2
		C217.9,519.9,217.8,519.6,217.7,519.6z M222.1,517.2c0,0-0.3,0-0.4-0.1c-0.1,0-0.3-0.1-0.4-0.2c0.1,0.2,0.1,0.3,0.2,0.5
		c0.3,0.1,0.7,0.3,0.7,0.4c0,0.5-0.5,0.2-0.7,0.2c-1.5,0.2-0.5,0.4-0.7,1c0.6-0.4,0.5,0.3,0.8,0.4c0.1,0,0.2-0.4,0.3-0.4
		c0.5,0.1,0.2,0.2,0,0.4c-0.2,0.3,0.4,0.8-0.3,1c0.6-0.7-0.7-0.6-0.5-1.2h-1.3c-0.4-0.1-0.8-0.2-1.2-0.3c0.4-0.4,0.8-0.1,1.1,0
		c0.1,0,0.5-0.3,0.4-0.3c-0.2-0.6-0.3-0.3-0.7-0.7c-0.5-0.5-1.2-0.9-1.8-1.3l-0.1-0.1c0.1-0.1,0.2-0.3,0.2-0.3
		c1.1,0.2,2.3,0.4,2.3,1.9c0,0,0.2,0.1,0.3,0.1c-0.3-1,1.2,0.1,1-0.8c-0.6,0.3-1.3-0.1-1.3-0.4c-0.1-1,0.6,0,0.6-0.1
		c-0.2-1.2,0.9-0.8,1.4-1.1c0.1-0.1,0.2-0.2,0.4-0.3C222.4,516,222.3,516.6,222.1,517.2z M226.7,512.8c-0.1,0.7,1.3,0.2,0.9,1.1
		c0.2-0.2,0.5-0.4,0.8-0.5c0.2-0.1,0.5-0.1,0.5-0.1c0.4,0.8-0.5,0-0.4,0.3c0.1,0.2,0.3,0.3,0.7,0.6c-1.1-0.1-1.9,1-2.6-0.1
		c-0.2-0.4-0.2-0.8-0.3-1.2C226.4,512.9,226.6,512.8,226.7,512.8z M232.9,519.7c0,0.6-0.4,0.5-0.9,0.5c-0.8,0,0.3,0.5,0,0.8
		c-0.2,0.1-0.4,0.1-0.7,0.1c0.1-0.1,0.4-0.3,0.3-0.4c-0.3-0.6-0.7-0.8-1.4-0.7c-0.3,0-0.7,0.1-1,0.1c0.1,0.3,0.1,0.7,0.1,1
		c0,0-0.6,0.3-1,0.3c-0.3,0-0.7-0.1-1.1-0.2c0.2,0,0.5,0,0.6-0.1c0.3-0.5,1.3,0.2,1.1-0.7c0-0.1-0.2-0.2-0.3-0.2
		c-0.7,0.5-1.1,0.1-1.4-0.4c-0.6,0.7-1.3,0.5-1.9,0c0,0,0-0.1,0-0.2c1,0.1,0.3-0.7,1-0.8c0,0.2-0.1,0.1,0,0.2
		c0.2,0.2,0.6,0.4,0.9,0.6c0.4-0.3-0.7-0.8,0-0.9c0.4-0.1,0.9,0.8,1.4,0.9c0.4,0.1,0.5,0.2,0.6,0.4c0.1-0.2,0.2-0.4,0.3-0.6
		c0.5,0.3,0.6-0.9,1.3-0.2c0.3,0.3,1.3,0.6,2,0.1c0.1,0,0.2,0,0.2,0C233,519.4,232.8,519.6,232.9,519.7z M234.2,520
		c-0.1,0-0.3,0-0.4,0v0.1c-0.3-0.3-0.2-0.4,0.4-0.5C234.8,519.5,234.4,519.8,234.2,520z M235.3,519.7c-0.1,0-0.3,0-0.4,0.1
		c0.1-0.1,0.3-0.1,0.4-0.2V519.7z M236.5,518.8L236.5,518.8c0.4-0.3,1,0.1,1.5,0.3C237.5,519.1,237,519.1,236.5,518.8z M239.1,518
		c-1.4-0.8-2.8-0.7-4.3-0.1c-0.5,0.2-0.4,0.4-2.1-0.1l-0.1-0.1c0.4-0.2,0.7-0.5,1.3-0.8c0.2-0.8,0.9-0.2,1.8-0.2
		c0.4,0-1.3-0.2-0.4-0.8c-1.2-0.1,0.2-0.8-0.2-1.1c0.2-0.1,0.5-0.2,0.7-0.4c-0.1,0.1-0.2,0.4-0.4,0.5c0,0.1,0,0.2,0,0.2
		c0.4,0.2,1.1,0.8,1.1,0.7c0.7-0.8,1.6,0,2.3-0.4c0.1,0,0.4,0.2,0.5,0.4v0.2c-0.1,0-0.4-0.1-0.5-0.1c-0.2,0-0.6,0.1-0.8,0.4
		c-0.1,0,0,0.4,0,0.5c0.5-0.1,0.9-0.1,1.4-0.2h0.4c0,0.1-0.1,0.2-0.1,0.2C238.8,516.8,239.6,518.2,239.1,518z M240.6,518.1
		c-0.3-0.3-0.7-0.5-1-0.8c0.4-0.2,0.8-0.4,1.2-0.6c0,0.1,0.1,0.2,0.1,0.2C240.8,517.2,240.7,517.7,240.6,518.1z M242.7,512
		c-0.3,0.1-0.7,0-0.9-0.5c-0.2-0.4-0.4-1.1-1.1-0.7l-0.1-0.2c0.1-0.1,0.2-0.3,0.3-0.3c0.4,0.2,0.8,0.4,1.2,0.6c0,0,0.1,0.1,0.1,0.2
		c0-0.1,0.1-0.2,0.1-0.2v-0.6c0.3,0.3,0.7,0.5,1,0.8C242.9,511.5,242.9,511.9,242.7,512z M245.2,517.3c-0.5,0.2-1,0.8-1.6,0.1
		c0.1-0.1,0.2-0.2,0.3-0.2c0.2,0,0.5,0.2,0.6,0.1c0.3-0.4,0.4-1.1,1.2-0.4C245.5,517.1,245.4,517.2,245.2,517.3z M253.2,516.8
		c0.1,0.1,0.2,0.2,0.3,0.2c0.4,0,0.8,0.1,0.7,0.6c0.1-0.1,0.2-0.2,0.3-0.2c0.3,0.1,0.5,0.7,0.8,0v-0.3c0.1,0.2,0.3,0.3,0.4,0.5v0.3
		c-0.7-0.1-1.5,1.8-2-0.2c0-0.1-0.5-0.2-0.7-0.2c-0.8,0.5-1.4-0.3-2-0.4c-0.2,0-0.2-0.5-0.4-0.8c0.1,0.1,0.3,0.3,0.4,0.4
		c0.3,0.1,1.1,1.2,0.8-0.3c0-0.2,0.3-0.6,0.4-0.6c0.4,0.1,0.8,0.3,1.1,0.5c0.1,0,0.2,0.1,0.3,0.2c0-0.1,0.1-0.2,0.1-0.3
		c0.1-0.2,0.2-0.4,0.2-0.6c0.7,0.3,1.3,0.6,2,0.9c-0.2,0.2-0.5,0.3-0.7,0.5c-0.2-0.1-0.3-0.2-0.5-0.3c0-0.1,0.1-0.1,0.1-0.2v-0.3
		C254.3,516.4,253.8,516.6,253.2,516.8z M290.4,512.7c-0.1,0-0.3,0-0.4,0.1c-0.3,0.3-0.6,0.5-0.9,0.1c0,0.1,0,0.3-0.1,0.4
		c-0.3,0.1-0.8-0.2-0.6,0.6l0.2,0.2c-0.2-0.1-0.4,0-0.6-0.1l-0.2-0.2c0.6-0.4-0.2-2.3,1.6-1.3c0.1,0.1,0.5-0.2,0.6-0.3
		c0.2-0.9,1.2-0.8,1.7-1.1c0.1-0.1,0.5,0.2,0.8,0.3c-0.1,0-0.4,0-0.6,0c-0.3,0.1-1.6-0.1-0.4,0.8c0.1,0.1,0.2,0.6,0.1,0.7
		c-0.4,0.2-0.8,0.3-1.1,0.4c-0.1,0.1-0.2,0.1-0.4,0.1c0.1,0.1,0.1,0.2,0.1,0.3c0.1,0.2,0.1,0.4,0.3,0.6c-0.7,0.3-1.4,0.5-2.1,0.8
		c0-0.3,0.2-0.6,0.2-0.8c0.2-0.1,0.4-0.1,0.6-0.1c0.1,0.1,0,0.1,0.1,0.2l0.2,0.2C289.9,513.8,290.1,513.3,290.4,512.7z M257.2,517.5
		c0,0.1,0.1,0.2,0.3,0.3c0-0.1,0.1-0.1,0.1-0.1c-0.1,0.1-0.1,0.1-0.1,0.1c-0.8,0.2-1.3,0.1-1.4-0.5c-0.1-0.2,0.1-0.7,0.3-0.8
		c0.4-0.2,0.8-0.2,1.2-0.3c0.1,0.5-0.1,0.7-0.5,0.9C255.8,517.6,257.2,517.4,257.2,517.5z M261.2,512.9c-0.2,0-0.4-0.3-0.6-0.5
		c0.1-0.2,0.3-0.5,0.4-0.5c0.4,0,0.9,0.1,1.8,0.1C262.1,512.5,261.6,512.8,261.2,512.9z M264.2,519c-0.1-0.2-0.2-0.5-0.3-0.7
		c0.2,0,0.3-0.1,0.5-0.1c0-0.1,0-0.3-0.1-0.4c-0.1-0.1-0.2-0.3-0.3-0.3c-0.6,0-1.2,0.1-1.7,0.2l-0.1-0.1c0.2-0.5,0.5-0.9,0.7-1.4
		c0.7,0.4,1.4,0.8,2.2,1.2C264.6,518.2,264.4,518.6,264.2,519z M267.7,518c0,0.1,0.1,0.1,0.1,0.2c-0.3,0.3-0.7,0.6-1,0.9
		c-0.4-0.6-0.7,0.5-0.7,0.1c-0.1-0.5,0.3-1,0.4-1.5c0.7,0.6,1.1-1.6,1.8-0.1C268.4,517.5,267.9,517.8,267.7,518z M270.8,517.2
		c-0.5-0.1-1-0.3-1.7-0.5c0.3-0.3,0.3-0.4,0.4-0.4c0.6,0,1.1,0,1.7,0.1C271.1,516.7,270.9,517.3,270.8,517.2z M271.3,511.9
		c-0.2,0-0.5-0.2-0.6-0.1c-0.3,0.4-0.4,1.1-1.2,0.4c0.2-0.2,0.3-0.3,0.5-0.4c0.5-0.2,1-0.8,1.6-0.1
		C271.5,511.8,271.4,511.9,271.3,511.9z M274.4,518.9c-0.4-0.2-0.8-0.4-1.2-0.6c-0.1,0-0.1-0.1-0.1-0.2c0,0-0.1,0.1-0.1,0.2
		c-0.1,0.1,0,0.3,0.1,0.6c-0.3-0.3-0.6-0.5-1-0.8c0.2-0.4,0.3-0.8,0.5-0.9c0.3-0.1,0.7,0,0.9,0.5c0.1,0.4,0.3,1.1,1.1,0.7l0.1,0.2
		C274.6,518.7,274.4,518.9,274.4,518.9z M274.5,512.5c-0.1-0.1-0.1-0.1-0.1-0.2c0-0.4,0.1-0.8,0.2-1.2c0.3,0.3,0.7,0.5,1,0.8
		C275.3,512.1,274.8,512.3,274.5,512.5z M279.2,518.1c0.1-0.7-1.3-0.2-0.9-1.1c-0.3,0.2-0.5,0.3-0.8,0.5c-0.1,0.1-0.4,0.1-0.5,0.1
		c-0.4-0.8,0.5,0,0.4-0.3c0-0.2-0.3-0.3-0.7-0.6c1.1,0.1,1.9-1,2.6,0.2c0.2,0.4,0.2,0.8,0.3,1.2C279.5,518,279.3,518,279.2,518.1z
		 M279.8,512.4c-0.6,0.1-1.1,0.2-1.7,0.3c0.2-0.9-0.6-1.7,0-2.7c0.1-0.1,0.6,0,0.6,0.1c0.1,0.6,0.2,0.9,0.1,1.3
		c-0.2,0.3-0.2-0.2-0.3-0.3c-0.1,0-0.2-0.1-0.2,0c0,0-0.1,0.2,0,0.2c0.1,0.2,0.3,0.6,0.5,0.5s0.6-0.3,0.7-0.6
		c0.1-0.1,0.2-0.2,0.2-0.3c0.1,0,0.2,0.1,0.3,0.1c-0.1,0.1-0.2,0.1-0.3,0.2s-0.1,0.2-0.1,0.3l0.1,0.1c0.2-0.2,0.5-0.2,0.9-0.6
		c-0.2,0,0.1-0.1,0.2,0c0.2,0.2,0.1,0.5,0.6,0.3c0.2,0,0.4,0,0.6,0v0.1l0.1-0.1c0.4,0,0.7,0.2,1,0.2c0.1,0,0.2,0,0.3,0.1
		c0.1-0.1,0.2-0.2,0.3-0.3c0.3,0.8,1.4-0.5,1.5,0.6c-0.1,0.1-1,0.3-1.5,0.6c-0.1-0.1-0.5-0.2-0.5-0.5c0,0,0,0,0-0.1
		c-0.2,0.1-0.5,0.5-0.6,0.3C281.4,511.7,280.6,512.3,279.8,512.4z M282.6,515.6c-0.1,0-0.4,0.8-0.5,0H282c-0.3,0.2-0.5,0.5-0.8,0.7
		c0.2,0.1,0.4,0.1,0.6,0.2c0.2,0.1,0.5,0.2,0.8,0.4c-0.3,0.2-0.6,0.5-0.8,0.4c-0.5-0.1-0.9-0.4-1.4-0.6c0.3-0.3,0.6-0.7,0.9-1
		s0.6-0.6,1-0.6C283,514.9,281.9,515.7,282.6,515.6C282.8,515.4,283,515.3,282.6,515.6z M285.3,514.8c-0.4,0.9-1.2,1.1-2.2,1.1
		c0.3-0.3,0.7-0.8,1-0.8c0.5,0,0.6-1.3,1.3-0.4C285.4,514.8,285.3,514.8,285.3,514.8z M288.7,519.7c-0.3-0.7-1,0-1.3-0.4
		c-0.1-0.1,0.5-0.5,0.1-1c0.6,0.4,1.2,0.8,1.8,1.1C289.1,519.5,288.9,519.6,288.7,519.7z M291.3,518.7c0,0.1,0.1,0.2,0.1,0.3
		c-0.4-0.3-1.3,0.2-1.2-0.9c0-0.1-0.5-0.3-0.8-0.5c-0.2,0.2-0.5,0.4-0.5,0.5c0,0.3,0.1,0.5-0.2,0.5c-0.6,0-0.5-0.6-0.4-0.8
		c0.2-0.3,0.6-0.7,1.1-0.2c-0.1-0.1-0.2-0.2-0.3-0.3c0.1,0,0.1-0.1,0.2-0.1c0.6,0.6,1.8-0.2,2.2,0.8
		C291.6,518.2,291.3,518.5,291.3,518.7z"/>
	<path id="middle_2_section" d="M417.7,520.6c-0.1,0.1-0.1,0.2-0.1,0.2l0,0c-0.2-0.2-0.5-0.3-0.7-0.5c0-0.1,0-0.1-0.1-0.1
		s-0.2,0.1-0.2,0.1c0.4,0.3,0.8,0.6,1.2,0.8c0,0,0,0,0.1,0h0.1c0,0,0,0,0.1-0.1C417.9,520.9,417.8,520.8,417.7,520.6z M418.9,521.2
		c-0.2,0-0.4,0-0.6,0c-0.1,0-0.3-0.1-0.4-0.1c0.4,0.3,0.8,0.6,1.2,0.8c0.1-0.1,0.1-0.2,0.2-0.3C419.2,521.4,419,521.3,418.9,521.2z
		 M363.8,521.5c0.4,0.1,0.9,0.2,1.3,0.2c0.1,0,0.3-0.4,0.4-0.6c-0.3,0-0.6-0.1-1-0.1C364.2,521.1,364.1,521.3,363.8,521.5z
		 M388.7,520.8c-0.4,0.2-1.1,0.5-1.1,0.5c0.3,0.9,0.9-0.6,1.2,0.2c0.1-0.1,0.1-0.2,0.2-0.3C388.9,521,388.8,520.8,388.7,520.8z
		 M353.2,520.8c-0.1-0.4-0.3-0.4-0.3-0.1s0.1,0.7,0.2,1c0,0.1,0.2,0,0.4,0.1c-0.1-0.2-0.1-0.4-0.2-0.7
		C353.3,521,353.2,520.9,353.2,520.8z M389.4,520.4c0.3,0.2,0.5,0.4,0.8,0.6c0.1-0.1,0.1-0.2,0.1-0.4
		C390,520.5,389.8,520.4,389.4,520.4C389.5,520.3,389.4,520.3,389.4,520.4z M375.8,520.7c-0.2-0.2-0.8,0.1-1.2,0.3
		c0.7,0.1,1.3,0.1,2,0.2c0.1,0,0.1,0,0-0.1C376.4,521,376.1,520.9,375.8,520.7z M392.7,509.5c-0.4,0.1-0.9,0.2-1.3,0.3
		c0,0,0.4,0.2,0.8,0.4C392.7,510.3,392.7,509.5,392.7,509.5z M324,520.8C323.9,520.8,323.9,520.9,324,520.8L324,520.8z M348.1,522.3
		c0.2,0.1,0.3,0.1,0.6,0.2c0.3-0.1,0.6-0.3,0.9-0.5c-0.1-0.1-0.4-0.5-0.4-0.5C348.8,521.7,348.5,522,348.1,522.3z M343.3,521.7
		c0.5,0,0.9,0.1,1.5,0.1c0,0,0.3-0.1,0.5-0.1c-0.6-0.1-1.2-0.2-1.7-0.2C343.5,521.4,343.4,521.6,343.3,521.7z M427.1,510.5
		c0,0-0.4-0.1-0.7-0.1c0,0,0,0.3-0.1,0.3c-0.8,0.3-1.5-0.1-2.3,0.2c-0.1,0-0.1,0-0.2,0c-0.6-0.2-1.1-0.3-1.7-0.5
		c0,0-0.1,0.1-0.2,0.1c0,0,0,0.1,0.1,0.2s0.2,0.2,0.2,0.3c-0.2,0-0.5-0.1-0.5-0.1c0-0.6-0.4,0-0.9,0.2c-0.3,0.1-1.3,0.2-0.6-0.6
		c-1.6-0.5-1.8-0.4-4,0.1c-0.4,0.1,0.3,0.6-0.1,0.5c-0.1,0-0.6-0.6-0.9-0.3c-0.1,0.1-0.1,0.3,0,0.5c0,0.1,1,0.6,1,0.7
		s-1.1-0.2-1.1-0.2c-0.8-0.4-0.6-1.3-0.7-1.4c-0.3-0.1-0.5-0.2-0.6-0.2c-0.6,0-1.1,0-1.7,0c-0.5,0-1,0.1-1.5,0.1
		c0.1,0.1,0.1,0.3,0.2,0.6c0,0.2,0.5,0.3,0.7,0.2c0.8-0.4,1.3,0.3,2,0.4c0.2,0.1,0.3,0.5,0.4,0.8c-0.1-0.2-0.2-0.3-0.4-0.4
		c-0.3-0.2-1.1-1.2-0.8,0.3c0.1,0.2-0.3,0.6-0.4,0.6c-0.4-0.1-0.7-0.3-1.1-0.5l-0.1-0.1c0.2-0.1,0.5-0.2,0.7-0.3
		c-0.1-0.1-0.2-0.2-0.3-0.2c-0.4,0-0.8,0-0.7-0.6c-0.1,0.1-0.2,0.2-0.3,0.2c-0.3-0.1-0.5-0.7-0.8,0c0,0.1,0,0.2,0.1,0.4
		c0.2,0.1,0.3,0.3,0.4,0.2c0,0.1-0.1,0.1-0.1,0.2c0,0.2,0.1,0.3,0.1,0.4c0.2-0.1,0.5-0.2,0.7-0.2v0.1c0,0.2-0.1,0.4-0.2,0.6
		c-0.7-0.3-1.3-0.6-2-0.9c0.2-0.2,0.5-0.3,0.7-0.5c-0.3-0.3-0.4-0.4-0.5-0.6c0-0.1,0-0.2,0-0.3c0.2,0,0.3-0.1,0.5-0.2
		c-0.4,0.1-0.8,0.2-1.2,0.3c-0.1,0-0.2-0.3-0.3-0.4c-0.4,0.5-0.6,0.6-1.2,0.2c-1.3-0.6-2.9-0.5-4.1,0.1c-0.8,0.4-0.2-0.7-0.6-0.5
		c-0.5,0.2-1.1,0.6-1.4,0.5c-1.3-0.5-2.4,0.6-3.6,0.4c-0.5-0.1-0.8-0.9-1.5-0.5c-0.3,0.1-0.8-0.3-1.2-0.4c-0.7-0.3-1.4,0.3-2.2,0.1
		c-0.4-0.1,0.3,0.8,0,0.7c-0.3,0-0.5-1-1.2-0.6c-0.6,0.3-2.1-0.3-2.7-0.3c-0.8,0-0.8,0-1.6,0c0,0-0.2,0-0.3,0.1s-0.3,0.2-0.2,0.2
		s0.5,0.1,0.4,0.2c-0.3,0.1-0.2,0.1-0.2,0.2c0,0-0.4-0.4-0.6-0.4c-0.1,0-0.1,0.1-0.2,0.1c-0.6,0-1.5-0.3-2.1-0.5
		c-0.3-0.1-0.6,0-0.8,0.1s1.2,0.3,0.9,0.8c-0.1,0.2-0.7,0.3-0.7,0.3c-0.2-0.6-1.6-0.6-1.9-0.6c-0.6-0.1-1.1,0.1-1.6,0.2
		c-0.1,0-0.1,0.3-0.2,0.5c-0.2-0.2-0.5-0.4-0.7-0.7v0.1c-0.1,0.3,0.4,0.8-0.1,1c0-0.3-0.1-0.6-0.1-0.9c0-0.1-0.1-0.2-0.2-0.2
		c-0.7,0-1.5,0-2.2-0.1c-0.1,0-0.3,0-0.4-0.1c-0.1-0.2-0.2-0.3-0.3-0.5c-0.2,0-0.5,0-0.9,0.3c-0.6,0.6-0.4,0.1-1.2,0.5
		c0.4,0.3,0,0.3,0.8,0.5c0.1-0.1-0.1,0.5,0.1,0.4c0.1,0.1,0.6-0.5,0.7-0.5c-0.4,0.5-1.1,0.7-1.5,1.2c-0.1-0.2-0.1-0.4-0.2-0.7
		c0-0.6-0.3-0.4-0.6-0.2c-0.3,0.1-0.4,0.7-0.8,0.3c-0.1-0.1,0.9-0.4,1-0.8c0.1-0.1,0.2-0.2,0.2-0.2c0.1-0.2,0-0.4-0.5-0.6
		c-1.2,0.2-0.3,0.2-0.7,0.4c-0.4,0.2-0.8,0.2-1.3-0.2c-0.3-0.2-0.9-0.5-1-0.4c-0.8,1.1-1.6-1-2.6,0.4c0,0.1-3.6,1-0.1-0.4
		c0.1-0.1-0.2-0.2-0.7-0.2c-0.7,0-0.9,0.3-1.6,0.3c-0.4,0-1-0.3-2.2-0.2c-1.1,0.1-2.7,0.5-3,0.6c-1.6,0,0-0.3-1.6-0.5
		c-0.6-0.1-0.3,0.6-0.7,0.5c-0.6-0.2-1.2-0.3-1.8-0.5c-0.2,0-0.3,0.1-0.5,0.1c-0.1,0-0.2-0.2-0.2-0.2c-0.7,0.7-1.5-0.1-2.2,0
		c0,0.1,0,0.2-0.2,0.4c1,0.1-0.3,0.7,0.2,0.9c-0.2,0.1-0.4,0.2-0.6,0.3c0.1-0.1,0.2-0.3,0.3-0.4c0-0.1,0-0.2,0-0.2
		c-0.3-0.2-0.9-0.6-0.9-0.6c-0.6,0.7-1.4,0.1-2,0.3c-0.1,0-0.3-0.2-0.4-0.3c0,0,0-0.1,0-0.2c0.1,0,0.3,0.1,0.4,0.1
		c0.1-0.1,0.3-0.1,0.5-0.2c-0.5,0-1.1,0-1.6-0.1c-0.7-0.1-0.8,0.7-1.3,0.5s-1.1-0.9-1.3,0.2c-0.1,0-0.2,0-0.3-0.1
		c-0.5-1.3-1.5-0.9-2.4-0.9c-0.6,0-1.6,0.6-1.8,0.4c-0.8-0.9-1.1-0.4-1.6,0.3c-0.1,0.2-0.3,0.1-0.5,0.5c-0.1,0.4-0.1-0.4-0.3-0.3
		c-0.5,0.2-0.4-1.3-1.3-0.5c-0.3,0.3,0.2,1.2-0.5,0.8c-0.1-0.1-0.6,0.1-0.8-0.5c-0.1-0.5-0.7,0.2-0.9,0.6c0.2,0.3,0.4,0.9,0.6,0
		c0.2,0.1,0.3,0.3,0.5,0.4c-0.1,0.1-0.1,0.2-0.2,0.2c-0.7-0.1-1.3-0.2-2-0.3c0.1-0.1,0.2-0.2,0.3-0.3c0.2-0.1,0.3-0.1,0.5-0.1
		c0.1-0.3,0.2-0.5,0.3-0.8c-0.3,0-0.6-0.1-0.7,0c-0.2,0.2-0.3,0.7-0.5,0.8c-0.5,0.3-0.4-0.3-0.5-0.5s-0.2-0.3-0.2-0.5
		c0,0.3,0,0.7,0,1c-0.1-0.1-0.2-0.3-0.3-0.4c-0.9-0.7-1.9-0.8-2.9-0.8c-0.5,0.1,0.4,0.3,0.3,0.5c0,0.2-0.3,0.3-0.4,0.4
		c-0.5,0.3,0.1-1.4-0.8-0.5c-0.4-0.8-1-0.2-1.5-0.2c-0.9,0.1-1.7,0.7-2.7,0.2c-0.5-0.2,0.2-0.6-0.2-0.6c-0.8,0-1.1,0.2-1.9,0.1
		c0.4,1.8-1.6-1-1.3,0.2c0.1,0.2-0.2,0.5-0.3,0.7c0-0.2,0-0.4-0.1-0.5c-0.3-0.1-1-0.1-1.3-0.2c0,0.2,0.1,0.4,0.1,0.6
		c0,0.1,0,0.2,0,0.3c-0.1,0-0.2,0-0.2-0.1c-0.2-0.4-1.2,0-1.5-0.2c0,0.6,1.2,2.1,1.2,2.1c-0.4,0.4-1,0.7-1,1.2s0.7,0.3,0.7,0.8
		s-0.6,0.4-0.6,0.9c0,0.1,0.8,1.7,0.8,1.8c-0.4,0.2-0.5,1.7-0.5,2.2c0,0.6,0.3,1.8,0.3,2.4c0.5,0.1,0.8-0.4,1-0.1
		c0.1,0.1,1.2-0.2,1.5,0.3c0,0,0-0.1,0.1-0.1c0.3-0.4-0.1-1.8,1.1-1.1c0.1,0.1,0.5,0.5,0.7,0c-1-0.2-0.4-0.9-0.4-1.5
		c0-0.3-0.3-0.5-0.5-0.8c0,0-0.2,0.1-0.3,0.1c0.2,0.2,0.3,0.4,0.5,0.5c0.1,0.1,0.1,0.2,0.1,0.2c-0.1,0.1-0.3,0.3-0.4,0.4
		c-0.1-0.3-0.3-0.5-0.4-0.8c-0.3-0.8-0.2-1.2,0.8-1.2c0.6,0,0.5,0.4,0.7,0.8c0.4,0.7,0.1-0.6,0.4-0.2c0.3,0.3-0.5,0.9,0.2,1
		c0.1,0,0.2-0.6,0.4-0.8c0.1-0.1,0.4-0.1,0.6,0c0.1,0.1,0.2,0.3,0.3,0.5c-0.1-0.1-0.2-0.3-0.3-0.4c-0.1,0-0.2,0-0.2,0
		c0,0.4,0,0.7,0,1.1c0,0.2,0.1,0.3,0.2,0.5c-0.1,0-0.2,0-0.3,0.1c0-0.1,0.1-0.3,0.1-0.3c-0.3-0.2-0.7-0.3-1-0.5
		c-0.1,0.3-0.2,0.7-0.2,1c0,0.4,0,0.9,0.5,0.4c0.6-0.7,0.7-0.3,0.9,0.3l0.1,0.1c0,0,0.1,0,0.1-0.1c0-0.4,0.1-0.8,0.1-1.2
		c0.1,0.3,0.2,0.6,0.3,0.9c0.1,0.4,0,0.6-0.5,0.8c-0.2,0.1-0.7,0.2-0.9,0.4c0.4,0,1.1,0.2,1.6,0.1c0.1,0,0.2-0.3,0.2-0.5
		c0.5-0.9,1.5,0,1.8-1h0.1c0,0.7-0.4,0.5-0.5,0.8c-0.1,0.2-0.1,0.4-0.1,0.6l0.1,0.1c0.5-1.1,2.5,0.5,2.5-1.4c0-0.1,0.4-0.4,0.7-0.1
		c0.2,0.2,0.5,0.2,0.7,0.3c0,0.2-0.1,0.3-0.1,0.4c0.2,0,0.5-0.1,1-0.2c0,0,0.1,0.2,0.4,0.3c-0.1-0.3-0.1-0.6-0.4-0.8
		c-0.1-0.1-0.5-0.1-0.9-0.2c0,0.1,0,0.2,0,0.3c-0.6-0.2-0.2-0.6,0-0.7c0.2-0.1,0.5,0,0.7,0.1c0.4,0.2,0.8,0.5,1.2,0.5
		c0.5,0,0.3-0.4,0.3-0.7c0-0.1-0.1-0.1-0.1-0.1c0-0.1,0.1-0.2,0.1-0.3c0.1,0.2,0.4,0.3,0.4,0.5c-0.1,0.8,0.8,0,0.8,0.6
		c0.2-0.2,0.4-0.3,0.6-0.5c0.1-0.1,0.1-0.2,0.1-0.4c0.1,0.3,0.3,0.6,0.4,0.8c0,0-0.2,0.2-0.3,0.3c-0.2,0.1-0.3,0-0.5,0.1
		c0.2,0.1,0.4,0.2,0.5,0.3c0,0.6,0.3,0.5,0.5,0.2c0.1-0.3,0.1-0.6,0.2-1c0,0.5,0.6,0.7,0.7,1.1c0,0.2,0.2,0.4,0.4,0.5
		c0.2,0,0.5-0.1,0.5-0.2c0.1-0.2,0.4-0.5-0.1-0.7c-0.1,0-0.7-0.1-0.8-0.3c0.3,0.3,0.2-0.6,0.7-0.2c0.7,0.6,1.2-0.5,1.9-0.4
		c0,0,0.1-0.3,0.2-0.5c0.1,0.3,0.2,0.5,0.3,0.8c0,0.1,0,0.1,0,0.2c-0.1,0.1-0.2,0.1-0.2,0.2c0.2,0.1,0.4,0.2,0.7,0.4
		c0-0.2,0.1-0.7,0.1-0.7c-0.6-0.1-0.2-0.5-0.2-0.8c0,0.1,0.1,0.2,0.1,0.2c0.2,0.1,0.4,0.1,0.6,0.1c-0.3,0.7,0.1,0.8,0.6,0.9
		c0.2,0,0.4,0,0.6-0.1c-0.1,0-0.3,0-0.4-0.1c0,0-0.1-0.3,0-0.3c0.1-0.1,0.2-0.1,0.4-0.1c0.4-0.1,0.8-0.1,1.2-0.2
		c0-0.1-0.1-0.1-0.1-0.2c-0.1-0.1-0.2-0.2-0.3-0.3c0.2-0.1,0.3-0.2,0.5-0.2c0.7,0,1.2,1.1,2.1,0.5c0.3-0.2,0.7-0.2,0.8,0.4
		c0.1,0,0.1,0,0.2,0c-0.1,0-0.3,0.2-0.3,0.2c0,0.1,0.1,0.3,0.2,0.4c0.1-0.1,0.2-0.2,0.2-0.2c0.6,0.4,1.2-1.5,1.5-0.1
		c0.1,0.4,0,0.6,0.4,0.6c0.1,0,0.1-0.5,0.2-0.6c0.2-0.2,0.4-0.3,0.7-0.5l-0.1-0.1c0.1-0.1,0.4-0.3,0.4-0.2c0.4,0.3,0.7,0.7,1.1,1
		c-0.1,0-0.1,0-0.2,0s-0.3,0-0.4,0c0.1,0.1,0.1,0.3,0.2,0.4c0.7,0.3,0.4-0.9,1-0.8v-0.1c-0.1,0-0.2-0.1-0.3-0.1c-0.2,0-0.3,0-0.5,0
		c0.2-0.1,0.5-0.1,0.7-0.3c0.1-0.1,0-0.4,0-0.7c0.1,0.8,0.8,0.8,1.2,0.6c0.2-0.1,0.8,0.4,0.7-0.4c-0.1-0.5,1-0.4,0.6-1.2
		c-0.1-0.1,0.1-0.3,0.1-0.5c0.1,0.3,0.2,0.5,0.2,0.8c0.1,0.4,0.1,0.8,0.2,1.1c0.2,0,0.4-0.2,0.6-0.1c0.3,0.2,0.2,0.4-0.1,0.5
		c0.2,0.3,0.4,0.7,0.6,1c0,0.1,0.4,0,0.4-0.1c0.2-0.7,0.5-1.3,1.2-1.3c0.5,0,1.3-0.5,1.4,0.2c0.2,0.7,0.4,0.1,0.5,0.2
		c0.4-1,1.8,0.6,2.1-0.8c0-0.1,0.5-0.2,0.5-0.1c0.3,0.3,0.4,0.6,1.1,0.4c0.6-0.2-0.1-1.3,0.4-1.2c0.1-1.3,1.3-1.1,2-1.2
		c0.9-0.1,1.8,0.1,2.6,0.2c-0.9,0.1-0.2,1.3-0.9,1.6c0-0.1,0-0.3,0-0.4c-0.1,0.1-0.1,0.1-0.2,0.1c-0.4,0-0.7,0-1.1,0
		c0-0.1,0.1-0.2,0.1-0.2c0.1,0,0.3,0,0.4,0l0.1-0.1c0-0.1-0.1-0.2-0.1-0.4c-0.5,0.8-1.5-0.5-2,0.5c-0.1,0.2-0.5,0.1-0.9,0.1
		c0,0.1,0.1,0.1,0.3,0.1c0.3,0,0.7,0.5,1,0.7c-0.2,0.1-0.7,0.4-0.8,0.5s-0.1,0.3-0.1,0.4l0.1-0.1c0,0,0.2-0.2,0.2-0.1
		c-0.1,0-0.1,0.1-0.2,0.1c0.9-0.3,2.1-0.3,3.1-1c0.6-0.1-0.8,1.1,0.2,1.1c1.1,0,2.4,0.4,3.3-0.1s1.9-0.3,2.7-0.9
		c0.1-0.1,0.5,1.1,0.8,0.7c0.1,0.2,0.4,0.5,0.4,0.5c0.4-0.2,0.7-0.4,1.1-0.6c-0.1,0-0.2,0-0.3,0c0.1-0.3,0.2-0.5,0.3-0.9
		c0,0,0.1,0,0.1,0.1c-0.2-0.3-0.4-0.7-0.5-1c-0.1,0,0.2-1,0.3-1c0.3,0.1,0.6,0.9,0.8,1.1c0.1,0.1-0.1,0.6-0.2,1
		c0.5,0.3,1.1,0.5,1.5,0.8c0.2,0,0.4,0,0.6-0.1c1.1-0.6,1.6,1.2,2.4,0.7c0.6-0.4,0.9,0,1.3,0.1c0.1,0,0.2,0.2,0.3,0.3
		c0.1,0,0.2,0,0.3,0c0.4-0.7-0.3-0.5-0.5-0.8c-0.1-0.1-0.2-0.3-0.3-0.4l0.1-0.1c0.8,0.6,1.8-0.2,2.6,0.7c0.3,0.4,1.2,0.1,1.9,0.1
		c0.2,0,0.7,0,0.5-0.4c-0.2-0.5-0.3,0.1-0.4,0.1c-0.2,0-0.5-0.1-0.7-0.1c0.1-0.2,0.3-0.4,0.4-0.6c0.4-1,0.7,0.9,1.1,0
		c0.1-0.2,0.2-0.3,0.4-0.4c0,0.2-0.1,0.5-0.2,0.7c-0.1,0.3-0.2,0.5-0.3,0.7c0.1,0,0.3,0,0.4,0c0.8-0.3,1.6-0.8,2.4-0.9
		c0.2,0,0.4,0,0.6,0c0.2-0.1,0.3-0.1,0.4-0.2c0.1-0.1-0.1-0.3-0.2-0.9c0.4,0.6,0.7-0.2,0.7,0.4c0.1,0.3,0,0.7-0.1,1
		c0.2,0.1,0.3,0.1,0.4,0.2c-0.4,0.9,0.2,0.3,0.4,0.3c-0.4-0.5,0.8-0.2,0.5-0.8c-0.1-0.4,0.1-0.1,0.1,0.1c0.1-0.1,0.2-0.2,0.3-0.3
		c0.5-0.4,0.6,1.8,1.3,1.3c0.4-0.3,1.2-0.1,1.7,0.1c0.8,0.4,1.5,1.5,2.1-1c0-0.1,0.5-0.1,0.7,0c0.5,0.2,0.9,0.4,1.4,0.6
		c0.2,0.1,0.1-0.8,0.5-0.2c0.2,0.4,1.7,0.2,1.9-0.1c0.3-0.4,0.3-0.6-0.2-0.6c0.2-0.4,0.4-0.7,0.5-1.1c0.1,0.2,0.1,0.5,0.2,0.7
		c0.4,0.7,1.6,0.3,1.6,1.5c0,0.1-0.2,0.2-0.3,0.4c0.4,0.1,0.9,0.2,1.3,0.4c1.1,0.3,0.1-1,0.7-1.1c0.3,0,0.6,0,0.9,0
		c0.1,0,0.1,0.1,0.2,0.1c-0.1,0-0.1,0.1-0.2,0.1c-0.1,0.1-0.2,0.1-0.2,0.2c0.1,0,0.2,0.1,0.3,0.1s0.3,0,0.4,0c0.2-0.3,0.4-0.3,0.6,0
		c0.1,0.1,0.2,0.1,0.3,0.1c-0.1-1.3,1.8,0.3,1.5-1.3c-0.1-0.4-0.5-1.4,0.6-0.7c0-0.1,0-0.3,0-0.4c0.1,0.1,0.3,0.4,0.3,0.4
		c-0.6,0.9,0,1.2,0.6,1.6c0.2,0.2,0.3,0.6,0.5,0.9c0.8-0.8,1.9-0.9,2.5-0.2c0.7,0.9,1.3,0.1,1.9,0.4c0.2-0.4,0.8-0.6,0.5-1.2
		c0-0.1,0.4-0.4,0.7-0.6v0.1c0.1,0,0.2-0.1,0.3-0.1c0.5,0.1,0.9,0.3,1.3,0.4c-0.1,0.1-0.2,0.3-0.4,0.4c0.3,0.2,0.6,0.1,0.9,0.2
		c0.6,0,1.2,0,1.5-0.7c0,0.1-0.1,0.4,0,0.4c0.1,0.1,0.3,0.2,0.4,0.1c0.5-0.1,0.8-1,1.4-0.4c0.2,0.2,0.3-0.6,0.4,0c0,0.2,0,0.3,0,0.5
		c0.8-0.7,1.1,0.3,1.4,0.7c0.6,0.9,1.5,0.1,2.1,0.6c0.5,0.5-0.2-2.2,0.7-0.3c0.1-0.1,1-0.2,1-0.3c-0.1-0.5-1-1.1-1.2-1.6
		c0-0.1-0.1-0.3-0.1-0.4c0.1,0,0.3,0,0.4,0.1c0.3,0.3,0.9,0.7,1.1,1c0,0-0.6-0.8-0.1-1.3s-0.7-0.6-0.7-0.6c0.3,0,0.6,0,0.9-0.1
		c-0.3-0.9-0.5-1.7-0.8-2.6c0,0-1.6-0.7-0.1-0.4c1.6,0.3,0.1-0.9,0.3-2.1c0.2-1.8-0.4-1-0.6-1.9c-0.2-1,1-0.2,1-0.2
		c-0.2-0.3-0.5-0.7-0.7-1C427.1,511.1,427.1,510.9,427.1,510.5z M333.7,513.6c0.2,0.5,0.6,0.8,0.8,1.2c-0.2,0.1-0.6,0.2-0.8,0.4
		c0,0-0.1-0.4-0.2-0.5c-0.5-0.6,0.7,0.1,0.4-0.4c-0.1-0.1-0.4-0.2-0.5-0.4C333.5,513.8,333.6,513.6,333.7,513.6z M331.7,510.6
		c-0.6,0.6,0.3,0.9,0.2,1.4c-0.3-0.1-0.4-0.1-0.3,0.2c0,0.1,0.1,0.1,0.1,0.2c-0.4,0-0.7-0.2-0.5-0.9
		C331.1,511.2,330.8,510.5,331.7,510.6z M327.3,510.9c0.6,0.1,1.4,0.4,2.1,0.7c-0.3,0.3-0.6,0.6-1.1,0.6c0,0.1-0.3,0-0.6-0.1
		C328.8,510.9,327,511.6,327.3,510.9z M324.6,510.4c0.1-0.1,0.5,0,0.7,0.1c0.3,0.3,1.1,0.2,0.6,1.1c0.3-0.1,0.6-0.3,0.8-0.2
		c0.4,0.2,0.7,0.6,1.1,0.9c-0.5,0-1-0.1-1.5-0.1c-0.2-0.1-0.7,0-0.8-0.1C325.1,511.5,323.8,511.5,324.6,510.4z M322.2,514.1
		c-0.1,0.1-0.5,0-0.7-0.1c-0.3-0.3-1.1-0.2-0.6-1.1c-0.3,0.1-0.6,0.3-0.8,0.2c-0.4-0.2,0.4-1.2,0-1.5c0.5,0,1.4,0.1,1.9,0.1
		c0.2,0.1-0.8,0.6-0.7,0.7C321.6,513,322.9,513,322.2,514.1z M322,516.7c1-0.3-0.5-2,1-2c0.1,0,0.6,0.7,0.6,0.9
		c-0.7,1-0.7,1.5,2,1.3C323.5,517.2,322.5,518,322,516.7z M325.2,517.1c0.1-0.1,0.1-0.1,0.3-0.3c0.8-1.1,1.8-0.4,2.6,0.1
		c-0.1,0.3-0.3,0.7-0.4,1C326.8,517.8,326,517.4,325.2,517.1z M327.8,519c0-0.1,0.1-0.4,0.2-0.4c0.6,0.3,1.2,0.5,1.8,0.8
		c-0.1,0-0.2,0.1-0.2,0.1C329.2,518.5,328.1,521.3,327.8,519z M329.7,521.5c-0.3-0.5-0.5-1.1-0.9-1.6c0,0,0.2-0.3,0.3-0.4
		c0.3,0.1,0.9,0.4,0.9,0.5C330,520.7,329.8,521.1,329.7,521.5z M330.9,515.9c-0.5-0.1-0.8-0.4-1.1-0.6c0.4-0.5,0.6-0.7,0.9-1.1
		c0.2,0.4,0.5,0.7,0.6,1.1C331.5,515.5,331,515.9,330.9,515.9z M331.1,513.6c0.4-0.2,0.6-0.4,0.8-0.5c0.3,0,0.5,0,0.8,0
		C332.4,513.9,331.8,513.9,331.1,513.6z M331.9,516.3c0.2-0.2,0.6-0.6,0.8-0.6c0.7,0,1.4,0.1,2.1,0.1c-0.1,0.2-0.2,0.4-0.2,0.5
		C333.7,516.3,332.8,516.3,331.9,516.3z M336.1,518.4c-0.8-1.2-1.9,0.6-2.7-0.5c-0.1-0.1,0.4-0.6,0.6-0.9c0.5,1.3,2-0.4,2.5,1.2
		C336.3,518.2,336.2,518.4,336.1,518.4z M346.1,514.3c0.1,0,0.4,0.1,0.7,0.3c-0.4,0.3-0.8,0.5-1.5,1c-0.1-0.3-0.3-0.5-0.4-0.7
		C345.3,514.6,345.7,514.3,346.1,514.3z M341.7,510.7c0.4,0.1,0.8,0.1,0.9,0.2c0.1,0.2,0.2,0.8,0,0.9c-0.2,0.2-0.2,1.2-0.8,0.4
		c0.5-0.4,0-0.5-0.2-0.6c-0.1-0.1-0.4,0.7-0.5,0.1C340.9,511.4,341.5,511,341.7,510.7z M347.3,518.2c-0.5-0.6-3.9,0-3.3-1.3
		c0,0-1.1-0.6-1.5,1.3c0,0.2-2.3-1.5-2.8-1.8c-0.8-0.5,1.5,0.6,3,0.1c1-0.5,1.9-0.2,2.5,0c-0.2,0.1-0.4,0.2-0.6,0.3c0,0,0,0,0.1,0
		c0,0,0.1,0,0.2,0c0.2,0,0.6-0.1,0.7-0.1c0.3,0.3,0.6,0.6,0.6,0.6c0.1-0.1,0.8-0.2,0.8-0.6c-0.1-0.3-0.2-0.5-0.3-0.8
		c0.5,0.2,0.9,0.8,1.3,1.3C347.9,517.2,347.5,517.8,347.3,518.2z M351.9,517.5c0,0,1.1-1.3-0.3-0.7c-1.1,0.5-3.2,1.4-3.2,1.4
		s0.3-1.4,0.8-1.3c1.8,0.2,1.8-0.6,1.1-0.8c0,0-2.7,0.3-2.2,0.2c0.6-0.1,3-0.8,3-0.8c0.2,0.3,0.3,0.5,0.5,0.8c0.7,0,1.3,0,2,0
		C353,516.8,352.5,517.2,351.9,517.5z M353.7,512.9c0.2-0.3,0.5-0.7,0.6-0.7c0.5,0.2,0.8,0.5,1.2,0.8c-0.2,0.1-0.4,0.1-0.5,0.3
		C354.5,513.1,354.1,513,353.7,512.9z M355.6,518.5c0.1,0.3-0.3,0.5-0.6,0.7c0-0.1-0.1-0.2-0.1-0.3c0-0.5-1-1.3,0.3-1.5
		c0.3,0-0.8,0.6,0,0.8C355.5,518.3,355.7,518.2,355.6,518.5z M356.2,517.1c-0.5,0.1-1,0.2-1.6,0.2c0,0-0.1-0.2-0.1-0.3
		c0,0,0,0-0.1,0c0-0.1,0-0.1,0.1-0.1v0.1c0.7-0.1,1.3-0.2,1.8-0.3l0.1,0.1C356.3,516.9,356.3,517.1,356.2,517.1z M357.3,513.9
		c-0.3-0.3-0.7-0.6-1-0.9c0.2-0.1,0.3-0.3,0.5-0.4c0.4,0.1,0.7,0.2,1.1,0.3C357.2,512.9,357.2,513.4,357.3,513.9z M360.3,514.3
		c0-0.6-0.2-1-0.2-1.5c0,0,0.3-0.1,0.5-0.1c0.3,0.6,0.8,1.3,0.8,1.8C361.3,515.2,360.6,514.3,360.3,514.3z M365.8,516
		c-0.5,0.4-1.4,0.7-2.1,1c-0.2,0.1-0.5-0.1-0.7-0.2c0.4-0.4,1.1-0.8,1.7-1.1C365.4,515.7,366.1,515.8,365.8,516z M374.4,516.4
		c-0.7,0.4-1.1,0.1-1.6-0.2c0.4-0.2,0.8-0.4,1.2-0.5c0.3,0,0.5,0.3,0.9,0.5C374.6,516.3,374.5,516.3,374.4,516.4z M377,516.4
		c-0.9-0.2-2,0.1-2-1c-0.1-0.1,0.1-0.3,0.3-0.3c0.8,0.3,1.4,0.7,2.2,1.1C377.3,516.3,377.2,516.3,377,516.4z M385.2,517
		c-0.9,0.4-0.9-0.5-1.2-0.8c0.3-0.1,0.6-0.4,0.8-0.3c0.3,0.1,0.6,0.5,0.8,0.8C385.5,516.8,385.4,516.9,385.2,517z M390.3,513.5
		c-0.2,0.2-0.6,0.6-0.9,0.4c-1.4-0.3-2.5,0.4-3.7,0.8c-0.9,0.2-1.6,0.3-2.5,0.7c0.2-1.1-1.1-2.1-0.3-3.2c0.1-0.1,0.9-0.1,0.9,0
		c0.2,0.6,0.5,1.2,0.3,1.7c-0.2,0.4-0.3-0.2-0.5-0.3c-0.1,0-0.2-0.1-0.2,0c0,0-0.1,0.2,0,0.2c0.1,0.2,0.5,0.6,0.6,0.4
		c0.3-0.1,0.8-0.4,1-0.7c0.1-0.1,0.2-0.3,0.3-0.4c0.2,0,0.3,0,0.5,0c-0.1,0.1-0.3,0.1-0.4,0.2c-0.1,0.1-0.1,0.3-0.1,0.4l0.1,0.1
		c0.2-0.2,0.5-0.3,1.2-0.9c-0.2,0,0.1-0.1,0.2,0c0.3,0.2,0.2,0.4,0.8,0.3c0.8-0.2,1.6-0.1,2.4-0.1c0.2,0,0.3,0,0.5,0
		C390.4,513.3,390.4,513.4,390.3,513.5z M393.5,514.4c-0.3,0.1-0.2,0.2-1.2-0.1l-0.1-0.1c0.2-0.1,0.4-0.3,0.7-0.5
		c0.1-0.5,0.5-0.1,1-0.1c0.2,0-0.7-0.1-0.2-0.5c-0.7-0.1,0.1-0.5-0.1-0.6c0.1-0.1,0.3-0.1,0.4-0.2c-0.1,0.1-0.1,0.2-0.2,0.3
		c0,0.1,0,0.1,0,0.1c0.2,0.1,0.6,0.5,0.6,0.4c0.4-0.5,0.9,0,1.3-0.2c0.1,0,0.2,0.1,0.3,0.2v0.1c-0.1,0-0.2-0.1-0.3-0.1
		c-0.1,0-0.3,0.1-0.5,0.2c-0.1,0,0,0.2,0,0.3c0.3-0.1,0.5-0.1,0.8-0.1c0.1,0,0.1,0,0.2,0c0,0.1-0.1,0.1-0.1,0.1
		c-0.5,0.1-0.1,0.9-0.4,0.7C395,513.9,394.2,514.1,393.5,514.4z M395.8,520.7c-0.4-0.2-0.8-0.5-1.1-0.9c0,0,0.2-0.4,0.4-0.7
		c0.5,0.4,0.9,0.8,1.3,1.1C396.3,520.4,396,520.7,395.8,520.7z M400.9,519.4c-0.9,0.2-1.9,0.3-2.3-0.8c0,0-0.2,0-0.3,0
		c0.5,0.7-0.9,0.2-0.7,1c-0.2-0.1-0.6,0-0.7-0.1c-0.1-0.4,0.3-0.3,0.5-0.4c1.1-0.5,0.3-0.4,0.3-1c-0.4,0.5-0.5-0.1-0.7-0.1
		c0,0,0,0.4-0.1,0.4c-0.4,0.1-0.2-0.1-0.1-0.3c0.1-0.3-0.5-0.5,0-0.9c-0.3,0.7,0.7,0.3,0.7,0.8c0.4-0.1,0.7-0.3,1-0.4
		c0.3-0.1,0.7-0.1,1-0.1c-0.1,0.4-0.5,0.2-0.9,0.3c-0.1,0-0.3,0.3-0.2,0.3c0.3,0.3,0.3,0.1,0.7,0.3c0.5,0.2,1.2,0.4,1.8,0.5
		c0.1,0,0.1,0,0.1,0C401,519.2,401,519.4,400.9,519.4z M399.5,514c-0.2,0-0.4-0.3-0.6-0.5c0.1-0.2,0.3-0.5,0.4-0.5
		c0.4,0,0.9,0.1,1.8,0.1C400.2,513.6,399.9,513.9,399.5,514z M404.1,519.1c-0.5-0.6-0.7,0.2-0.8-0.5c-0.1-0.4,0.2-0.9,0.3-1.3
		c0.3,0.2,0.5,0.4,0.8,0.6c-0.1,0.1-0.4,0.2-0.5,0.3C403.9,518.3,404,518.6,404.1,519.1z M403.7,516.1c0.2,1.2-1,0.8-1.3,1.1
		c-0.2,0.1-0.3,0.2-0.4,0.3c0.1-0.6,0.3-1.1,0.4-1.7c0,0,0.3,0,0.4,0.1c0.1,0,0.3,0.1,0.4,0.2c-0.1-0.2-0.1-0.3-0.2-0.5
		c0.6-0.3,1.3,0.2,1.3,0.4C404.4,516.9,403.7,516,403.7,516.1z M407.6,517.2c-0.1,0.1-0.6,0-0.7-0.1c-0.2-0.4-1.1-0.3-0.6-1.1
		c-0.3,0.1-0.6,0.3-0.8,0.2c-0.4-0.2-0.7-0.6-1.1-0.9c0.5,0.1,1,0.1,1.5,0.2c0.3,0,0.7-0.1,0.8,0
		C406.9,516.2,408.2,516.1,407.6,517.2z M413.8,517.1c-0.4,0-0.9,0-1.3,0c-0.4-0.1-0.8-0.2-1.2-0.3c0.4-0.4,0.8-0.1,1.1,0
		c0.1,0,0.5-0.3,0.4-0.3c-0.2-0.5-0.3-0.3-0.7-0.6c-0.5-0.5-1.2-0.8-1.8-1.2l-0.1-0.1c0.1-0.1,0.2-0.3,0.2-0.3
		c1.1,0.2,2.4,0.3,2.4,1.6c0,0,0.2,0.1,0.3,0.1c-0.3-0.9,1.2,0.1,1-0.7c-0.6,0.3-1.3-0.1-1.3-0.4c-0.1-0.9,0.6,0,0.6-0.1
		c-0.2-1.1,0.9-0.7,1.4-1c0.1-0.1,0.2-0.2,0.4-0.3c0,0.5-0.1,1-0.3,1.6c0,0-0.3,0-0.4-0.1c-0.1,0-0.3-0.1-0.4-0.2
		c0.1,0.2,0.1,0.3,0.2,0.5c0.3,0.1,0.7,0.3,0.7,0.4c0,0.5-0.5,0.2-0.7,0.2c-1.5,0.2-0.5,0.3-0.7,0.9c0.6-0.4,0.5,0.3,0.8,0.4
		c0.1,0,0.2-0.4,0.3-0.4c0.5,0.1,0.2,0.2,0,0.4c-0.2,0.3,0.4,0.7-0.3,0.9C414.9,517.5,413.6,517.6,413.8,517.1z M415.4,519.9
		c-0.4-0.1-0.7-0.2-1.1-0.3c0.7,0,0.7-0.5,0.5-1c0.3,0.3,0.7,0.6,1,0.9C415.6,519.7,415.4,519.8,415.4,519.9z M418.1,517.8
		c-0.3,0.1-0.7,0-0.9-0.5c-0.2-0.4-0.4-1.1-1.1-0.7c0-0.1-0.1-0.1-0.1-0.2c0.1-0.1,0.2-0.3,0.3-0.3c0.4,0.2,0.8,0.4,1.2,0.6
		c0,0,0.1,0.1,0.1,0.2c0-0.1,0.1-0.2,0.1-0.2c0-0.2,0-0.4,0-0.6c0.3,0.3,0.7,0.5,1,0.8C418.3,517.3,418.3,517.8,418.1,517.8z
		 M421.3,516.6c-0.8,0.1,0.4,0.6,0,0.8c-0.2,0.1-0.5,0.1-0.7,0.1c0.1-0.1,0.3-0.3,0.3-0.4c-0.2-0.6-0.6-1-1.4-1
		c-0.3,0-0.7,0.1-1,0.1c0.1-0.3,0.2-0.5,0.3-0.7c0.4,0.3,0.6-0.9,1.3-0.2c0.4,0.3,1.3,0.6,2,0c0-0.1,0.2,0,0.3,0
		c0.1,0.1,0.2,0.3,0.3,0.4C422.6,516.4,421.9,516.6,421.3,516.6z M424.7,520c-0.2,0.2-0.3,0.3-0.6,0.5c0-0.4,0-0.7,0-0.7
		c0.2-0.2,0.4-0.4,0.6-0.4C424.7,519.4,424.7,519.6,424.7,520z M426.3,519.4c0,0.3-0.4-0.9-0.8-0.2c-0.2,0.3-0.2,0.6-0.5,0.4
		c-0.2-0.1-0.3-0.5-0.4-0.8c0.1,0,0.2,0,0.3,0C425.5,518.8,426.6,518.1,426.3,519.4z M425.6,517.5c-0.2,0.1-0.4-0.1-0.5-0.1
		c0.3-0.3,0.7-0.5,1.1-0.8c0.1,0.2,0.2,0.3,0.3,0.5C426.1,517.2,425.9,517.4,425.6,517.5z M375.4,519.9c0-0.1,0-0.1,0.1-0.2
		c-0.1-0.1-0.2-0.1-0.3-0.2C375.2,519.7,375.3,519.8,375.4,519.9z M362.7,518.8c0,0.1,0,0.1,0,0.2h0.1
		C362.8,519,362.8,518.9,362.7,518.8L362.7,518.8z"/>
	<path id="middle_3_section" d="M492,513c-0.3,0.1-0.6,0.2-0.9,0.4c0,0,0,0,0,0.1c0.4,0.1,0.7,0.3,1.1,0.4c0.1-0.1,0.3-0.3,0.3-0.4
		C492.7,513,492.3,513.1,492,513z M561,510.8c0,0-0.2,0-0.2,0.1v-0.3c0-0.2,0.1-0.4,0.1-0.6c-0.3,0.1-0.6,0.1-0.9,0.2
		c-0.1,0-0.1,0.3-0.1,0.5c-0.1-0.2-0.3-0.5-0.3-0.7c0.3-1.2-0.9,0.2-0.8-0.5c-0.8,0-1.6,0-2.4,0.1c-0.1,0-0.2,0-0.2,0.1h0.4
		c0.7,1.1-0.3,0.6-0.6,1.2c-0.1,0.3-0.9,0.5-1.1,0.4c-0.5,0-1,0.4-1.5,0.4c0.4-0.3,0.6-0.7,1-0.9c0.2-0.1,0.6,0.1,0.9,0.2
		c-0.2-0.3-0.2-0.5-0.1-0.6c-0.6-0.1-1.6-0.4-2.2-0.4c-0.5,0-1.1-0.6-1.5,0.2c-0.9-0.9-1.1,0.8-1.6,0.5c-0.2-0.1-0.4-0.2-0.4-0.4
		c-0.1-0.2,0.8-0.4,0.3-0.5c-1-0.2-2.2-0.1-3,0.7c-0.1,0.1-0.2,0.3-0.3,0.4c0-0.1-0.1-0.7-0.2-0.5s0,0.8-0.5,0.5
		c-0.2-0.1-0.3-0.6-0.5-0.8c-0.2-0.1-0.5,0-0.7,0c0.1,0.3,0.2,0.5,0.3,0.8c0.2,0,0.4,0,0.5,0.1s0.2,0.2,0.3,0.3
		c-0.7,0.1-0.4,0.7-1.1,0.8c-0.1,0-1-0.7-1.1-0.7c0.2-0.1,0.3-0.3,0.5-0.4c0.2,0.9,0.4,0.3,0.6,0c-0.2-0.4-0.8-1-0.9-0.6
		c-0.2,0.6-0.7,0.5-0.8,0.5c-0.7,0.3-0.2-0.5-0.5-0.8c-0.9-0.8-0.8,0.7-1.3,0.5c-0.1,0-0.1,0.7-0.3,0.3c-0.1-0.4-0.4-0.3-0.5-0.5
		c-0.5-0.7-0.8-1.2-1.6-0.3c-0.1,0.1-0.3,0.1-0.7,0c0.2,0.3,0.5,0.6,0.5,0.8c-0.1,0.6-1.1,0.5-1.2,0.7c-0.2-0.1-0.7-1.3-0.6-1.5
		c0.1-0.2,0.3-0.1,0.6-0.2c-0.3-0.1-0.5-0.2-0.8-0.2c-0.9,0-1.9-0.5-2.4,0.9c0,0-0.2,0-0.3,0.1c-0.2-1.1-0.5-0.4-1-0.2
		s-0.4-0.6-1.2-0.5H531c0,0-0.4,0-0.4,0.1c0,0,0,0.1-0.1,0.1c-0.2,0.1,0.1,0.3,0,0.5s0,0.4-0.1,0.6c-0.1,0.1-0.1,0.1-0.2,0.2
		c0,0,0,0.1,0,0.2c0,0.3,0.7,0.1,0.7,0.3c-0.1-0.1-1.2,0.2-1.3,0.1v-0.2c0.1-0.3,0.1-0.7,0-1.1s-0.3-0.1-0.5-0.3c0,0,0,0-0.1-0.1
		c-0.2,0-0.3,0.3-0.7,0.3c-0.6-0.1-0.9,0.6-1.5,0.2l-0.3-0.4c0.1-0.2,0.4,0,0.6-0.1c0.8-0.2-0.8,0.6,0.4,0.1c0.1,0,0.3-0.1,0.3-0.2
		c0.1-0.1,0,0.2,0.1,0.2s0.5-0.2,0.5-0.3c-0.2,0-0.2-0.3-0.4-0.3c0,0.2-1.1,0.1-1.3,0.1c-0.1,0-0.2-0.3-0.3-0.3s-0.3,0.3-0.3,0.4
		v0.1c0,0-0.1,0-0.1,0.1v0.1c-0.1,0-0.2-0.1-0.3-0.1c-0.6,0.1-1.2,0.1-1.8,0.3c-0.4,0.1-0.2-0.5-0.7-0.5c-1,0.1-0.6,0.4-1.7,0.3
		c0,0-0.1,0-0.3,0c-0.2,0.1-0.4,0.1-0.6,0.2c-0.1,0-0.1,0-0.2,0.1c0,0-0.1,0.1,0,0.2c0.5,0.1,1.1,0.2,1.6,0.4
		c-0.5,0.1-1.1,0-1.6-0.1c-0.1,0-0.3-0.1-0.4-0.1c-0.1,0-0.2-0.2-0.3-0.3v-0.1c0,0,0,0,0.1-0.1c0.2-0.1,0.5-0.1,0.7-0.2
		c-0.4-0.1-0.8-0.2-0.9-0.2h-1.2c0,0-0.4,0.3-0.4,0.1c0-0.5-1.1-0.2-1.1-0.1c-0.6,1.7,1.1,2,0.7,2.1c-0.2,0.1-0.7-0.3-1-0.2
		c-0.5,0.1-0.1-0.6-0.2-0.6c-2,0.3,0.7,0.1-0.2-1.4h0.7c-0.6-0.4-1,0.1-1.7,0.1c0.1,0.5-0.8,0.3-0.8,0.2c-0.8-1.2-1.8,0.8-2.5-0.2
		c-0.1-0.1-0.7,0.2-1,0.4c-0.5,0.4-0.9,0.2-1.4,0c-1.1-0.4-2.2-0.4-3.1-0.2c0.1,0.1,0.1,0.1,0,0.2c0,0,0,0-0.1,0h-0.4l-0.1,0.1
		c0.1,0,0.9,0.7,1.1,0.7c0,0.1-1.1,0.8-1.1,0.9c-0.2,0-0.2-0.9-0.4-0.9c-0.2,0-0.4-0.1-0.6-0.2c0.1-0.1,0.4-0.4,0.6-0.6
		c-0.6,0.1-1.3,0-2,0.1c-0.1,0-0.2,0.1-0.2,0.2c-0.1,0.3-0.1,0.6-0.1,0.9c-0.6-0.3,0-0.7-0.1-1v-0.1c-0.2,0.2-0.5,0.4-0.7,0.7
		c0-0.2-0.1-0.5-0.2-0.5c-0.5-0.1-0.2-0.9-1.7-0.4c-0.8,0.1-1.5-0.6-2.4-0.4c-0.2,0-0.4,0.1-0.7,0.1c0,0,0.1,0,0.1,0.1
		c0.2,0.2,0.3,0.4,0.5,0.5c0.3,0.2,0.9,0.6,1.2,0.9c-0.3,0-0.9-0.2-1.1-0.2c-0.4-0.2-0.5-0.2-0.9-0.3c0,0-0.4-0.3-0.4-0.4v-0.4h-0.8
		c-0.4,0,0.9-0.4,0.5-0.4c-0.3,0-1.1,0.1-1.3,0c-0.2-0.1-1.2,0.2-1.4,0.3c0.5,0,0.5,0.4,1,0.6c-0.3,0.1-0.9-0.3-0.9,0
		c0.2,0.8-0.7,1-0.9,0.2c0-0.1-0.1,0.1-0.2,0.2c-0.1,0-0.2,0.1-0.2,0.1c-0.2,0-0.4,0-0.6-0.1c0.2,0,0.4-0.1,0.6-0.1
		c0-0.1-0.1-0.2-0.1-0.2c-0.1,0,0-0.1,0.1-0.1s0.2-0.1,0.2-0.1c-0.1-0.1-0.8,0.1-1,0.1c-0.3-0.2,0.1-0.3-0.1-0.5
		c-0.2-0.3-0.8,0-1,0.1c-0.5,0.2-1.1,0.4-1.6,0.4s-1-0.4-1.6-0.2c-0.4,0.2-0.9,0.6-1.2,0.4c-0.7-0.4-1,0.3-1.5,0.5
		c-1.6,1-2.3,1-2.5,0.7c0.2,0,0.5,0,0.7-0.1c0.1,0,0.3,0,0.4-0.1c0.1,0,0.1,0,0.2-0.1c0,0,0.1-0.1,0.1-0.2s0.4-0.1,0.4-0.2l-0.5-0.3
		c-0.1,0-0.1,0.3-0.1,0.3c-0.2,0-0.3-0.3-0.5-0.3c-0.3,0-0.6,0.3-0.9,0.4c-0.3-0.4-0.4-0.7-0.9-0.6c-0.4,0.1-1-0.3-1.4-0.5
		s0.2,0.9-0.6,0.5c-1.1-0.5-0.6-1.2-2.4-0.6c0,0-0.1,0-0.1-0.1c-0.4-0.2-0.8-0.3-1.2-0.2c-0.4,0.1-0.1-0.1-1,0.5
		c0.3,0.4,0.6,0.3,0.9,0.3c-0.1,0-0.1,0-0.2,0.1c-0.7,0.3-0.7,0-1.2-0.2c-0.1,0-0.2,0.1-0.3,0.1c-0.2-0.1-0.5-0.3-0.8-0.3
		c-0.1,0-0.2,0.1-0.3,0c-0.1,0-0.2-0.1-0.3-0.1c0,0.1,0,0.1,0,0.2v0.4c0.2,0.1,0.4,0,0.5,0c0.2-0.1,0.3-0.2,0.5-0.2h0.1
		c-0.5,0.4-0.1,1-0.2,1c-0.8-0.1-1.2-1.2-2-1.4c-0.8-0.1-0.5,0-1.3,0c-0.1-0.2-0.9-0.4-1.1-0.5s-0.9-0.2-1.1-0.2
		c-0.3-0.1-0.6-0.1-0.9-0.2c-0.1,0-0.2,0-0.2,0.1v0.1c0.1,0.3,0.4,0.3,0.6,0.4c0.1,0,0.4-0.1,0.4,0c0,0,0.1,0.1,0.1,0.2h-0.1
		c-0.4,0-0.8,0.1-1.3,0.1c-0.2-0.1-0.5-0.1-0.7-0.1v-0.1c0.1-0.1,0.1-0.2,0.1-0.3c-0.3-0.1-0.6-0.1-0.9-0.1c0.1,0.1,0.3,0.2,0.5,0.3
		c0,0,0.1,0.1,0,0.1l-0.1,0.1c-0.5-0.1-1,0-1.6,0.1c0.2-0.1,0.1-0.5,0.3-0.5c-0.6,0-1,0-1.6,0.1s-1.3,0.2-1.9,0.5
		c0.1,0,0.2,0,0.3,0.1c0.1,1-0.9-0.5-0.9,0.3c0,0-0.3,0.1-0.5,0.1c0.1-0.1,0.2-0.2,0.2-0.3c0,0,0.1-0.1,0.1-0.2s-0.1-0.1-0.2-0.1
		c-0.6,0.2-1.1,0.3-1.7,0.5c-0.1,0-0.1,0.1-0.2,0c-0.8-0.2-2.1-0.5-2.7-0.7c-0.1,0-0.1-0.3-0.1-0.3c-0.2,0-0.9,0-0.9,0.1
		c-0.1-0.2-0.1,0.5-0.3,0.5l-0.5,0.8c0,0,0.9-0.4,0.5,0.4c-0.4,0.8-0.4,2.4-0.4,2.4s0.5-0.4,0.4,0.5s-0.5,1-0.5,1s-0.5,0.7,0.5,1.5
		c0.6,0.4-0.2,1-0.2,1l0,0c0.2,0.7,0.2,1.4,0.1,2l-0.2,0.8c0.3-0.3,0.9-1.4,1.2-1.7c0.1-0.1,0.2,0,0.4-0.1c0,0.1,0,0.3-0.1,0.4
		c-0.2,0.5-0.5,1-0.7,1.5c0,0.1,0.4,0.3,0.6,0.4c0.9-1.9,0.7,0.7,1.2,0.3c0.6-0.5,1.5,0.3,2.1-0.7c0.3-0.4,0.6-1.3,1.4-0.7v-0.8
		c0.1-0.7,0.2,0.1,0.4,0c0.6-0.6,0.9,0.3,1.4,0.4c0.1,0,0.3,0,0.4-0.1s0-0.3,0-0.4c0.4,1.1,1.3,1.4,2,1.4c0.5,0,1-0.5,1.5-0.8
		c0,0,0.8-0.4,0.8-0.5c0.2,0.2,0,1.6,0,1.6c-0.2,0.7,1.2-0.3,1.3,0.1c0.6-0.3,0.4,1.4,1.1,0.5c0.6-0.8,1.7-0.7,2.4,0.1
		c0.2-0.3-0.4-0.9-0.2-1.1c0.6-0.4,1.2-0.4,0.6-1.3c0,0,0.9-0.1,1-0.2v0.4c1.1-0.7,0.7,0.3,0.6,0.7c-0.3,1.6,1.7,0,1.5,1.3
		c0.1,0,0.3,0,0.3-0.1c0.3-0.3,0.5-0.3,0.6,0c0,0.1,0.2,0,0.4,0c0.1,0,0.2-0.1,0.3-0.1c-0.1-0.1-0.2-0.1-0.2-0.2
		c-0.1,0-0.1-0.1-0.2-0.1c0.1,0,0.1-0.1,0.2-0.1h0.9c0.6,0.1-0.4,1.4,0.7,1.1c0.5-0.1,0.9-0.2,1.3-0.4c-0.1-0.1-0.3-0.2-0.3-0.4
		c0-1.2,1.2-0.8,1.6-1.5c0.1-0.2,0.1-0.4,0.2-0.7c0.2,0.4,1.1,0.7,1.2,1.1c-0.5,0.1-0.5,0.2-0.2,0.6c0.2,0.3,0.8,0.5,1.1,0.1
		c0.4-0.7,0.3,0.2,0.5,0.2c0.5-0.2,1-0.9,1.5-1c0.2-0.1,0.7,0,0.7,0c0.6,2.3,0.9,1.4,2,0.6c0.5-0.3,1.3-0.4,1.7-0.1
		c0.7,0.5,0.8-0.8,1.3-0.3c0.1,0.1,0.2,0.2,0.3,0.3c0-0.2,0.3-0.4,0.1-0.1c-0.2,0.7,0.9,0.3,0.5,0.8c0.2,0,0.8,0.6,0.4-0.3
		c0.6-0.2,1.3-0.6,1.9-0.5c0.8,0.1,0.6,0.3,1.4,0.6h0.4c-0.1-0.2,0.7-0.2,0.7-0.4c-0.1-0.2-0.1-0.5-0.2-0.7c0.1,0.1,0.3,0.3,0.4,0.4
		c0.4,0.8,0.7-1.1,1.1,0c0.1,0.2,0.3,0.4,0.4,0.6c-0.2,0-0.5,0.1-0.7,0.1c-0.1,0-0.2-0.6-0.4-0.1c-0.2,0.4,0.3,0.4,0.5,0.4
		c0.7,0,1.6,0.3,1.9-0.1c0.8-0.9,1.8-0.8,2.5-1.4c0,0,0.1,0,0.1,0.1c-0.1,0.1-0.2,0.3-0.3,0.4c-0.2,0.2-0.9,0.1-0.5,0.8
		c0,0.1,0.2,0.1,0.3,0s0.2-0.3,0.3-0.3c0.4-0.1,0.7-0.5,1.3-0.1c0.8,0.6,1.4-1.2,2.4-0.7c0.5,0.2,0.9,0.1,1.4-0.3
		c0.2-0.2,0.8,0.2,1.2,0.3c0.4,0.2,0.8,0.4,1.3,0.6c0,0,0.2-0.4,0.3-0.7c0.3,0.4,0.7-0.1,0.8-0.1c0.8,0.6,1.8,0.2,2.6,0.7
		c1,0.5,2.3,0.3,3.3,0.3s-0.5-0.7,0.1-0.6c0.9,0.1,1.9,0.5,2.7,0.7c0.1,0,0.1,0.1,0.1,0.2v-0.1c0-0.2,0-0.4-0.1-0.4
		c-0.1-0.1-0.4-0.1-0.5-0.2c0.3-0.2,0.6-0.7,1-0.7c0.3,0,0.3-0.1,0.3-0.3c0.7-0.2-0.1,0.7,0.5,0.9c0.7,0.3,0.7-0.1,1.1-0.4
		c0.1-0.1,0.5,0,0.5,0.1c0.3,1.4,1.7,0,2.1,1c0.1-0.1,0.4,0.5,0.5-0.2c0.2-0.7,0.9-0.2,1.4-0.2c0.7,0,1.1-0.4,1.2,0.3
		c0,0.1,0.4,0.1,0.4,0.1c0.2-0.3,0.4-0.7,0.6-1c-0.3-0.1-0.4-0.3-0.1-0.5c0.1-0.1,0.4,0.1,0.6,0.1c0.1-0.4,0.1-0.8,0.2-1.1
		c0.1-0.3,0.2-0.5,0.2-0.8c0,0.2,0.2,0.4,0.1,0.5c-0.4,0.8,0.6,0.7,0.6,1.2c-0.1,0.8,0.5,0.3,0.7,0.4c0.4,0.1,1.1,0.2,1.2-0.6
		c0,0.2,0.2,0.3,0.3,0.5s0.1,0.4,0.4,0.5h-0.5c-0.1,0-0.2,0.1-0.3,0.1v0.1c0.6-0.2,0.3,1.1,1,0.8c0.1,0,0.1-0.3,0.2-0.4h-0.9
		c-0.1,0-0.1,0-0.2,0c0.4-0.4,0.7-0.7,1.1-1c0.1,0,0.3,0.2,0.4,0.2l-0.1,0.1c0.2,0.2,0.5,0.3,0.7,0.5c0.1,0.1,0.1,0.6,0.2,0.6
		c0.4,0,0.3-0.2,0.4-0.6c0.3-1.4,0.9,0.5,1.5,0.1c0,0,0.1,0.1,0.2,0.2c0.1-0.1,0.2-0.3,0.2-0.4c0,0-0.2-0.2-0.3-0.2h-0.7
		c0.1-0.6,0.5-0.6,0.8-0.4c0.9,0.6,1.3-0.6,2.1-0.5c0.2,0,0.3,0.1,0.5,0.2c-0.1,0.1-0.2,0.2-0.3,0.3c-0.1,0-0.1,0.1-0.1,0.2
		c0.4,0.1,0.8,0.1,1.2,0.2c0.1,0,0.3,0,0.4,0.1v0.3c-0.1,0.1-0.3,0.1-0.4,0.1c0.2,0,0.4,0.1,0.6,0.1c0.5,0,0.9-0.1,0.6-0.9
		c0.2,0,0.4-0.1,0.6-0.1c0.1,0,0.1-0.1,0.1-0.2c0,0.3,0.3,0.7-0.2,0.8c0,0,0,0.4,0.1,0.7c0.2-0.1,0.4-0.2,0.7-0.4
		c-0.1-0.1-0.2-0.1-0.2-0.2c0,0,0-0.1,0-0.2c0.1-0.3,0.2-0.5,0.3-0.8c0.1,0.2,0.1,0.5,0.2,0.5c0.7-0.2,1.3,1,1.9,0.4
		c0.5-0.4,0.4,0.5,0.7,0.2c-0.1,0.2-0.4,0.5-0.5,0.5c-0.5,0.1-0.2,0.5-0.1,0.7c0,0.1,0.6-0.2,0.7-0.2c0.2,0,0.3,0.2,0.3,0
		c0.1-0.5,0.1-0.9,0.2-1.4c0,0.3,0,0.7,0.2,1s0.5,0.5,0.5-0.2c0-0.1,0.3-0.2,0.5-0.3c-0.2,0-0.4,0-0.5-0.1c-0.1,0-0.3-0.2-0.3-0.3
		c0.1-0.3,0.3-0.6,0.4-0.8c0,0.1,0,0.3,0.1,0.4c0.2,0.2,0.4,0.3,0.6,0.5c0-0.6,0.9,0.2,0.8-0.6c0-0.1,0.3-0.3,0.4-0.5
		c0,0.1,0.1,0.2,0.1,0.3l-0.1,0.1c-0.1,0.3-0.2,0.8,0.3,0.7c0.4,0,0.8-0.4,1.2-0.5c0.2-0.1,0.5-0.2,0.7-0.1c0.1,0.1,0.6,0.5,0,0.7
		c0,0,0,0.1,0,0.2c0.3-0.1,0.6-0.1,0.8-0.3c0.3-0.3,0.7,0,0.7,0.1c-0.2,2.5,1.9,0.2,2.4,1.3l0.1-0.1c0-0.2,0-0.2-0.1-0.4
		c-0.1-0.3-0.4-0.6-0.5-0.8h0.1c1.3,1.2,1.5-0.5,1.8,0.9c0,0.2,0.1,0.3,0.2,0.3c0.4,0.1,0.8,0.1,1.3,0.1c-0.2-0.2-0.3-0.3-0.6-0.4
		c-0.5-0.2-0.5-0.2-0.5-0.7c0.1-0.3,0.2-0.6,0.3-0.9c0,0.4,0.1,0.8,0.1,1.2c0,0,0,0.1,0.1,0.1c0,0,0.1,0,0.1-0.1
		c0.2-0.6,0.2-1,0.9-0.3c0.5,0.5,0.5,0,0.5-0.4c-0.1-0.3,0.2-0.7,0.2-1c-0.3,0.2-1.1,0.3-1.4,0.5c0,0,0.1,0.2,0.1,0.3
		c-0.1,0-0.2,0-0.3-0.1c0.1-0.2,0.1-0.3,0.2-0.5v-1.1c-0.1,0-0.2,0-0.2,0c-0.1,0.1-0.2,0.2-0.3,0.4c0.1-0.2,0.1-0.4,0.3-0.5
		s0.5-0.1,0.6,0c0.2,0.2,0.3,0.8,0.4,0.8c0.7-0.1-0.1-0.7,0.2-1c0.4-0.4,0.3,1.1,0.6,0.4c0.2-0.4,0.2-0.5,0.8-0.6
		c1-0.1,0.8-0.1,0.5,0.8c-0.1,0.3-0.3,0.5-0.4,0.8c-0.1-0.1-0.3-0.2-0.4-0.4l0.1-0.2c0.1-0.2,0.3-0.4,0.5-0.5
		c-0.1,0-0.3-0.2-0.3-0.1c-0.2,0.2-0.4,0.5-0.5,0.8c-0.1,0.5,0.5,1.3-0.4,1.5c0.2,0.5,0.6,0.1,0.7,0c1.3-0.7,0.8,0.7,1.1,1.1
		l0.1,0.1c0.4-1,1.6-2.1,1.1-0.3c1.2-1.1,1.5-1.7,2-1.8l0.1-0.4c0.1-1,0.1-1.9,0-2.9l0,0c-0.1-0.4-0.1-0.7,0-1.1
		c0,0,0.7-1.2,0.4-1.6s-0.2-1.5-0.2-1.5l-0.9,0.4c0,0,0.3-1.1,0.7-1c0.4,0.1,0.3-0.6,0.3-0.6l-0.4-0.9
		C561.7,510.6,561.2,510.5,561,510.8z M462.3,514.2c-0.2,0.2-0.7-0.1-0.3,0.2c0.1-0.1,0.1,0,0.1,0.1l-0.1-0.1c0,0-0.1,0.1-0.2,0.1
		c0.2-0.9-1.1,0.6-1.1-0.1c0-0.1-0.2-0.4-0.2-0.4c-0.3,0.1-0.5,0.2-0.8,0.3c-0.1,0.1-0.1,0.1-0.2,0.2c-0.8-1-2.2,0.8-2.7-0.8
		c1.1-0.1,2.2-0.3,2.6-1.5c0-0.1,0.4,0.8,1,0.3c0.1-0.1,0.6,0.4,1,0.6c0.3,0.2,0.6,0.3,0.9,0.4C463,513.7,462.5,513.9,462.3,514.2z
		 M463.9,513.8c0.5-0.6,0.9-1,1.2-1.4v1.6c-0.8-1.2-0.6,0.8-1.1,0.3C463.8,514.1,463.9,513.7,463.9,513.8z M464.3,519.6
		c-0.1,0.1-0.4-0.4-0.6-0.6c0.4-0.1,0.8-0.2,1.3-0.4c0.1,0,0.3,0.1,0.5,0.2C465.1,519.1,464.8,519.4,464.3,519.6z M468,514.2
		c-0.2,0.2-0.5,0.4-0.7,0.5s-0.4-0.3-0.6-0.2c0-0.9-1.2,0.5-0.9-0.1c0.1-0.3,0.8-0.9,1.5-0.7c0.4,0.2,0.5,0.1,0.5-0.4
		c0.2-0.3-0.6-0.7,0.1-0.9c0.1,0,0.3,0.1,0.4,0.1c0,0,0.1,0,0.1,0.1c-0.1,0-0.2-0.1-0.3,0c-0.6,0.5,0.3,0.6,0.3,1
		c0,0.2,0.3,0.5,0.5,0.7C468.6,514,468.2,515.2,468,514.2z M477.1,513.2c0.2,0.3,0.4,0.6,0.7,0.9c-0.2,0-0.3,0-0.5,0.1
		c-0.1,0-0.1,0.1-0.1,0.1c-0.1-0.2-0.3-0.3-0.4-0.5c-0.2-0.2-0.5-0.6-0.6-0.9C476.7,512.9,477,512.9,477.1,513.2z M480.6,518.1
		c-0.4,0-0.6-0.1-1-0.1c-0.4-0.1-0.8-0.4-1.1-0.5c0.1,0.3,0.3,0.5,0.4,0.8c0.1,0.1-0.1,0.4-0.1,0.4c-0.4,0-0.8,0.3-0.9,0.1
		c-1.3-0.9-2.9,0.4-4-0.9c0.1,0.8-0.4,0.6-0.9,0.5s-0.9-0.6-1.4-0.5c-1,0.1-0.4-0.9-0.9-1.2c0.3-0.3,0.5-0.6,0.8-0.8
		c0-0.1,0.3,0,0.3,0.1v0.3c-1.3,0.9-0.8,1.2,0.4,1c0.1,0,0.4,0,0.4,0.1c0-0.1,0-0.4,0-0.4c-0.3,0-0.4,0-0.5-0.1
		c-0.1,0-0.3-0.1-0.3-0.1c0.1-0.3,0.3-0.5,0.8-0.5c0.1,0,0.1,0.1,0.1,0.3c0.1,0.1,0.1,0.3,0.3,0.4c-0.3-1,1,0.4,0.9-0.5
		c-0.1-0.1,0.1-0.4,0.1-0.4c0.5,0,1.3-0.1,1.5,0.1c0.6,0.5,0.4-0.8,0.9-0.4c-0.1,0.4-0.3,0.8,0.4,0.5c0-0.1,0.3,0,0.3,0.1v0.4
		c-0.9-0.6-1.5,1.2-2.4,0.3c0-0.1-0.3-0.1-0.4,0s-0.1,0.3-0.1,0.3c0.1,0.1,0.1,0.3,0.3,0.3c0.9-0.1,1.6,0.4,2.5,0.3
		c0.9-0.3,0.9-1.9,2.1-1.2c0-0.6-1.5-0.8-0.5-1.7c0.3-0.3,0.5,0,0.8,0.1h0.1c0.1,0,0.1,0,0.3,0c0.3,0,0.4,0.3,0.6,0.4
		c0.1,0,0.1,0,0.1,0.1c0.1,0.5,0,0.9-0.5,0.8c0.5,0.8-0.5,0-0.4,0.4c0,0-0.3,0.1-0.4,0.1c0,0.1,0.1,0.1,0.1,0.1
		c0.3,0.1,0.5,0.1,0.8,0.3c0.4,0,0.5,0.3,0.8,0.5C480.6,517.8,480.6,518,480.6,518.1z M491.2,520.9c0-0.6-0.4-1.2-0.2-1.7
		c0-0.7,0.4,0.2,0.8-0.5c-0.1,0.6-0.2,1-0.2,1.1c0.1,0.1,0.5,0.2,0.6,0.4C491.8,520.4,491.6,520.7,491.2,520.9z M496.4,516.8
		c-0.1-0.1-0.2-1.2-0.4-1.3c-0.1-0.2-0.6-1.4-0.7-1.4c-1.1-0.4-1.5,0.7-2.4,1.1c0,0-0.1-0.1-0.1-0.2c-0.1-0.1,0-0.1,0-0.2v-0.4
		c-0.1,0-0.2,0-0.2,0c0.1,0.4-0.8,0.1-0.5,0.6c0.1,0.2,0.2,0.5,0.1,0.5c-0.2,0.1-0.6,0.2-0.8,0.3c0.1-0.2,0.2-0.3,0.3-0.5
		c-0.5-0.1-1,0.4-1.4-0.2c-0.3,0.8-1.1,0.3-1.6,0.5c0,0,0,0,0.1,0.1c-0.4,0.7-0.7,0.7-0.9,0.4c0.2,0,0.4-0.1,0.5-0.3
		c0.1-0.1,0.1-0.1,0.2-0.1c-0.3-0.3-0.6-0.6-0.8-0.8c-0.2-0.1-0.7-0.3-0.8-0.2c-0.5,0.6,0.6,0.3,0.6,0.9c0,0.2,0,0.3,0.1,0.4h-0.4
		c-0.2-0.1-0.3-0.4-0.6-0.6c-0.1-0.2-0.2-0.3-0.4-0.4c-0.3-0.1-1.2-0.6-1.5-0.7c0.1-0.2,0.8,0,0.7-0.2c-0.2-1.6,0.8,0.1,1-0.4
		c-0.1-0.6,0.5,0.1,0.7-0.3c0.2,0.1,0.4,0.3,0.7,0.2c0.7,0,0.2,0.3,0.2,0.5c0.9-0.3,0.6,0.4,2.2,0.7c0.8,0.2,0.8-1.3,0.8-1.6
		c-0.1-0.1-0.3,0-0.3-0.1c-0.3-0.4,0.8-0.4,0.3-0.9c0,0,0.1,0.1,0.2,0.1c0.7,0,1.3-0.3,2-0.3c-0.2,0.1-0.3,0.1-0.5,0.2
		c0,0,0,0.3,0.1,0.3c0.2,0.4,1,0.3,0.7,1h0.4v-0.4c0-0.1-0.1-0.2-0.2-0.3c0.3,0,0.5-0.2,0.8-0.2c-0.1,0.2,0,0.3-0.1,0.4
		c-0.1,0.3-0.2,0.5-0.2,0.8c0.2,0,0.4-0.2,0.6-0.2c-0.1,0-0.3,0-0.3-0.1s0.1-0.2,0.1-0.3c0.3-0.2,1.3,1.7,1.5,0.8c0.1,0.4,0,1,0,1.4
		c0.3-0.3,0.5-0.7,0.8-0.7c0.2-0.1,0.5,0.2,0.8,0.3C497.3,515.4,497.3,517.3,496.4,516.8z M506.4,513.3c0.5,0.2,0.9,0.5,1.4,0.8
		c-0.6,0.5-1.1,0.9-1.8,0.3c-0.2,0-0.3,0-0.6-0.3C505.8,513.8,506.1,513.3,506.4,513.3z M506.8,517.4l0.3,0.4
		c-0.2,0.3-0.5,0.6-0.9,1c-0.2-0.4-0.5-0.8-0.3-0.9C506.1,517.6,506.5,517.5,506.8,517.4z M502.9,514.5c-0.2,0-0.3-0.2-0.6-0.3
		c0.9-0.6,1.7-1.1,2.6-1.7c0,0,0.3,0.3,0.3,0.5C505.2,514.7,503.9,514.4,502.9,514.5z M504.5,519.8c0.8-0.4,1.5-0.9,2.4-1.2
		c0.1,0.4,0.2,0.8,0.4,1C506.3,519.7,505.4,519.7,504.5,519.8z M507.8,516.7c-0.2,0.2-0.2,1-1.6,0.5c1.6-0.2,0.6-0.8,1.2-1.2
		c0.2,0.2,0.4,0.2,0.6-0.1c0-0.1,0-0.1,0-0.2C508.4,516,508.6,516.3,507.8,516.7z M517.6,516.3c-0.7-0.2-0.3,1.2-1.1,0.8
		c-0.1,0,0-0.7,0-0.7c0.6-0.4,0.9-0.6-0.8-1.2C517,515.7,517.6,515.5,517.6,516.3z M513.8,510.8c0.1,0,0.1,0,0.2,0h0.1
		c0.1,0.1,0.3,0.2,0.4,0.3h-1C513.6,511,513.7,510.9,513.8,510.8z M509.4,512.4c-0.1,0.1,0.4,0.6,0,0.6c-0.2,0.1-0.4-0.6-0.6-0.9
		c0.2-0.6,0.2-1.1,0.3-1.1c0.2-0.1,0.6-0.2,0.6,0.1c0.1,0.3,0.8,0.4,0.1,1C509.6,511.5,509.4,512.3,509.4,512.4z M511.2,516.1
		c0,0.1-0.2,0.2-0.3,0.1c-0.4-0.4-0.8-0.9-1.2-1.3h0.2C509.9,515.8,511.7,514.5,511.2,516.1z M510,514.1c0.2-0.3,0.5-0.5,0.7-0.7
		c0.1,0.5,0.1,0.9,0.1,1.3c0,0-0.3,0.1-0.4,0.1C510.3,514.5,509.9,514.2,510,514.1z M511.7,511.9c-0.4-0.3,0.1,0.3-0.3,0.2
		c-0.3-0.1,0.3-0.6-0.3-0.5c-0.1,0-0.1,0.4-0.2,0.5c-0.1,0.1-0.3,0.2-0.5,0.2s-0.2-0.1-0.3-0.2c0.1,0.1,0.2,0.1,0.3,0.1
		c0,0,0.1,0,0.2-0.1c-0.1-0.2-0.1-0.4-0.2-0.6c-0.1-0.1-0.1-0.1-0.2-0.2c0.1-0.1,0.1-0.1,0.2-0.1c0,0.1,0,0.2,0,0.2
		c0.3,0,0.6,0,1.1-0.2c-0.1-0.2,0-0.4,0-0.6c0.8-0.1,0.4,0.5,0.6,0.7c0.1,0.1,0.3,0.3,0.5,0.3c0,0.1,0.1-0.1,0.2-0.1
		c-0.2,0-0.4-0.1-0.5-0.2l-0.1-0.1c0-0.1,0.2-0.2,0.3-0.3c0.1,0.1,0.3,0.2,0.5,0.3c0.4,0.4,0.4,0.7-0.4,0.9
		C511.9,512.2,511.9,512.1,511.7,511.9z M512.7,513.9l0.6-0.4c0.4,0.4,0.8,0.8,1.2,1.2c-0.1,0-0.1,0-0.3,0.1
		C513.2,515.2,513,514.5,512.7,513.9z M517.8,519.3c-0.5-1-1.5,0.2-2-0.5c0,0.1-0.1,0.2-0.1,0.4l0.1,0.1h0.4c0,0,0.1,0.1,0.1,0.2
		h-1.1c-0.1,0-0.1-0.1-0.2-0.1v0.4c-0.7-0.3,0.1-1.5-0.9-1.6c0.9-0.1,1.8-0.4,2.5-0.2c0.9,0.1,2.1-0.1,2.1,1.4
		C518.3,519.4,517.8,519.5,517.8,519.3z M518.4,517c-0.4-0.3-0.9-1.6-1.2-2c-0.2-0.1,0.2-0.2,0.6-0.3c0.3,0.4,0.7,0.8,1,1.1
		C518.6,515.9,518.4,517,518.4,517z M521.4,513.2c-0.3,0-0.8,0.7-0.8,0.1c-0.1-0.5,0.3-1,0.6-1.5c0.1,0.1,0.3,0.1,0.3,0.1
		C521.5,512.5,521.4,512.8,521.4,513.2z M525,511.5c0.1,0.1,0.3,0,0.5,0.1c-0.7,0.9,1,0.3,1.6,0.3c-0.2,0-0.7,0.4-1,0.4
		c-0.4,0-0.7,0.3-1.1,0.3c-0.1,0,0.5-0.9-0.9-0.6C524,511.6,524.6,511.6,525,511.5z M523.9,512.6c-0.1,0-0.2,0.3-0.4,0.3
		c0.1,0.2,0.1,0.1-0.5,0c-0.3,0.1-0.5,0.2-0.8,0.1c0,0-0.1-0.4,0.1-0.4c0.2,0,0.4,0,0.6,0.1c0.2,0,0.4-0.1,0.6-0.1
		c0-0.1-0.1-0.4-0.4-0.8c0,0,0.1-0.1,0.2-0.2c0.2,0.2,0.5,0,0.6,0.3c0.1,0.4,0.7,0,0.7,0.1C524.7,512.1,524,512.4,523.9,512.6z
		 M526.3,517.7c0,0.1-0.1,0.3-0.1,0.4c-0.2-0.4-0.6-0.8-0.7-1c-0.1-0.4,0.2-0.3,0.4-0.4c0.9-0.3-0.3-1.3,0-1.1
		C527.3,515.8,526.3,517,526.3,517.7z M526.8,515.3c-0.6,0-1.1-0.1-1.8-0.3c-0.1,0-0.1-0.3-0.2-0.4c0.7,0,1.3,0.1,2.1,0.3
		C526.9,515.2,526.8,515.3,526.8,515.3z M528.2,517c-0.3,0.3-0.8,0.3-1.2,0.4c-0.1-0.6,0.1-0.9,0.5-1.1c1.3-0.6-0.1-0.4-0.1-0.5
		s-0.1-0.3-0.3-0.4c0.8-0.3,1.3-0.1,1.4,0.6C528.5,516.2,528.4,516.8,528.2,517z M535.1,512.7c0.3,0.1,0.7,0.3,1,0.4
		c-0.1,0.2-0.2,0.3-0.3,0.6c-0.6-0.2-0.9-0.4-1.2-0.8C534.8,512.8,535,512.6,535.1,512.7z M537.3,517.4c-0.2-0.4-0.6-1.1-0.4-1.1
		l0.1-0.1c0,0-1.4,1.8-2.5-0.5c-0.2,0-1.6,0.9-1,0.3c0.1,0,0.6-0.3,0.5-0.3c-0.8-0.1-1.8-0.4-1.7-0.4c0,0-1.6,0.1,0.2-0.5
		c0.8-0.3,3.8,1.6,4.2,0.9c0.3-0.5,1.1,0.8,1.3,0.7c0.1-0.1-0.1-0.9,0-1.1c0,0,0.1,0,0.1-0.1c0.1,0,0.4,0.4,0.7,0.8
		C538.3,516.3,537.8,516.8,537.3,517.4z M538,514.4c-0.1,0-0.2-0.1-0.3-0.1c-0.2,0-0.3,0.1-0.6,0.1c0.1,0,0.1,0.1,0.2,0.1
		c0.1,0.1,0.2,0.2,0.3,0.3c-0.3-0.1-0.7-0.1-1.1-0.2c-0.1,0-0.1-0.3,0-0.6c0-0.1,0.2-0.1,0.3-0.2c0.2,0.7,0.3-0.2,0.6-0.1
		c1.1,0.4,2.2,0.7,3.2,1c-0.6,0.6,0.3,0.3,0.3,0.6C539.8,515.8,539,514.9,538,514.4z M541.7,513.9c0.6-0.2,1-0.6,1.5-0.8
		c0,0.1-0.2,0.2-0.2,0.3c0.1,0.3,0.2,0.1,0.3,0.5c-0.3,0-0.7,0.4-1.1,0.3c-0.2,0-0.4-0.1-0.6-0.1
		C541.7,514.1,541.7,513.9,541.7,513.9z M543.2,516.8c-0.6-0.3-1.2-0.7-1.8-1.1c0.2-0.1,0.4-0.2,0.6-0.3c0.3,0.7,1,0,1.3,0.4
		C543.4,515.9,542.8,516.4,543.2,516.8z M544,514.5c-1-0.1-0.3,0.6-0.4,1c-1.4-0.7,0-0.7,0-1.4c0.1,0.8,0.5-0.1,0.8,0
		C544.3,514.4,544.1,514.5,544,514.5z M544.3,514.7l0.3-0.2c0.4,0.4,1.3-0.2,1.5,0.7C545.1,515.5,544.7,515.3,544.3,514.7z
		 M546.4,514.8c0,0-0.1-0.3-0.2-0.4c0.1-0.1,0.3-0.2,0.5-0.2s0.2,0.1,0.2,0.1c0.3-0.8,0.4-0.6,0.8,0
		C547.1,514.4,547.1,514.6,546.4,514.8z M548.5,511.7c0-0.1,0.1-0.1,0.1-0.2c0-0.3-0.1-0.3-0.3-0.2c-0.1-0.5,0.8-0.8,0.2-1.4
		c0.9-0.1,0.5,0.6,0.5,0.9C549.1,511.4,549,511.6,548.5,511.7z M551.4,520.9c-0.1-0.3-0.2-0.7-0.3-1.1c0-0.1,0.5-0.2,0.8-0.4
		c0.1,0.1,0.3,0.3,0.3,0.3C552,520.1,551.7,520.5,551.4,520.9z M551.5,519l-0.2-0.1c0.6-0.2,1.2-0.4,1.8-0.6c0.1,0,0.2,0.2,0.2,0.3
		C552.9,520.4,551.9,518.2,551.5,519z M553.1,511c-0.1,0-0.3,0.1-0.4,0.1c-0.2-0.1-0.5-0.3-0.7-0.4c0.5-0.1,1-0.3,1.4-0.4
		C553.6,510.8,552.5,510.3,553.1,511z M553.9,517c-0.1,0.1-0.4-0.6-0.3-0.7c0.6-0.3,1.2-0.8,1.9,0c0.1,0.1,0.1,0.1,0.2,0.2
		C555.1,516.7,554.5,516.9,553.9,517z M554.7,514.9c0.3-0.7,0.6-1.1,0.8-1.5c0.1,0.2,0.2,0.5,0.3,0.7c-0.2,0-0.3,0.1-0.5,0.1
		c0,0.1,0,0.3,0.1,0.4c0.1,0.1,0.2,0.3,0.3,0.3c0.6,0,1.1-0.1,1.7-0.2c0.1,0,0.1,0.1,0.1,0.1c-0.2,0.5-0.5,1-0.6,1.3
		C556.1,515.7,555.5,515.3,554.7,514.9z M556.7,516.4c1.9,0.3,1.9-0.1,1.4-0.8c0,0,0.3-0.6,0.4-0.6c1,0.1-0.1,1.2,0.6,1.4
		C558.7,517.3,558.2,516.8,556.7,516.4z M560.2,512.2c-0.2,0-0.3,0.8-0.6,0.3c-0.1-0.3-0.1-0.7-0.1-1c0.1,0.2,0.2,0.5,0.2,0.5
		c0.2-0.1,0.3-0.1,0.5-0.2C560.2,511.9,560.3,512.1,560.2,512.2z M560.6,511.8c-0.1,0-0.1,0-0.1-0.1c-0.1,0-0.2,0.1-0.3,0.1
		c0-0.1,0-0.2,0.3-0.1h0.1c0.1-0.1,0.3,0,0.5,0.1C560.8,511.8,560.6,511.9,560.6,511.8z"/>
	<path id="small_middle_section" d="M143.5,583.9c0.1,0.1,0.2,0.2,0.3,0.2c0,0,0.1-0.1,0.2-0.1c-0.1-0.1-0.3-0.2-0.4-0.3
		C143.5,583.7,143.5,583.8,143.5,583.9z M139.3,583.6c0.7-0.2,1.2,0.5,1.9,0.2C140.8,583.3,140.3,583.3,139.3,583.6z M142.7,583.7
		l0.1,0.1c0,0,0,0,0.1-0.1l-0.1-0.1C142.8,583.7,142.8,583.7,142.7,583.7z M143.4,582.4C143.5,582.4,143.5,582.4,143.4,582.4
		C143.5,582.4,143.5,582.4,143.4,582.4C143.5,582.4,143.5,582.4,143.4,582.4z M141.6,583.9l0.1-0.1v-0.1
		C141.6,583.7,141.6,583.7,141.6,583.9C141.5,583.7,141.6,583.8,141.6,583.9z M146.4,579.9C146.4,579.9,146.4,579.8,146.4,579.9
		c-0.1,0-0.2,0-0.2,0H146.4C146.4,580,146.4,579.9,146.4,579.9z M138.5,580.1C138.5,580.1,138.4,580.1,138.5,580.1
		c-0.1,0-0.2,0-0.2,0H138.5C138.4,580.2,138.5,580.2,138.5,580.1z M157.6,582.8c-0.1,0-0.3-0.1-0.3-0.2c0-0.1,0.1-0.2,0.2-0.3
		c0-0.1,0.1-0.1,0.2-0.1c0.2-0.1,0.5-0.1,0.5-0.2c0-0.2-0.1-0.5-0.2-0.6c-0.2-0.3-0.5-0.5-0.9-0.4c0,0,0-0.1-0.1-0.2
		c0.3,0,0.6-0.1,0.9-0.1c-0.2-0.2-0.5-0.4-0.7-0.4c-0.4,0-0.9,0.1-1.2,0c-0.4-0.1-0.8-0.2-1.3-0.2c-0.4,0-0.9,0.2-1.3-0.1
		c-0.5-0.4-0.8,0.2-1.2,0.2c-1-0.1-2,0-3-0.1c-0.3,0-0.5-0.1-0.7,0.2c-0.1,0.1-0.2,0.2-0.4,0.4c-0.2-0.3,0.1-1.3-0.7-0.5l-0.1-0.1
		c-0.3-0.3-0.4-0.3-0.6,0.2c-0.1,0.2-0.4,0.3-0.5-0.1c-0.3,0-0.7,0.2-0.9,0.1c-0.5-0.3-0.9-0.3-1.4,0.1c-0.1,0.1-0.2,0-0.3,0
		c-1-0.2-1.7-0.2-2.6-0.1c-0.3,0-0.7,0.2-0.8,0.1c-0.5-0.4-0.7-0.2-0.9,0.2c-0.1,0.3-0.3,0.3-0.5,0.2s-0.3-0.2-0.5-0.4
		c-0.3,0.1-0.7-0.2-0.8,0.4c0,0.2-0.6,0.2-0.7-0.1c-0.1-0.4-0.3-0.4-0.6-0.2c-0.2,0.2-0.3,0.1-0.5-0.1c-0.3-0.2-0.4-0.1-0.5,0.2
		c0,0.1-0.2,0.1-0.6,0.2h0.1c0.1,0,0.2,0.1,0.2,0.1c-0.1,0-0.1,0.1-0.2,0.1c-0.2,0-0.4,0-0.5,0c0-0.1,0-0.1,0.4-0.2
		c-0.1,0-0.1,0,0,0c0.4-0.4,0.2-0.5-0.2-0.4c0,0.1-0.1,0.1-0.1,0.2c0-0.1-0.1-0.1,0-0.1c0,0,0.1,0,0.2-0.1c-0.1-0.3-0.4-0.3-0.4-0.1
		c-0.1,0.3-0.2,0.6-0.5,0.9c0,0.1-0.1,0.1-0.1,0.2c0-0.1-0.1-0.1,0-0.1c0,0,0.1,0,0.2-0.1c-0.1-0.5-0.6,0-0.7-0.4
		c-0.1-0.4-0.6-0.7-0.8-0.5c-0.5,0.3-0.8-0.2-1.2,0c-0.1,0-0.2,0.1-0.2,0.1c-0.2,0.4-0.5,0.2-0.9,0.2c-0.2,0-0.8-0.6-0.7,0.3
		c0,0-0.3,0.1-0.4,0.2c-0.1,0.1-0.1,0.2-0.1,0.3s0.2,0.2,0.3,0.2c0.3-0.2,0.6-0.1,0.9-0.1c0.9,0,1.2,0,1.7,0.6c0.1,0.1,0,0.3,0,0.4
		c-0.1,0-0.2-0.1-0.3-0.1c-0.4,0-0.4-0.3-0.5-0.5c-0.2-0.3-0.4,0.4-0.7,0.1c-0.1-0.1-0.4,0.2-0.6-0.1l-0.3,0.1
		c0,0.2,0.2,0.4,0.1,0.6c0,0.2-0.3,0.4-0.3,0.6c0,0.1,0.3,0.3,0.4,0.4c0.3,0.6,0.3,0.6,0.5,0.6c0.5-0.1,1,0.2,1.4-0.2
		c0.5,0.2,1,0.2,1.5,0.3c0.3,0,0.4-0.5,0.7-0.1c0.1,0.1,0.5,0.1,0.7,0.1c0.3-0.1,0.4-0.1,0.7,0c0.2,0.1,0.5-0.3,0.6-0.2
		c0.8,0.4,1.6,0.1,2.4,0.2c0.4,0,0.9,0.2,0.8-0.5c0,0,0.2-0.1,0.3-0.2c0.3-0.1,0.5-0.3,0.8-0.2c0.5,0.1,1,0.1,1.5,0.5
		c0.1,0,0.2,0,0.3,0s0.1-0.1,0.2-0.1c0.1,0,0.3,0,0.4-0.1c-0.1,0.1-0.1,0.3-0.2,0.4h1c0.1-0.1,0.2-0.2,0.3-0.2
		c0.4,0,0.9,0.3,1.1,0.1c0.5-0.4,0.7,0.2,1.1,0.1c0.3-0.1,0.8-0.2,0.8,0.4c0.2,0,0.4,0,0.7,0c-0.6-0.6,0.5-0.3,0.4-0.6
		c0.2-0.1,0.4,0,0.4,0.2c0,0.1-0.1,0.5,0.2,0.3s0.3,0.1,0.6,0c0.5-0.2,1-0.4,1.5-0.5c0.3-0.1,0.6-0.3,0.8,0.3c0.1,0.2,0.6,0.5,0.9,0
		c0.1-0.1,0.4-0.1,0.7-0.2c0.1,0,0.3-0.1,0.3-0.2c0.1-0.2,0.1-0.3,0.3-0.1c0.1,0.1,0.2,0.3,0.4,0.3c0.1,0,0.3-0.1,0.3-0.1
		c0.2,0.1,0.5,0.3,0.7,0.4c0.2,0,0.5,0,0.2-0.3l0.1-0.2c0.5,0,1,0,1.5,0.3c0.1,0.1,0.2,0.3,0.3,0s0.2-0.4,0.5-0.2
		c0.2,0.1,0.3,0.2,0.5,0c0.5-0.3,0.1,0.3,0.3,0.3c0.1,0,0.6-0.4,0.7-0.5C158.2,583,158.1,582.9,157.6,582.8z M130.4,583.4
		c-0.2,0-0.5,0.2-0.6-0.2c0-0.1,0.1-0.3,0.1-0.3c0.2,0,0.4,0,0.7,0.1C130.5,583.2,130.5,583.4,130.4,583.4z M133,582
		c0.1,0.1,0.2,0.2,0.3,0.3c-0.1,0-0.3,0.1-0.3,0.1c-0.1-0.1-0.1-0.2-0.2-0.3C132.8,582.1,132.9,582,133,582z M132,582
		c0,0.1,0.1,0.1,0.1,0.3c0,0-0.1,0.1-0.2,0.1c0-0.1-0.1-0.1-0.1-0.2C131.8,582.1,131.9,582.1,132,582z M131.5,581
		c-0.1-0.1-0.3-0.3-0.4-0.5c0,0,0-0.1,0.1-0.2c0.2,0.1,0.3,0.3,0.4,0.4C131.5,580.8,131.5,580.9,131.5,581z M133.4,583.4
		c-0.3,0.1-0.7,0.2-1,0.2s-0.6-0.2-1-0.4c0.8-0.2,1.4,0.1,1.9-0.3c0,0,0.2,0.1,0.2,0.2C133.6,583.2,133.5,583.4,133.4,583.4z
		 M133.9,582.2c0-0.1-0.1-0.1-0.1-0.2c0,0,0-0.1,0.1-0.1C134,582,134,582.1,133.9,582.2C134,582.1,134,582.2,133.9,582.2z
		 M134.8,582.8c-0.1,0-0.2,0-0.2,0c0-0.1-0.1-0.2-0.1-0.2c0.2-0.2,0-0.4,0.1-0.6c0-0.1,0.4-0.2,0.6-0.3
		C135.3,582.6,135.3,582.6,134.8,582.8z M136.3,581.3c0,0,0.1,0,0.2,0c0.2,0.2,0.4,0.5,0.7,0.1c0,0,0.2,0.1,0.3,0.1
		c-0.1,0.1-0.1,0.2-0.2,0.3h-0.2C136.7,581.9,136.5,581.7,136.3,581.3C136.3,581.5,136.3,581.4,136.3,581.3z M136.6,583.6
		c-0.3-0.1-0.7-0.2-1.2-0.4c0.4,0,0.8,0,1.1,0c0.1,0,0.1,0.1,0.2,0.2l0.1,0.1C136.7,583.6,136.6,583.6,136.6,583.6z M137.4,583.4
		c-0.1-0.1-0.4,0-0.6,0c0-0.1,0-0.1,0-0.2l0,0c0.6,0,0.9,0,1.2,0C137.8,583.4,137.8,583.8,137.4,583.4z M138.3,582.7l-0.2-0.2
		c0.4,0,0.7,0,0.9,0.1C138.8,582.6,138.6,582.7,138.3,582.7z M140,582.5L140,582.5l0.1-0.1l0.1,0.1
		C140.1,582.6,140.1,582.6,140,582.5z M140,582.3c-0.2,0.1-0.4,0.1-0.6,0.2c-0.9-0.1-0.8-0.2-0.7-0.3c0.4,0,0.4-0.1,0.2-0.4
		c-0.1-0.1,0.2-0.1,0.5,0s0.7,0.2,1,0.2C140.2,582.2,140.1,582.3,140,582.3z M140.6,582.6C140.6,582.6,140.5,582.6,140.6,582.6
		c0-0.1,0-0.1,0.1-0.2l0.1,0.1C140.7,582.6,140.6,582.6,140.6,582.6z M141.4,581c-0.1-0.1-0.2-0.2-0.2-0.2c0-0.1,0.1-0.2,0.3-0.4
		c0.1,0.2,0.2,0.3,0.2,0.4C141.7,580.8,141.5,580.9,141.4,581z M142.3,582.5c-0.1,0.1-0.3,0.1-0.4,0.2l-0.1-0.1
		c0.1-0.1,0.3-0.2,0.5-0.3c0,0,0.1,0,0.2,0.1C142.4,582.4,142.4,582.5,142.3,582.5z M144.8,580.5c0,0.1,0.1,0.1,0.1,0.2l-0.1,0.1
		C144.8,580.7,144.8,580.6,144.8,580.5C144.8,580.6,144.8,580.5,144.8,580.5z M145,582h-0.5c-0.2,0.4-0.2,0.4,0,0.7c0,0,0,0,0.1,0.1
		c0.1,0,0.1-0.1,0.2-0.1c0.1,0,0.2,0.1,0.4,0.2c-0.2-0.1-0.4-0.1-0.5-0.1c0.3,0.3,0.2,0.3,0.2,0.4c-0.3,0-0.3-0.2-0.3-0.4l0,0
		c-0.4-0.1-0.6-0.1-0.7-0.1c-0.1,0-0.2-0.1-0.3-0.2h-0.1h0.1c-0.1,0-0.2-0.1-0.2-0.1c0.1,0,0.1-0.1,0.2,0c0,0,0,0.1,0.1,0.2
		c0.3,0,0.2-0.2,0.3-0.4c0-0.6,0.2-0.1,0.4-0.1c0.1,0,0.2,0,0.4,0C144.9,582,145,581.9,145,582C144.8,581.8,144.9,581.9,145,582
		c0.2,0,0.5-0.1,0.5,0.2c0,0,0,0,0.1,0C145.1,582.2,145,582.2,145,582z M145.6,582.7c0-0.1-0.1-0.2-0.1-0.3c0,0,0,0,0.1,0
		C145.8,582.5,145.7,582.6,145.6,582.7z M145.6,582.2h0.1c0.1,0,0.2,0.1,0.3,0.1C145.8,582.3,145.7,582.3,145.6,582.2z M147.1,581.2
		c-0.1,0-0.1-0.1-0.2-0.1c0.1-0.1,0.2-0.2,0.3-0.3c0,0,0.1,0,0.4,0.2C147.4,581,147.3,581.1,147.1,581.2z M147.6,582.7
		c0,0-0.1,0-0.2-0.1c0.2,0,0.3,0.1,0.4,0.1C147.8,582.7,147.7,582.7,147.6,582.7z M148.2,582.7c-0.7-0.2-0.7-0.2-0.6-0.2
		c0.2,0,0.4,0.1,0.6,0.1C148.2,582.6,148.2,582.6,148.2,582.7z M149,582.7L149,582.7c-0.1,0.3-0.1,0.4-0.3,0.5
		c-0.1,0-0.2-0.1-0.3-0.2c0.2-0.1,0.3-0.2,0.5-0.2C149,582.6,149,582.6,149,582.7c-0.1-0.1-0.1-0.1-0.1-0.1l0.1-0.1V582.7
		c0.1-0.2,0.1-0.1,0.1-0.1C149.1,582.6,149.1,582.6,149,582.7z M150,582.9c-0.1-0.2-0.2-0.4-0.2-0.5s0.1-0.1,0.1-0.2
		c0.1,0.1,0.2,0.2,0.3,0.3C150.2,582.5,150.1,582.6,150,582.9z M150.1,581.2c0-0.1-0.1-0.2-0.1-0.3s0.1-0.1,0.1-0.2
		c0.1,0.1,0.1,0.2,0.1,0.3C150.1,581.1,150.1,581.2,150.1,581.2z M151.2,582.7c-0.1,0.3-0.4,0.1-0.6,0.2c0,0-0.1,0-0.1-0.1
		c0.1-0.1,0.1-0.1,0.1-0.1c0.2-0.1,0.3-0.4,0.6-0.2C151.2,582.6,151.2,582.7,151.2,582.7z M153.1,582.6c-0.4,0.1-0.7-0.4-1.1,0
		c0-0.2-0.1-0.5-0.1-0.5c0.2-0.1,0.5-0.2,0.8-0.1c0.2,0,0.3,0.3,0.5,0.4C153.1,582.5,153.1,582.6,153.1,582.6z M154.1,582.6
		c-0.2-0.1-0.5-0.2-0.6-0.4c0,0,0.2-0.3,0.3-0.5h0.2c0.1,0.2,0.1,0.3,0.2,0.5C154.1,582.6,154.1,582.6,154.1,582.6z M154.1,581.7
		H154l-0.1-0.1c0.1-0.1,0.2-0.1,0.3-0.1C154.2,581.5,154.2,581.6,154.1,581.7z M152.5,581.2c-0.4,0.2-0.6-0.1-0.7-0.5
		c0-0.1,0.1-0.2,0.1-0.3l0.2-0.1c0.1,0.2,0.1,0.7,0.5,0.4s0.4,0.2,0.7,0.1c0.2-0.1,0.6,0,0.9,0c0.1,0,0.1,0,0.2,0.1
		C153.7,581,153.1,581,152.5,581.2z M154.3,581.6C154.3,581.5,154.4,581.6,154.3,581.6L154.3,581.6z M154.6,581.8
		c0.3-0.2,0.6-0.4,0.9-0.5c0.1,0,0.2,0,0.3,0c0,0.1,0,0.2-0.1,0.3C155.4,581.8,155.2,582.1,154.6,581.8z M155.8,583.1
		c-0.1,0-0.1-0.1-0.2-0.1c0.1-0.1,0.3-0.2,0.4-0.3c0,0.1,0.1,0.1,0.1,0.3C156.1,583.1,156,583.1,155.8,583.1z M149,582.6L149,582.6
		L149,582.6L149,582.6z M144.6,582.8L144.6,582.8C144.5,582.7,144.5,582.8,144.6,582.8C144.5,582.8,144.6,582.8,144.6,582.8z
		 M133.6,581C133.5,581,133.5,581,133.6,581C133.5,581,133.6,581,133.6,581C133.6,581.1,133.6,581,133.6,581z M134.5,580.3
		L134.5,580.3L134.5,580.3L134.5,580.3z M134.7,580.8L134.7,580.8L134.7,580.8L134.7,580.8z"/>
	<path id="small_middle_2_section" d="M189.2,583.6c0.1-0.1,0.2-0.2,0.3-0.2h-0.3V583.6z M214.9,582.1c0.4-0.3,0.3-0.4-0.2-0.3
		c-0.1,0-0.2,0.1-0.3,0.1c0-0.1-0.1-0.3,0-0.3c0.1-0.1,0.3-0.2,0.5-0.3c0.3-0.2,0.3-0.2-0.1-0.5c-0.1,0-0.1-0.1-0.1-0.2
		c0,0-0.3-0.4-0.4-0.4c-0.4-0.3-0.8,0.1-1.2,0.1c-0.5,0-1,0.3-1.6,0.1c-0.4-0.1-0.9-0.6-1.3,0c0,0-0.2,0-0.3-0.1
		c-0.5-0.3-1-0.1-1.4-0.1c-0.2,0.7-0.6,0.1-0.9,0.2c-0.1,0-0.3-0.1-0.4-0.1c-0.3-0.2-0.2,0.1-0.2,0.2c0,0.1-0.2,0.1-0.2,0.1
		c-0.4-0.2-0.7-0.3-1.1,0c-0.1,0.1-0.3,0.1-0.3,0c-0.5-0.4-1.1-0.1-1.6-0.2c0.1,0.2,0.2,0.5,0.2,0.6c-0.1,0.2-0.3,0.1-0.5,0
		c-0.6-0.4-1.1-0.5-1.8-0.3c-0.2,0.1-0.4,0.2-0.5,0.2s-0.2-0.4-0.3-0.4c-0.4-0.1-0.9,0.1-1.2-0.1c-0.4-0.1-0.6,0.3-1,0.1
		c-0.3-0.1-0.6-0.1-1-0.1c-0.4-0.1-0.8,0.2-1.1-0.2h-0.2c0,0.6-0.3,0.2-0.5,0.1c-0.5-0.1-1-0.2-1.6-0.3c0.1,0.3,0.2,0.4,0.2,0.6
		c0,0.2,0.1,0.5-0.2,0.4c-0.2,0-0.3-0.3-0.4-0.4c0.4-0.3-0.1-0.4-0.2-0.5c-0.2-0.1-0.5-0.1-0.7,0c-0.3,0-0.7,0-0.9,0.2
		c-0.3,0.3-0.5-0.3-0.8,0c-0.1,0.1-0.5-0.1-0.8-0.1c0,0-0.1,0.1-0.1,0.2c0.4,0,0.2,0.3,0.3,0.5l0,0c0,0,0.1,0.1,0,0.1
		c0.1,0.1,0,0.1,0,0.1c-0.1,0-0.1-0.1-0.2-0.1l0,0c-0.2,0-0.3,0.1-0.4,0.2c-0.1,0.1-0.3,0.2-0.3,0.1c-0.1-0.1-0.2-0.2-0.3-0.3
		c0-0.1,0-0.3,0.2-0.2c0.3,0.2,0.4-0.1,0.5-0.3c-0.2,0-0.5,0-0.7-0.1c-0.9-0.3-1.6-0.2-2.3,0.2c-0.1,0-0.2,0-0.3,0
		c0-0.2-0.1-0.3-0.3-0.4c-0.3,0-0.4,0.1-0.5,0.4c-0.2,0.4-0.5,0.4-0.7,0c0-0.1,0-0.2,0-0.2s-0.2-0.1-0.2,0c-0.1,0.2-0.2,0.3-0.2,0.5
		c0,0.1,0.2,0.3,0.2,0.4c0,0.3-0.3,0.5-0.2,0.7c0.1,0.4,0.6,0.1,0.9,0.2c0.1,0,0.1,0.2,0.1,0.3c-0.1,0-0.2,0.1-0.2,0.1
		c-0.1,0-0.4-0.1-0.4-0.1c-0.2,0.4-0.3,0.8-0.5,1.1c0,0.1-0.1,0.1-0.1,0.2c0.2,0.1,0.5,0.1,0.7,0.2c0.2,0.1,0.5,0.3,0.7,0.4
		c0.1,0,0.2,0,0.2,0c0.1-0.1,0.1-0.2,0.1-0.3s-0.1-0.1-0.1-0.2c0-0.1-0.1-0.4,0-0.4c0.2-0.1,0.4-0.1,0.4,0.2c0,0.1,0.1,0.1,0.1,0.2
		c0.1-0.1,0.1-0.2,0.1-0.3s0-0.3,0.1-0.4c0.2,0.3,0.2,0.6,0.2,0.9c0,0.1-0.1,0.2-0.1,0.3c0.1,0,0.3,0.1,0.3,0
		c0.3-0.4,0.5-0.2,0.8,0.1c0.2,0.2,0.6,0,0.5-0.2c-0.3-0.4,0-0.4,0.2-0.3c0.3,0.1,0.4,0.4,0.6,0c-0.1-0.1-0.1-0.1-0.2-0.2
		c0.1,0,0.1-0.1,0.2-0.1c0-0.1,0-0.2,0-0.2c0-0.1,0.1-0.1,0.2-0.2c0,0.1,0.1,0.1,0.1,0.2c0,0.1,0,0.2,0,0.2c0.2,0.1,0.5,0.2,0.7,0.3
		c0.1,0.1,0,0.6,0.4,0.2c0.1-0.1,0.3,0.2,0.5,0c0.1-0.1,0.5-0.2,0.6-0.2c0.4,0.4,1-0.3,1.4,0.1l0.2-0.1c0-0.1-0.1-0.2-0.1-0.3
		c0.1,0,0.3,0.1,0.4,0.1c0.3,0,0.7,0,0.8,0.1c0.3,0.3,0.5-0.1,0.7,0s0.4,0.2,0.7,0c0.4-0.3,0.8-0.4,1.1,0.1c0,0.1,0.3,0,0.4,0
		c0.2,0,0.5-0.2,0.5-0.1c0.4,0.4,0.8,0,1.2,0c0.3,0,0.8-0.5,1,0.2h0.3c0.2-0.2,0.3-0.2,0.6-0.1c0.5,0.2,1,0.2,1.5,0
		c0.1-0.1,0.3-0.1,0.5-0.1c0.3,0,0.6-0.1,0.7-0.3c0.1-0.1,0.1-0.3,0.2-0.5c0.1,0.4,0,1,0.7,0.8h0.1c0.3,0.1,0.7,0.2,1,0.3
		c0.4,0.1,0.6,0.1,0.7-0.3h0.1c0.4,0.2,0.7,0.5,1.1,0.1c0.4,0.3,0.7-0.1,1-0.1c0.2,0,0.4-0.4,0.6-0.1c0.2,0.4,0.4-0.3,0.7,0.1
		c0.2,0.2,0.7,0.3,1.1,0.3c0.4,0.1,0.3-0.3,0.3-0.4c-0.2-0.1-0.3-0.3-0.5-0.5c0,0,0-0.1,0.1-0.2c0.1,0,0.1,0,0.2,0.1
		c0.1,0.2,0.2,0.4,0.3,0.6l-0.1,0.1c0.5,0.3,1,0.2,1.4,0.2c0,0,0.1-0.1,0-0.2c-0.3-0.2,0-0.4,0.1-0.3c0.4,0.6,1.2,0.3,1.6,0.7
		c0,0,0.3-0.1,0.4-0.2C215.1,583.2,215.4,582.6,214.9,582.1z M187.2,581.4c-0.3,0.1-0.6,0.4-1,0.4s-0.8,0-1-0.4
		c0.5-0.1,1-0.6,1.5-0.1c0,0,0.2-0.1,0.3-0.1s0.2,0,0.2,0C187.2,581.2,187.2,581.4,187.2,581.4z M188.9,580.8l0.1,0.1
		C188.9,580.9,188.9,580.8,188.9,580.8L188.9,580.8z M188.9,581C188.9,580.9,188.9,580.9,188.9,581C188.9,580.9,188.9,581,188.9,581
		z M188.2,580.5c0,0,0.1-0.1,0.2-0.2c0.1,0.1,0.2,0.3,0.3,0.4h-0.2C188.4,580.6,188.2,580.6,188.2,580.5z M188.9,582.7
		c-0.1,0-0.2,0-0.6,0c0.3-0.2,0.4-0.3,0.5-0.4c0.1,0,0.2,0,0.3,0l0.1,0.2C189.1,582.5,189.1,582.6,188.9,582.7z M190.2,581.9
		c-0.1,0.2-0.2,0.2-0.3,0.3c0,0-0.1-0.1-0.2-0.2c0.2-0.1,0.3-0.2,0.5-0.3V581.9z M190.4,581.7l-0.1-0.1c0.1-0.1,0.3-0.2,0.4-0.4
		C190.6,581.4,190.4,581.6,190.4,581.7L190.4,581.7z M190.8,581.5c0,0.2-0.1,0.3-0.3,0.3C190.8,581.4,190.8,581.4,190.8,581.5z
		 M191.4,582c-0.2,0.2-0.4,0.3-0.7,0.4c0,0-0.1-0.1-0.1-0.2c0-0.1,0-0.2,0-0.2c0.3-0.1,0.6-0.2,0.5-0.6l0.2-0.2
		c0.1,0,0.2,0.1,0.4,0.2C191.6,581.7,191.4,581.9,191.4,582z M192.4,583.1c-0.2,0-0.4,0.1-0.5-0.2c0-0.1,0.1-0.2,0.1-0.3
		c0.2,0.1,0.3,0.2,0.5,0.2c0,0,0.1,0.1,0.1,0.2C192.4,583.1,192.4,583.2,192.4,583.1z M194.9,581.3c0.3-0.2,0.4,0.1,0.6,0.2l0.1,0.1
		c-0.2,0.1-0.2,0.1-0.2,0.1c-0.2-0.1-0.5,0.2-0.6-0.2C194.9,581.4,194.9,581.3,194.9,581.3z M194.2,582.3c-0.1-0.1-0.3,0-0.4,0
		c-0.1,0-0.3,0.1-0.4,0.1c-0.1,0-0.2-0.2-0.4-0.4c0.7,0,1.3-0.1,1.8,0c0.3,0.1,0.4-0.1,0.5,0c0.1,0,0.1,0.1,0.2,0.2
		c0,0,0.1,0.1,0.2,0.3C195.1,582.3,194.6,582.6,194.2,582.3z M197.1,582.2c-0.4,0.1-0.8,0.2-1.4,0.3c0.2-0.2,0.3-0.3,0.4-0.4
		c0.4-0.7,0.5-0.7,1.1-0.4c0.1,0,0.2,0.2,0.1,0.3C197.4,582.1,197.2,582.2,197.1,582.2z M198.1,580.8c0.1,0.1,0.2,0.2,0.4,0.3
		c-0.1,0.1-0.2,0.1-0.2,0.1c-0.1-0.1-0.2-0.1-0.3-0.2C197.9,581,197.9,580.9,198.1,580.8z M198.6,581.8c0,0.1,0.1,0.1,0.1,0.3
		c-0.1,0-0.2,0.1-0.3,0.1s-0.1-0.1-0.2-0.1C198.2,582,198.4,581.9,198.6,581.8z M198.1,582.5c0.1,0,0.1-0.1,0.2,0c0,0,0,0.1,0.1,0.2
		C198.1,582.6,198.1,582.6,198.1,582.5z M198.6,582.9c-0.1,0-0.1-0.1-0.1-0.2C198.8,582.9,198.6,582.9,198.6,582.9z M198.4,582.7
		c0.1,0,0.1,0,0.2,0c0.1,0,0.2,0.1,0.4,0.1C198.8,582.8,198.6,582.7,198.4,582.7z M199.1,581.2c-0.1-0.1-0.2-0.3-0.3-0.4
		c0.1,0,0.2-0.1,0.2-0.1c0.1,0,0.2,0.1,0.3,0.2C199.1,581.1,199.1,581.2,199.1,581.2z M200.1,581.5c-0.2,0-0.4,0-0.4-0.3
		c0-0.1,0-0.2,0-0.3c0.1-0.1,0.1-0.1,0.2-0.2c0.1,0.1,0.2,0.2,0.3,0.4c0.1,0.1,0.2,0.2,0.3,0.3C200.2,581.4,200.1,581.5,200.1,581.5
		z M201.4,581.8c0,0.1-0.1,0.1-0.1,0.1l0,0C201.4,581.8,201.4,581.8,201.4,581.8z M201.4,581.7c0,0.1-0.1,0.1-0.1,0.2
		c0,0,0,0-0.1-0.1C201.2,581.8,201.2,581.8,201.4,581.7z M201.1,582L201.1,582c-0.1,0.2-0.1,0.2-0.1,0.2c0-0.1-0.1-0.1,0-0.1
		C201.1,582,201.1,582,201.1,582z M201.4,582.7c-0.1-0.1-0.3,0.1-0.4,0.1c-0.1,0-0.2,0-0.2,0c0-0.1,0.1-0.3,0.1-0.3
		c0.7,0,1.4-0.3,2.1,0.5C202.1,582.8,201.8,583.1,201.4,582.7z M204.1,581.9c-0.2,0-0.4,0-0.6,0c0,0,0-0.1-0.1-0.1
		C203.8,581.9,204.1,581.9,204.1,581.9L204.1,581.9z M203.9,581.6c0.1,0,0.2,0.1,0.4,0.1l0,0C203.8,581.7,203.9,581.6,203.9,581.6z
		 M204.6,581.8C204.6,581.8,204.6,581.7,204.6,581.8c-0.1-0.1-0.1-0.1-0.2-0.2c0.1,0,0.2-0.1,0.2-0.1c0.3,0.1,0.5,0.2,0.9,0.4
		C205.1,581.8,204.9,581.8,204.6,581.8z M207.9,582.6c-0.1-0.2-0.3-0.3-0.4-0.5l0.2-0.2c0.2,0.1,0.4,0.2,0.6,0.3
		C208.1,582.4,208.1,582.5,207.9,582.6z M206.9,581.9C206.9,581.8,206.8,581.8,206.9,581.9c0.1-0.1,0.1-0.2,0.2-0.2v0.1
		c1.5-0.3,1-0.4,0.5-0.1c-0.3,0.2-0.9-0.3-1-0.7c0-0.1,0.1-0.2,0.1-0.2c0.1,0,0.3,0,0.3,0c0.1,0.6,0.4,0.5,0.9,0.3s0.9-0.2,1.3,0.4
		C206.9,581.9,206.9,581.9,206.9,581.9z M209.8,581.4c0.6-0.9,1.2,0,1.8-0.1C210.9,581.5,210.4,581.5,209.8,581.4z M211.4,582.4
		c-0.1,0-0.3-0.1-0.4-0.1c-0.1,0-0.1-0.2-0.2-0.2c0.1,0,0.3-0.1,0.3-0.1c0.2,0.1,0.3,0.4,0.6,0.1c0.2-0.2,0.3-0.2,0.5,0
		c-0.2,0.1-0.3,0.3-0.5,0.4C211.8,582.5,211.6,582.4,211.4,582.4z M211.9,583c0,0-0.1-0.1-0.1-0.2c0.2,0,0.3-0.1,0.5-0.1
		c0.1,0,0.1,0.1,0.2,0.1C212.4,582.9,212.1,582.9,211.9,583z M212.6,581.2c-0.1,0-0.2-0.1-0.3-0.1c0.1,0,0.1-0.1,0.2-0.1
		c0.1,0,0.2,0.1,0.3,0.1C212.8,581.2,212.6,581.2,212.6,581.2z M213.9,580.9c0-0.1,0.1-0.1,0.1-0.2l0.1,0.1
		C213.9,580.9,213.9,580.9,213.9,580.9C213.9,581,213.9,580.9,213.9,580.9z M214.4,583c-0.1-0.1-0.6,0.1-0.4-0.3
		c0.1-0.2,0.3-0.4,0.3-0.4c0.2,0.1,0.4,0.2,0.7,0.4C214.6,582.8,214.6,583.3,214.4,583z M190.4,580.8L190.4,580.8h-0.1
		C190.4,580.8,190.4,580.8,190.4,580.8z"/>
	<path id="small_middle_3_section" d="M255.1,584.2c0.1,0,0.2,0,0.4-0.1c-0.2-0.1-0.3-0.1-0.4-0.1c-0.1,0-0.2,0-0.2,0
		C255,584,255,584,255.1,584.2z M271,582c-0.3-0.3,0.4-0.7-0.2-0.9c0.1-0.2,0.4-0.5,0.4-0.7c0-0.1,0-0.3-0.1-0.3s-0.3,0-0.3,0.1
		c-0.1,0.6-0.4,0.5-0.7,0.1c-0.2-0.2-0.4-0.4-0.6-0.1c0,0,0.1,0.2,0.1,0.3c-0.2,0-0.3,0-0.5,0c-0.1,0-0.1-0.1-0.2-0.1
		c-0.4-0.1-0.8-0.3-1.2-0.1c-0.2,0.1-0.7-0.3-0.8-0.2c-0.3,0.2-0.5,0.2-0.8,0.2c-0.4,0-0.8,0.1-1.5-0.3h-0.2c0,0.1,0,0.2,0,0.4
		c0,0.1-0.1,0.2-0.1,0.3c-0.1-0.1-0.1-0.2-0.2-0.2c-0.1-0.1-0.1-0.2-0.2-0.2c-1.2,0.1-2.4-0.2-3.5,0.1c-0.3,0.1-0.8-0.3-1.1,0.1
		c-0.2-0.5-0.9,0.1-1.1-0.5h-0.6c0.1,0.1,0.2,0.2,0.2,0.4c-0.1,0-0.3,0.1-0.4,0c-0.2,0-0.5-0.2-0.7-0.2c-1.2,0.2-1.2,0.2-2.3,0
		c-0.8-0.1-1.6-0.2-2.3,0.3c-0.4,0.3-0.7,0.2-0.9-0.1c-0.2-0.2-0.4-0.4-0.7-0.1c-0.1-0.1-0.3-0.3-0.4-0.4h-0.2l-0.2,0.2
		c0-0.1-0.1-0.1-0.1-0.2h-0.5c-0.8,0.6-0.8,0.6-1.7,0h-0.2c0,0.3-0.3,0.2-0.4,0.2c-1.1,0-2.2,0-3.3,0c-0.3,0-0.6,0.4-0.9,0.1
		c0,0-0.3,0.2-0.4,0.4c-0.1,0.1-0.1,0.3-0.1,0.4c0,0.3,0.2,0.4,0.4,0.2c0.4-0.4,0.4,0.1,0.6,0.2c-0.1,0-0.2,0-0.3,0.1
		c-0.7,0.2-0.9,0.5-0.4,1c0.2,0.2,0.4,0.7-0.1,0.8c-0.2,0-0.1,0.3,0.1,0.5c0.1,0.1,0.7,0.5,0.9,0.2c0.4-0.4,0.4-0.7,1-0.2
		c0.3-0.3,0.1,0,0.2,0.2c0.1,0,0.9,0,1-0.1c0.2-0.1,0.1-0.5,0.3-0.6c0.1,0.2,0.3,0.6,0.4,0.6c0.4,0,0.8-0.2,1.2-0.2
		c0.5-0.1,0.6-0.7,0.2-1.1c0.4-0.2,0.5-0.2,0.6-0.3c0.6-0.4,0.6-0.4,1.2,0.1c-0.4,0.1-0.8,0.3-1.2,0.4c0,0-0.1,0.4-0.1,0.5
		s0.1,0.2,0.1,0.2c0.2,0,0.5,0,0.7,0s0.3,0,0.4,0.3c0.1,0.3,0.3,0.3,0.5,0c0.1-0.2,0.2-0.4,0.3-0.5s0.3,0,0.4,0.1
		c0.1,0.1,0.1,0.3,0.2,0.3c0.3,0,0.5-0.1,0.8-0.1c0.1,0,0.3-0.1,0.4,0c0.3,0.1,0.6,0.2,0.7,0.2c0.2-0.3,0.6,0.1,0.8-0.2
		c0.1,0.1,0.2,0.2,0.3,0.3s0.1,0.1,0.2,0.2c0.1-0.9,0.6-0.1,0.9-0.2h0.1c0-0.5,0-0.4,0.3-0.4c0.1,0,0.2,0.1,0.3,0.1
		c0.4,0.3,0.6,0.3,0.9-0.1c0.2-0.2,0.2-0.1,0.4,0c0.3,0.3,0.5,0.5,0.9,0.2c0.1-0.1,0.3-0.4,0.4-0.4c0.6,0,0.9,0.5,0.9,0
		c0-0.1,0.1-0.3,0.2-0.3c0.3,0.1,0,0.2,0,0.3c-0.1,0.3-0.2,0.3-0.3,0.8c0.3-0.2,0.5-0.5,0.7-0.5s0.4,0.2,0.6,0.2c0.8,0,1.5,0,2.3,0
		c0,0,0.1-0.1-0.2-0.2c0.5,0.1,0.8,0.2,1.1,0.2c0.3,0.1,0.6,0,0.8,0.1c0.4,0.1,0.7-0.2,1.1-0.1c0.1,0,0.3-0.2,0.4-0.4
		c0.1-0.1,0.4,0.3,0.5,0.1c-0.1,1,0.7-0.1,0.8,0.1c0.2-0.1,0.5-0.3,0.4,0.2c0.1,0,0.2,0,0.2-0.1c0.1-0.1,0.2-0.2,0.3-0.3
		c0-0.1-0.1-0.3,0-0.3c0.2-0.1,0,0,0.2,0c0.1,0-0.2,0.6,0,0.6c-0.1,0.1,0.6-0.7,0.6-0.6c-0.1,0.2-0.1,0.6-0.2,0.8
		c0.2,0.1,0.4-0.1,0.6,0c0.3,0.1,0.7,0.2,1,0.2c0.6,0.1,0.9-0.4,0.7-0.9C270.8,582.7,271.3,582.3,271,582z M243.4,581.5
		C243.3,581.4,243.3,581.4,243.4,581.5c-0.1-0.1,0-0.2,0-0.2l0.1,0.1C243.4,581.4,243.4,581.4,243.4,581.5z M245,582
		c-0.1,0-0.2,0-0.5,0c-0.1,0-0.3,0-0.4-0.1c-0.1,0-0.2-0.2-0.3-0.2c0.1,0,0.2-0.1,0.3-0.1s0.2,0,0.2,0c0.5-0.2,0.7-0.2,0.9,0.1
		C245.3,581.7,245.2,581.9,245,582z M247.2,582.7c-0.1,0-0.2,0.1-0.2,0.1c-0.4,0-0.5,0-0.6-0.1c-0.1-0.1-0.2-0.2-0.2-0.3
		c0.1-0.3,0.2,0,0.3,0c0.2,0,0.3-0.1,0.5-0.1c0.2-0.1,0.4-0.1,0.4,0.2C247.4,582.6,247.4,582.7,247.2,582.7z M247.2,581.1
		c0.6,0.4,0.6,0.4,0.7,1.1C247.6,581.7,247.2,581.6,247.2,581.1z M253.1,582.3c-0.2,0.1-0.5-0.2-0.6,0.1h-0.2
		c-0.1-0.1-0.3-0.2-0.3-0.3c-0.1-0.1-0.3-0.4-0.2-0.5c0.2-0.3,0.4,0,0.6,0.1c0.3,0.1,0.6,0.2,0.9,0.3c0.2,0,0.2,0,0.1-0.3
		c-0.2-0.4,0-0.5,0.3-0.5c0.5,0.1,0.9,0.3,1.4,0.5C254.3,582,253.7,582.2,253.1,582.3z M255.5,582.6c0-0.1-0.1-0.1-0.1-0.2
		c0-0.1,0.1-0.1,0.2-0.2c0,0.1,0.1,0.1,0.1,0.3C255.7,582.6,255.6,582.6,255.5,582.6z M258.4,581.7c0,0-0.1,0-0.2-0.1
		c0.1-0.1,0.2-0.3,0.3-0.4c0,0.1,0.1,0.1,0.2,0.3C258.6,581.6,258.5,581.7,258.4,581.7z M259,581.7c0,0-0.1-0.1-0.1-0.2
		c0.1,0,0.2-0.1,0.3-0.1c0,0,0.1,0.1,0.1,0.2C259.2,581.7,259.1,581.7,259,581.7z M259.8,582.9c-0.1-0.1-0.1-0.1-0.2-0.2
		c0-0.1,0.1-0.2,0.1-0.2c0.1,0,0.2,0.1,0.2,0.1C259.8,582.7,259.8,582.8,259.8,582.9z M260.1,581.2c-0.1-0.1-0.2-0.2-0.3-0.3
		c0.1-0.1,0.2-0.2,0.2-0.2c0.1,0,0.2,0.1,0.4,0.3C260.3,581.1,260.2,581.2,260.1,581.2z M261,580.7c0.5-0.2,0.5-0.2,0.6,0.4
		c0,0.1,0.2,0.1,0.2,0.2c0,0.1,0,0.3-0.1,0.4c-0.1-0.1-0.2-0.1-0.3-0.2c-0.1-0.2-0.3-0.3-0.5-0.4C260.8,580.8,260.9,580.8,261,580.7
		z M261.1,581.6c0.1,0.2,0.1,0.3,0.1,0.3C261.2,581.8,261.1,581.7,261.1,581.6L261.1,581.6z M261.1,582.4c0.1-0.1,0.2-0.2,0.3-0.2
		c0,0,0.1,0.1,0.3,0.3c-0.2,0.1-0.3,0.2-0.4,0.2C261.2,582.7,261.1,582.5,261.1,582.4z M262.4,583.5c-0.3,0-0.4,0-0.5,0
		c-0.1-0.1-0.2-0.4-0.3-0.5c0,0,0.1-0.2,0.2-0.2s0.2,0,0.2,0c0.2,0,0.5-0.1,0.5,0.2C262.6,583.6,262.3,583.4,262.4,583.5z
		 M262.7,581.2C262.7,581.2,262.6,581.1,262.7,581.2c-0.2-0.3-0.7-0.1-0.6-0.6c0-0.1,0.1-0.1,0.2-0.1c0.2,0.1,0.4,0.3,0.7,0.4
		C262.8,581.1,262.7,581.1,262.7,581.2z M264,582.4c-0.2,0.1-0.3-0.4-0.4-0.1c-0.1,0.2-0.1,0.4-0.4,0.3l-0.1-0.2
		c0.2-0.1,0-0.7,0.5-0.5c0.2,0.1,0.4,0.2,0.7,0.3C264.2,582.4,264.1,582.4,264,582.4z M264.9,581.4c0-0.1-0.1-0.2-0.1-0.3
		c0,0,0.1-0.1,0.2-0.1c0,0.1,0,0.2,0,0.3C265.1,581.4,265,581.4,264.9,581.4z M265.4,581.5C265.4,581.4,265.3,581.4,265.4,581.5
		c0-0.1,0.1-0.1,0.1-0.2C265.5,581.4,265.5,581.4,265.4,581.5z M265.7,581.2c0.2-0.3,0.7-0.6,0.9-0.7c0,0,0,0.3,0,0.4
		c0,0.1-0.1,0.2-0.1,0.2C266.2,581.2,265.9,581.2,265.7,581.2z M266.8,582.1h-0.7V582L266.8,582.1L266.8,582.1z M267.8,582.5
		c-0.2,0.2-0.4,0.3-0.6,0.4c0-0.1-0.1-0.1-0.1-0.2c0.1-0.2,0.3-0.4,0.4-0.6c0.2,0.1,0.3,0.1,0.3,0.1
		C267.8,582.3,267.8,582.5,267.8,582.5z M269.6,581.7c-0.2,0-0.3,0-0.5,0c-0.3,0-0.3,0.1-0.3,0.4c0,0.1-0.1,0.2-0.2,0.4
		c-0.1-0.1-0.3-0.1-0.4-0.2c-0.2-0.1-0.2-0.3,0.1-0.3c0.3,0,0.2-0.3,0.3-0.4c0.1-0.1,0.2-0.1,0.6-0.1c0.1,0,0.3,0,0.4,0
		c0.2,0.1,0.3-0.6,0.5,0C270.1,581.8,269.8,581.7,269.6,581.7z"/>
</g>
</svg>
