<?xml version="1.0" encoding="utf-8"?>
<!-- Generator: Adobe Illustrator 21.1.0, SVG Export Plug-In . SVG Version: 6.00 Build 0)  -->
<svg version="1.1" id="Layer_1" xmlns="http://www.w3.org/2000/svg" xmlns:xlink="http://www.w3.org/1999/xlink" x="0px" y="0px"
	 viewBox="0 0 1200 802.7" style="enable-background:new 0 0 1200 802.7;" xml:space="preserve">
<style type="text/css">
	.st0{fill:none;stroke:#ED2024;stroke-width:0.5;}
</style>
<g>
	<rect id="middle_section_bounds" x="180.5" y="507.5" class="st0" width="111" height="15.5"/>
	<rect id="middle_2_section_bounds" x="320.5" y="507.5" class="st0" width="106" height="15.5"/>
	<rect id="middle_3_section_bounds" x="454.5" y="507.5" class="st0" width="107" height="15.5"/>
	<rect id="small_middle_section_bounds" x="130.5" y="580" class="st0" width="27" height="5.4"/>
	<rect id="small_middle_2_section_bounds" x="186.5" y="580" class="st0" width="27" height="5.4"/>
	<rect id="small_middle_3_section_bounds" x="243.5" y="580" class="st0" width="27" height="5.4"/>
	<path id="middle_section" d="M241.8,512.5c-0.1-0.4-0.3-0.8-0.5-1.4c-0.5,0.2-0.9,0.4-1.4,0.6c0.2,0.2,0.4,0.4,0.5,0.6
		C240.7,513.5,241.4,511.4,241.8,512.5z M291.8,518c-0.6-0.3,0.6,0.3,0.3-0.9c0-0.2-0.5-0.7-0.1-1c-0.5,0.1-1.2,1.3-1.7,1.4
		c-0.2,0-0.1-1.1-0.1-1.1c-1.3-1.9-0.9,0.6-1.7,1c-0.7,0.4-0.6,0.9-0.8,0.3c-1,0.9-0.8,0-0.8-0.6c0-0.1-0.2-0.3-0.3-0.4
		c0.1,0,0.2,0,0.3-0.1c0.4-0.2,0.7-0.4,1.2-0.5c0.8-0.2,1.3-0.5,0.7-1.4c0-0.1,0-0.2,0.1-0.2c0-0.1,0.2-0.1,0.3-0.1
		c0,0.1,0,0.1,0,0.1c0.1,0.1,0.1,0.2,0.2,0.4c0.2-0.1,0.3-0.2,0.5-0.3c0-0.1,0.1-0.2,0.1-0.3c0.1,0.2,0.2,0.3,0.3,0.5
		c0.1,0.1,0.1,0.2,0.1,0.3c-0.7,0-0.2,0.5-0.2,0.5c0.5,0,1,0,1.5,0c-0.1-0.2-0.3-0.4-0.4-0.7c0-0.2,0-0.4,0-0.5c0,0,0-0.1,0.1-0.1
		c0,0.1,0.1,0,0.1,0.1c0.1,0.9,0.7,0.7,1.2,0.5l-0.3-1.5c0-0.2-0.1-0.2-0.2-0.1c-0.3-0.1-0.4,0.1-0.5-0.5c-0.1,0.3-0.5-0.7-0.6,0.1
		c0,0.1-0.3,0.1-0.6,0.1c0.4-0.3,0.7-0.6,1.1-0.8c0.8-0.3,0.4-3.6,0.4-3.6c-0.2,0.1-0.1,1.7-0.3,1.8c-0.2,0.1-0.2,0.2-0.2,0.2
		c0-0.1-0.7-0.5-0.9-0.7c0,0.2,0.1,0.4,0,0.4c-0.6,0.2-0.2,0.4-0.9,0.5c-0.2,0-0.5-0.2-0.7-0.3c0.3,0,0.7-0.1,1-0.2
		c0.2,0,0.3-0.1,0.4-0.2c-0.1-0.1-0.3-0.1-0.4-0.2c-2.1-0.2,0.4-0.4-1.7-0.4c-0.4,0-2.3-0.2-1,1.5c0.1,0.2-1.4,0-1.1,1.1
		c-0.1,0-0.3,0-0.4-0.1c0.1-0.2,0.2-0.4,0.3-0.6c0.2-0.5,0.4-1.1,0.6-1.6l-0.7,0.7c-0.6-0.6-0.9,1.4-1.7,0.1
		c-0.2-0.3-0.3-0.4-0.5-0.5c-0.1-0.3-0.1-0.7-0.2-0.7c-0.5-0.1-1,0-1.4,0.1c-0.9,0.1-1.8,0.3-2.7,0.4c-0.4,0-0.8-0.1-1.2-0.1
		c0.1,0.3,0.3,0.5,0.5,0.7c0.1,0.1,0.4,0.1,0.5,0.1c0.6-0.2,1.4,0,1.2-0.1c-0.1,0.6-0.2,1.3-0.3,1.9c0,0.2-0.2,0.5-0.2,0.7
		c-0.4-0.2-0.8-0.3-1.1-0.5c-0.1,0-0.1-0.2-0.1-0.4c0.2,0.1,0.4,0.3,0.6,0.4c0.1,0,0.4-0.1,0.4-0.1c0-0.3-0.1-0.7-0.2-1
		c0-0.1-0.2-0.1-0.2-0.1c-0.8,0.3-1.2,2.1-2.5,0.7c-0.1-0.1-0.4-0.2-0.5-0.3c0-0.3-0.1-0.7,0.1-0.9c0.4-0.3,1-0.5,1.5-0.7
		c-0.5-0.1-1-0.1-1.5-0.2c-0.3-0.1-0.5-0.2-0.8-0.3c-0.1,0.5-0.2,1.1-0.4,1.6c-0.1,0.2,0.7,0.5-0.3,0.7c-1.1,0.3-0.4-0.1-0.9-0.7
		c-0.4,0.5-0.9,0.9-1,1.4c-0.3,2.1-1.3,1.6-1.5,3.7c-0.1-0.1-0.1-0.3-0.2-0.4c-0.4-0.4,0.4-1.3-0.3-1.5l0,0c0.1,0,0.3,0,0.4-0.1
		c0.1-0.2,0.2-0.3,0.3-0.5c-0.3,0.1-0.6,0.2-0.9,0.4c-0.2,0.1-0.3,0.1-0.5,0.1c0-0.1,0-0.1,0-0.2c0.5-0.7,1-1.3,1.9-1.5
		c0.3-0.1,0.6-0.4,0.9-0.6c-0.2,0-0.4,0-0.6,0.1c-0.1,0-0.2,0-0.3,0c0.1,0,0.2-0.1,0.3-0.2c0.1-0.1,0.4-0.2,0.5-0.4s0.2-0.4,0.3-0.6
		c-0.9,0.5-1.7,0.9-2.6,1.3c-0.3,0.2-0.7,0.3-1,0.5c-0.1,0,0.4-0.4,0.2-0.5c0,0,0.1-0.2,0.2-0.2c1.4-0.6,2.3-0.9,3.7-1.4
		c0.3-0.2,0.6-0.4,0.8-0.6c-0.2-0.1-0.3-0.2-0.5-0.3c-0.1,0.9-0.8-0.2-1,0.2c-0.1,0.1-0.3,0.2-0.3,0.3c0,0.1,0.1,0.3,0.2,0.5
		c-0.4,0-1,0.2-1.2,0c-0.9-0.8-0.9,0.7-1.6,0.4c-0.6,1.1-0.3,1.4-1.8,1.4c-0.2,0-0.4,0.1-0.6,0.1l-0.3-0.9c-0.1-0.2-0.1-0.1-0.2-0.1
		c-0.3,0-0.3,0.1-0.5-0.2h0.1c0.2,0.1,0.5,0.2,0.7,0.3c0.2-0.1,0.2-0.3,0.1-0.3h0.4c0.4,0,0.8,0,1.1-0.1c0.3-0.1,0.5-0.4,0.8-0.6
		c-0.3-0.1-0.7-0.4-0.9-0.3c-0.3,0.2-0.7,0.3-1,0.3c-0.1-0.3-0.3-0.6-0.5-0.8c-0.4-0.4-0.6,0.2-0.9,0.3c-0.1,0-0.4,0-0.4-0.1
		c-0.1-0.1-0.1-0.3,0-0.4c0.3-0.2,1-0.4,1-0.5c-0.1-0.3-0.1-0.5-0.2-0.5c-0.1-0.2-0.2,0.6-0.5,0.5c-0.3,0-0.5,0-0.7,0v-0.1
		c-0.1,0-0.2,0-0.3,0c0,0,0,0.1-0.1,0.1c-0.5,0.2-1.1,0.3-1.7,0.5c-0.6,0.1-1.2,0.3-1.8,0.5c-0.3,0.1-0.6,0.3-0.9,0.5
		c0.6,0,1.3-0.1,1.8-0.2c-0.2,0.3-0.4,0.5-0.6,0.8c0.4,0,0.9-0.1,1.3-0.1h0.7c0,0.1,0.1,0.1,0.2,0.2c0.3,0.1,0.4,0.4,0.6,0.6
		c-0.1,0-0.2,0.1-0.2,0.1c-0.6-0.2-1.1-0.1-1.6,0c-0.7,0.1-1.3,0.4-2,0.6c-0.2,0.1-0.3,0.3-0.4,0.5c-0.1,0-0.1,0.1-0.2,0.1
		c-0.4-0.5-0.9-0.9-1-1.3c-0.1-0.8-0.5-0.9-0.9-1c0.1-0.1,0-0.3,0-0.5c0.4-0.3,0.7-0.5,1-0.8c-0.3-0.3-0.7-0.4-1.1-0.5h-0.2l0,0
		c0-0.1,0-0.1-0.1-0.1c0.1,0,0.2-0.1,0.4-0.1c0,0.1,0,0.1,0.1,0.1s0.2-0.1,0.2-0.1c0-0.1,0.1-0.3,0-0.3c-0.4-0.1-0.9-0.4-1-0.3
		c-0.2,0.3-0.4,0.6-0.6,0.9c-0.4,0.1-0.9,0.2-1.3,0.3c-0.1,0-0.2,0.1-0.3,0.2c0.1,0,0.2,0.1,0.3,0.1c-0.1,0-0.2,0-0.3,0
		c0.5,0.8-0.7,0.3-0.6,0.7c0,0.1-0.1,0.2,0,0.3c-0.8,0.2-1.2-0.3-1.6-1c-0.1-0.3-0.3-0.7-0.5-0.8c-0.3-0.1-0.7,0-1,0.1
		c0.4,2-0.7,1.3-1.6,0.8c-0.1,0.3-0.2,0.5-0.3,0.8c-0.3-1.7-1.3-1.1-2.1-0.8c0,0,0.1,0,0.1-0.1c-0.2-0.1-0.3-0.2-0.5-0.4
		c-0.1,1.2-0.8-0.3-1,0.2c-0.1,0.1-0.3,0.2-0.3,0.4c0,0.1,0.1,0.3,0.1,0.4c-0.5,0.2-0.9,0.2-1.2-1c0-0.2-1.6-0.1-2.4-0.1
		c0.3,0.5,0.6,1,0.8,1.6c0.1,0.3,0.4,0.1,0.6,0c-0.2,0.2-0.3,0.4-0.6,0.2c-0.1,0.2-0.2,0.4-0.2,0.6c-0.1-0.2-0.1-0.4-0.2-0.5
		c0,0,0.1,0,0.1-0.1s0-0.2-0.1-0.2c-0.3-0.2-0.5-0.4-0.8-0.6l-0.2,0.1c0.2,0.4-0.2,0.8-0.4,1.2c-0.8,0.4-1.7,0.9-2.5,1.2
		c-0.4,0.1-0.8,0.2-1.2,0.2c0.2,0.3,0.4,0.6,0.7,0.8c0.1,0.1,0.4,0,0.5-0.1c0.6-0.5,1.1-0.7,1.8-0.3c-0.1,0.1-0.2,0.2-0.4,0.3
		c0-0.1-0.1-0.1-0.1-0.2c-0.1-0.1-1,0.3-1.5,0.5c-0.3,0.1-0.4,0.5-0.5,0.8c0.1,0.1,0.3,0.2,0.4,0.2c0.6-0.5,0.7-0.2,0.8,0.2
		c-1,0-1.8-0.1-2.8-0.2c-0.1,0-0.3-0.4-0.3-0.5c0.1-0.2,0.4-0.4,0.6-0.5c0,0,0.1,0.1,0.2,0.1c-0.5,0.8,0.4,0.4,0.5,0.7
		c0.1-0.3,0.4-0.6,0.3-0.8c-0.1-0.2-0.5-0.4-0.8-0.4c-0.5,0-1,0.1-1.5,0.2l0,0l0,0c-0.5,0.1-0.9,0.1-1.4,0.1c0.3-0.4,0.6-0.7,1-0.9
		l0,0c0.3,0,0.7-0.1,1-0.2c-0.1,0-0.1-0.1-0.2-0.1c0.1,0,0.1,0,0.2,0c0.3,0,0.6-0.3,0.9-0.5c-0.2,0-0.5,0-0.6,0s-0.2,0-0.3,0
		c0.1,0,0.2-0.1,0.3-0.1c0.2-0.1,0.4-0.2,0.5-0.3c0.1-0.2,0.2-0.4,0.3-0.6c-0.8,0.3-1.6,0.7-2.4,0.9c-0.1,0-0.2-0.1-0.2-0.1
		c-0.1-0.1,1.9-0.8,3.2-1.2c0.3-0.2,0.6-0.3,0.9-0.5c-0.2-0.1-0.3-0.2-0.4-0.4c-0.2,0.9-0.7-0.3-1,0.1c-0.1,0.1-0.3,0.1-0.3,0.3
		c0,0.2,0.1,0.3,0.1,0.5c-0.4,0-1.1,0.1-1.2-0.1c-0.5-0.5-0.8-0.2-1.1,0.1c0-0.2,0-0.5-0.1-0.9c-0.1-0.3-0.5-0.5-0.9-0.7
		c-1-0.6-2,2.1-3.2-0.1c-0.1-0.2-2.5-0.4-3.5-1c-1.2-0.8-2.2,0-3.3,0.1c-0.4,0-1-0.1-1.1,0.1c-0.3,0.5-0.1,1,0.2,1.3
		c-0.6,0-1.1,0.4-1.7,0.4c0-0.2,0.2-0.4,0.5-0.6c0,0,0-0.2-0.1-0.3c0-0.1-0.2-0.2-0.3-0.2c-0.8,0.4-0.9,0.7-1.7,1
		c-0.5,0.2-0.5-0.2-1-0.1c-0.4,0.1-0.2,0.2-0.7,0.4c0,0.1,0,0.1,0.1,0.1c0.5,0.2,0.9,0.7,1.5,0.1c0,0.1,0.1,0.1,0.1,0.1
		c0,0.1,0,0.2,0,0.2s-0.1,0-0.2,0l0,0l0,0c-0.1,0-0.1,0-0.2,0c0.1,0,0.1,0.1,0.1,0.2l-0.4,0.9c-0.4,0-0.7,0-1,0
		c-0.2,0.1-0.2,0.1-0.3,0.1V512c0-0.1,0-0.1,0.1-0.2c0-0.1,0.1-0.2,0.1-0.2c-0.3-0.2-0.5-0.2-0.6,0c-0.1-0.1-0.2-0.3-0.3-0.4
		c-0.2-0.3-0.4-0.8-0.5-0.8c-0.3,0-0.5,0.1-0.8,0.2c-0.1-0.1-0.1-0.1-0.2-0.2c-0.1,0.1-0.2,0.2-0.1,0.3c-0.1,0-0.1,0.1-0.2,0.1
		c-0.1,0.1-0.2,0.1-0.3,0.2c-0.4-0.3-0.7-0.5-1.1-0.8c-0.1-0.1-0.3-0.3-0.4-0.4c0,0,0.1-0.3,0.2-0.3c1.8-0.1,4,2.1,5.1-0.6
		c0.1-0.3,0.7,1,0.5-0.1c-0.1-0.3-0.7-0.5-1.1-0.7c-0.1,0.3-0.2,0.6-0.2,0.9c0.1,0.8-0.4,0.9-0.9,1c-0.1,0-0.3-0.2-0.4-0.3
		c-0.3-0.6,1.4-0.4,0.5-0.7c-1.2-0.4-2.6-0.8-3.9-0.6c-0.4,0-0.8,0.2-1.1,0.5c-0.3,0.2-0.4,0.6-0.6,0.9c0,0.1,0,0.2,0.1,0.4h0.1
		c0,0.1,0.1,0.2,0.1,0.2c-0.4,0-1,0.2-1.2,0c-0.4-0.3-0.6-0.2-0.8-0.1c0-0.3,0-0.8,0.6-0.3c0,0,0.3-0.2,0.3-0.3
		c-0.7-1.6-1.7,0.5-2.3-0.3c-0.5,1.2,0.9,0.6,1.1,1.1l0,0c-0.2,0.2-0.3,0.4-0.6,0.2c-0.4,0.7-0.4,1.1-0.7,1.3h-0.2
		c1.2-2,0.2-1.1-0.5-0.8c-0.4-0.3-0.8-1-0.1-0.5l0.1,0.5c0.3,0.2,0.5,0.3,0,0.1c-1.1-0.3-2.3-0.2-3.5-0.2c-0.2,0-0.4,0.1-0.6,0.1
		c0.2-0.2,0.3-0.5,0.5-0.7c0.4-0.5,0.9-1,1.4-1.5c-1.8-0.1-3.8-0.7-5.3,0.9c-0.4,0.4-0.2,1.4-1.2,1.4c0.1,0.1,0.2,0.2,0.3,0.3
		c0.5,0.1,1.4-0.6,1.5,0.4c0.1,1.1-0.8,0.2-1.2,0.3c-0.8,0.2,0,0.6-0.1,0.9c-0.1,0.2,0.1,0.5,0.2,0.7c-0.1,0-0.2,0-0.2,0
		c-0.5,0-0.8-0.2-1-0.4c0.2-0.2,0.3-0.5,0.4-0.7c-0.2,0.1-0.4,0.2-0.6,0.3c0,0-0.1,0-0.1,0.1l0,0c0-0.1,0.1-0.1,0.1-0.2
		c0.1-0.2,0.2-0.3,0.3-0.5c0-0.2,0-0.4,0-0.7c-0.2,0.2-0.3,0.5-0.5,0.7c0-0.1,0-0.2-0.1-0.4c0.3-0.3,0.6-0.6,0.9-0.9
		c0.2-0.2,0.3-0.5,0.4-0.7c0.2,0,0.4-0.2,0-0.6c-0.1-0.1-0.1-0.2-0.2-0.2c0.1-0.1,0.3-0.1,0.5,0c0.1-0.2,0.1-0.4,0.2-0.6
		c0,0-0.1,0-0.2-0.1c0-0.1,0.1-0.1,0.1-0.2c0.1,0.1,0.2,0.1,0.3,0.2c0,0.1,0,0.1-0.1,0.2c0.1,0,0.2,0.1,0.2,0.1
		c0.1,0,0.3-0.1,0.3-0.2c-0.1-0.3-0.3-0.9-0.4-1c-0.5,0-0.9,0.1-1.3,0.2c-0.9,0.2-1.7,0.5-2.6,0.6c-0.4,0.1-0.8,0-1.2,0
		c0.2,0.3,0.3,0.5,0.6,0.7c0,0,0,0,0.1,0l-0.1,0.1c-1.4,1.1-1.1-1.4-2.2-1.1c0,0,0,0.1-0.1,0.1c-0.9,0.3-0.9,0.5-0.7,0.7l0,0
		c-0.5,0-1.2-0.4-1.2,0.6c0,0.3-0.3,0.5-0.4,0.8c0-0.4,0.1-0.8,0-1.2c0-0.1-0.2-0.1-0.4-0.2c0-0.1-0.1-0.1-0.2-0.1s-0.1,0-0.2,0
		c-0.4,0-0.4,0.1-0.4,0.3c-0.6,0.3-1.2,0.6-1.8,0.8c-0.1,0.1-0.3,0.1-0.5,0.2c0.1-0.2,0.2-0.4,0.3-0.6c1.2-0.4,2.1-0.7,3.4-1.2
		c0.3-0.2,0.6-0.3,0.8-0.5c-0.2-0.1-0.3-0.2-0.5-0.3c-0.2,0.9-0.8-0.2-1,0.2c-0.1,0.1-0.3,0.2-0.3,0.3c0,0.1,0.1,0.3,0.1,0.5
		c-0.4,0-1.1,0.2-1.2,0c-0.5-0.5-0.8-0.1-1,0.1c0-0.1,0-0.2-0.1-0.2c0.1-0.1,0.2-0.3,0.3-0.4c-0.4-0.1-0.1-0.1-0.5-0.2
		c-0.1,0-0.3,0.1-0.4,0.1c-0.1-1.5-0.8,0.4-1.1-0.6c-0.3,0.2-0.7,0.4-0.9,0.7c-0.6,0.9-0.3,0.3-0.6,0c-0.6-0.5-1.6,1.6-2.4-0.1
		c-0.4-0.9-0.4,0.9-1.2,0.9c0.1-0.5,0-0.9,0.2-1c-0.5-0.1-0.9,0.8-1.5,0.6c-0.1,0.1-0.7,0.2-0.9,0.3c0.4,0.3,0,2.3,0.4,2.4
		c0.1,0,1.1-0.6,1.4-1c0.1,0,0.1,0.1,0.2,0.1c0.4,1,0.8,0.4-0.1,0.9c-0.6,1,3.4,0.1,2.8,1c-0.5-0.4-2.7,1.1-3.2-0.1
		c-0.1-0.2-0.7-0.5-1-0.4c-0.1,0-0.3,0.1-0.4,0.2v1.1c0.6,0,1.1,0.1,1.7,0.1c0.1,0,0.2,0.3,0.3,0.5c-1.1,0.2-0.7,0.9-0.4,1.5
		c0.1,0.2,0.4,0.4,0.7,0.4c0.8,0,1.5-0.1,2.3-0.1c0.4,0,0.7-0.1,1-0.1c-0.2,0.3-0.4,0.6-0.7,0.9c-0.2-0.2-0.3-0.5-0.5-0.5
		c-0.6,0-1.3,0-1.9,0.1c-0.1,0-0.1,0.5-0.2,0.8c0,0.1-0.1,0.2-0.1,0.2c-0.1,0-0.2-0.1-0.2-0.1c-0.1-1.2-1.2-1-1.9-1.1v2.6
		c0.1,0,0.2-0.1,0.3-0.1c0.1,0.1,0.2,0.2,0.2,0.3c-0.1,0-0.4,0-0.6,0c-0.1,0,0.2,0.6,0.2,0.6c2.2,3.5,0.9,1.2,1,0.1
		c0.2,0.2,0.4,0.2,0.5,0c0.2,0,0.3,0,0.5,0.1c0,0.1-0.1,0.1-0.1,0.2c-0.1,0.1-0.3,0.2-0.5,0.2c0,0,0,0.2,0,0.3s0.1,0.2,0.2,0.2
		c0.1,0,0.1,0,0.2-0.1l0,0c0.8,0,0.7,0.4,1.4,0.4c-0.1-0.1,0.5-0.7,0.3-0.9c0.5,0,0.4,0.4,0.9,0.4c0.4,0,0.3-0.1,0.8-0.2
		c0-0.1,0-0.1-0.1-0.2c-0.1-0.1-0.2-0.2-0.3-0.4c0.3,0,0.8-0.1,1.1-0.2c-0.2-0.4-0.4-0.8-0.6-1.1c-0.2,0.3-0.8,0.2-1.2,0.3
		c0,0,0,0-0.1,0c-0.5,0-0.8,0.1-1,0.2c0-0.2-0.1-0.4,0-0.4c0.3-0.4,1-0.6,1.6-0.8c0,0,0.2,0.4,0.4,0.6c0.2-0.3,0.4-0.4,0.5-0.5
		c0.3,0.1,0.6,0.1,0.8,0.2c0.2,0,0.2,0,0.3,0v0.1l-0.1,0.1c-0.1,0.1-0.2,1-0.2,1c0.3,0.3,0.4,0.3,0.6,0.2c0.1,0.2,0.2,0.4,0.2,0.6
		c0.5-0.4,0.7-0.8,0.8-0.3c0.1,0.2,0.1,0.3,0.2,0.6c0.5-0.3,0.4-0.7,0.2-0.9c0-0.1,0-0.2,0.1-0.2c0.1-0.1,0.2,0,0.4,0
		c0,0.2,0,1,0.4,1.1c0-0.1,0.1-0.2,0.1-0.3c0.2,0.3,0.4,0.7,0.7,1c0,0.1,0.3,0.1,0.3,0c0.2-0.2,0.2-0.9,0.5-1.1
		c-1.7,0-0.5-1-0.5-1.6l0,0c0.4,0.1,0.9,0,1.3,0.1c0.8,0.2,1.4,0.3,1.5-0.8c0-0.1,0.1-0.1,0.2-0.1c0.1,0,0.2,0,0.3,0.1
		c0,0.1-0.1,0-0.1,0.1s0,0.2-0.1,0.4c0.1,0,0.1,0,0.2,0c-0.3,0.3-0.8,0.5-1.1,0.7c-0.4,0.3-0.8,0.9-0.7,1.2c0.6,1.5,1.7,0,2.6-0.3
		c0.1,0.1,0.2,0.1,0.3,0.2v0.1c0.1,0,0.1,0,0.2,0l0,0l0,0c0.1,0,0.1,0,0.2,0s0.1,0,0.2,0c0.1,0.1,0.1,0.2,0.2,0.4
		c-0.1,0.1-0.3,0.3-0.5,0c0,0-0.4,0.2-0.6,0.2c-0.1,0-0.1,0.2-0.1,0.2c1,0.7,1.6-0.3,2.4-0.4c0,0.2-0.1,0.4-0.4,0.7
		c0,0,0,0.2,0.2,0.2c0,0,0.2,0.1,0.3,0.1c0.4-0.3,0.6-0.5,0.8-0.8c0.6,0.3,1.2,0.8,1.9,1c0.1,0,0.3,0.1,0.4,0c1.2-1,2.7-1.1,4.2-1
		c0.6,0.1,1.1,0.3,1.7,0.5c-0.2-1-0.9-1.4-1.9-1.4c-0.4,0-1.2-0.2-1.2-0.4c-0.1-0.4-0.1-0.8-0.1-1.2h0.1c0-0.2-0.1-0.3-0.1-0.5
		s0-0.3,0-0.5c0.1,0.3,0.2,1,0.3,1c0.6,0,1.1,1,1.8,0.8l0.1,0.1c0.6-0.1,0.9-0.3,1.3-0.4l0,0c0.3,0.5,0.4,1.1,0.6,1.7l-0.2,0.1
		c-0.1-0.1-0.2-0.4-0.4-0.4c-0.1,0-0.3,0.2-0.4,0.3c0.4,0.1,0.9,0.4,1.3,0.2c0.4-0.1,0.7-1,0.9-1c1.3,0.2-1.4,0.9-0.2,0.8
		c1.6-0.2,3.4,0.9,4.8-0.5c0,0.2,0,0.4,0.1,0.5c0.3,0.5,0.7-1,1,0c0,0.1-0.2,0.2-0.4,0.3c0.5-0.1,0.9-0.2,1.4-0.3
		c-0.1-0.3-0.1-0.7-0.3-0.7c-2.7-0.9,0.8-2.9-0.8-4c0.4,0.3,1.3,0.5,1.3,0.8c0,1.3,1.5,0.5,2.2,0.8l0,0c-0.3,0.1-0.5,0.5-0.7,0.8
		c0.2-0.1,0.4-0.2,0.6-0.2l0.2-0.1c-0.1,0.1-0.2,0.1-0.2,0.2c-0.1,0.2-0.3,0.3-0.4,0.5c-0.1,0.2-0.1,0.4-0.1,0.6
		c0.2-0.2,0.5-0.4,0.7-0.6c0,0.1,0,0.3,0,0.4c-0.3,0.2-0.7,0.5-1.1,0.8c-0.3,0.3-0.5,0.5-0.6,0.7c0.2,0.1,0.4,0.1,0.5,0.2
		c-0.1-0.9,0.8,0,0.9-0.4c0.1-0.1,0.2-0.2,0.2-0.3s-0.2-0.3-0.3-0.4c0.1,0,0.3-0.1,0.4-0.2c0.2,0.6,0.7,1,0.9,1.6
		c0,0.1,0.4,0.1,0.6,0.1c0-0.7-0.2-1.4-1-1.7v-0.1c0.1,0,0.1,0,0.2,0c0.8,0.4,0.8-0.3,1.1-0.7c0.7,0.4,0.3,1.5,0.9,1.9
		c0.5,0.3,1.1,0.5,1.7,0.6c0.4,0.1,0.8-0.1,1.3-0.2c-0.3-0.2-0.5-0.4-0.8-0.6c-0.2-0.1-0.3-0.3-0.5-0.5c0.6-0.3,1.4,1.1,1.9-0.1
		c0.1,0.2,0.3,0.4,0.2,0.5c-0.6,1.4,1.2,0.1,1.1,0.9c0,0,0.2,0,0.3,0v-0.9c0-0.1,0-0.3,0.1-0.4c0.1-0.1,0.3-0.2,0.4-0.1
		c0.1,0.1,0.1,0.3,0.2,0.4c0.2,0.3,0.6,1,0.7,0.9c1.8-0.7,3.8,0.6,5.6-0.7c0,0,0.2,0.2,0.2,0.3v0.4c0.2-0.1,0.6-0.3,0.6-0.4
		c0.1-1,0.1-2.2,1.6-1.1c0.7,0.5,2.2-0.3,2.4,1.3c0.3-1.3,1.7,0.7,2.2,0c0,0.1,1.1-0.3,1.6-0.4c0.2,0,0.5,0,0.7,0
		c0.2,0.1,0.3,0.3,0.6,0.3s0.3-0.1,0.4-0.1h0.1c0.3,0.1,0.5,0.2,0.8,0.3c0.2,0.1,0.4,0.3,0.5,0.4c0-0.1,0-0.2,0.1-0.3
		c0.2,0,0.3,0.1,0.5,0.1c0.1,0.2,0.4,0.2,0.7,0.3l0.1-0.2c1.4,0.1,2.8,0,4.2,0c0.4,0,0.8-0.7,1.1-1c0,0-0.2-0.3-0.2-0.5
		c-0.1,0.1-0.2,0.2-0.3,0.3c-0.3,0.3-0.6,0.5-0.9,0.8c-0.2-0.7-0.4-1.3-0.5-2c0-0.1,0.6-0.3,0.9-0.3c0.9-0.1,1.7-0.2,2.6-0.3
		c-0.2-0.3-0.4-0.6-0.5-1c0.2,0,0.3,0,0.5,0.1c0.3,0.1,0.6,0.1,0.8,0.1c0.1,0.6,0.2,1.2,0.3,1.8c-0.1,0.2-0.2,0.5-0.4,0.6
		c-0.1-0.1-0.4-1-0.6-1.1c-0.4,0.3-0.5,1.6-1.2,1.5c-0.1,0-0.3,0.1-0.3,0.1c0,0.1,0,0.2,0,0.4c0.1,0,0.2-0.1,0.4-0.2
		c0.3,0,0.6,0,0.9-0.1c0,0.1,0,0.1,0,0.2c-0.4-0.3-0.4,0.7-0.8,0.3c0,0-0.4,0.2-0.6,0.4v0.2c1.1,0.5,1.5-0.7,2.3-0.9
		c0.1,0.2,0,0.4-0.2,0.7c0,0,0.1,0.2,0.2,0.2c0,0,0.3,0.1,0.3,0c0.3-0.4,0.4-0.6,0.6-0.9c0.1,0.3,0.3,0.5,0.5,0.7
		c0.3,0.2,1-0.1,1.6-0.2c-0.4-0.2-0.8-0.4-1.2-0.6c-0.2-0.1-0.3-0.3-0.4-0.5c0,0,0,0,0.1-0.1l0,0c0.3,0,0.6-0.1,0.9-0.1
		c0.5,0.1,0.9,0.6,1.4,0.9c0-0.5,0.1-1.1-0.2-1.4c-0.5-0.5-0.2-0.6,0.1-0.7c0.1,0,0.2,0,0.2,0l0.1-0.2c0.1,0.2,0.2,0.5,0.3,0.7
		c0.4-0.3,0.4-0.7,0.4-1.1c0.2-0.1,0.3-0.1,0.5-0.2c0.1-0.1,0.2-0.2,0.2-0.2s0,0.1,0.1,0.1c0,0.1,0,0.1,0,0.2l0,0
		c-0.3,0.5-0.4,1.2-1,1.2c0.3,0.3,1,0.6-0.2,0.7c-0.1,0-0.2,0.6-0.4,0.9c0.4,0.2,0.8,0.4,1.2,0.2c0.2,0.2,0.4,0.3,0.6,0.4
		c0.1,0.1,0.4,0,0.5-0.1s0.2-0.2,0.3-0.2c0.1,0.1,0.2,0.1,0.3,0.1c0.1-0.1,0.2-0.2,0.2-0.3c0.3-0.1,0.5-0.1,0.8,0l0,0
		c0.1,0,0.1,0,0.2,0c0.2,0.1,0.3,0.1,0.5,0.2c0.8,0.5,2.6-0.7,3.5-0.4c0,0,0.8-0.1,0.9-0.1c1-1.3,2.1-0.2,3.2-0.1
		c0.6,0.1,1.2,0,1.8-0.2c0.2-0.1,0.2-0.7,0.2-1.1c0-0.1-0.1-0.1-0.2-0.1c0.3-0.2,0-0.4-0.2-0.7c0-0.1,0-0.2,0.1-0.2
		c0.1-0.1,0.2,0,0.4,0c0,0.1-0.1,0.3,0,0.4c-0.1,0-0.1,0-0.2,0c0.7,0.7,1.7,2.7,2.4,2.7c1.7,0,0.1-1.4,1.7-1.7c0.3-0.1,0.6,0,0.8,0
		c0,0.2-0.1,0.4-0.1,0.4c-1.4,0.1,0.1,0.7-0.1,1c0.4-0.3,0.8-1,1.5-0.3c-0.1-0.4-0.2-0.8-0.3-1.2c0-0.1-0.1-0.2-0.2-0.3
		c0.2-0.1,0.4-0.2,0.7-0.3c0.1,0.1,0.1,0.3,0.2,0.4c0.2,0.5,0.4,1.1,0.6,1.6c0-0.3,0-0.6,0.1-0.9c0-0.1,0.2-0.2,0.3-0.3
		c0,0.1,0.1,0.2,0.1,0.3c0.1,0.6,0.4,0.5,0.8,0.4c-0.3,0.2-0.5,0.3-0.8,0.4c0.5,0.1,1.1,0.1,1.6,0.1c0.2,0,0.6-0.2,0.6-0.3
		c0.3-0.5,0.7-0.8,1.3-1c0,0.1,0,0.1,0,0.1c1,0.4-2,0.4-0.1,0.7c0.1,0,0.2-0.1,0.4-0.2c-0.1,0.1-0.1,0.2-0.1,0.2
		c1.1,1.3,2.3,0,3.4,0.2c0,0.3-0.3,0.6-0.8,0.8c0,0-0.1,0.4,0.4,0.6c1.1-0.5,1.3-1,2.4-1.4c0.6-0.2,0.7,0.4,1.3,0.3
		c0.5-0.1,2.1,0,2.5-0.2c0.6,0.3,1.2,0.7,1.2-0.6c-0.9-0.7-3.5-1.4-4.6-1c-0.1-0.2,1-0.8,1.5-1.1c0.8-0.6,0.8,1.5,1.7,0.3
		C292.6,519,293.1,518.8,291.8,518z M288.6,513.1c0.5,0.6,0.9,0.6,1.3,0.4c0.1,0.1,0.2,0.2,0.2,0.4c-0.1,0-0.2,0.1-0.2,0.1
		c-0.6-0.2-1.1-0.2-1.6-0.1c-0.1,0-0.1,0-0.3,0C288.3,513.6,288.4,513.4,288.6,513.1z M188.3,514.3c0.1-0.1,0.2-0.2,0.2-0.3
		c0,0.1,0.1,0.3,0.1,0.4c-0.1,0-0.2,0-0.4,0.1C188.2,514.4,188.2,514.4,188.3,514.3z M188.5,515.5c-0.3-0.1-0.8-0.2-0.9-0.4
		c-0.1-0.3,0-0.6,0.2-1h0.1c0.1,0,0.3,0.1,0.2,0.2c-0.1,0.2-0.1,0.4-0.2,0.6c0.3,0-0.1,0.2,0.2,0.1c0.4-0.1,0.5-0.2,0.7-0.2
		C188.6,514.9,188.5,515.2,188.5,515.5z M191.2,513.5c-0.4,0.2-0.6,0.2-0.9,0.4c-0.2-0.4-0.4-0.6-0.6-0.9
		C190.2,513.1,190.8,513.3,191.2,513.5z M190.3,519c-0.1,0-0.1,0-0.2-0.1c0-0.3,0-0.6-0.2-0.8c0.2,0.1,0.4,0.3,0.6,0.4
		C191,518.9,190.7,519.1,190.3,519z M191.7,518.2c-0.5-0.1-1-0.1-1.5-0.3c0.3,0,0.7-0.1,1-0.1c0.2,0,0.5-0.1,0.7-0.1
		c-0.1-0.1-0.1-0.2-0.2-0.3c-0.1-0.3-0.2-0.5-0.3-0.8c0,0,0.2-0.1,0.4-0.2c0.1,0.5,0.3,1,0.3,1.5C192.2,518,191.9,518.1,191.7,518.2
		z M193.8,516c-0.1,0.1-0.4,0.2-0.6,0.2c0.1-0.2,0.2-0.4,0.2-0.6c0-0.3-0.2-0.5-0.3-0.8c0-0.1-0.3-0.1-0.4,0
		c-0.1,0.2-0.2,0.4-0.3,0.6c0-0.1-0.1-0.1-0.1-0.2c0.5-0.2-0.2-0.7,0-1c0.1,0,0.1,0.1,0.2,0.1c0.2,0.2,0.4,0.1,0.5,0
		C193.6,514.5,195,514.5,193.8,516z M196.3,513.8L196.3,513.8C196.3,513.8,196.2,513.8,196.3,513.8c-0.3,0.3-0.6,0.4-1.2,0.3
		c0.1,0.2,0.1,0.5,0.2,0.7c0.2-0.1,0.3-0.2,0.5-0.3c0,0.4,0.1,0.7,0.1,1.1c-0.4-0.3-0.9-0.6-1-1c-0.3-0.7-1.1-1-1.8-0.8
		c0.1-0.2,0.3-0.4,0.6-0.2c0-0.2,0.1-0.4,0.1-0.6c0,0-0.1,0-0.2,0c0-0.1,0.1-0.1,0-0.2c0.1,0.1,0.2,0.1,0.3,0.2c0,0.1,0,0.1,0,0.2
		c0.1,0,0.2,0.1,0.3,0.1c0.1-0.1,0.3-0.1,0.2-0.2c-0.2-0.3-0.4-0.9-0.5-0.8c-0.2,0-0.3,0.1-0.5,0.1c0.1-0.1,0.2-0.3,0.3-0.4
		c0,0-0.1-0.1-0.1-0.2c0.3,0.2,0.6,0.3,0.5,0.5c0.9,0.1,1.7,0.2,2.6,0.3C196.6,512.9,196.6,513.4,196.3,513.8z M196.9,511.6
		C196.9,511.5,196.9,511.5,196.9,511.6C196.9,511.5,196.9,511.5,196.9,511.6C196.9,511.5,196.9,511.5,196.9,511.6z M198.8,511.8
		c-0.6,0.5-1.2,1-1.6-0.4C197.8,511.2,198.3,511.3,198.8,511.8z M197.3,515.3c0.2,0,0.4-0.1,0.8-0.3l0,0c-0.2,0.2-0.3,0.4-0.5,0.6
		c-0.1,0-0.1-0.1-0.2-0.1C197.4,515.5,197.3,515.4,197.3,515.3L197.3,515.3z M197.8,518.5c-0.1,0-0.3,0.1-0.4,0.1
		c0.1-0.4,0.2-0.9,0.4-1.1l0,0h0.1c0.1,0.2,0.1,0.4,0.2,0.6c0.2-0.1,0.1,0.2,0.2,0c0.2-0.2,0.3-0.3,0.4-0.4
		C198.6,518.2,198.6,518.7,197.8,518.5z M199,517c-0.1,0.1-0.1,0.1-0.2,0.2l0,0l-0.1,0.1c-0.1,0.1-0.3,0.2-0.4,0.3
		c0,0-0.1-0.1-0.1-0.2c0-0.2,0.1-0.3,0.1-0.5c0.2-0.3,0.3-0.5,0.2-0.7c0.1-0.2,0.3-0.4,0.5-0.6c0.1,0.1,0.3,0.2,0.4,0.4
		C200.3,516.8,198.8,516.5,199,517z M208.9,517.9c-0.4,0-0.9-0.1-1.3,0c-0.2,0-0.5,0.1-0.8,0.2c0.4,0.1,0.7,0.2,1.1,0.2l0,0
		c-0.1,0.4,0,0.8,0,1.2c0,0.1,0,0.1,0.1,0.2c-0.2-0.1-0.4-0.2-0.8,0c0-0.1-0.1-0.1-0.1-0.2c0-0.1,0-0.2,0-0.2c0.1,0,0.3,0,0.4,0
		c-0.2-0.2,0.2-0.4-0.1-0.5c-0.9,0-1,0.4-1.6,0.4c0-0.1,0-0.2,0-0.4c-0.6,0-1.2,0.2-1.6-0.4c-0.1-0.1-0.3-0.1-0.3-0.1
		c-0.1,0.1-0.2,0.2-0.3,0.3c0.1,0,0.3,0,0.4,0.1c0.3,0.1,0.5,0.3,0.7,0.4c-0.1,0.1,0,0.1-0.1,0.1c-0.1-0.2-0.3-0.1-0.5,0
		c-0.6-0.4-1-1-1.2-1.9c0-0.1,0.4-0.4,0.6-0.4c0.5,0.2,1,0.3,1.5,0.3c0.1,0,0.2,0.1,0.4,0c0.5,0,1-0.1,1.4-0.5c0.7-0.1,1.2-0.3,1-1
		c0.5,0.1,0.8,0.3,1,0.6c0,0,0,0.1,0.1,0.1c0.1,0.2,0.2,0.5,0.3,0.7c0,0.2,0.1,0.3,0.1,0.4C209.2,517.9,209,517.9,208.9,517.9z
		 M213.2,511.1L213.2,511.1L213.2,511.1L213.2,511.1z M210.8,512.9c0.8-0.3,1.6-0.6,2.5-1c0,0.1,0,0.2-0.1,0.3
		c-0.1,0-0.2,0.1-0.3,0.1v-0.1c-0.1,0.1-0.2,0.1-0.3,0.2c-0.1,0-0.1,0-0.2,0l0,0c-0.4,0.2-0.8,0.4-1.3,0.6
		C211.1,513,210.9,512.9,210.8,512.9z M214,513.4c-0.3,0-0.6-0.2-0.7,0c-0.3,0.2-0.6,0.2-0.9,0.2c0.1-0.1,0.2-0.2,0.4-0.3
		c-0.2,0-0.4,0-0.6,0.1c-0.1,0-0.2,0-0.3,0c0.1,0,0.2-0.1,0.3-0.2c0.1-0.1,0.4-0.2,0.5-0.4c0-0.1,0.1-0.1,0.1-0.2
		c0.2,0.2,0.4,0.3,0.6,0.5C213.6,513.2,213.8,513.3,214,513.4L214,513.4z M228.6,510.1c0,0.1-0.5,0.3-0.6,0.5s0.1,0.5,0.1,0.7
		c-0.8-0.1,0-1.4-2.1-1C227.6,509.7,228.1,509.4,228.6,510.1z M224.9,510.5h0.5c0.1,0,0.2-0.1,0.3-0.1c0.4,0,0.8,0.1,1.1,0.1
		c-0.1,0.1-0.2,0.3-0.2,0.3c-0.6-0.1-1.2,1.1-1.9,0.5c0-0.1,0.1-0.1,0.1-0.1c-0.1-0.1-0.1-0.1-0.2-0.2
		C224.7,510.8,224.8,510.5,224.9,510.5z M224,511.5c0,0,0.3,0,0.5-0.1c-0.1,0.1-0.1,0.3-0.2,0.4l0,0c-0.1,0-0.3,0-0.4,0
		c-0.3-0.1-0.5-0.2-0.8-0.2C223,511.6,223.7,511,224,511.5z M218,518.4c-0.2,0-0.4-0.1-0.7-0.3c-0.2-0.1-0.7,0-0.9-0.1
		c-0.1-0.1,0-0.6,0-0.8c0.3,0.1,0.5,0.3,0.8,0.4h0.1c0,0.1,0,0.2,0,0.2c0.1-0.1,0.2-0.1,0.3-0.2c0.3,0,0.5,0.1,0.8,0.1
		C218.3,518,218.1,518.2,218,518.4z M219.3,517.4L219.3,517.4L219.3,517.4L219.3,517.4z M223.6,516.4c-0.1,0.2-0.4,0.5-0.6,0.6
		c0.1-0.2,0-0.6-0.3-0.3c-0.2-0.6-0.5,0.1-0.8-0.1c-0.1,0.1-0.1,0.2-0.2,0.3c-0.2-0.1-0.6-0.3-0.7-0.3c-0.2-0.1-0.4-0.1-0.6-0.1
		c-0.4,0-0.7,0.2-0.9,0.5c-0.1,0-0.3,0.1-0.3,0.2c-0.1,0-0.3,0-0.3-0.1s0-0.2,0-0.2c0-0.1,0-0.2,0-0.3v-0.1l0,0c0,0,0-0.1-0.1-0.1
		l0,0c-0.1-0.1-0.2-0.1-0.3-0.2c-0.4-0.3-0.6-1.1-0.8-1.7c0.4,0.1,0.7,0.2,1.1,0.3c0.1,0,0.1-0.1,0.2-0.1c-0.1-0.1-0.1-0.3-0.2-0.4
		c-0.1-0.1-0.2-0.1-0.3-0.2c0.2,0,0.3-0.1,0.5-0.2c0.4-0.1,0.8-0.2,1.2-0.3l0,0c0.2,0.2,0.3,0.1,0.1,0.7c0.2-0.1,0.1,0.5,0.3,0.4
		c-0.1,0.7-1.3-0.5-1.1,0.5c0.1,0.4,0.2,0.8,0.4,1.3c0.8-0.5,1-1.1,1-2c0.1,0,0.4,0.2,0.5,0.3c0.2,0.1,0.2,0.4,0.4,0.6v0.1
		c-0.4-0.3-0.3,0-0.3,0.2c0.1,0,0.3,0,0.3,0c0.1-0.2,0.6-0.1,0.3-0.5c-0.2-0.3-0.1-0.5-0.1-0.9c0.1,0,0.3,0,0.3,0
		c0.3,0.5,0.7,0.7,1.2,0.9C223.6,515.8,223.7,516.2,223.6,516.4z M225.5,513.7c0-0.1-0.3,0-0.4,0c-0.8-0.2-1.4-0.3-1.5,0.8
		c0,0.1-0.2,0.1-0.2,0.1c0-0.1-0.1-0.1-0.1-0.2c0-0.1,0-0.2,0.1-0.3c-0.1,0-0.4,0-0.5,0s-0.2,0.1-0.3,0.2c0-0.2,0-0.4,0-0.6
		c0-0.1,0-0.2,0.1-0.3c0.6,0.4,0.5-0.3,0.4-0.3c-0.4-0.3-0.8-0.5-1.2-0.8c0,0.2,0,0.5-0.1,0.8c-0.1,0.2-0.2,0.3-0.3,0.4h-0.1
		c0-0.1,0-0.1,0-0.1c0.3-0.5,0.2-0.7,0-0.8c0.3-0.2,0.4-0.4,0.7-0.5c0,0.1,0,0.2,0.1,0.4c0.5-0.1,1.1-0.5,1.6,0c0.1,0,0.3,0,0.3,0.1
		c1.3-0.9,2.5,1.9,3.8,0.3c0.3-0.4,0.6-0.6,1.1-0.7c-0.1,0.1-0.3,0.2-0.4,0.4c-0.6,0.6-1.2,1.1-1.8,1.7c-0.1,0-0.2-0.1-0.3-0.1
		C226.1,513.8,225.5,513.6,225.5,513.7z M227,517c-0.1,0-0.4-0.1-0.5-0.3c0.1,0.2,0.1,0.3,0.2,0.5c-0.1,0-0.2,0-0.4-0.1
		c-0.2,0-0.3-0.1-0.5-0.2c0.4-0.2,0.8-0.3,1.2-0.5l0,0C227.6,516.7,227.4,516.9,227,517z M229.8,517.5c0.2-0.2,0.3-0.4,0.1-0.9
		c0,0,0,0,0-0.1c0,0,0,0,0.1,0v-0.1l0,0c0.1-0.1,0.2,0,0.3,0c0,0.1-0.1,0.1-0.1,0.1c0.1,0.1,0,0.2,0.1,0.4h0.1
		C230.3,517.1,230.1,517.4,229.8,517.5z M232.7,515.5L232.7,515.5c-0.1,0-0.1-0.1-0.2-0.1c-0.3-0.1-0.6-0.3-0.8-0.2
		c-0.1-0.1-0.2-0.1-0.3-0.2v-0.1c0.5,0.2,0.3-0.1,0.2-0.3c-0.1,0-0.3,0-0.3,0.1c0,0.2-0.5,0.2-0.1,0.6l0.1,0.1
		c-0.2,0.1-0.4,0.3-0.5,0.4c-0.7-0.3-1.4-0.3-2.1-0.1c-0.5-0.2-1.1-0.4-1.6-0.6c0-0.2,0-0.4,0-0.5c0.4-0.5,1-0.8,1.9-0.5
		s0-1.2,1-1.1c0-0.2-0.1-0.4-0.1-0.6c0,0-0.1,0.1-0.2,0c0-0.1,0-0.1,0-0.2c0.1,0,0.2,0,0.4,0.1c0,0.1,0,0.1,0,0.2c0.1,0,0.2,0,0.3,0
		c0.1-0.1,0.2-0.2,0.2-0.3c-0.3-0.2-0.7-0.7-0.8-0.6c-0.2,0.1-0.3,0.2-0.4,0.3c0.1-0.4,0.1-0.8,0.2-1.1c0.8,0.2,1.5,0.4,2.3,0.7
		c-0.4,0.2-0.7,0.5-1.1,0.7c0.7,0.5-0.6,1.3,0.4,2c-0.2,0.2-0.2,0.5,0.2,0.4c0,0.7,0.5,0.1,0.8,0.3c0.2-0.1,0.3-0.2,0.4-0.3
		c0,0.4-0.2,0.8,0.1,1.1C232.5,515.4,232.6,515.5,232.7,515.5L232.7,515.5z M234.5,512c0.2,0.1,0.5,0.2,0.7,0.2
		c-0.1,0.2-0.2,0.3-0.3,0.4c-0.3-0.2-0.5-0.3-0.8-0.5C234.3,512.1,234.4,512,234.5,512z M233.2,514.7c0.1,0,0.2-0.1,0.2-0.2
		c0.1-0.2,0.1-0.3,0.1-0.4c0,0,0,0,0.1,0c0,0,0.1,0.1,0.2,0.1c0.1,0.1,0.3,0,0.4,0c0.1,0,0.2,0.1,0.4,0.1v0.1c0,0.1-0.1,0.1-0.2,0.2
		s-0.2,0-0.3,0c0.1,0.1,0.1,0.3,0.2,0.2c0.1,0,0.3,0,0.4-0.1c0.1,0.1,0.3,0.1,0.2,0.2c0,0,0,0,0,0.1
		C234.3,515.1,233.7,514.8,233.2,514.7z M234.1,518.7c0,0-0.3-0.2-0.5-0.3c0.1-0.1,0.2-0.2,0.3-0.2c0.2,0.1,0.3,0.1,0.5,0.2
		C234.3,518.4,234.2,518.6,234.1,518.7z M235.4,517c-0.8-0.1-0.8,0.3-0.9,0.7c-0.1,0-0.2,0-0.4,0c0.3-0.7,0.4-1.4,1.4-1.4
		C235.5,516.5,235.4,517,235.4,517z M238.2,520.2c-0.2-0.1-0.4-0.2-0.6-0.3c0.1-0.3,0.2-0.6,0.1-0.9c-0.1-0.5-0.4-0.1-0.7,0
		c-0.1,0-0.2-0.1-0.2-0.2c0-0.1,0.1-0.3,0.2-0.3c0.1,0,0.2,0,0.3,0c0.3,0.2,0.6,0.4,0.8,0.6C237.9,519.1,238,520,238.2,520.2z
		 M243.4,512.3c-0.1,0-0.1,0-0.2,0C243.2,512.3,243.3,512.3,243.4,512.3z M243.5,521.1c-0.2-0.1-0.3-0.1-0.4-0.3h0.1
		c0.1,0,0.2-0.1,0.3-0.2C243.5,520.8,243.6,521,243.5,521.1z M244.2,516.4c-0.3,0.1-0.5,0.3-0.8,0.7c-0.1,0.2-0.1,0.5-0.2,0.7
		c-0.4-1.1-1.1-1.6-2.2-1.5c0.5-0.1,0.6-0.4,0.5-0.8c0.1-0.1,0.1-0.2,0.2-0.2c0-0.1,0.1-0.2,0.1-0.3c0.1,0,0.2,0.1,0.2,0.1
		c0,0.1,0,0.3,0,0.5c0,0.1-0.1,0.1-0.1,0.2c0,0.1-0.1,0.3-0.1,0.4c0.5-0.3,0.8-0.2,0.9-0.5c0.1-0.6-0.2-0.6,0.3-0.4
		c0.1,0,0.1,0,0.2,0c0,0.3,0.2,0.4,0.6,0.1c0,0,0,0,0,0.1s-0.1,0.2-0.2,0.2c-0.1,0.1-0.2,0-0.3,0.1c0.1,0.1,0.1,0.3,0.2,0.3
		c0.1,0,0.3,0,0.4-0.1c0.1,0,0.3,0.1,0.2,0.2C244.2,516.2,244.2,516.3,244.2,516.4z M243.8,515.8L243.8,515.8L243.8,515.8z
		 M244.2,513.5c0.3-0.1,0.5-0.2,0.7-0.4c-0.1,0.2-0.1,0.5-0.2,0.7c0,0-0.1,0-0.1,0.1C244.5,513.8,244.3,513.7,244.2,513.5
		C244.1,513.5,244.2,513.5,244.2,513.5z M246,521.1L246,521.1L246,521.1L246,521.1z M245.9,520.4c0.1-0.1,0.1-0.3,0.2-0.5
		c0.2,0,0.4-0.1,0.4-0.1c0.1-0.3,0.1-0.5,0.1-0.5c0-0.2-0.3,0.3-0.5,0.4c0-0.4,0-0.8,0.1-1.2c1.1,1,1.3-1.1,1.6-0.6
		c0.4,0.6,0.3,1.6,0.4,2.5c-0.7-0.1-1.3-0.2-2-0.3c0,0.1,0,0.2,0,0.3C246.2,520.3,246,520.3,245.9,520.4z M246.3,521.7
		c0.1-0.4,0.2-0.7,0.1-1c0.5,0.6,1.7-0.2,2.1,0.5C248.5,521.2,247.1,521.5,246.3,521.7z M250.7,519.5c-0.5-0.2-1.4-0.9-1.5-1.2
		c-0.2-0.5,0-1.2-0.2-1.7c-0.1-0.4-0.4-1-0.6-1c-0.5,0-1,0.3-1.5,0.5c0.2,0.1,0.4,0.2,0.6,0.3s0.3,0.3,0.4,0.4
		c-0.3,0.1-0.6,0.2-0.9,0.2c-0.5-0.1-1-0.4-1.5-0.6c0.1,0,0.2,0,0.2-0.1c0.1-0.1,0.1-0.2,0.1-0.3c0.1,0.2,0.2,0.1,0.3,0.2
		c0.1,0,0.1-1.7,0.1-1.7c-0.1,0-0.1,0-0.2,0c-0.1,0.4-0.3,0.7-0.4,1c0,0.1,0.1,0.2,0.1,0.3c-0.2,0.1-0.5,0.2-0.7,0.3
		c-0.1,0-0.1,0-0.2,0.1c-0.1,0-0.2,0-0.3,0v-0.1c0.5-0.9,1-1.6,1.9-1.9c0.2,0,0.4-0.2,0.5-0.4c0.4,0.1,0.7,0.2,1.1,0.6
		c0.2,0.2-0.7,1.1,0.4,0.6c0.3-0.1,0.5-0.6,0.6-0.9c0.1-0.2-0.1-0.4-0.1-0.7c0.4,0.3,0.8,0.6,1.2,1c-0.2,0-0.6,0-0.6,0.1
		c-0.1,0.8-0.2,1.6-0.3,2.4c0,0.1,0.3,0.3,0.4,0.3c0.2-0.2,0.4-0.4,0.6-0.6c-0.2,0.4-0.4,0.9-0.6,1.3c0,0.1,0.1,0.4,0.2,0.4
		c0.2,0.1,0.5,0,0.7,0.1C250.5,518.4,250.7,519.4,250.7,519.5z M252.8,514.8c-0.6,0-1.1-0.6-1.7-1c0.2-0.1,0.4-0.5,0.6-0.5
		c0.5,0.1,0.9,0.3,1.3,0.5C252.7,514.2,253.8,514.9,252.8,514.8z M255,518.7c-0.2,0-0.4,0-0.5,0c0.2-0.3,0.3-0.5,0.5-0.6
		C255,518.3,255,518.5,255,518.7C255.1,518.6,255,518.7,255,518.7z M265.3,513.2c0-0.2,0.2-0.3,0.2-0.5c0.2,0.2,0.5,0.5,0.6,0.6
		c0.2,0.2,0.2,0.2,0.2,0.3c0,0,0,0-0.2,0c-0.3,0.2-0.8,0-1.2-0.1C265,513.3,265.2,513.3,265.3,513.2z M264.5,519.9
		c0.9,0.2,1.8,0.2,2.7,0.4c0,0.2-0.9,0.7-0.9,0.9c0,0-1.6-0.4-2.7,0c-1.2-0.2-0.9-0.7-0.9-0.9C262.8,520.4,263.6,520.2,264.5,519.9z
		 M258.2,512c-0.6,0.7,2.6-0.2,0.7,1.2c-0.2,0.2-0.4,0.2-0.6,0.3c0.1-0.9-0.5-0.7-0.9-0.6C257.5,512.5,257.8,512.2,258.2,512z
		 M255.8,512.5h-0.1C255.8,512.5,255.8,512.5,255.8,512.5L255.8,512.5z M256.8,512.6L256.8,512.6L256.8,512.6L256.8,512.6z
		 M256.8,512.5C256.8,512.6,256.8,512.6,256.8,512.5c-0.1,0.1-0.2,0-0.2,0c0-0.1-0.1-0.2-0.1-0.3c0,0.1-0.1,0.2-0.1,0.3
		c-0.1,0-0.2,0-0.2,0c0-0.1,0.1-0.1,0.1-0.2c0.1,0,0.1-0.1,0.2-0.1s0.1-0.2,0.2-0.3c0,0-0.1,0-0.1-0.1s0.1-0.1,0.1-0.2
		c0.1-0.3,0.2-0.5,0.2-0.8c0.2,0.1,0.4,0.2,0.6,0.3C257.3,511.6,257.1,512.1,256.8,512.5z M258.3,518.5c-0.2,0.1-0.4,0.2-0.5,0.4
		c0-0.1,0-0.2,0-0.3l0,0c0,0,0-0.1-0.1-0.1c-0.2-0.2-0.3-0.1-0.2-0.5c0.1,0,0.3,0,0.4,0c0.3,0,0.6-0.4,0.8-0.6
		c0.1,0,0.1-0.2,0.1-0.2c0.1,0,0.2,0,0.3,0.1c0.2,0.1,0.4,0.2,0.6,0.3c-0.1,0-0.1,0-0.2,0.1v-0.1c0,0-0.1,0-0.2,0.1v0.1
		C258.9,518,258.6,518.2,258.3,518.5z M259.8,521.6c-0.1-0.1-0.2-0.1-0.4-0.1c-0.2,0-0.5,0-0.5,0c-0.1-0.5-0.1-1-0.1-1.5
		c0.7,0.3,1.4,0.7,2.1,1.1C260.5,521.3,260.1,521.5,259.8,521.6z M264.3,519c-0.1-0.5-0.8,0.4-0.8-0.3c0-0.1-0.4,0-0.7,0
		c-0.1,0-0.2,0.1-0.2,0.1c0.1,0.2,0.2,0.3,0.3,0.4c-0.4,0.1-0.8,0.2-1.2,0.4c-0.1-0.3-0.3-0.8-0.2-1.1c0.2-0.4,1.3,0.6,1.3-0.6
		c-0.6,0-1.3,0.1-2,0.1c-0.1,0-0.1,0-0.2,0l-0.1-0.2c0-0.1,0.2-0.2,0.3-0.3c0.1,0.2,0.2,0.5,0.6,0.3c-0.1-0.2-0.2-0.4-0.3-0.6
		c0.6,0.2,1.3,0.3,2.1-0.2c0.1-0.1,0.3,0.1,0.5,0.2l-0.3,0.3c-0.2,0.1-0.3,0.2-0.5,0.2c0.1,0.2,0.3,0.3,0.4,0.5l0,0l0,0
		c0.1,0.1,0.2,0.3,0.3,0.4c0.1-0.1,0.2-0.2,0.2-0.3c0.2,0.1,0.4,0.2,0.6,0.3C264.4,518.9,264.4,519,264.3,519z M266.5,519.1
		c-0.1,0-0.1,0-0.2,0c0-0.1,0-0.2,0-0.4c-0.4,0-0.9,0.1-1.3-0.1c0.5-0.2,1-0.4,1.5-0.6c0.1,0,0.2-0.1,0.3-0.2
		C266.7,518.3,266.6,518.7,266.5,519.1z M282.7,511.3c0-0.3,0-0.5,0-0.8c0,0,0-0.3,0.3-0.3c0,0.3,0.3,0,0.3,0.3s0.3,0.5,0.3,0.5
		C283.3,511,283,511.3,282.7,511.3z M269.9,514.2c0.1,0,0.3,0.1,0.2,0.2c0,0.2-0.1,0.4-0.1,0.6c0.3,0,0,0.2,0.2,0.1
		c0.1,0,0.2-0.1,0.3-0.1c-0.3,0.3-0.6,0.7-0.6-0.5C269.8,514.3,269.8,514.3,269.9,514.2C269.8,514.2,269.8,514.2,269.9,514.2z
		 M269.7,514.1L269.7,514.1L269.7,514.1C269.7,514.1,269.7,514,269.7,514.1L269.7,514.1z M269.4,514L269.4,514c-0.1,0-0.1,0-0.1,0
		l0,0c-0.2,0.1-0.5,0.2-0.6,0.2c-0.2,0-0.5,0.1-0.5,0l0,0c0.3-0.1,0.5-0.1,0.5-0.3c0.1-0.5-0.2-0.5,0.3-0.3c0.2,0.1,0.4-0.1,0.6-0.1
		c0.1,0,0.2,0.1,0.2,0.2c0,0.1-0.1,0.2-0.2,0.2C269.5,514,269.4,514,269.4,514z M271.7,520.7c-0.5,0.8-1.7-0.8-2.1-0.6
		c0.1-0.3,0.2-0.7,0.4-0.8l0,0c0.1,0,0.2,0.2,0.3,0.5C270.5,520,271.6,520.5,271.7,520.7z M272.4,519.7c-0.2-0.2-0.2-0.7-0.4-0.7
		c-0.1,0-0.3,0-0.4,0c0-0.2,0.1-0.4,0.1-0.6c0.2,0,0.4-0.1,0.6-0.1s0.3-0.1,0.4-0.2c0.1,0.6,0.3,1.2,0.4,1.8
		C272.8,519.8,272.5,519.9,272.4,519.7z M282.3,519.2c0.1-0.1,0.2-0.2,0.3-0.3C282.5,519,282.4,519.1,282.3,519.2z M285.6,516
		c0.2,0.3,0.4,0.6,0.7,0.8l0,0c-0.5,0.1-1.3,0.2-1.2-0.4C285.2,516.2,285.4,516.1,285.6,516z M282.7,521.2c0.1-0.1,0.2-0.2,0.3-0.2
		c0.1-0.1,0.3,0,0.4,0.1C283.2,521.1,282.9,521.2,282.7,521.2z M284.8,521.2c-0.3-0.6-0.9,0.6-1.2,0h0.1c-0.1-0.2-0.2-0.4-0.4-0.6
		c0.1,0,0.3,0,0.4,0c0.4,0.1,0.7,0.3,1.1,0.4C284.8,521.1,284.9,521.2,284.8,521.2z M285.9,519c0.6,0.5-1.6,0.8-0.4,1.2
		c-0.3,0.1-0.6,0.1-0.9,0.1c0.3-0.3-0.8-1.1,0.5-1.2c0-0.1-0.1-0.1-0.2-0.2c0.2,0,0.5,0,0.7,0c-0.2-0.1-0.3-0.3-0.5-0.4
		c0.1,0,0.2,0,0.2-0.1c0.1-0.1,0.2-0.3,0.1-0.3c-0.3-0.1-0.8-0.2-1.1-0.3c-0.1-0.1-0.2-0.2-0.3-0.2c0.7,0,1.6-0.3,1.9,0
		c0.5,0.4,0.5,1.4,0.8,2.1C286.6,519.4,286.2,519.2,285.9,519z"/>
	<path id="middle_2_section" d="M359.3,521.9C359.5,521.8,359.4,521.9,359.3,521.9L359.3,521.9z M427.9,515.6
		c-0.3,0.6-0.2,0.7-0.6,0.7c-0.7,0-0.6,0-1.2-0.1c0-0.1,0-0.3,0-0.3c1.3-0.1,1.1-0.9,0.6-1.7c-0.1-0.1-1,0.3-1.5,0.5
		c0,0-0.1,0-0.1,0.1c-0.9,0.1-1.8,0.2-2.6,0.2c-0.6,0-1.2-0.3-1.8-0.4c0,0-0.1-0.2,0-0.3c0.7-1,2.1,1.1,2.7-0.6
		c0.1,0.1,0.3,0.4,0.4,0.4c0.3,0,0.7-0.1,1-0.2c-0.5-0.3-1-0.6-1.5-0.9l-0.5-0.3c0.6-0.2,1.3,0,2,0.7c0.6,0.6,0.8-0.2,1-0.9
		c0.1,0.1,0.2,0.2,0.2,0.3c0.3,1.2,1-0.9,1.4,0.2c-0.1-0.4-0.3-0.8-0.5-1.4h-0.1c0-0.2,0.1-0.5,0.1-0.8c0,0-0.2,0-0.2-0.1
		c0-0.2,0.1-0.2,0.1-0.3c0.2,0.1,0.3,0.2,0.5,0.3c0,0.2,0,0.2-0.1,0.3c0.1,0,0.3,0.2,0.4,0.1c0.2-0.1,0.4-0.3,0.4-0.4
		c-0.3-0.6-0.5-1.7-0.8-1.7c-0.7,0.1-1.4,0.4-1.9,0.8c-0.6,0.4-1.3,0.7-1.9,1.1v-0.1c-0.1-0.3-0.5-0.5-0.9-0.7
		c-0.9-0.5-1.7,1.4-2.7,0.6c0.3-0.1,0.7-0.1,1-0.2c0.5-0.2,0.9-0.3,1.3-0.6c-0.2-0.2-0.4-0.3-0.6-0.6c-0.4,1.2-1-0.5-1.4,0
		c-0.1,0.1-0.4,0.2-0.4,0.3c0,0.2,0.1,0.5,0.1,0.7c-0.1,0-0.2,0-0.2,0c-0.1-0.1-0.2-0.2-0.3-0.4c-0.1-0.2-2.5-0.4-3.5-1
		c-1.2-0.8-2.2,0-3.3,0.1c-0.4,0-1-0.1-1.1,0.1c-0.1,0.3-0.2,0.5-0.1,0.7c-0.5,0-1,0.1-1.5,0.3c-1.2,0.3-2.5,0.6-3.7,0.9
		c-0.5,0.1-1.2,0-1.7,0c0.2,0.4,0.4,0.7,0.8,0.9c0.1,0.1,0.6,0.1,0.7,0c1.1-0.5,2-0.6,3.1,0.5c0.2,0.2,0.4,0.3,0.5,0.2
		c0.1,0,0.2,0,0.4,0c-0.1,0.9,0.7,0.2,1,0.6c0.3-0.1,0.5-0.3,0.8-0.5c0.1-0.1,0.1-0.2,0.2-0.3c0.1,0.1,0.2,0.1,0.2,0.2
		c0,0.2,0,0.3-0.1,0.5c0,0.1-0.2,0-0.2,0.1l-0.3,0.4c0.4-0.1,0.7-0.1,0.9-0.1c-0.3,0.2-0.6,0.3-0.9,0.5c0-0.1,0-0.2,0-0.2
		c-0.2,0-0.3-0.1-0.4,0c0,0.1-0.2,0.1-0.3,0.2c-0.1-0.1-0.2-0.3-0.2-0.4c0,0.2,0,0.3,0,0.5c0,0.1,0,0.2,0,0.3s0,0.2,0,0.3
		s0.1,0.2,0.1,0.4s0,0.4-0.1,0.6c-0.1,0-0.3-0.1-0.3-0.1c-1-1.5-0.5-2.1-2.1-2.4c0-0.4-2.2-1.2-2.4-1.8c-0.1,0.7,0,1.8,0,2.1
		c-0.2,0-0.4-0.1-0.5-0.1c-1-0.7-2-1.5-3-2.1c0.1-0.2,0.3-0.4,0.4-0.6c-0.3,0.1-0.6,0.1-0.8,0.2l-0.1-0.1c0,0,0-0.1,0.1-0.2
		c0.2,0,0.4-0.1,0.7-0.1c1.7,0.1,3.5,1,4.5-1.4c0.1-0.3,0.7,1,0.5-0.1c-0.1-0.3-0.7-0.5-1.1-0.7c-0.1,0.3-0.2,0.6-0.2,0.9
		c0.1,0.8-0.4,0.9-0.9,1c-0.1,0-0.3-0.2-0.4-0.3c-0.3-0.6,1.4-0.4,0.5-0.7c-1.2-0.4-2.6,0-3.9,0.2c-0.3,0-0.5,0.1-0.8,0.3
		c-0.8-0.8-1.4,0.9-2.1,0.2c-1.2,1.2-1,1.7-2.6,1.4c0.3-0.1-0.1-1.3,0.7-0.5c0,0,0.3-0.2,0.3-0.3c-0.6-1.6-1.6,0.5-2.3-0.3
		c-0.5,1.2,0.9,0.6,1.1,1.1h-0.1c-1.4-0.3-1.8,0.8-3.2,0.1v-0.1c0.4-0.4,0.8-0.9,1.2-1.3c-1.3-0.1-2.6-0.4-3.9,0
		c-0.3-0.4-0.7-1.1-0.8-1.1c-0.6,0.1-1.2,0.5-1.7,0.8c-0.8,0.5-1.6,1-2.5,1.4c-0.1-0.2-0.2-0.4-0.2-0.7l-0.1,0.1
		c-0.3,0.2-0.4,0.6-0.4,1c0,0-0.1,0-0.1,0.1c-0.5,0.2-1.1,0.4-1.6,0.5c0.3,0.3,0.6,0.5,1.1,0.7c0.1,0,0.3,0,0.4-0.1
		c-0.2,0.4-0.5,0.7-1.4,0.6c0.1,0.2,0.1,0.5,0.2,0.7c0.2-0.1,0.3-0.2,0.5-0.3c0,0.4,0.1,0.7,0.1,1.1c-0.4-0.3-0.9-0.6-1-1
		c-0.4-0.9-1.5-1.2-2.4-0.5c0.6,0.5,2.7,0.1,1.2,1.9c-0.1,0.1-0.4,0.2-0.6,0.2c0.1-0.2,0.2-0.4,0.2-0.6c0-0.3-0.2-0.5-0.3-0.8
		c0-0.1-0.3-0.1-0.4,0c-0.1,0.2-0.2,0.4-0.3,0.6c0-0.1-0.1-0.1-0.1-0.2c0.6-0.2-0.7-1.1,0.4-1.2c-0.1-0.1-0.1-0.3-0.2-0.3
		c-0.3,0.1-0.7-0.1-1-0.1c0-0.1,0.1-0.2,0.1-0.2c0.4-0.1,0.7-0.3,0.9-0.9c0.1,0,0.1,0,0.2,0c0.3,0.1,0.5,0.1,0.7-0.1c0,0,0,0,0.1,0
		c0.3,0,0.6-0.1,0.8-0.3v0.6c0.1,0,0.2,0,0.3,0c0.1-0.3,0.3-0.6,0.4-0.9c0,0,0-0.1,0.1-0.1l0,0v-0.1c0.4-0.2,0.8-0.4,1.5-0.3
		c0.3-0.2,0.4-0.9-0.3-0.6c-0.1-0.9-0.8,0-1.1-0.3c-0.2,0.1-0.3,0.3-0.5,0.5c-0.1,0-0.2-0.1-0.3-0.1c-0.1,0-0.1,0-0.2-0.1v0.7
		c-0.1,0-0.1-0.1-0.1-0.1c-0.1-0.1-0.1-0.3-0.1-0.5c0-0.1,0.2-0.1,0.2-0.2s0.1-0.3,0.2-0.4c-0.7,0.3-1.1,0.3-1.2,0.6
		c-0.1,0.3,0,0.5,0,0.6l0,0c-0.3-0.5-0.5-1.3-1.1-1.1c0,0,0,0.1-0.1,0.1c-0.3,0.1-0.5,0.2-0.6,0.3c-0.2,0-0.3-0.1-0.3-0.2
		c0-0.3,0.1-0.6,0.1-0.9c-0.3,0.1,0-0.3-0.3-0.1c-0.7,0.3-0.7,0.3-1.4,0.6c-0.2,0.1-0.5,0-0.5,0.1s-0.1,0.1-0.1,0.2
		c-0.3,0-0.6-0.1-0.9-0.1c-0.1,0-0.3,0.1-0.4,0.1c-0.1-1.5-1.5,0.4-1.8-0.6c-0.3,0.2-0.7,0.4-0.9,0.7c-0.6,0.9-1.3,0.3-1.6,0
		c-0.6-0.5-0.5,1.8-1.3,0.1c-0.5-1-0.4,1.4-1.5,0.8c0,0.1-0.1,0.3-0.1,0.3c0.2,0.1,0.5,0.1,0.6,0.2c0.4,1,1.1,0.5,1.8,0.3
		c-0.5,0.9-1.1,1.8-1.7,2.6c-0.3-0.3-0.6-0.6-0.8-0.8c-0.2-0.1-0.3-0.2-0.4-0.2l0.1-0.1c0.1,0,0.2,0,0.3-0.1
		c0.1-0.1,0.2-0.1,0.2-0.1c0-0.2-0.1-0.3-0.1-0.4c0.1-0.1,0.1-0.1,0.2-0.1c-0.1,0-0.3-0.1-0.6-0.1c0-0.3,0.1-0.5,0.2-0.8
		c-0.9,0.2-0.9-0.3-0.7-0.9c0.1-0.3,0-0.7,0-1.1c-0.7,0-0.5,0.5-0.5,0.9c0,0.1-0.2,0.2-0.3,0.2c-0.2,0-0.3-0.2-0.5-0.3
		c0.2-0.2,0.6-0.5,0.2-0.9c-0.4,0.4-0.9,0.9-1,1.4c-0.2,0.6,0.5,0.4,0.8,0.4c0.1,0,0.2,0.3,0.1,0.3c0,0.1-0.1,0.1-0.1,0.2
		c-0.1,0-0.2-0.1-0.3-0.1c0,0.1-0.1,0.1-0.2,0.2c-0.4-0.2-0.8-0.4-1-0.3c-0.3,0.3-0.5,0.5-0.5,0.5c-0.2,0.2,0.8-0.2,0.9,0
		c0.1,0.3,0.3,0.4,0.4,0.5h-0.1c0.1,0,0.1,0.2,0.2,0.2c0,0,0.1-0.1,0.2,0c0.5,0.3,1,0.7,1.5,0.9c0.3,0.3,0.7,0.5,1,0.7
		c-0.5,0.1-1,0.4-1.4-0.4c-0.1-0.2-0.7-0.5-1-0.4c-0.1,0-0.1,0-0.2,0.1c-0.2-0.1-0.6-0.2-0.6-0.4c-0.3,0-0.6,0-1,0
		c-0.1,0.1-0.2,0.1-0.3,0.2c-0.1-0.1-0.1-0.2-0.1-0.3c0-0.2,0.2-0.3,0.3-0.4c0-0.1,0.2,0.1,0.3,0c0.1-0.1,0.3-0.2,0.4-0.2
		c-0.7-0.2-1-0.6-1.3-0.4c-0.6,0.4-0.3,0.7-0.6,0c0-0.1-0.1-0.1-0.2-0.2c0.1-0.1,0-0.2-0.5-0.2c0,0-0.1,0-0.1-0.1
		c-0.1,0-0.1-0.3,0-0.4c0-0.1,0.2-0.1,0.4,0c0.2,0.1,0.2,0.2,0.4,0.2c0-0.2,0.1-0.4,0-0.4c-0.1-0.1-0.3-0.3-0.5-0.3
		c-0.1-0.2-0.2-0.3-0.1-0.4c0.2-0.2,0.5-0.4,0.7-0.5c-0.3-0.2,0.2-0.2-0.1-0.3c-0.7-0.2-0.7-0.2-1.5-0.5c-0.2-0.1-0.4-0.3-0.5-0.2
		c-0.3,0.1-0.5,0.2-0.7,0.3c0.4,0.1,0.9,0.3,1.3,0.4c0.2,0.1,0.4,0.2,0.6,0.3c0,0.1,0,0.2-0.1,0.2c-1.1,0.3-2.2,0.5-3.3-0.1
		c-0.4-0.2-0.9-0.1-1.5-0.1c0.2,0.2,0.5,0.3,0.7,0.5c0.1,0,0.2,0.2,0.3,0.2c-0.2-0.1-0.3-0.1-0.4-0.1c-0.3,0-0.6-0.1-0.9,0
		s-0.5,0.3-0.8,0.4c0.8,0.2,1.7,0.3,2.5,0.5c-0.1,0.1-0.1,0.3-0.2,0.5c-1-0.3-2-0.7-3.3-1.1c-0.3-0.1-0.6-0.1-0.9-0.1
		c0-0.2,0-0.5,0-0.8h-0.2c0-0.1,0.1-0.2,0-0.2c0.2,0.1,0.3,0.1,0.5,0.2c0,0.1,0,0.1,0,0.2c0.1,0,0.3,0.1,0.4,0s0.3-0.3,0.3-0.3
		c-0.3-0.4-0.8-1.1-0.9-1c-0.6,0.2-1.2,0.5-1.7,0.9c-1,0.7-2.1,1.4-3.2,2.1c-0.4,0.2-1.1,0.4-1.6,0.6c-0.1,0-0.1,0-0.2-0.1
		c0.2-0.2,0.3-0.4,0.4-0.7c-0.1-0.3-0.1-0.5-0.2-0.6c0.3-0.1,0.6-0.1,1,0c0.3-0.2,0.4-0.9-0.3-0.6c0-0.9-0.8-0.1-1.1-0.4
		c-0.3,0.2-0.5,0.4-0.7,0.6c0,0.1-0.1,0.2-0.1,0.3c-0.1,0-0.2-0.1-0.3-0.2c-0.1-0.1-0.1-0.3,0-0.5c0-0.1,0.2-0.1,0.2-0.2
		s0.1-0.3,0.2-0.4c-0.7,0.3-1.1,0.2-1.2,0.5c-0.2,0.7,0.2,0.7-0.5,0.4c-0.2-0.1-0.6,0.1-0.9,0.1c-0.1,0-0.3-0.2-0.2-0.3
		c0-0.1,0.1-0.2,0.2-0.3c0.2-0.1,0.3,0,0.4-0.1c-0.1-0.1-0.2-0.4-0.3-0.3c-0.2,0-0.4,0-0.5,0.1c-0.2-0.1-0.4-0.1-0.3-0.2
		c0.1-0.3,0.1-0.6,0.2-0.8c-0.3,0,0.1-0.3-0.3-0.2c-0.7,0.3-0.7,0.3-1.4,0.5c-0.2,0.1-0.5,0-0.5,0.1c-0.2,0.2-0.3,0.4-0.4,0.7
		c0.4-0.1,0.9-0.3,1.3-0.5c0.2-0.1,0.4-0.1,0.7-0.2c0,0.1,0.1,0.1,0,0.3c-0.7,1-1.3,1.7-2.6,2c-0.2,0-0.3,0.1-0.5,0.2l0,0
		c-0.1,0.1-0.2,0.2-0.3,0.2c-0.3,0-0.7-0.1-1-0.2c0,0-0.1-0.2,0-0.3c0.6-0.7,0.1-0.8-0.4-0.9c0-0.4,0-0.8-0.2-0.9
		c-0.6-0.2-1.3-0.2-1.9-0.2c-1.3,0-2.5,0-3.8,0c-0.5,0-1.1-0.2-1.7-0.4c0.1,0.4,0.3,0.8,0.6,1.1c0.1,0.2,0.5,0.2,0.7,0.2
		c1.2-0.3,2.1-0.1,2.9,1.2c0.4,0.7,0.8,0,1.3-0.3c-0.5,0.5-0.7,0.9,0.8,1.5c-0.1,0.1-0.1,1.2-0.2,1.2c-0.4,0.1-0.8,0.4-1.2,0.6
		c-0.1-0.4-0.5-0.1-0.8,0c-0.1-0.1-0.2-0.2-0.3-0.3c0.1-0.1,0.2-0.3,0.3-0.3c0.4,0,1.1,0.1,1.2,0c0.2-0.4,0.3-0.6,0.3-0.7
		c0.1-0.3-0.6,0.5-0.9,0.3c-0.2-0.2-0.4-0.3-0.6-0.3l0.1-0.1c-0.1,0-0.2-0.1-0.2-0.1s-0.1,0.1-0.2,0.1c-0.6-0.1-1.2-0.2-1.8-0.3
		c-0.2-0.1-0.4-0.1-0.6-0.2c0-0.1,0-0.2-0.1-0.2c-0.3-0.3-0.5-0.2-0.2-1c-0.4,0.2,0-1.1-0.8-0.3c0,0.1-0.6-0.2-0.8-0.4
		c-0.3-0.2-0.3-0.5-0.6-0.8c0,0,0-0.1,0.1-0.1c0.5,0.5,0.4,0,0.4-0.3c-0.2,0-0.3-0.1-0.4,0c-0.1,0.2-0.8,0.1-0.4,0.7
		c0.2,0.3,0.1,0.7,0.1,1.2c-0.1,0-0.3-0.1-0.3-0.1c-1.8-2.4-5.8-1.4-7.9-2.7c-0.2-0.1-0.5,0.1-0.7,0.1c0.1,0,0.2,0.1,0.3,0.1
		c0.5,0.3,2,0.7,2.5,1.1c0.6,0.5-0.6,0.6-1.1,0.6c-0.2,0-1.2-0.3-1.4-0.6c0,0.6,0,1.2,0.1,1.8c0,0.2,1.2,0.3,1.5,0.4
		c0.6,0.1,2,0.1,2.6,0.3c0.1,0,0.2,0.1,0.3,0.1c0.2,0.2,0.4,0.4,0.6,0.6c-0.1,0.1-0.1,0.2-0.2,0.1c0-0.6-1.1,0.3-1.1-0.6
		c0-0.1-0.6-0.1-0.9-0.3c-0.1,0-0.3,0.1-0.3,0.1c0.5,1.6,2.1,0.9,3.1,1.5c-0.2,0.2-0.5,0.4-1,0.4c0,0-0.1,0.2-0.1,0.3
		c-0.2-0.1-0.4-0.2-0.5-0.4c0-0.1-0.3-0.2-0.5-0.3c-0.1,0.2-0.2,0.3-0.2,0.5c0.2,0.1,0.4,0.1,0.5,0.2c0.4,0.3,0.8,0.7,1.1,1.1
		c0,0,0,0.1-0.1,0.1h-0.7c-1.5-0.4-2.2-2.1-2.5,1.1c0,0.2-0.4,0.4-0.6,0.6c-0.1-0.3-0.3-0.8-0.3-0.9c0.8-0.3-0.1-2.9,1.8-2.4
		c0-0.3-1.2-1.3-0.4-0.9c-0.3-0.2-1.3-0.6-1.4-0.6c-0.6,0.4-1.1,0.9-1.2,2.3c0,0.2,0.8,1,0.1,2.5c0,0,0.1,0.2,0.2,0.2l0.2-0.1
		c0.1-0.2,0.1-0.4,0.2-0.6c0.2,0.6,0.5,1.1,0.6,1.7c0,0.1-0.1,0.3-0.2,0.4c-1,0.6,0.3,0.9,0.2,1.1c-0.3,0.4-0.8,1-0.1,1
		c1,0,1-1,1.9-0.7c0.8,0.3,1.4,0.8,2.2,0.2v0.1c-0.1,0.2,0,0.2,0.1,0.2c0,0.1,0.1,0.2,0.1,0.3c0.7-0.6,0.9-0.2,1,0.4
		c0.1,0.3,0.4,0.6,0.5,0.9c0.7-0.3,0.2-0.6,0-1c0-0.1,0.1-0.3,0.2-0.3c0.2-0.1,0.3,0,0.6,0c-0.1,0.3-0.3,0.7,0.3,0.9
		c0.1-0.6,0.4-1.2,0.3-1.7c-0.1-0.6-0.6-0.1-0.9,0c-0.1,0-0.3-0.1-0.3-0.2c0-0.2,0.2-0.4,0.2-0.5c0.4-0.1,1.1,0,1.2-0.2
		c0,0,0,0,0-0.1c0.1,0,0.2,0,0.2,0c0.4,0,1.1-0.1,1.5-0.1c0.1,0.1,0.3,0.2,0.5,0.2c0.8,0.9-0.4,0.8-0.9,1c-0.4,0.2-0.9,0.2-1.3,0.3
		c0.5,0.2,1,1.4,1.6,0.1c0,0.1,0.1,0.2,0.2,0.3c0.3,0.1,0.6,0.4,0.9,0.3c0.5-0.1,0.9-0.5,1.4-0.7c-0.1-0.1-0.1-0.2-0.2-0.2
		c-0.4,0-0.7,0.2-1.1,0.2c-0.1,0-0.2-0.3-0.2-0.4c1.2-1.3,2.3,0.8,3.5,0c0,0.3,0.1,0.5,0.1,0.8c0.2-0.1,0.4-0.2,0.6-0.3l0,0l0,0
		c-0.1,0-0.2,0.2-0.2,0.2c0.4,0.5,0.9,0.7,1.4,0.6c0.2,0.1,0.4,0.3,0.5,0.4c0-0.2,0.1-0.3,0.1-0.5c0.2,0,0.4-0.1,0.5-0.1
		c0,0.2,0.2,0.4,0.5,0.5c-0.1,0.1-0.2,0.1-0.4,0.2c0,0,0,0.3,0.1,0.4c0,0.1,0.2,0.3,0.3,0.3c1-0.4,1.3-0.7,2.2-1h0.5
		c0.1,0,0.2-0.1,0.2-0.1c0.3,0.1,0.4,0.4,0.9,0.3c0.6-0.1,0.4-0.3,1-0.5c0-0.1,0-0.2-0.1-0.2c-0.1-0.1-0.2-0.1-0.2-0.2
		c1.1-0.4,2.2-0.6,3.4-0.3c0.3,0.1,0.7,0,0.9-0.2c0.3-0.2,0.4-0.5,0.5-0.8c-0.1-0.1-0.2-0.1-0.4-0.2c0.2-0.1,0.4-0.2,0.6-0.2
		c0.1,0,0.3,0,0.4,0c0,0.3,0.1,0.6,0.2,0.8c0.3,0.6,0.6-0.1,0.9-0.3c0.1,0,0.4,0.1,0.3,0.2c0,0.2,0,0.4-0.1,0.5
		c-0.4,0.2-1.1,0.3-1.1,0.5c0,0.4-0.1,0.7,0,0.8c0,0.3,0.4-0.7,0.7-0.6c0.3,0.1,0.5,0.1,0.7,0.1c0,0,0,0.1-0.1,0.1
		c0.1,0,0.2,0.1,0.3,0l0.1-0.1c0.4-0.1,0.9-0.2,1.3-0.3c0.8,0.3,1.7-0.1,2.6-0.1c1.7,0.1,3.1,1,5,0.3c0.2-0.1,0.3-0.1,0.4-0.1
		c0,0,0.2-0.2,0.8-0.6c0,0,0.2,0.2,0.3,0.2c1.2,0.2,2.4,0.4,3.6,0.6c0.2-1.6,0.8-1.1,1.4-0.7l-0.5-3c-0.4,0-0.8-0.2-0.4-0.7
		c0.2-0.2,0.9-0.7,1.3-0.8l-0.5-1.9c0.6,0,1.1,0.1,1.6,0.1c0.1,0,0.2,0.3,0.3,0.5c-0.7,0.1-0.8,0.5-0.7,0.8c-0.2,0-0.3,0.1-0.5,0.1
		c0.1,0,0.2,0.1,0.3,0.1c0.1,0.1,0.2,0.2,0.4,0.2c0,0.1,0.1,0.1,0.1,0.2c0.1,0.2,0.4,0.4,0.7,0.4c0,0,0,0,0.1,0
		c0.1,0.1,0.2,0.2,0.3,0.3l0,0c-0.1,0-0.2,0-0.2,0c-0.1,0-0.1,0.3-0.2,0.6c-0.2,0-0.4-0.4-0.5-0.6c0,0.1,0,0.2,0,0.3
		c-0.4-0.5-1.2-0.4-1.7-0.5v2.6c0.1,0,0.2-0.1,0.3-0.1c0.6-0.2,1.2,1.3,1.6,0h0.1c0,0.1,0,0.3,0.1,0.5c-0.1,0.2-0.3,0.3-0.2,0.5
		c0,0.1,0.1,0.3,0.1,0.3c0.8,0,1.6-0.1,2.3-0.1c-0.2-0.2-0.6-0.3-0.7-0.5c0.1,0,0.2,0,0.3-0.1c-0.1-0.2-0.2-0.4-0.3-0.6
		c0.2,0,0.4,0.1,0.6,0.1c1.1,0.3,2,0.4,2-1c0-0.1,0.2-0.2,0.3-0.1c0.1,0,0.3,0,0.4,0.1c0,0.1-0.1,0-0.2,0.1c0,0.2-0.1,0.3-0.1,0.6
		c0,0,0,0,0.1,0c-0.1,0.1-0.2,0.3-0.3,0.4c0.2,0,0.4,0,0.5,0.1c0.3,0.1,0.5,0.3,0.8,0.4c0,0.1,0,0.1-0.1,0.2l0,0
		c-0.5-0.3-0.6,0-0.6,0.2c-0.1,0-0.2-0.1-0.3-0.3c0-0.1-0.6,0-1,0c-0.1,0-0.2,0.2-0.2,0.2c0.5,0.8,1.2,0.8,2,0.7
		c0.3,0.2,0.5,0.4,0.8,0.5c-0.1,0-0.1,0.1-0.2,0.1c0,0,0,0.3,0.1,0.4c0,0.1,0.2,0.3,0.3,0.3c0.6-0.2,1-0.4,1.3-0.5
		c0.2,0.1,0.4,0.1,0.7,0.2l0.3-0.5c0.1,0,0.2-0.1,0.4-0.1c0.7-0.1,0.6,0.5,1.3,0.4c0.6,0,0.4-0.2,1-0.4c0-0.1,0-0.2-0.1-0.2
		c-0.2-0.1-0.4-0.3-0.5-0.5l0,0c0.2-0.2,0.4-0.4,0.7-0.6c-1.5,0-0.7-0.2-0.5-0.8c0.4,0.1,0.4,0.1,0.7,0.2c0.2,0,0.7,0.3,0.9,0.3
		c-0.1,0.2-0.2,0.4-0.1,0.5c0.4,1,1.1,0.6,1.7,0.2c0,0.1,0.1,0.2,0.1,0.3c0.1,0.3,0.5,0.6,0.6,0.9c0.6-0.4,0.1-0.7-0.2-1
		c0-0.1,0-0.3,0.1-0.3c0.2-0.1,0.3-0.1,0.6-0.1c0,0.3-0.2,0.8,0.4,0.8c0-0.2,0.1-0.5,0.1-0.8c0.1,0.2,0.2,0.4,0.3,0.7
		c1.6-0.9,2.6,0.5,3.9,1c0.1,0,0.3,0.1,0.4,0c1.2-1,2.7-1.1,4.2-1c0.6,0.1,1.1,0.3,1.7,0.5c-0.1-0.3-0.2-0.5-0.3-0.7c0,0,0,0,0.1,0
		c0,0,0,0,0.1,0c0,0,0,0,0-0.1c0.1,0,0.1,0,0.2-0.1l-0.1,0.1c0.4,0.1,0.9,0.4,1.3,0.2c0.2,0,0.4-0.3,0.5-0.5c0.1,0,0.2,0,0.2,0.1
		c-0.3,0.2-0.6,0.3-0.1,0.3c0.1,0,0.2,0,0.3,0c0.1,0.1,0.3,0.3,0.6,0.3c0.5,0.1,0.5-0.1,0.8-0.2c1.1,0.2,2.2,0.3,3.1-0.6
		c0,0.2,0,0.4,0.1,0.5c0.3,0.5,0.7-1,1,0c0,0.1-0.2,0.2-0.4,0.3c0.3-0.1,0.6-0.1,0.8-0.2c0.1,0.2,0.2,0.4,0.3,0.7
		c0.5-0.2,0.4-0.5,0.2-0.8c0,0,0,0,0.1,0c-0.1-0.2-0.1-0.4-0.1-0.6c0,0,0,0,0.1,0c0.2-0.1,0.3,0,0.6,0c-0.1,0.3-0.3,0.7,0.3,0.9
		c0.2-0.6,0.4-1.2,0.3-1.7c-0.1-0.6-0.6-0.1-0.9,0c-0.1,0-0.3-0.2-0.3-0.2c0-0.2,0.2-0.4,0.3-0.5c0.4-0.1,1.1,0,1.2-0.2
		c0.2-0.4,0.3-0.6,0.3-0.7c0.1-0.3-0.6,0.6-0.9,0.4c-0.2-0.2-0.4-0.2-0.6-0.3l0.1-0.1c-0.1,0-0.2-0.1-0.3-0.1c0,0-0.1,0.1-0.2,0.1
		c-0.2,0-0.5,0-0.7,0c0.3-0.6,0.5-1.3-0.2-1.7c0.4,0.3,1.3,0.5,1.3,0.8c0,1.8,3-0.4,2.4,1.8c-0.4,1.2,0.6,1.7,0.9,2.5
		c0,0.1,0.4,0.1,0.6,0.1c0-0.7-0.2-1.4-1-1.7c0,0,0-0.4,0.2-0.6c0.2-0.2,0.5-0.3,0.7-0.3c1.2,0.2,0.6,1.6,1.3,2
		c0.5,0.3,1.1,0.5,1.7,0.6c0.4,0.1,0.8-0.1,1.3-0.2c-0.3-0.2-0.5-0.4-0.8-0.6c-0.2-0.1-0.3-0.3-0.5-0.5c0.6-0.3,1.4,1.1,1.9-0.1
		c0.1,0.2,0.3,0.4,0.2,0.5c-0.6,1.4,1.2,0.1,1.1,0.9c0,0,0.2,0,0.3,0v-0.9c0-0.1,0-0.3,0.1-0.4c0.1-0.1,0.3-0.2,0.4-0.1
		c0.1,0.1,0.1,0.3,0.2,0.4c0.2,0.3,0.6,1,0.7,0.9c1.8-0.7,3.8,0.6,5.6-0.7c0,0,0.2,0.2,0.2,0.3v0.4c0.2-0.1,0.6-0.3,0.6-0.4
		c0-0.1,0-0.2,0-0.4c0.2,0,0.4-0.4,0.6-0.5c0.1,0,0.4,0.1,0.3,0.2c0,0.2,0,0.4-0.1,0.5c-0.4,0.2-1.1,0.3-1.1,0.5
		c0,0.4-0.1,0.7,0,0.8c0,0.3,0.4-0.7,0.7-0.6c0.3,0.1,0.5,0.1,0.7,0.1c0,0,0,0.1-0.1,0.1c0.1,0,0.2,0.1,0.3,0l0.1-0.1
		c0.6-0.2,1.2-0.2,1.8-0.4c0.3,0,0.5-0.1,0.7-0.1v0.1c0-0.1,0-0.1,0.1-0.1c0.3,0,0.5-0.1,0.8-0.2c0.6,0.3,1.4,1,1.5-0.4
		c0.6,0.3,0.1,0.3,0.7,0.3c0-0.7,0.3-2.2,0.3-2.9C428.2,517,427.9,516.7,427.9,515.6z M379.3,511L379.3,511c-0.1,0-0.2,0-0.3-0.2
		C379.1,510.9,379.2,510.9,379.3,511z M329.4,513.3c0,0,0.1,0,0.2,0c0,0.1,0,0.1,0,0.2c-0.1,0.2-0.1,0.3-0.2,0.4
		c-0.1-0.1-0.2-0.2-0.4-0.2C329.2,513.5,329.3,513.4,329.4,513.3z M328.2,515.5c-0.4,0.3-0.8,0.6-1.3,0.9c0.1-0.6-0.1-0.9-0.3-1.1
		c0.3,0,0.6-0.1,1,0v0.1c0.1,0,0.1-0.1,0.2-0.1l0,0l0,0C327.9,515.3,328,515.4,328.2,515.5z M325.4,512.9c0.5-0.1,0.8-0.4,0.8-1.2
		c0-0.1,0.2-0.2,0.3-0.2c0.1,0,0.3,0,0.4,0.1c0,0.1-0.1,0-0.1,0.1c0,0.2-0.1,0.3-0.1,0.6c0.3,0,0.5,0,0.7,0c0.1,0,0.3-0.2,0.4-0.3
		c0,0.3,0,0.5,0,0.8c0,0.2-0.1,0.3-0.1,0.5c-0.8-0.5-0.7,0.3-0.6,0.4c-0.1,0-0.3,0-0.5,0c0-0.2,0.1-0.3,0.1-0.5
		C326.3,513.1,325.8,513.1,325.4,512.9z M324.5,520.2L324.5,520.2c-0.5,0-0.9,0-1.3,0.1c-0.5,0.2-0.1,0.2-0.7,0.1
		c-0.4-0.1-1.4,0.1-1.1-0.8c0.2-0.5,0.7-0.5,1.4-0.4c-0.3,0-0.6,0.1-0.9,0.2c0.8,0.3,1.6,0.5,2.2,0.7c0.2,0,0.3,0,0.4,0
		C324.5,520.1,324.5,520.1,324.5,520.2z M329,518.8c-0.4,0.4-1.5-0.2-1.5,0.8c-0.2-0.1-0.3-0.2-0.5-0.2l0.1-0.1
		c-0.1,0-0.2-0.1-0.3-0.1c0,0-0.1,0.1-0.2,0.1c-0.6,0-1.2-0.1-1.8,0l0,0c0.4,0,0.9-0.1,1.5-0.1c-0.1-0.8,0.3-2-1.4-1.1
		c-0.4,0.2-1.1-0.2-1.6-0.3c0.5-0.3,0.9-0.7,0.6-1.3c0.2,0.3,0.4,0.7,0.6,1c0.3,0.4,0.2,0.3,0.3-0.1c0.2-0.7,0.7-0.3,1.1,0
		c-0.1-0.3-0.2-0.6-0.3-0.9c0-0.1-0.2-0.3-0.2-0.4c0-0.1,0.2-0.2,0.3-0.2c0.2,0.1,0.5,0.3,0.5,0.4c-0.1,1.4,0.4,1.9,1.8,1.9
		c0.6,0,1.2,0.4,1.7,0.7c0,0.1,0,0.3,0,0.4C329.5,519.4,329.2,519.3,329,518.8z M331.6,514.7c-0.4,0.3-0.7,0.2-1,0.1l0.5-1.2h0.1
		c0.2,0,0.3,0,0.4,0v0.1c-0.1,0.1-0.1,0.1-0.2,0.1c-0.1,0.1-0.2,0.2-0.2,0.2c0.3,0.4,0.5,0.5,0.8,0.4v0.1
		C331.8,514.7,331.6,514.6,331.6,514.7z M331.9,514.7c0.1,0.2,0.1,0.5,0.1,0.7c0.4-0.2,0.6-0.3,0.7-0.1
		C332.2,515.7,331.7,516.3,331.9,514.7z M332.2,517.4C332.2,517.4,332.2,517.3,332.2,517.4c0.2-0.4,0.5-0.8,0.8-1.2
		c0.1,0.3,0.2,0.6,0.3,0.8C333,517.2,332.6,517.2,332.2,517.4z M333.7,516.6c0-0.2-0.2-0.4-0.3-0.6c0-0.1,0.1-0.3,0.2-0.3
		s0.2,0,0.3,0C334,516,333.9,516.3,333.7,516.6z M335.9,520.5C335.9,520.6,335.9,520.6,335.9,520.5c-0.1,0.2-0.1,0.2-0.1,0.3
		c0,0,0,0,0.1,0c0,0.1,0,0.1-0.1,0.2c-0.3-0.2-0.5-0.2-0.6-0.1l-0.1-0.1c0-0.3,0.2-0.5,0.3-0.8l0,0h0.1c0,0,0.1,0,0.1-0.1
		c0.1,0.1,0.2,0.2,0.3,0.3C335.9,520.4,335.9,520.4,335.9,520.5z M337.3,521.6c0-0.1-0.1-0.1-0.2-0.2l0.1-0.1c0.1,0,0.1,0.1,0.2,0.1
		C337.3,521.5,337.3,521.5,337.3,521.6z M337.8,514.3c-0.1,0-0.1-1.3-0.2-1.4c0.5-0.1,0.9-0.1,1.4-0.2c0.1,0,0.2-0.1,0.3-0.1
		c0,0,0,0,0.1,0s0.3,0,0.3,0c-0.2,0.1-0.3,0.1-0.4,0.2c-0.2,0.2-0.5,0.3-0.7,0.5s-0.2,0.5-0.4,0.8c0.2-0.1,0.4-0.2,0.6-0.3
		C338.5,514,338.1,514.3,337.8,514.3z M340.6,520.5c-0.1,0-0.2,0.1-0.3,0.1c-0.1,0-0.3-0.1-0.4-0.2c0,0.1,0,0.2,0,0.4
		c-0.2,0.1-0.3,0.2-0.4,0.3l0.1-0.2c0.1-0.2,0.1-0.2,0-0.3c0.1-0.1,0.2-0.1,0.4-0.2c-0.5-1.1-1.6-2.4,0.8-2.7c0.1,0,0.3,0.1,0.4,0.2
		c-2.4,0.4-0.2,1.5-0.3,2.2C340.8,520.3,340.7,520.4,340.6,520.5z M340.8,521.5L340.8,521.5L340.8,521.5c0.1,0,0.2-0.4,0.2-0.4
		c0.1,0,0.2,0.1,0.3,0.2C341.1,521.3,341,521.4,340.8,521.5z M343,512.2c-0.2,0-0.4,0-0.5,0.2c-0.2,0.3-0.5,0.2-0.9,0.1
		c0.1-0.1,0.2-0.1,0.3-0.2c0.4-0.3,0.9-0.4,1.4-0.6C343.4,511.7,343.1,512,343,512.2z M343.4,512.4c0.2-0.2,0.5-0.3,1.2-0.4
		C344.4,513,343.9,512.7,343.4,512.4z M359.6,511.9c0.3,0.1,0.7,0.2,1,0.3c-0.4,0.1-0.6,0.3-0.8,0.5h-0.1c-0.3-0.1-0.6-0.2-0.8-0.3
		l0,0C359.2,512.3,359.4,512.2,359.6,511.9z M351,511.9c-0.1,0.1-0.1,0.1-0.2,0.2s-0.1-0.1-0.2-0.2
		C350.7,511.9,350.9,511.9,351,511.9z M344.9,512C345,512,345,512,344.9,512c0.8,0,1.2-0.3,1.6-0.6l-0.1,0.8
		C345.9,512.3,345.3,512.5,344.9,512z M349.7,519.7c0.1,0,0.1,0,0.2,0.1c0,0,0,0,0,0.1C349.9,519.8,349.8,519.8,349.7,519.7z
		 M349.3,514.9c0.1-0.2,0.5-0.5,0.7-0.8c-0.9-0.5-1.7,0.7-1.9,0.7c0,0.2,0.2,0.4,0.1,0.5c-0.2,0.3-0.4-0.4-0.6-0.1
		c-0.2-2-1.4,0.3-1.5-0.3c-0.1-0.5,0.2-1.2,0.4-1.8c1.9,1.6,3.5-0.6,5.3-0.3c0,0-1.6,1.1-1.6,1.4c0.1,0.2,2.2,0.6,2.2,0.9
		C352,517.6,350.1,514.1,349.3,514.9z M355.1,520.1c-0.2,0.8-0.4,1-0.7,0.1c-0.2,0.2-0.3,0.5-0.5,0.6c-0.2,0-0.4,0-0.6,0
		c-0.2-0.1-0.3-0.1-0.4-0.2c0.3-0.4,0.6-0.9,1-1.1c0.5-0.2,1.4-0.3,1.7,0C356,519.9,355.1,520,355.1,520.1z M356.3,515.8
		c-0.6,0.1-1,0.2-0.8-1c-0.1,0.1-0.2,0.1-0.3,0.2c-0.2,0.1-0.4,0.2-0.5,0.3c0-0.4,1.2-1.5,1.3-1.9c0-0.2-0.9-0.5-0.8-0.6
		c-0.4-0.2-0.8-0.4-1.2-0.6c0,0.2,0.1,0.4,0,0.6c-0.2,0.2-0.4,1.4-0.7,1.6c-0.1,0.1-0.4,0-0.5-0.2c-0.3-0.4-0.6-1.3-0.9-2l0,0
		c1,0.5,0.5-1.1,1.2-1.3c0.1,0.3,0.2,0.5,0.2,0.7c1-0.9,0.6,0.9,1.2,0.7c0.2,0,0.4,0.1,0.6-0.1c0.1-0.1,0.1-0.5,0.3-0.7
		c0.4,0.3,1.3,0.7,1.3,1c0.1,0.8,0.6,0.8,1,0.7c0,0.7,0.1,1.7,0.1,2.2c-0.1-0.1-0.3-0.3-0.4-0.4c-0.3,0-0.6,0-0.8,0.1
		C356.4,515.4,356.3,515.6,356.3,515.8z M357.5,521c-0.6,0.3-0.7-0.4-0.7-1.3c0,0,0.1-0.1,0.1-0.2c0.9,1,1.2-1.6,1.8-0.3
		C358.9,519.5,358.1,520.6,357.5,521z M358.5,514.5c-0.1-0.1,0.1-0.6,0.2-1.1c0,0,0.1,0.1,0.1,0.2c0.4-0.1,0.7-0.3,0.9-0.4
		c0.1,0.7,1.1,1.5,1,1.5C360,514.9,359.2,514.7,358.5,514.5z M362,514.6C362,514.6,361.9,514.7,362,514.6c-0.3-0.2-0.5-1-0.6-1.4
		c0.2,0.1,0.4,0.2,0.6,0.4c0.1,0.1,0.2,0.2,0.3,0.2L362,514.6z M363,515.1c-0.1,0.4-0.1,0.9-0.2,1.3c-0.1-0.5-0.2-0.9-0.3-1.4
		c0.1-0.1,0.2-0.2,0.3-0.3c0-0.4,0-0.6,0-0.7c0.1,0,0.2,0,0.3,0.1C363,514.4,363,514.8,363,515.1z M364.5,514.9
		c-0.3-0.1-0.7-0.3-1-0.5c0.1-0.1,0.1-0.2,0.2-0.3c0.3,0.1,0.7,0.2,1,0.5C364.7,514.8,364.7,515,364.5,514.9z M370.4,517.5
		c-0.2,0-0.5-0.1-0.7-0.1c0.3,0,0.6-0.1,0.9-0.1C370.6,517.4,370.5,517.4,370.4,517.5z M378.3,512.9c-0.2,0.1-0.3,0.2-0.5,0.2
		c-0.1-0.2-0.2-0.3-0.3-0.5C377.8,512.7,378.1,512.8,378.3,512.9z M375.8,510.3c0,0,0.1,0.1,0.3,0.1l0,0c0,0,0,0,0.1,0s0.1,0,0.2,0
		c0,0,0-0.1,0.1-0.1c0.3-0.1,0.7-0.3,0.9-0.4c0.2-0.1,0.4-0.1,0.7-0.2c0,0.1,0.1,0.1,0,0.3c-0.6,1-1.2,1.8-2.4,2.2
		c-0.2,0.1-0.5,0.2-0.7,0.4C375.2,511.8,375.5,511,375.8,510.3z M372.9,520.2c-0.2-0.1-0.4-0.2-0.6-0.4c0.1,0,0.1,0,0.2,0
		s0.3-0.1,0.4-0.3C372.9,519.8,372.9,520,372.9,520.2z M373.8,519.3c-0.1,0-0.3-0.1-0.3-0.1c-0.1-0.2-0.2-0.3-0.4-0.4
		c0.2-0.1,0.5-0.3,0.7-0.4c0,0.1,0,0.2,0.1,0.4C373.9,518.9,373.8,519.1,373.8,519.3z M373.9,521.8c0-0.1,0-0.1,0-0.2c0,0,0,0,0.1,0
		C374,521.6,374,521.7,373.9,521.8z M374.3,514.6c-0.1-0.3,0-0.7,0.2-1.1c0.1-0.2,0.1-0.3,0.2-0.5c0.2,0,0.4-0.1,0.5-0.1
		c0,0.1,0,0.1,0,0.2c-0.2,0.2-0.5,0.3-0.6,0.5C374.4,513.9,374.4,514.1,374.3,514.6c0.4-0.3,0.7-0.6,1.1-0.8c0,0.1,0,0.1,0.1,0.2
		c0,0.1,0,0.1,0,0.2c-0.3,0.2-0.7,0.3-1.1,0.5L374.3,514.6z M375.2,515c-0.1,0-0.3-0.1-0.4-0.1c0.2,0,0.3-0.1,0.5-0.1
		C375.3,514.8,375.2,514.9,375.2,515z M376.2,519.4c-0.4,0.2,0-1.1-0.8-0.3c0,0-0.1,0-0.2,0c0.1-0.1,0.3-0.2,0.4-0.4
		c0.1-0.1,0.6,0.2,0.8,0.4c0.1,0.1-0.1,0.5,0,0.6s0.1,0.3,0.2,0.4l0,0c-0.2,0-0.4,0-0.5,0.1C376,520.1,376,519.9,376.2,519.4z
		 M376.4,521.2c0-0.1-0.1-0.1-0.1-0.2l0.1-0.3c0.1,0,0.3,0,0.4,0c-0.2-0.1,0-0.3,0-0.5c0.1,0.3,0.3,0.5,0.5,0.7
		C377,520.9,376.7,520.9,376.4,521.2z M381.4,518.5c-0.6,0.1-1.2,0.1-1.8,0.2c-0.6,0-0.5-0.8-1.1-0.7c0,0-0.6,0.8-0.7,0.7
		c-0.5-0.4,0.4-1.6-0.7-1.8c0.6-0.1,1.1-0.1,1.7-0.2c0.2,0,0.5-0.1,0.7-0.1c-0.1-0.1-0.1-0.2-0.2-0.3c-0.1-0.3-0.2-0.5-0.3-0.8
		c0,0,0.2-0.1,0.4-0.2c0.1,0.5,0.3,1,0.3,1.5c0,0.1-0.4,0.3-0.6,0.4c-0.1,0.1-0.3,0-0.5,0v0.4c0.2,0,0.4-0.1,0.6,0
		c0.8,0.2,1.9,0.2,2.2,0.6c0,0.1,0,0.1,0.1,0.2C381.5,518.4,381.5,518.5,381.4,518.5z M388.5,511.3c-0.1,0.3-0.2,0.6-0.4,0.9
		C388.2,511.9,388.3,511.5,388.5,511.3z M386,517.6c-0.1-0.1-0.1-0.1-0.2-0.2c0,0.2,0,0.3,0.1,0.5c-0.1,0.1-0.3,0.1-0.7,0
		c-0.1,0-0.3,0.1-0.4,0.1c0.1-0.4,0.2-0.9,0.4-1.1c0.1-0.1,0.2-0.2,0.3-0.3c0.2,0.1,0.4,0.2,0.6,0.3C386,517.1,386,517.4,386,517.6z
		 M386.4,516.4c-0.2,0-0.4-0.1-0.6-0.2c0.4-0.6,0.2-1-0.9-1.4c-0.1,0-0.1-0.2-0.2-0.2c0.1,0,0.3-0.1,0.8-0.3c0.3,0.2,0.7,0.6,1.2,1
		C387.6,516.1,386.3,515.9,386.4,516.4z M388,513.5c-0.8,0.2,0,0.6-0.1,0.9c-0.1,0.2,0.1,0.5,0.2,0.7c-0.1,0-0.2,0-0.2,0
		c-1.9-0.1-1.3-1.8-1.8-2.9c0.1,0,0.3-0.1,0.5-0.1c0.3,0.1,0.5,0.2,0.8,0.3c0.1,0,0.1,0.1,0.2,0.1c-0.1,0-0.1,0-0.2,0
		c0.1,0.1,0.2,0.2,0.3,0.3c0.5,0.1,1.4-0.6,1.5,0.4C389.3,514.3,388.4,513.4,388,513.5z M389.4,510.5c-0.1,0-0.2,0.1-0.2,0.1
		c0-0.1,0-0.2,0-0.3H389c0-0.1,0.1-0.2,0-0.2c0.2,0.1,0.3,0.1,0.5,0.2C389.4,510.4,389.4,510.4,389.4,510.5z M392.2,512.1
		c0.1,0.1,0.2,0.1,0.4,0.1c0,0.1,0,0.1,0,0.1l0,0c-0.2,0-0.4,0.1-0.6,0.1C392.1,512.3,392.2,512.2,392.2,512.1z M391.7,520.5
		c-0.4,0-1.2-0.2-1.2-0.4c-0.1-0.2-0.1-0.4-0.1-0.6c0.3,0.3,0.7,0.4,1.1,0.4c0,0.2,0.1,0.3,0.1,0.3c0.2,0.1,0.4,0.2,0.6,0.3
		C392,520.5,391.9,520.5,391.7,520.5z M390.5,518.8c0-0.1,0-0.3,0-0.5c0,0.2,0.1,0.4,0.1,0.5H390.5z M390.9,518c0.1,0,0.2,0,0.3,0.1
		c0,0.1-0.1,0.1-0.1,0.1C391,518.1,390.9,518.1,390.9,518z M391.6,518.8C391.7,518.8,391.7,518.8,391.6,518.8c0.1,0,0.1,0,0.1,0
		c0.1,0.1,0.3,0.2,0.4,0.3l0,0C392,519,391.8,518.9,391.6,518.8z M392.6,518c-0.6-0.7-1.4-1-2.2-1.2c0.1-0.1,0.4-0.3,0.5-0.3
		c0.6,0.2,1.2,0.3,1.7,0.4l0,0c0.2,0.3,0.2,0.7,0.2,1.2C392.9,518,392.6,518,392.6,518z M394.7,512.1c0.1,0.1,0.2,0.1,0.2,0.2
		c0,0,0,0,0,0.1c-0.1,0-0.3,0-0.4,0C394.6,512.3,394.6,512.2,394.7,512.1z M395.7,517.4c-0.1,0-0.4,0.2-0.4,0.3s0,0.1,0,0.2
		c-0.2-0.1-0.1-1.1-0.7-0.3c0,0.1-0.6-0.1-0.9-0.3c-0.2-0.1-0.3-0.2-0.4-0.4c0.7-0.1,1.3-0.5,1.7-1.5c1.2,0,1.4,0.8,1.6,1.4
		C396.9,517.8,396.3,517.5,395.7,517.4z M396.8,513.4c-0.1,0-0.2,0-0.3,0c0.1-0.2,0.3-0.4,0.3-0.6c0.1,0,0.1,0,0.2,0
		c0,0,0.1,0.1,0.1,0.2C397.1,513.1,396.9,513.2,396.8,513.4z M397.5,512.2c-0.1,0,0.6-0.4,0.5-0.6c0,0,0.2-0.2,0.3-0.2
		c0.6-0.1,1.2-0.1,1.7-0.2c0,0.1,0,0.2,0.1,0.4c0.1,0,0.2-0.1,0.3-0.2c0.1-0.1,0.1-0.1,0.2-0.2h0.1c0,0.2,0.1,0.3,0.1,0.5l0,0
		c-0.6,0.1-1.2,0.3-1.8,0.4C398.5,512,398,512.1,397.5,512.2z M400.8,513.2c-0.4,0.3-0.9,0.2-1.4,0c0.4-0.2,0.9-0.3,1.5-0.3l0,0
		c0.2,0.1,0.4,0.2,0.7,0.3C401.3,513.2,400.9,513,400.8,513.2z M404.7,517.9c-0.2-0.1-0.7,0-0.9-0.1c-0.1-0.1,0-0.6,0-0.8
		c0.3,0.1,0.5,0.3,0.8,0.4c0.4,0.1,0.9,0.1,1.3,0.2c-0.1-0.3,0.3-0.5,0.4-0.8c0.2,0.1,0.4,0.1,0.6,0.1
		C406.4,517.6,406,518.7,404.7,517.9z M408.8,515.8c0,0.2-0.1,0.3-0.1,0.6c0,0,0,0,0.1,0c-0.1,0.1-0.1,0.1-0.2,0.2
		c-0.2-0.1-0.3-0.1-0.5-0.1c0.1-0.2,0.1-0.4,0.2-0.7c0-0.1,0.2-0.2,0.3-0.1c0.1,0,0.3,0,0.4,0.1
		C408.9,515.8,408.9,515.7,408.8,515.8z M409.8,516.8c-0.2-0.1-0.4-0.2-0.6-0.4c0.1,0,0.1,0,0.2,0s0.3-0.1,0.4-0.3
		C409.8,516.4,409.8,516.6,409.8,516.8z M416.6,511.4c0.8-0.1,1.5-0.3,2.2-0.4c0.1,0,0.1,0,0.2,0.1c-0.2,0.1-0.5,0.3-0.7,0.4
		c-0.8,0.2-1.6,0.5-2.4,0.7c-0.2,0.1-0.5,0.2-0.8,0.2l0,0c0.4-0.5,0.7-0.7,1.3-0.7C416.6,511.6,416.6,511.5,416.6,511.4z M416.1,510
		c0,0.1-0.5,0.3-0.6,0.5c0,0.1,0,0.2,0,0.3c-0.1,0.1-0.1,0.2-0.2,0.3c-0.3-0.4-0.1-1.2-1.8-0.8C415.1,509.6,415.6,509.3,416.1,510z
		 M414.7,514.4c-0.1,0.2-0.1,0.3-0.2,0.5c-0.1,0-0.1-0.1-0.2-0.1l0.1-0.7c0,0,0,0,0.1,0C414.6,514.2,414.8,514.3,414.7,514.4z
		 M412,511.1L412,511.1L412,511.1L412,511.1z M409.9,512.3c0.2-0.3,0.5-0.6,1-0.3c0.1-0.2,0.2-0.5,0.3-0.8c0,0-0.2,0-0.2-0.1
		c0.1-0.1,0.1-0.1,0.1-0.2c0.1,0.1,0.2,0.2,0.4,0.3c-0.1,0.1-0.1,0.1-0.1,0.2c0.1,0.1,0.2,0.2,0.3,0.2h0.1c-0.1,0.2-0.2,0.4-0.3,0.5
		c0.3-0.2,0.5-0.2,0.8-0.2C411.4,512.1,410.9,512.7,409.9,512.3z M412,511c0.1-0.2,0.3-0.6,0.4-0.6h0.5c0.1,0,0.2-0.1,0.3-0.1
		c0.4,0,0.8,0.1,1.1,0.1c-0.1,0.1-0.2,0.3-0.2,0.3C413.4,510.6,412.8,512,412,511z M413.2,514.4c-0.2-0.1-0.5,0.2-0.7,0.3
		c0.1-0.2,0.2-0.5,0.3-0.7c0.1-0.1,0.1-0.3,0.2-0.5c-0.1,0.1-0.2,0.1-0.3,0.1c0,0,0.1,0,0.1-0.1c0.3-0.6-0.1-0.7,0.5-0.3
		c0.2,0.1,0.5,0,0.8,0c-0.1,0.2-0.3,0.4-0.4,0.6h-0.1c0,0-0.1,0.2-0.1,0.3c0.1,0.3,0.1,0.4,0.1,0.5
		C413.5,514.5,413.4,514.5,413.2,514.4z M419.9,515.3c-0.3-0.1-0.6-0.3-0.8-0.2c-0.4,0.1-1,0.6-1,0.9c0,0.9-0.8,1.7-1.7,1.5
		s-1.8-0.3-2.7-0.5l0,0c0-0.2,0.2-0.3,0-0.4l0,0c0.7-0.2,1.3-0.5,2-0.7c0.1,0,0.3,0.3,0.5,0.3c0.4,0.1,0.9,0.1,1.3,0.2l0.1-0.3
		c-0.7-0.3-1.4-0.6-2.1-0.8c0.2,0,0.4-0.1,0.7-0.1c0.2,0,0.5,0.1,0.5,0c0.2-0.2,0.3-0.4,0.5-0.6c-0.4,0.1-0.9,0.2-1.3,0.2
		c-0.3,0-0.4,0-0.7,0c0-0.1,0-0.2,0-0.3c0.3-0.3,0.7-0.7,1.1-0.9c0.7-0.4,1.5-0.3,2.2,0.1c0.1,0,0.1,0.1,0.2,0.1
		c0.8,0.4,0.6-0.5,1-0.2C420.1,514.1,419.5,514.9,419.9,515.3C420,515.4,420,515.4,419.9,515.3z M422.9,516.5
		c-1.3-0.1-0.6,1-1.3,1.7c0,0-0.3-0.2-0.5-0.3c0.8-0.5,0.5-2.1,1.8-2C423,516,422.9,516.5,422.9,516.5z M424.1,520.6L424.1,520.6
		L424.1,520.6c0.1-0.1,0.1,0,0.2,0C424.2,520.5,424.2,520.5,424.1,520.6z M425.2,519.7c-1.4-0.8-1.8-1-2.1-1.3
		c-0.1-0.1,0.3-0.6,0.5-1c0.5,0.4,1.1,0.7,1.6,1.1C424.9,518.6,425,519.5,425.2,519.7z M425.2,516.1c-0.2,0-0.4-0.4-0.4-0.5
		c0.1,0.1,0.2,0.1,0.3,0.1c0.2-0.1,0.3-0.2,0.4-0.2c-0.1,0.3,0.2,0.3,0.4,0.3c0,0.1,0.1,0.3,0.1,0.4
		C425.7,516.2,425.4,516.1,425.2,516.1z M364.7,518.4c0.1,0.1,0.1,0.1,0.2,0.1C365.1,518.5,364.8,518,364.7,518.4z"/>
	<path id="middle_3_section" d="M468.1,509c-1.1-0.9-2.3-0.3-3.5-0.1c-0.1,0-0.2,0.1-0.3,0.2c0.7,0.3,1.3,0.6,2.2,1.1
		C467,509.8,467.6,509.4,468.1,509z M466.8,520.7L466.8,520.7L466.8,520.7L466.8,520.7z M562.3,517.7c0.3-0.3,0.1-2.3-0.1-1.4
		c0,0.4-0.5,1.2-0.7,0.9c0-0.1-0.3-0.4-0.3-0.4c0.9-0.2,0.3-1.7,1.3-1.7c0-0.9-0.8-1-0.8-1.9c-0.3-0.2,0.2-0.9-0.1-1.1
		c0.3,0.1,0.5,0.5,0.8,0.4l0.1-1.6c-0.4-1-0.1-2-2.7-2.1c-0.1,0.2,1.7,1.8,1.6,2c-0.2,0.5-0.2,0.8-0.4,1.3c0,0-0.3,0-0.5-0.1
		c0,0-0.1-0.1-0.1-0.2c0.2-0.2,0.4-0.4,0.5-0.6c-0.3,0.1-0.7,0.2-0.9,0.4c-1,1.1-1.3,0.6-1.4-0.2c0.2,0,0.7,0.1,1,0.1
		c0.1,0,0.3-0.2,0.3-0.2c-0.8-1.6-2.5-0.8-3.7-1.2V510c0.2-0.2,0.5-0.4,1.1-0.5c0,0,0.1-0.3,0-0.5c0-0.1-0.2-0.4-0.3-0.4
		c-1.4,0.2-1.8,0.6-3.2,0.6c-0.8,0-0.6-0.6-1.4-0.7c-0.7-0.1-0.5,0.2-1.3,0.3c0,0.1,0,0.2,0.1,0.3c0.6,0.6,0.9,1.5,2.1,1
		c0,0.1,0.1,0.2,0.1,0.3c0,0.1-0.1,0.3-0.1,0.3c-0.2,0-0.4-0.1-0.6-0.1c0.3,0.3-0.4,0.6,0,0.7c1.4,0.1,1.7-0.5,2.5-0.4
		c0,0.2-0.1,0.4-0.1,0.6c0.9,0.1,1.9-0.1,2.5,0.8c0.1,0.1,0.4,0.2,0.5,0.2s0.1-0.1,0.2-0.1c0.1,0.3,0.3,0.5,0.8,0.5
		c-0.6,0.5-1.2,1-1.9,1.3c-0.1,0.1-0.8-0.5-0.9-0.9c-0.1-0.3-0.1-0.5-0.2-0.6l0,0l0,0c-0.1-0.2-0.2-0.3-0.3-0.2v0.5
		c-0.2,0.2-0.4,0.5-0.5,0.4c-0.3-0.1-0.7-0.3-1-0.5c0.2-0.2,0.3-0.5,0.5-0.7c-0.3,0.1-0.8,0-0.8,0.2c-0.2,0.3-0.2,0.8-0.2,1.2
		c-0.1,0.4-0.1,0.9-0.2,1.3c-0.1-0.7-0.3-1.4-0.4-2.1c-0.2,0.1-0.3,0.3-0.5,0.4c-0.2-0.3-0.5-0.5-0.6-0.8c-0.2-0.3,2-1.1-0.2-0.9
		c-0.1,0.6-0.2,1.6-0.4,1.6c-0.2,0.1-0.4,0.1-0.6,0.1c-0.1-0.2-0.2-0.5-0.3-0.6c-0.2-0.2-0.4-0.3-0.6-0.5c0-0.1-0.2-0.2-0.3-0.2
		c0.1,0,0.3,0,0.3,0.1c0.3,0,0.6,0.1,0.8,0.1c-0.4-0.3-0.7-0.7-1.1-0.8l0,0c0.7-0.5,1.5-1.1,2.2,0.2c-0.3-0.5-0.5-1.4-0.8-1.4
		c-1.1-0.1-1.9,0.1-2.3,0.8c-0.6-0.4-1.1-0.9-1.5-1.5c0-0.1,0-0.2,0-0.2c0.2,0.1,0.4,0.1,0.6,0.2c0.4,0.1,0.8,0.3,1.2,0.5
		c-0.1-0.2-0.2-0.4-0.3-0.6c0-0.1-0.3-0.1-0.5-0.1c-0.7-0.3-0.7-0.3-1.3-0.5c-0.3-0.1,0.1,0.2-0.2,0.1c0.1,0.3,0.1,0.5,0.2,0.8
		c0,0.1-0.1,0.1-0.3,0.2c0,0,0,0-0.1,0l0.1-0.8c-0.1,0.1-0.1,0.1-0.2,0.1c-0.3,0.1-0.4,0-0.7,0.7c0,0.1,0.1,0.1,0.1,0.2l0,0
		c0,0,0,0,0.1,0c0.1,0.2,0.2,0.4,0.3,0.6c-0.2,0-0.5-0.2-0.7-0.2c-0.6,0.2-0.3,0.2-0.4-0.4c-0.1-0.4-0.5-0.3-1.1-0.5
		c0,0.1,0.1,0.3,0.2,0.4s0.2,0.1,0.2,0.2c0,0.2,0,0.3,0,0.5c0,0.1-0.1,0.1-0.2,0.1c0-0.1-0.1-0.2-0.1-0.3c-0.3-0.2-0.4-0.4-0.7-0.6
		c-0.3,0.3-1-0.5-1,0.3c-0.2-0.1-0.3-0.1-0.3-0.1c-0.1-0.1-0.3-0.1-0.5,0c-1.1,0.7-2,0.5-2.9-0.2c-0.1-0.1-0.4-0.2-0.6-0.1
		c-0.4-0.2-0.7-0.4-1.1-0.6c-0.3,0.2-0.7,0.4-0.6,0.5c0.1,1,0.4,0.9,0.8,0.7l-0.1,0.1c0.5,0.1,1.1,0.2,1.5,0.4
		c0.7,0.3,1.1,1.1,1.5,1.8c-0.2,0.2-0.4,0.4-0.7,0.6c-0.1,0.1-0.4,0-0.5-0.2c-0.4-0.6-0.9-1.3-1.3-2c-0.2,0.3-0.4,0.7-0.7,0.9
		c-0.2,0.2-0.1-0.6-0.7-0.3c0,0,0,0-0.1,0c-0.2,0-0.4,0-0.5,0l0,0c0.1-0.2,0-0.3-0.1-0.3c-0.3-0.3-0.5-0.1-0.3-0.9
		c-0.3,0.2-0.2-1.1-0.8-0.2c0,0.1-0.6-0.1-0.8-0.3c-0.3-0.2-0.4-0.4-0.6-0.7c0,0,0-0.1,0-0.2c0.5,0.4,0.4-0.1,0.3-0.3
		c-0.2,0-0.3,0-0.4,0.1c-0.1,0.2-0.7,0.2-0.3,0.7c0.2,0.3,0.2,0.7,0.2,1.2c-0.1,0-0.3,0-0.3,0c-1.9-2.1-4.7-0.7-6.8-1.8
		c-0.2,0-0.5,0.1-0.7,0.2c0.1,0,0.2,0.1,0.3,0.1c0.5,0.2,1.1,0.5,1.6,0.8c0.6,0.4,0.3,0.7-0.2,0.7c-0.2,0-0.4-0.3-0.6-0.5
		c0.1,0.6,0.1,1.2,0.3,1.8l0,0c-0.3,0-0.5,0.3-0.7,0.8c-0.1,0.3-1.2,0.2-1.9,0.3c-0.1,0-0.1-0.3-0.2-0.4c0.5-0.1,0.9-0.1,1.4-0.2
		c0.1,0,0.4-0.2,0.4-0.2c0-0.2-0.1-0.4-0.2-0.5c-0.1,0.1-0.2,0.2-0.3,0.2c-0.3,0-0.7-0.1-1-0.2c0,0-0.1-0.2,0-0.3
		c0.5-0.6,0.3-0.7,0-0.8c0-0.2,0-0.3,0-0.5h-0.2c0-0.1,0.1-0.2,0-0.2c0.2,0.1,0.3,0.1,0.4,0.2c0,0.1,0,0.1,0,0.2
		c0.1,0,0.3,0.1,0.3,0c0.1-0.1,0.3-0.2,0.3-0.3c-0.3-0.4-0.6-1.1-0.8-1.1c-0.6,0.1-1.2,0.5-1.6,0.8c-1,0.7-2,1.3-3.1,1.9
		c-0.4,0.2-1,0.4-1.5,0.5c0.3,0.3,0.6,0.5,0.9,0.6c-0.2,0-0.3,0.1-0.4,0.2c-0.6,1.3,1.1,0.1,1.1,0.8c-0.5-0.3-1.8,2.1-1.5-0.3
		c-0.1,0-0.3-0.1-0.3,0c-1.5,1-2.1-2.1-3.6-0.8c0-0.1,0-0.1,0-0.2c0.6-0.3,1.3-0.4,2.1-0.3c0.4,0.1,0.9-0.1,1.4-0.2
		c-0.2-0.1-0.6-0.2-0.8-0.3c-0.1,0-0.2-0.1-0.3-0.1c0.2,0,0.3,0,0.4-0.1c0.2-0.1,0.6,0,0.8-0.2c0.2-0.1,0.4-0.4,0.7-0.6
		c-1.3,0.1-2.5,0.2-3.8,0.2c-0.5,0.1-1,0-1.4,0c-0.1,0,0.7-0.3,0.6-0.5c0,0,0.2-0.1,0.3-0.1c2,0.1,3.2,0.2,5.2,0.3
		c0.5-0.1,0.9-0.1,1.3-0.2c-0.1-0.2-0.3-0.4-0.4-0.7c-0.7,1.1-0.8-0.7-1.3-0.3c-0.2,0.1-0.4,0.1-0.5,0.2c-0.1,0.2,0,0.5-0.1,0.7
		c-0.5-0.2-1.3-0.3-1.4-0.6c-0.6-1.5-1.5,0.4-2.1-0.4c-0.9,0.6-1.1,1.1-1.6,1.2c-0.1-0.2-0.1-0.4,0.1-0.3c-0.5-0.2-0.9-0.6-1.4-0.7
		c-0.2,0-0.4,0.3-0.7,0.5c-0.1,0-0.2,0-0.4,0l0.3-0.6c-0.1,0-0.1-0.1-0.2-0.1c-0.3,0.3-0.7,0.5-1,0.7c0,0,0,0,0,0.1
		c-0.4,0-0.7-0.1-1.2-0.5c-0.3,0.1-0.8,0.6,0,0.6c-0.4,0.9,0.6,0.4,0.8,0.8c0.2,0,0.4-0.1,0.6-0.2c0,0,0.1,0.1,0.1,0.2
		c0.1,0,0.1,0,0.1,0.1l0.3-0.6c0,0,0,0,0.1,0c0.1,0.1,0.2,0.2,0.1,0.2c0,0.2-0.1,0.3-0.2,0.5c0,0.1-0.2,0-0.2,0.1
		c-0.1,0.1-0.3,0.2-0.3,0.3c0.7,0,1,0.3,1.3,0c0.4-0.5,0.1-0.7,0.6-0.2c0.2,0.2,0.6,0.1,0.8,0.2c0.1,0,0.1,0.2,0.1,0.4
		c0,0.1-0.2,0.2-0.3,0.1c-0.2,0-0.2-0.1-0.4-0.1c0.1,0.2,0,0.4,0.1,0.4c0.1,0.1,0.4,0.2,0.5,0.1c0.1,0.1,0.3,0.2,0.2,0.3
		c-0.2,0.2-0.3,0.5-0.5,0.7c0.3,0.1-0.2,0.2,0.1,0.2c0.6,0,0.7,0,1.2,0.1c0,0.1,0,0.3,0.1,0.4c0.1,0,0.2-0.2,0.2-0.1
		c0.1,0,0.2,0.1,0.4,0.2c-0.4,0.3-0.8,0.6-1.3,0.9c0.2-2.2-1.9-0.8-2.6-1.6c0.1-0.5,0.4-1.1,0.2-1.2c-0.5-0.3-1.1-0.5-1.7-0.7
		c-1.1-0.3-2.2-0.6-3.3-1c0-0.2,0.1-0.3,0.3-0.5c-0.1-0.1-0.2-0.3-0.2-0.3c-0.2,0.1-0.4,0.2-0.6,0.3c-0.1,0.1-0.2,0.1-0.2,0.2l0,0
		c0-0.1-0.1-0.2-0.2-0.3c-0.1-0.2-0.5-0.2-0.7-0.4c0,0.1,0,0.1,0,0.1l0,0c0,0.1,0,0.2,0,0.2l0,0c-0.6,0.2-0.2,0.4-0.9,0.5
		c-0.2,0-0.5-0.2-0.7-0.3c0.3,0,0.7-0.1,1-0.2c0.2,0,0.3-0.1,0.4-0.2c-0.1-0.1-0.3-0.1-0.4-0.2c-2.1-0.2-2.3-0.4-4.4-0.4
		c-0.4,0-2.3-0.2-1,1.5c0.1,0.2-0.7,0.3-0.4,1.4c-0.1,0-1-0.3-1.1-0.4c0.1-0.2,0.2-1.5,0.2-1.5c-0.6-0.6-0.9,1.4-1.7,0.1
		c-1.1-1.8-2.6,0.7-3.8-0.2c-0.1,0.6-0.2,1.3-0.3,1.9c0,0.2-0.2,0.5-0.2,0.7c-0.4-0.2-0.8-0.3-1.1-0.5c-0.1,0-0.1-0.2-0.1-0.4
		c0.2,0.1,0.4,0.3,0.6,0.4c0.1,0,0.4-0.1,0.4-0.1c0-0.3-0.1-0.7-0.2-1c0-0.1-0.2-0.1-0.2-0.1c-0.8,0.3-1.2,2.1-2.5,0.7
		c-0.1-0.1-0.3-0.2-0.5-0.3c0.3,0,0.7,0.1,1.1,0.3c1.1,0.5,0.3-1.6,1.5-1.3c0-0.2,0-0.5,0-0.9h-0.2c0-0.1,0.1-0.2,0-0.2
		c0.2,0.1,0.3,0.1,0.4,0.2c0,0.1,0,0.1,0,0.2c0.1,0,0.3,0.1,0.3,0c0.1-0.1,0.3-0.3,0.3-0.3c-0.3-0.4-0.7-1.1-0.9-1
		c-0.6,0.2-1.1,0.5-1.6,0.9c-0.2,0.1-0.4,0.3-0.5,0.4c-0.1,0-0.3,0-0.4-0.1c-0.3-0.1-0.5-0.2-0.8-0.3c-0.1,0.5-0.2,1-0.4,1.4
		c-0.3,0.2-0.6,0.4-0.9,0.6l-0.1,0.1c0-0.1,0-0.3-0.2-0.5c-0.3,0.3-0.6,0.6-0.8,0.9c-0.1,0-0.2,0.1-0.3,0.1c0.1,0.1,0.1,0.1,0.2,0.1
		c0,0.1-0.1,0.1-0.1,0.2c-0.3,2.1-1.3,1.6-1.5,3.7c-0.1-0.1-0.1-0.3-0.2-0.4c-0.5-0.5,0.6-1.5-0.6-1.6c-0.3,0-0.8,1.4-1,0
		c0.5-0.6,1.1-1.1,2-1.4c0.4-0.1,0.8-0.5,1.2-0.9c-0.3,0-0.6,0.1-0.9,0.1c-0.1,0-0.3,0-0.4,0.1c0.2-0.1,0.3-0.1,0.4-0.2
		c0.2-0.2,0.5-0.3,0.7-0.6c0.1-0.2-0.1-0.6-0.2-0.9c0.4-0.2,0.8-0.3,1.3-0.5c0.4-0.3,1.2,0.3,1.5,0c-0.3-0.1-0.5-1-0.7-1.1
		c-0.1,1.3-2.6-0.7-2.9-0.1c-0.1,0.1,0.7,0.6,0.7,0.8c0,0.2-0.8,0.1-0.8,0.3c-0.6,0.1-0.4,0.7-0.6,0.5c-1.3-1-0.7-0.1-1.7-0.6
		c-0.8,1.6-0.9,3.2-3,3.3c-0.5,0-0.8,0.2-1.1,0.4c-0.2,0-0.4-0.1-0.6-0.2v-0.7v-0.1l0,0l0,0c-0.1,0-0.2-0.1-0.5-0.1
		c-0.8,0-1.7,0.4-2.5,0.7c-0.2,0.1-0.3,0.5-0.5,0.7c-0.2-0.3-0.5-0.5-0.7-0.8c0.2-0.4,0.4-1,1-0.7c0.1-0.2,0.1-0.5,0.2-0.8
		c0,0-0.2,0-0.2-0.1s0.1-0.1,0.1-0.2c0,0,0,0,0.1,0c0.1,0.1,0.2,0.1,0.3,0.2c0,0.1,0,0.1-0.1,0.2c0.1,0,0.3,0.1,0.3,0.1
		c0.1-0.1,0.4-0.2,0.3-0.3c0-0.1-0.1-0.2-0.1-0.3h1.4c-0.2,0.1-0.4,0.2-0.7,0.3c0,0-0.1,0.2,0,0.4c0,0.1,0.2,0.3,0.3,0.3
		c1.1-0.2,1.4-0.5,2.5-0.6c0.6,0,0.5,0.5,1.1,0.6s0.4-0.2,1-0.3c0-0.1,0-0.2-0.1-0.2c-0.2-0.2-0.3-0.4-0.5-0.6
		c0.3-0.1,0.5-0.4,0.8-0.6c-0.3-0.1-0.7-0.4-0.9-0.3c-0.2,0.1-0.4,0.2-0.6,0.3c-0.2-0.2,0.3-0.6,0-0.6c-1.2-0.1-1.4,0.4-2,0.4
		c0-0.2,0.1-0.3,0.1-0.6c-0.7-0.1-1.5,0.1-2-0.6c-0.1-0.1-0.3-0.1-0.4-0.1c-0.2,0.1-0.2,0.2-0.4,0.4c0.2,0.1,0.3,0.1,0.5,0.1
		c0.2,0.2,0.5,0.3,0.7,0.5c-0.3,0-0.6,0.1-0.9,0.1c0-0.1,0-0.1,0-0.2s-0.6-0.1-0.9-0.1c-0.1,0-0.2,0.2-0.2,0.2
		c0.1,0.2,0.2,0.4,0.4,0.5l0,0c-0.4,0.1-0.8,0.3-1.1,0.4c-0.4,0.2-0.9,0.4-1.3,0.6c-0.4,0-0.7,0-1-0.1c-0.1-0.1-0.6,0.5-1,1l0,0
		h-0.1c-0.3,0-0.7-0.1-1-0.1c0.3-0.1,0.5-0.1,0.8-0.3c0.1,0,0.1-0.2,0.2-0.3c-0.2-0.1-0.5-0.3-0.6-0.3c-1.1,0.6-1.6,0-2-0.8
		c-0.1-0.3-0.3-0.7-0.5-0.8c-0.3-0.1-0.7,0-1,0.1c0.3,1.6-0.4,1.5-1.1,1.1c0,0,0,0,0-0.1l0,0c-0.1-0.1-0.3-0.2-0.4-0.2
		c-0.1,0.3-0.2,0.5-0.3,0.7c0,0,0,0-0.1,0c-0.1-0.4-0.2-0.7-0.4-0.9c0.1,0,0.2,0,0.4,0.1c0.1,0.1,0.5-0.6,0.8-0.9
		c0.1-0.1,0-0.4,0-0.4c-1.2-0.2-1.7,0.4-2.2,1c-0.4,0.1-0.8,0.4-1.2,0.4c-0.1,0-0.1,0-0.2,0c0-0.1,0.1-0.3,0.1-0.4
		c0,0-0.2-0.3-0.5-0.3c-0.1-0.1-0.5-0.1-0.5,0c-0.1,0.3-0.2,0.5-0.3,0.7c-0.2-0.2-0.3-0.5-0.5-1.2c0-0.2-0.3-0.5-3-0.4
		c-0.2,1.1,1.7,0.3,1.8,1.8c0.1,0.5,0.4-0.1,0,1.1c-0.2,0.4-0.3,0.9-0.4,1.4c-0.5-0.4-0.4-1.4-0.6-2c0.2-0.3,0.6-0.2,0.5-0.2
		c-0.3-0.2-0.5-0.4-0.8-0.6l-0.2,0.1c0.4,0.7-1.7,1.1,0.1,1.7c0.5,0.2-1.1,3.4,0.4,2c-0.1,0.3,0,0.4-0.2,1c0.1,0.1,0.2,0.1,0.3,0.1
		c1-0.1,2.1,0.2,2.2-1.3c0.1,0.1,0.2,0,0.3,0.1c0.1,0.1,0.2,0.3,0.2,0.3c-0.1,0.2-0.3,0.3-0.4,0.5c0.3-0.1,0.4,0.3,0.5,0.5
		c-0.1,0-0.2,0.1-0.3,0.1c0.2,0.1,0.4,0.2,0.6,0.3s0.3,0.3,0.4,0.4c-0.3,0.1-0.6,0.2-0.9,0.2c-1.2-0.2-2.4-1.7-3.6,0
		c-0.1,0.2,1.3,1.3,1.2,1.5c0.6,0.4,0.1,0.5-0.1,1c-0.1,0.2-0.9-0.2-1.1,0s0.8,1.5,0.7,1.7c-0.4,0.4-0.7,0.8-0.5,0.8
		c2.1,0.8,5.3,0.7,7.7,0.7c0.4,0-0.5-1-0.2-1.3c0,0-0.2-0.3-0.2-0.5c-0.1,0.1-0.2,0.2-0.3,0.3c-0.3,0.3-0.6,0.5-0.9,0.8
		c-0.2-0.7-0.4-1.3-0.5-2c0-0.1,0.6-0.3,0.9-0.3c0.2,0,0.4,0,0.6-0.1l0,0c-0.1,0.1-0.2,0.2-0.2,0.2c0.3,0.4,0.5,0.4,0.8,0.3
		c0.1,0.3,0.2,0.5,0.2,0.8c0.6-0.6,0.9-0.2,1,0.4c0.1,0.3,0.3,0.6,0.4,0.9c0.6-0.3,0.2-0.6,0-1c0-0.1,0.1-0.3,0.1-0.3
		c0.2-0.1,0.3,0,0.6,0c-0.1,0.3-0.3,0.7,0.3,0.9c0.1-0.3,0.1-0.5,0.2-0.8c0.2,0.6,0.4,1.2,0.9,1.6c0.3,0.2,1-0.1,1.6-0.2
		c-0.4-0.2-0.8-0.4-1.2-0.6c-0.2-0.1-0.3-0.4-0.5-0.6c0.3,0,0.7-0.1,1-0.1c0.5,0.2,0.9,0.6,1.4,0.9c0-0.5,0.1-1.1-0.2-1.4
		c-0.5-0.5-0.2-0.6,0.1-0.7c0,0,0,0,0,0.1c0,0.2,0.4,0.4,0.6,0.4l0,0l0,0c0.1,0,0.1,0,0.2,0h-0.1c0.3,0.3,1,0.6-0.2,0.7
		c-0.1,0-0.2,0.6-0.4,0.9c0.5,0.3,1,0.4,1.7,0c0.2-0.2,1.1,0.5,1.2,0.4c0.4-0.4,0.3-0.9-0.4-1c-0.2,0-0.5,0-0.5,0
		c-0.1-0.3-0.1-0.5-0.1-0.8c0.1,0,0.1,0,0.2,0.1c0.6,0.2,1.1,0.3,1.4,0.1c0.3,0.1,0.5,0.3,0.8,0.5c0,0-0.2,0.6-0.4,0.9
		c1.2,0.3,0.5-0.9,0.9-1.3c0.1-0.1,0-0.3,0-0.5c0.1,0,0.3,0,0.4,0s0.2-0.1,0.4-0.3c0,0.3,0,0.5,0,0.8c0,0.2-0.1,0.3-0.1,0.5
		c-0.7-0.5-0.6,0.4-0.6,0.4s0,0,0.1,0.1c-0.1,0.1-0.1,0.1-0.1,0.1c0.3,0.5,0.7,0.6,1.1,0.6c0.2,0.1,0.3,0.3,0.5,0.4
		c0-0.1,0-0.3,0.1-0.4c0.2,0,0.3-0.1,0.5-0.1c0.1,0.3,0.3,0.4,0.6,0.5c-0.1,0.1-0.2,0.1-0.3,0.2c0,0,0,0.3,0.1,0.4
		c0,0.1,0.2,0.3,0.3,0.3c1-0.4,1.3-0.8,2.4-1.1c0.6-0.2,0.6,0.4,1.2,0.4c0.6-0.1,0.3-0.3,1-0.5c0-0.1,0-0.2-0.1-0.2
		c-0.6-0.4-1-1.1-1.8-0.5c0-0.1-0.1-0.1-0.1-0.2c0-0.1,0-0.3,0-0.3c0.2,0,0.3,0,0.5,0l0,0c0.6,0.1,1.1,0.4,1.7,0.5s1.2,0,1.8-0.2
		c0.1-0.1,0.2-0.3,0.2-0.6c0.3-0.1,0.5,0.2,0.6,0.6c0.2,0.3,0.5,0.5,0.6,0.8c0.5-0.5,0.1-0.7-0.2-1c0-0.1,0-0.3,0.1-0.3
		c0.3,0.4,0.6,0.7,1,0.7c1.7,0,0.4-0.7,2-1c0.3-0.1,0.6,0,0.8,0c0,0.2-0.1,0.4-0.1,0.4c-1.4,0.1,0.1,0.7-0.1,1
		c0.4-0.3,0.8-1,1.5-0.3c-0.1-0.4-0.2-0.8-0.3-1.2c0-0.1-0.1-0.2-0.2-0.3c0.2-0.1,0.4-0.2,0.7-0.3c0.1,0.1,0.1,0.3,0.2,0.4
		c0.2,0.5,0.4,1.1,0.6,1.6c0-0.3,0-0.6,0.1-0.9c0-0.1,0.2-0.2,0.3-0.3c0,0.1,0.1,0.2,0.1,0.3c0.1,0.7,0.5,0.5,1,0.3
		c0.2,0.5,0.5,0.5,0.8,0.1c0.1-0.2,0.2-0.3,0.4-0.5c0.5,0.1,1,0,1.4,0.2c-0.1,0.3-0.3,0.4-0.7,0.5c0,0-0.1,0.2,0,0.4
		c0,0.1,0.1,0.3,0.2,0.3c0.9-0.2,1.1-0.5,2-0.5c0.5,0,0.4,0.6,0.8,0.6c0.4,0.1,0.3-0.2,0.8-0.2c0-0.1,0-0.2-0.1-0.2
		c-0.3-0.4-0.5-1-0.9-1c0-0.2,0-0.4,0-0.7c0-0.1,0.1-0.1,0-0.2c0.1-0.2,0.2-0.4,0.2-0.5c0,0,0.1-0.1,0.1,0s0,0.1,0,0.2
		c-0.4,1.2,0.2,1.3,0.8,1.3l0.3-1c0.1,0,0.2,0.1,0.3,0.1c-0.1,0.1-0.1,0.2-0.1,0.2c0.2,0.4,0.4,0.4,0.6,0.3c0.1,0.3,0.1,0.5,0.2,0.8
		c0.5-0.6,0.7-0.2,0.7,0.5c0.1,0.3,0.2,0.6,0.3,1c0.5-0.3,0.2-0.6,0-1c0-0.1,0.1-0.3,0.1-0.3c0.1-0.1,0.2,0,0.4,0
		c-0.1,0.3-0.3,0.7,0.2,0.9c0.1-0.5,0.3-1,0.3-1.5c0.3,0.1,0.6,0.1,1,0.2c0.3,0,0.7,0.3,1,0.4c0,0.1,0,0.1,0,0.2
		c0.2-0.1,0.4-0.2,0.7-0.3c0.1,0.2,0.2,0.4,0.2,0.4c0.6-0.1,1.2-0.4,1.8-0.5c-0.4-0.3-0.7-0.7-1.1-1c0-0.1-0.2-0.1-0.2-0.1
		c-0.2,0.2-0.4,0.5-0.6,0.7c-0.1-0.1-0.2-0.2-0.3-0.3l0,0c-0.1-0.1-0.2-0.1-0.3-0.2c-0.2-0.1-0.3-0.3-0.4-0.4v0.1
		c-0.5-0.3-1.1-0.5-1.6-0.4c0.1-0.3,0.2-0.5,0.2-0.6c0.1-0.3-0.4,0.6-0.6,0.4c-0.1-0.1-0.2-0.2-0.3-0.2l0,0c0.5-0.2,1.1-0.3,1.6-0.6
		c0.8-0.6,0.9,1.5,1.8,0.4c0.1,0,0.2,0,0.2-0.1c0,0.3,0.1,0.6,0.1,0.9c0,0.2,0.5,0.3,0.8,0.3c0.7,0,1.4,0,2,0.1
		c-0.1,0.2-0.1,0.4,0.3,0.4c0.3,0,0.7-0.1,1.1-0.3c0.5,0,0.9-0.1,1.1-0.5c0.3-0.1,0.6-0.1,0.9,0l0,0c0,0.1-0.1,0.1-0.2,0.2
		c0.2,0,0.4,0,0.7,0c0.3,0.1,0.5,0.2,0.8,0.3c0,0.1-0.1,0.2-0.1,0.2c-0.6-0.3-0.8,0-0.8,0.2c-0.1,0-0.1-0.1-0.2-0.2
		c0-0.1-0.7,0.1-1.2,0.1c-0.1,0-0.3,0.2-0.3,0.2c0.7,0.7,1.5,0.7,2.3,0.5c0.3,0.2,0.7,0.3,1,0.5c0,0-0.1,0-0.1,0.1
		c0,0,0,0.3,0.1,0.4c0,0.1,0.3,0.3,0.4,0.2c0.7-0.2,1.1-0.4,1.5-0.6c0.2,0.1,0.5,0.1,0.7,0.1l0.3-0.5c0.2-0.1,0.4-0.1,0.7-0.2
		c0.8-0.2,0.8,0.4,1.6,0.3c0.7-0.1,0.5-0.3,1.3-0.5c0-0.1,0-0.2-0.2-0.2c-0.1,0-0.1-0.1-0.2-0.1l0,0c0.5-0.1,0.9-0.5,1.4-0.7
		c-0.1-0.1-0.1-0.2-0.2-0.2c-0.4,0-0.7,0.2-1.1,0.2c-0.1,0-0.2-0.3-0.2-0.4c1.2-1.3,2.3,0.8,3.5,0c0,0.3,0.1,0.5,0.1,0.8
		c0.4-0.2,0.7-0.4,1.1-0.5c0.1,0.2,0.2,0.4,0.3,0.7c0.5-0.7,0.8-0.3,1,0.3c0.1,0.3,0.4,0.6,0.6,0.9c0.6-0.4,0.1-0.7-0.2-1
		c0-0.1,0-0.3,0.1-0.3c0.1-0.1,0.3-0.1,0.6-0.1c0,0.3-0.2,0.8,0.4,0.8c0-0.3,0.1-0.6,0.1-0.8c0.8,0,1.5-0.1,2.3-0.1
		c0.1,0,0.2-0.4,0.2-0.4c0.3,0.1,0.5,0.3,0.8,0.4c-0.4,0.2-0.8,0.4-1.3,0.5c-0.2,0.1-0.4,0-0.6,0c0,0,0,0.3,0,0.4h0.8
		c1.1-0.3,2.1-0.8,3.2-1c0.7,0.5,1.7,0,2.5,0.4c-0.1,0.3-0.4,0.5-0.9,0.6c0,0-0.1,0.2,0,0.4c0,0.1,0.2,0.3,0.3,0.3
		c1.1-0.2,1.4-0.5,2.5-0.6c0.6,0,0.5,0.5,1.1,0.6s0.4-0.2,1-0.3c0-0.1,0-0.2-0.1-0.2c-0.5-0.5-0.8-1.3-1.7-0.8
		c0-0.1-0.1-0.2-0.1-0.2c0-0.1,0.1-0.2,0.1-0.2c0.2,0,0.3,0.1,0.5,0.1c-0.2-0.2,0.3-0.6,0-0.6c-1.2-0.1-1.4,0.4-2,0.4v-0.1
		c0.1-0.1,0.1-0.3,0.2-0.5c-0.1-0.1-0.2-0.1-0.4-0.2c0.2-0.1,0.4-0.2,0.6-0.2c0.2,0,0.5-0.1,0.6,0c0.6,0.5,1,0.1,1.5-0.3
		c0.1-0.1,0.2-0.1,0.3,0c0.3,0.3,0.6,0.7,1,1c-0.1,0.1-0.2,0.1-0.4,0.2c-0.1,0.1-0.3,0.2-0.4,0.3c0.1,0,0.3,0.1,0.4,0.1
		c1,0.9,2.1,0.2,3.2,0.3c1.7,0.1,3.1,1,5,0.3s4.2,0.5,6.2-0.7c0,0,0.2,0.2,0.3,0.2c1.2,0.2,2.4,0.4,3.6,0.6c0.2-1.6,0.8-1.1,1.4-0.7
		v-0.1c0.4,0.3,0.8,0.5,1.1,0c0,0,0.5,0.2,0.7,0.3c0.1-0.3,0.3-0.3,0.6-0.3c-0.1,0.4,0,0.9-0.1,1.4c0.9-0.1,0.7-0.7,0.6-1.3
		c0.3,0,0.5,0,0.6-0.3c0.1,0.1,0.3,0.2,0.5,0.3c-0.3,0.4-0.8,0.7-0.3,1.3c0.5-0.6,0.5,0.1,0.7-0.6c0-0.1,0.4-1.7,0.4-1.8
		c0.3,0.6-0.5,1.8,0.3,1.9c0-0.9,0.1-1.8,0.1-2.8C561.1,517.7,562.1,517.9,562.3,517.7z M558,511.6c-0.4-0.3-0.7-0.5-1.1-0.8
		c0.1-0.1,0.1-0.2,0.2-0.2c0.1,0.5,0.6,0.1,0.9,0.1l0,0c0.2,0.2,0.2,0.6,0.2,0.9C558.1,511.7,558.1,511.7,558,511.6z M512.4,512.5
		c0-0.1,0-0.2,0.1-0.2c0.1-0.1,0.3-0.2,0.4-0.2c0,0.2,0.1,0.4,0.1,0.6C512.8,512.6,512.6,512.5,512.4,512.5z M476.2,509.5
		c0.2,0,0.3,0.1,0.5,0.1c-0.2,0-0.3,0.1-0.5,0.1C476.1,509.6,476.2,509.5,476.2,509.5z M455.8,516.9c1.1,1,1.3-1.1,1.6-0.6
		c0.4,0.6,0.3,1.6,0.4,2.5c-0.7-0.1-1-0.2-1.7-0.3C456.2,520.1,455.7,517.4,455.8,516.9z M460.3,517.2c-0.4-0.1-0.8-0.1-1.2-0.1l0,0
		l0,0c-0.2-0.5,0-1.2-0.2-1.7c-0.1-0.4-0.4-1-0.6-1c-0.3,0-0.6,0.1-0.9,0.2c0.2-0.2,0.3-0.5,0.4-0.7c0.1,0,0.2,0,0.5-0.1
		s0.5-0.6,0.6-0.9c0-0.1,0-0.2,0-0.2s0,0,0.1,0.1c0.1-0.1,0.1-0.2,0.2-0.2c0.3,0.2,0.6,0.4,0.8,0.7c-0.2,0-0.6,0-0.6,0.1
		c-0.1,0.8-0.2,1.6-0.3,2.4c0,0.1,0.3,0.3,0.4,0.3c0.2-0.2,0.4-0.4,0.6-0.6c-0.2,0.4-0.4,0.9-0.6,1.3c0,0.1,0.1,0.4,0.2,0.4
		S460.1,517.1,460.3,517.2L460.3,517.2z M460.9,512.3c0.2-0.2,0.4-0.6,0.6-0.6c0.5,0.1,0.9,0.3,1.3,0.5c-0.3,0.5,0.9,1.2-0.2,1.1
		C462,513.3,461.5,512.7,460.9,512.3z M462.4,517.3c-0.2,0-0.4,0-0.6,0c-0.1-0.3-0.1-0.6,0.3-0.9c0.1-0.1,0.8,0.1,0.8,0.3
		c0.1,0.3,0.2,0.6,0.2,0.9c-0.2-0.1-0.3-0.2-0.5-0.2l0.1-0.1C462.6,517.3,462.5,517.2,462.4,517.3
		C462.6,517.2,462.5,517.3,462.4,517.3z M462.8,518.9c-0.1,0-0.3-0.1-0.2-0.2c0-0.2,0.1-0.4,0.2-0.5c0.2,0,0.4-0.1,0.5-0.1
		c0,0.2,0.1,0.3,0.1,0.5C463.2,518.6,463,518.8,462.8,518.9z M473.6,516.9C473.7,516.9,473.7,516.9,473.6,516.9l-0.1,0.1l0,0
		C473.6,517,473.6,517,473.6,516.9z M467.6,517.4c0-0.1,0-0.2,0-0.3c-0.2,0.1-0.4,0.1-0.7,0.2c-0.1-0.1-0.2-0.3-0.3-0.4
		c0,0.2,0,0.3,0,0.5c-0.1,0-0.2,0-0.3,0c-0.6,0-1.3-0.1-1.9-0.1c0.6-1.2,1.6-1,2.6-0.9c0.2,0.1,0.3,0.3,0.5,0.4
		C467.8,517.2,467.8,517.4,467.6,517.4z M467.2,511.2c0.3-0.2,0.7-0.3,1-0.5l-0.1,0.1C467.8,510.9,467.5,511,467.2,511.2z
		 M468.9,511.9C468.9,512,468.8,512,468.9,511.9c-0.3,0.3-0.5,0.3-0.7,0.4c0-0.3,0-0.4-0.1-0.5C468.4,511.8,468.6,511.8,468.9,511.9
		z M471.4,518.4L471.4,518.4l0.1-0.1C471.5,518.3,471.4,518.3,471.4,518.4z M473.2,517.3c-0.1,0.1-0.2,0.1-0.3,0.1
		c0.1,0.2,0.3,0.4,0.4,0.6c0,0.2,0,0.3,0,0.5c-0.1,0-0.3-0.1-0.3-0.1c-0.1-0.1-0.2-0.3-0.3-0.4c0.1-0.1,0.1-0.2,0.1-0.4
		c-0.2,0-0.3,0-0.5,0c-1.1-1-2.6-1-4-1.4c0.1-0.1,0.2-0.3,0.3-0.3c0.1,0,0.1-0.2,0.1-0.2c0.1,0,0.2,0,0.3,0.1c1.4,0.5,2.5,2,4.2,0.9
		c0.1-0.1,0.2,0,0.3,0.1C473.3,516.8,473,516.9,473.2,517.3z M473.9,520.6c-0.1-0.2-0.2-0.2-0.4-0.1c0.1-0.1,0.1-0.2,0.2-0.2
		s0.2,0.1,0.3,0.1C473.9,520.5,473.9,520.5,473.9,520.6z M475.4,519.3c-0.1-0.1-0.1-0.2,0.1-0.7c-0.4,0.2,0-1.1-0.7-0.4
		c0,0.1-0.4-0.1-0.6-0.3c0.5-0.2,1-0.4,1.5-0.6c0.1,0,0.2-0.1,0.3-0.2C475.8,517.9,475.6,518.7,475.4,519.3z M478.1,513.2
		L478.1,513.2L478.1,513.2L478.1,513.2z M478.2,512.4c-0.1,0,0.5-0.6,0.3-0.7c0,0,0.2-0.2,0.2-0.3c1.1-0.5,0.9-0.3,1.8-0.7
		c-0.6,0.6-0.1,0.6-0.9,1C479.2,512,478.7,512.2,478.2,512.4z M479.7,518.8L479.7,518.8L479.7,518.8L479.7,518.8z M482.6,517.5
		L482.6,517.5c-0.1,0.2-0.1,0.2-0.2,0.2h-0.1C482.4,517.6,482.5,517.6,482.6,517.5z M482.3,518.9c-0.1-0.2-0.1-0.5-0.3-0.5l0,0v-0.1
		c0.2-0.1,0.5-0.2,0.7-0.2c0,0.2,0.1,0.3,0.1,0.5C482.7,518.5,482.5,518.8,482.3,518.9z M491.7,519.4c0-0.2-0.1-0.2-0.2-0.2
		c0-0.1,0.1-0.1,0.1-0.2c0.1,0.1,0.1,0.2,0.2,0.2C491.8,519.3,491.8,519.4,491.7,519.4z M493.5,518.8c-0.6-0.4-0.4,0.5-0.4,0.5
		c-0.1,0-0.2,0-0.3,0c0-0.2,0.1-0.3,0.1-0.5c-0.3,0-0.7,0-1-0.2c0.2-0.1,0.4-0.3,0.5-0.8c0.1-0.1,0.2-0.3,0.3-0.3c0,0,0,0,0.1,0
		c0,0.1,0,0.2,0,0.3c0.2,0,0.4,0,0.5,0s0.1-0.1,0.2-0.2c0,0,0,0,0.1,0c0,0.2,0.1,0.5,0,0.7C493.6,518.5,493.6,518.7,493.5,518.8z
		 M494.1,520.1C494.1,520,494,520,494.1,520.1C494.1,520,494.1,520,494.1,520.1C494.1,520,494.1,520,494.1,520.1z M503.7,511.7
		c0.7-0.3,0.7-1,1.8-0.6c0.5,0.3,0.8,0.7,1,1.5c-0.2-0.2-0.3-0.3-0.4-0.3c-0.3,0.2-0.7,0.2-1.1,0.3c0.3-0.1,0.5-0.2,0.8-0.4
		c-0.2-0.2-0.4-0.3-0.5-0.6c-0.5,1.2-0.9-0.5-1.3,0c-0.1,0.1-0.4,0.1-0.4,0.3c-0.1,0.2,0.1,0.5,0,0.7c-0.3,0-0.7,0-1-0.1
		C502.8,512.5,503,511.9,503.7,511.7z M501.6,511.9L501.6,511.9L501.6,511.9L501.6,511.9z M501.3,513.3c1-0.2,2-0.3,3.2-0.5h0.1
		c-0.3,0.1-0.5,0.4-0.5,0.9c0,0.2-0.7,0.4-1.1,0.5c-0.1,0.1-0.3,0.1-0.6,0.1c0.2-0.1,0.5-0.2,0.7-0.3c0.2-0.2,0.3-0.5,0.5-0.7
		c-0.8,0.2-1.6,0.5-2.4,0.7C501,513.7,501.2,513.5,501.3,513.3z M495.3,515.2c0-0.2,0.1-0.3,0.2-0.3s0.1-0.1,0.2-0.1s0.3,0,0.5,0
		c0,0.1,0,0.3-0.1,0.4c0,0.1-0.2,0-0.2,0.1c-0.1,0.1-0.2,0.3-0.3,0.4C495.4,515.6,495.3,515.4,495.3,515.2z M496.7,518.1
		c-0.1,0-0.3-0.1-0.4-0.1c0,0,0,0-0.1,0c0-0.1,0-0.1-0.1-0.1c-0.3-0.3-0.3-0.1-0.2-0.9c-0.3,0.2-0.1-1.1-0.6-0.2
		c0,0.1-0.4-0.1-0.6-0.3c0.6-0.1,1.2-0.2,1.4,0c0.4,0.3,0.5,1.1,0.7,1.7C496.8,518.1,496.7,518.1,496.7,518.1z M498.6,516.3
		c-0.1,0.3-0.2,0.5-0.4,0.8c0.1,0,0.1,0,0.1,0c-0.3,0.1-0.4-0.1-0.5-0.5c-1,0.9-0.8,0-0.8-0.6c0-0.2-0.3-0.4-0.5-0.4
		c-0.3,0.1-0.7,0.1-0.9,0c0.7-0.1,1.1,0.1,1.2-0.3c0.1-0.1,0.1-0.2,0.1-0.3c0.1,0,0.2-0.1,0.3-0.1l0.1,0.1c0.2,0.1,0.6,0,0.8,0
		c0.1,0,0.2,0.2,0.1,0.4c0,0.1-0.1,0.2-0.3,0.2c-0.2,0-0.2,0-0.4,0c0.1,0.1,0.1,0.4,0.2,0.4c0.2,0,0.4,0.1,0.5,0
		C498.5,516.1,498.7,516.2,498.6,516.3z M499,516.7h-0.1c0-0.1,0-0.2,0-0.2c0.1-0.1,0.2-0.1,0.2-0.2
		C499.1,516.4,499.1,516.6,499,516.7z M498.5,514.4c-0.1,0,0.4-0.3,0.5-0.5c0.1,0.1,0.3,0.3,0.4,0.3h0.1
		C499.2,514.3,498.9,514.4,498.5,514.4z M503.5,517.5C503.4,517.6,503.4,517.6,503.5,517.5c-0.2,0.2-0.4,0.2-0.7,0.2l0,0
		c0.2-0.2,0-0.5-0.7-0.9c-0.6-0.3-0.7,1.3-1,0.1c0-0.1,0.3-0.3,0.6-0.6c0.3,0.1,0.6,0.3,0.9,0.4l0,0c0.2,0.1,0.4,0.2,0.5,0.3
		C503.4,517.3,503.5,517.4,503.5,517.5z M501.6,515.8c0.1,0,0.2,0,0.4,0.1v0.1C501.9,515.9,501.8,515.9,501.6,515.8z M502.8,516.2
		c-0.1,0-0.2-0.1-0.2-0.1c0.2-0.2,0.4-0.4,0.6-0.5h0.1c-0.5-0.2-1-0.4-1.4-0.5c-0.2,0-0.6,0.4-0.8,0.7c0.1,0,0.3,0,0.5,0
		c-0.2,0-0.6,0.1-0.8,0.2c0.1,0,0.3,0.1,0.4,0.1s0.2,0.1,0.3,0.1c-0.3,0.1-0.6,0.1-0.9,0.2c-0.2,0-0.4,0.1-0.4,0.1
		c-0.2-0.3-0.3-0.5-0.4-0.6c0.6-0.5,1.3-0.9,2.2-0.9c0.4,0,0.8-0.3,1.3-0.5c-0.2,0-0.6-0.1-0.8-0.1c-0.1,0-0.2,0-0.3,0
		c0.1,0,0.2,0,0.3-0.1c0.2,0.1,0.3,0.1,0.5,0.1c1.1,0.1,2.1,0.2,1.4,1.7c0,0,0.1,0.2,0.2,0.2l0.2-0.1c0.1-0.2,0.1-0.4,0.2-0.6
		c0.1,0.3,0.2,0.6,0.4,0.9C504.4,516.4,503.6,516.4,502.8,516.2z M508.3,518.2c0,0.1,0,0.2,0,0.3c-0.2,0.1-0.4,0.1-0.7,0.1
		c0-0.1,0-0.3,0-0.4c0-0.1,0.2-0.2,0.3-0.2c0.1,0,0.3,0,0.5,0.1C508.5,518.2,508.4,518.1,508.3,518.2z M506.2,515.5
		c0,0.2-0.4,0.4-0.6,0.6c-0.1-0.3-0.3-0.8-0.3-0.9c0.8-0.3-0.7-2.2,1.2-1.7c0-0.2-0.2-0.6,0.1-0.6c0.1,0.1,0.2,0.2,0.4,0.1l0,0l0,0
		c0.5-0.1,1.1-0.8,1.5,0c0.2-0.1,0.4-0.3,0.7-0.5c0,0-0.1-0.1-0.1-0.2c0.1-0.1,0.2,0,0.2-0.1c0,0.1,0.1,0.2,0.1,0.3h-0.1
		c-0.1,0.2-0.2,0.3-0.2,0.5c0.2,0.1,0.4,0.1,0.5,0.2c0.4,0.3,0.8,0.7,1.1,1.1c0,0,0,0.1-0.1,0.1h-0.7
		C508.3,513.9,506.5,512.3,506.2,515.5z M510.7,518.1c-0.1,0-0.4,0-0.4,0c-0.3-0.3-0.5-0.5-0.8-0.7c0.4,0,0.8-0.1,1.3-0.1
		C510.8,517.6,510.7,517.9,510.7,518.1z M511,520.8c0-0.1,0-0.3,0.1-0.4c0.1,0,0.2,0,0.3,0C511.3,520.5,511.2,520.6,511,520.8z
		 M513,517.6c-0.1,0-0.2,0.1-0.3,0.2c0,0.1-0.7-0.1-1-0.4c0,0-0.1,0-0.1-0.1c0.1,0,0.2,0,0.3,0c-0.1-0.8,0.3-2-1.4-1.1
		c-0.4,0.2-1.1-0.2-1.6-0.3c0.5-0.3,0.9-0.7,0.6-1.3c0.2,0.3,0.4,0.7,0.6,1c0.3,0.4,0.2,0.3,0.3-0.1c0.2-0.7,0.7-0.3,1.1,0
		c-0.1-0.3-0.2-0.6-0.3-0.9c0-0.1-0.2-0.3-0.2-0.4c0-0.1,0.2-0.2,0.3-0.2c0.2,0.1,0.5,0.3,0.5,0.4c-0.1,1.4,0.4,1.9,1.8,1.9
		c0.8,0,1.6,0.7,2.3,1c-0.5,0.1-1.1,0.4-1.4-0.4C514.1,517.3,513.1,516.8,513,517.6z M514.3,519.8c0-0.1-0.2-0.1-0.2-0.2l0,0
		C514.1,519.6,514.3,519.7,514.3,519.8L514.3,519.8z M514.1,519.3L514.1,519.3c0.1,0,0.1,0,0.2,0H514.1z M515.5,519.5L515.5,519.5
		L515.5,519.5L515.5,519.5z M515.2,519.1c-0.1,0.1-0.3,0.1-0.4,0.1c-0.2-0.2,0.3-0.6-0.1-0.6c-0.3,0-0.6,0.1-0.8,0.2
		c-0.2-0.1-0.2-0.2,0-0.8c-0.1,0.1-0.2,0-0.2-0.1c0.2,0,0.4,0.1,0.5,0.1c0.7,0,1.8-0.3,2,0.1C516.9,519,515.7,518.9,515.2,519.1z
		 M519.2,514.8c-0.3,0.4-1,0.4-1.5,0.6c0.3-0.4,0.7-0.9,1-1.3c0.2-0.3,0.3-0.6,0.4-0.8c0,0,0,0,0-0.1
		C519.9,513.7,519.5,514.4,519.2,514.8z M521.1,519.2L521.1,519.2C521.1,519.2,521.1,519.3,521.1,519.2
		C521.1,519.3,521.1,519.3,521.1,519.2z M521.7,512.3c-0.9,0.2-1.9,1.8-2.6-0.3c0,0-0.1,0-0.2,0c0,0,0.1,0,0.1-0.1
		c0.5-0.5,1.1-0.8,1.7-0.8c0,0.3,0.3,0.6,1.2,0.9C521.8,512.2,521.8,512.3,521.7,512.3z M526.3,518.2c-0.2,0.8-0.5,0.4-0.9,0.3
		c0,0.3,0,0.7-0.1,0.8c-0.4,0.2-0.8,0.3-1.3,0.3c0-0.2,0-0.4,0-0.6c0.5-0.1,0.9-0.3,1.4-0.6c-0.5-1.1-1.6-2.4,0.8-2.7
		c0.1,0,0.3,0.1,0.4,0.2C524.2,516.4,526.4,517.5,526.3,518.2z M540.3,512.7c0.1,0,0.1,0.1,0.2,0.1c0.1,0.1,0.3,0.1,0.6,0.1
		c-0.1,0.1-0.2,0.1-0.2,0.2c-0.2,0.1-0.4,0.2-0.5,0.3C540.3,513.2,540.3,512.9,540.3,512.7z M528.1,511.5c-0.2,0.4-0.6,0.2-1.1,0
		C527.3,511.5,527.7,511.5,528.1,511.5L528.1,511.5z M529.1,511.6c0.4,0,0.7-0.1,0.9-0.4c0,0.1,0.1,0.1,0.1,0.2
		C529.9,512,529.5,511.8,529.1,511.6z M531,510.9c0-0.1-0.3-0.1-0.6-0.1v-0.1v0.1h-0.1c0-0.2,0-0.4,0-0.6c0-0.1,0.1-0.2,0.2-0.2
		c0.1-0.1,0.3,0,0.4,0c0,0.1-0.1,0.1-0.1,0.1c0,0.2,0,0.3,0,0.6c0.3,0,0.5,0,0.7,0l0.1-0.1c0.1,0.1,0.2,0.1,0.3,0.2
		c0,0.1,0,0.2,0,0.3C531.4,511.2,531,511.5,531,510.9z M533.6,513.4c-0.2,0.3-0.4,0.6-0.6,0.9c-0.2-2-1.4,0.3-1.5-0.3
		c-0.1-0.4,0.1-1,0.3-1.5c0.1,0,0.1,0.1,0.2,0.1c0,0.1,0,0.2,0,0.4c0,0.1,0.2,0.3,0.2,0.3c0.6-0.1,0.9-0.2,1.3-0.3
		C533.5,513.1,533.7,513.3,533.6,513.4z M534.7,514c0.1-0.3-1.1,0.4-0.3-0.4c0.1-0.1,0-0.5-0.2-0.7c-0.2-0.1-0.4,0-0.6,0
		c0.1,0,0.2,0,0.3-0.1c0.2,0,0.4,0.1,0.6,0.1l0.1-0.2c0.1,0,0.2,0,0.2,0c0.6,0,0.5,0.5,1.1,0.6s0.4-0.2,1-0.3c0-0.1,0-0.2-0.1-0.2
		c-0.3-0.3-0.5-0.6-0.7-0.8c0.3-0.1,0.7-0.1,1-0.1c0,0,0,0.2,0,0.5c0.1,0.2,0.6,0.5,0.6,0.8C537.5,515.6,535.6,513.2,534.7,514z
		 M540.6,518.1c-0.2,0.8-0.4,1-0.7,0.1c-0.2,0.3-0.4,0.6-0.6,0.8c-0.5-0.2-0.7-0.3-0.9-0.4c0.3-0.4,0.6-0.9,1-1.1
		c0.5-0.2,1.4-0.3,1.7,0C541.5,517.9,540.6,518,540.6,518.1z M541.1,512.9c0.6,0,1.5,0,2.3-0.1v0.1c-0.1,0.1-0.1,0.1-0.2,0.2
		c-0.1,0.1-0.2,0.3-0.2,0.3c0.3,0.5,0.5,0.6,0.7,0.4c0.1,0.2,0.1,0.4,0.1,0.6c-0.3-0.1-0.6-0.2-0.8-0.5
		C542.5,513.2,540.7,514.9,541.1,512.9z M543.1,519c-0.6,0.3-0.7-0.4-0.7-1.3c0,0,0.1-0.1,0.1-0.2c0.9,1,1.2-1.6,1.8-0.3
		C544.5,517.5,543.7,518.7,543.1,519z M545.3,511.9c-0.5,0-1-0.1-1.5-0.1c-0.2,0-0.3-0.1-0.5-0.1c0.1-0.3,0.2-0.8,0.1-0.8
		c-0.1,0-0.2,0-0.3,0.1c0,0.1,0,0.1,0.1,0.2c-0.2,0.1-0.3,0.1-0.4,0.2c0-0.1,0-0.1-0.1-0.2c0-0.1,0.2,0,0.2,0
		c-0.1-0.3-0.1-0.6-0.1-0.8c-0.5,0.2-0.7-0.1-0.9-0.4c1.3-0.1,1.5,0.8,2.8,0.9C546.4,510.9,545,510.9,545.3,511.9z M547.3,513.3
		c-0.2,0.2-0.4,0.3-0.6,0.5c-0.1-0.4-0.6,0.1-0.8,0.2c-0.1,0-0.3-0.2-0.2-0.3c0-0.2,0.2-0.5,0.2-0.6c0.4-0.1,1,0,1.1-0.2
		c0.2,0.1,0.4,0.3,0.6,0.4C547.5,513.3,547.4,513.3,547.3,513.3z M546.8,511.6c-0.1,0-0.2-0.3-0.2-0.3c0.2-0.2-0.4-0.7-0.3-0.7
		c0.4,0.2,0.9,0.4,1.3,0.6c0.3,0.1,0.6,0.3,0.9,0.4c0,0.1,0,0.1,0,0.2s0,0.2,0,0.3C547.9,512,547.4,511.8,546.8,511.6z M548.4,513.5
		C548.4,513.5,548.5,513.5,548.4,513.5C548.5,513.5,548.5,513.6,548.4,513.5L548.4,513.5z M549.5,512.7c-0.1,0-0.2-0.1-0.4-0.1
		c-0.1-0.1-0.1-0.3-0.1-0.5c0.5,0.3,1.1,0.6,1.6,0.9C550.2,512.8,549.9,512.8,549.5,512.7z M557.8,515.9c-0.1,0-0.2,0.1-0.3,0.1
		c-0.2,0.1-0.3,0.2-0.3,0.2c0,0.1,0,0.2,0.1,0.3c-0.5,0-0.9,0-1.4-0.1l0,0c-0.1,0-0.1,0-0.2,0c-0.4,0-1-0.1-0.6-0.7
		c0.2-0.2,0.7-0.2,1.1-0.3V515c0.2-0.1,0.4-0.2,0.7-0.3c0.3,0.3,0.5,0.5,0.7,0.7c0.2,0.1,0.4,0.2,0.5,0.2
		C557.9,515.8,557.8,515.9,557.8,515.9z M560.1,518.3c-0.1,0-0.1-0.2-0.2-0.3c0.2,0,0.5,0,0.7,0.1c0.1,0,0.2,0.1,0.2,0.1
		C560.6,518.2,560.3,518.3,560.1,518.3z M561,516c0,0.1,0,0.1,0,0.2c0-0.1-0.1-0.1-0.1-0.1s-0.2,0.1-0.3,0c-0.7-0.3-1.3-0.8-1.9-1.1
		c-0.2-0.2-0.5-0.4-0.7-0.5c0.9-0.1,1.8,0,2.8,0.3C561.8,515.1,560.9,515.6,561,516z M503.3,515.6c0.1,0,0.2,0.1,0.4,0.1
		C503.6,515.6,503.4,515.6,503.3,515.6z"/>
	<path id="small_middle_section" d="M148.2,584.6c0.1,0,0.8,0,0.8-0.1l-0.3-0.4c-0.1,0-0.1,0-0.2,0.1
		C148.5,584.2,148.2,584.6,148.2,584.6z M155.6,584.2c0.1,0,0.8,0,0.8-0.1l-0.3-0.4c-0.1,0-0.1,0-0.2,0.1
		C155.9,583.8,155.6,584.2,155.6,584.2z M142.1,584.7c0.1,0,0,0.2,0.1,0.3c0,0,0.6-0.1,0.6-0.2l-0.6-0.2L142.1,584.7z M158.7,580.8
		c-0.4,0-0.6,0-0.8,0c-0.1,0-0.1,0.3-0.2,0.5c0.1,0,0.3,0.2,0.4,0.2C158.3,581.4,158.4,581.3,158.7,580.8z M158.5,582.7
		c0-0.2-0.4-0.4,0-0.6c-0.3-0.2-0.5-0.4-0.9-0.6c-0.1,0,0.1,0.1,0.1,0.1c0,0.1-0.1,0.3-0.2,0.4c-0.1,0.1-0.2,0.2-0.4,0.1
		c-0.1-0.1-0.3,0-0.3-0.1c-0.1-0.1-0.2-0.2-0.1-0.3c0-0.1,0.2-0.2,0.3-0.2s0.3,0,0.7,0c0.1-0.1,0.1-0.2,0.1-0.2
		c-0.5,0-0.8-0.2-1.1-0.5c-0.3,0.1-0.7,0.3-0.9,0.2c-0.3-0.1-0.2-0.2-0.4,0.1c-0.4,0.6-0.8,0.4-1-0.2c-0.1-0.3-0.7-0.5-0.7-0.2
		c-0.1,0.4-0.6,0.1-1,0.1c-0.1,0-1.8-0.4-0.5,0.4c0.1,0.1,0.5,0.3,0.6,0.4s0.2,0.1,0.2,0.2c-0.1,0.2-0.2,0.3-0.3,0.5
		c-0.1-0.1-0.3-0.2-0.4-0.3c-0.1,0-0.1-0.1-0.1-0.2c0.2-0.6-0.6-0.4-0.7-0.7c-0.1,0-0.3,0.1-0.4,0.1c-0.1-0.6-0.5-0.4-0.8-0.3
		c-0.4,0.1-0.7,0.3-1.1,0.5c-0.1,0-0.3,0-0.4-0.1c-0.2-0.2-0.1-0.2,0.1-0.3c0.1,0,0.1-0.1,0.2-0.2c-0.1-0.1-0.3-0.3-0.4-0.3
		c-0.2,0.1-0.4,0.2-0.7,0.3c-0.1,0-0.2,0-0.2,0c0-0.4-0.3-0.3-0.5-0.3c-0.6,0-1.1,0-1.8,0c-0.3,0-0.6,0-0.6,0.4l-0.2,0.1
		c-0.4-0.4-1.1-0.1-1.6-0.4c0.3-0.1,0.4-0.2,0.6-0.2c-0.1,0-0.3-0.1-0.4-0.1c-0.1,0-0.3,0.1-0.3,0.2c-0.1,0.3-0.3,0.3-0.5,0.2
		c-0.5-0.3-0.9-0.2-1.4-0.1c-0.5,0.1-1-0.1-1.3-0.1c0,0-0.1,0-0.1,0.1c-0.4,0.3-0.7,0.2-1.1,0c-0.6-0.2-1.2-0.4-1.6,0.4
		c-0.2,0.4-0.8,0.3-1.3,0c-0.3,0-0.6,0-1-0.2c-0.2-0.1-0.7,0.1-1.1,0.2c-0.1,0-0.3-0.1-0.4-0.2c-0.1,0-0.3,0-0.5,0
		c0.1,0.1,0.2,0.2,0.3,0.4l0,0c0,0,0.1,0.1,0,0.1c0.1,0.1,0,0.1,0,0.1c-0.1,0-0.1-0.1-0.1-0.1c-0.5,0.2-1.1-0.1-1.2,0.6
		c0.4-0.1,0.7-0.1,1.1-0.2c0,0-0.8,0.4-0.8,0.5c-0.2,0.2,0,0.3,0.2,0.4c0,0,0,0.1,0.1,0.1l0.1-0.1c0,0,0,0,0-0.1
		c0.2,0,0.5-0.1,0.7-0.3c0.1-0.1,0.3-0.1,0.4-0.1c0,0.1,0,0.3,0,0.3c-0.3,0.1-0.1,0.7-0.6,0.6c0,0.1,0,0.1,0,0.2
		c-0.5-0.3-1.2-0.7-1.3-0.7c-0.3-0.1-0.4-0.3-0.1-0.6c0.1-0.1,0.2-0.3,0.2-0.4c0.2-0.4,0-0.7-0.5-0.6c-0.3,0-0.7,0.1-1,0.2
		c-0.4,0.2-0.7-0.4-1,0c-0.6-0.4-0.4,0.1-0.4,0.3c0,0.1,0.3,0.1,0.4,0.2c0.1,0.2,0.1,0.4,0.1,0.6c-0.2,0-0.3,0-0.5,0
		c-0.1,0-0.2,0-0.3,0c0,0.1,0,0.3,0.1,0.3c0.1,0.1,0.4,0.1,0.4,0.2c0,0.1,0.1,0.1,0.1,0.2l0,0c0,0.3,0,0.5,0,0.8
		c0.2,0.4,0.5,0.8,0.7,1.1c0.1,0.1,0.2,0,0.2,0c0-0.1,0-0.3,0-0.4c0,0,0,0,0.1,0c0,0,0,0-0.1,0c0-0.5,0-0.9,0-1
		c-0.1-0.1-0.1-0.1-0.2-0.1c0.1,0,0.2,0,0.3,0.2c0,0.3,0.3,0.6,0.5,0.4c0.5-0.3,0.5,0,0.6,0.2c-0.2,0-0.4,0.1-0.7,0.1
		c0.2,0.1,0.4,0.2,0.7,0.3c0.2-0.1,0.4-0.2,0.6-0.3c-0.1-0.1-0.3-0.2-0.4-0.2c0.1-0.1,0.2-0.2,0.2-0.2c-0.1-0.2-0.3-0.5-0.5-0.7
		c0.1,0,0.9,0.7,0.9,0.7c0.1,0,0.6,0,0.8-0.1c-0.3,0.3-0.6,0.7-1,1c0.3,0.5,0.7,0.2,1.2,0.2c-0.4-0.1-0.6-0.2-0.7-0.2
		c0.1-0.1,0.2-0.4,0.3-0.4c0.2-0.1,0.4,0,0.6,0.1c0.1,0,0.2,0.1,0.3,0.1c0.4-0.2,0.4-0.5,0.1-0.9c0,0,0-0.1,0-0.2
		c0.2-0.4,0.4-0.1,0.6-0.4c-0.1-0.1-0.1-0.2-0.2-0.3c0-0.1,0.1-0.2,0.2,0.2c0.3-0.3,0.6-0.2,0.8-0.5c0,0,0.2,0.1,0.3,0.2v0.2
		c-0.2,0.1-0.5,0.2-0.6,0.5c-0.1,0.2-0.3,0.2-0.5-0.2V583c0,0.5,0.5,0.6,0.1,0.9c-0.1,0.1-0.3,0.2-0.3,0.3c-0.1,0.3,0.1,0.5,0.4,0.5
		c0.4,0,0.9,0,1.2,0s0.8,0.2,1.1,0.2c0-0.2,0.1-0.4-0.2-0.5c-0.4-0.1-0.8-0.4-1.1-0.6c0.3-0.1,0.5-0.2,0.7-0.3s0.4-0.1,0.6-0.1
		c0.2,0,0.5,0,0.7-0.1c-0.1,0.3-0.2,0.7,0,0.7c0.1,0,0.9-0.7,0.9-0.6c0,0.3-0.5,0.7-0.2,0.9c0.2,0.2,0.7,0.1,1.1,0.1
		c0.1,0,0.4,0.1,0.6,0.2c0,0.1-0.1,0.1-0.1,0.2h1.1c-0.2-0.2-0.4-0.3-0.5-0.4c-0.1-0.4-0.1-0.9-0.1-1.2c0.1,0,0.2,0,0.2,0
		c0.1,0.1-0.1,0.5,0.3,0.2c0.1-0.1,0.2,0.3,0.3,0.5c-0.1,0.1-0.1,0.1-0.1,0.2c-0.1,0.7,0.5,0.3,0.8,0.4c-0.1-0.2-0.2-0.4-0.3-0.5
		l-0.1-0.1c0.2-0.2,0.3-0.7,0.5-0.7c0,0.1-0.1,0.3,0,0.4c0.1,0.1,0.3,0.2,0.4,0.3c0.1,0.1,0.1,0.4,0.2,0.5c0.3,0.1,0.4-0.1,0.4-0.3
		c0,0,0.1-0.1,0.2-0.1c0.5,0.4,1,0.5,1.5,0.2c0.5,0.4,1.1,0.2,1.7,0.2c0.3,0,0.8,0.2,0.9-0.4c0,0,0.2-0.1,0.3-0.1
		c0.6,0,0.6,0,0.8-0.3c0.1-0.1,0.2-0.1,0.4-0.1v0.4c0.5,0,0.9,0.4,1.3,0.5c0.4,0.1,0.9,0.1,1.2,0.1c0.4,0.1,0.8-0.3,1.1,0.1
		c0.1-0.1,0.9,0,0.9-0.1c-0.1-0.4,1,0.1,1.1,0c0.1-0.2-0.3-0.6-0.4-0.8c0,0-0.7-0.2-0.6-0.2c0.6,0,0.1-1.1,0.7-1.1
		c0,0.2,0.1,0.4,0,0.6c-0.2,0.3-0.3,0.4,0.2,0.4c0.2,0,0.4,0,0.4,0.3c0,0.5,0.2,0.7,0.7,0.9c0.1-0.3,0.3-0.4,0.3-0.7
		c0-0.6,0.5-0.3,0.8-0.3c0.5,0,0.3,0.3,0.3,0.5c0,0.1-0.1,0.3-0.2,0.4h1.1c0.1-0.1,0.1-0.2,0.2-0.2c0.4,0,0.8,0,1.2-0.1
		C158.3,583.7,157.6,583.2,158.5,582.7z M140,582.3c-0.1,0-0.2,0.1-0.3,0.1c-0.4,0-0.8-0.4-1.1-0.1c-0.4-0.4-0.9-0.1-1.3-0.2
		c-0.1,0-0.3-0.1-0.3-0.2c0-0.1,0-0.2,0.1-0.3c0.5-0.4,1.1-0.3,1.6-0.1c0.2,0,0.4,0.1,0.4,0.2c0.3,0.3,0.4,0,0.6-0.1
		c0.1-0.1,0.2-0.1,0.3-0.1C140.2,581.9,139.5,582,140,582.3z M142,582.2c-0.3,0.2-0.5,0.4-0.9,0c-0.1-0.1-0.4-0.2-0.5-0.3
		s-0.1-0.2-0.1-0.3c0,0,0.1-0.1,0.2-0.1c0.1,0,0.3,0,0.7,0c0.1,0,0.4,0.1,0.7,0.2c0.1,0.1,0.2,0.2,0.3,0.2
		C142.2,582,142.1,582.1,142,582.2z M144.3,582.4c0-0.1-0.1-0.1-0.1-0.2l0.1-0.1C144.3,582.2,144.3,582.3,144.3,582.4L144.3,582.4z
		 M145.6,583.6c0-0.1-0.1-0.1-0.1-0.2c0-0.1,0.1-0.2,0.1-0.3c0,0.1,0.1,0.1,0.2,0.2C145.7,583.4,145.7,583.5,145.6,583.6z
		 M146.3,582.1c0,0-0.2-0.1-0.3-0.2c0-0.1-0.1-0.2,0-0.2c0.3-0.1,0.5-0.2,0.8-0.3c0.1,0.1,0.1,0.1,0.2,0.2
		C146.8,581.8,146.6,582,146.3,582.1z M146.5,583.4c0-0.1-0.1-0.2-0.1-0.3s0.1-0.1,0.1-0.2c0,0,0.1,0.1,0.1,0.2
		C146.6,583.3,146.6,583.3,146.5,583.4z M146.8,582.8C146.8,582.8,146.7,582.8,146.8,582.8c0-0.2,0.1-0.4,0.2-0.7
		C146.9,582.4,146.9,582.6,146.8,582.8z M147.2,582.9c-0.1,0-0.2,0-0.3,0c0.4-0.5,0.5-0.4,0.6-0.2
		C147.5,582.7,147.3,582.9,147.2,582.9z M151.1,583.2c-0.4,0.2-0.6,0.2-0.9,0.2c-0.2,0-0.4-0.2-0.8-0.4c0.4-0.1,0.7-0.1,1-0.2
		c0-0.1,0-0.1,0-0.2c-0.3,0-0.6-0.1-0.7,0c-0.5,0.3-0.9,0.1-1.4-0.2c0.5-0.1,1-0.1,1.1-0.2c0.1-0.5,0.3-0.4,0.5-0.1l0.8,0.1
		c0.2-0.3,0.5-0.2,0.7-0.2c0.4,0,0.3,0.3,0.4,0.7C151.7,583.3,151.3,583,151.1,583.2z M154.9,582.9c-0.1,0-0.2-0.1-0.3-0.2v-0.2
		c0.1-0.1,0.3-0.1,0.3-0.1c0.1,0.1,0.3,0.2,0.5,0.5C155.2,582.9,155,582.9,154.9,582.9z M156.1,583.4
		C156.1,583.3,156,583.3,156.1,583.4c0.1-0.1,0.1-0.2,0.2-0.2C156.2,583.3,156.1,583.3,156.1,583.4z M156.3,583.1
		c0.2-0.4,0.5-0.1,0.8-0.2C156.8,583.3,156.5,583.1,156.3,583.1z M157.2,582.6c0.1,0,0.1-0.1,0.2-0.1
		C157.3,582.5,157.3,582.5,157.2,582.6L157.2,582.6z M157.3,582.7C157.3,582.6,157.3,582.6,157.3,582.7
		C157.4,582.5,157.4,582.5,157.3,582.7C157.4,582.6,157.4,582.6,157.3,582.7z M134.8,582.7C134.8,582.8,134.8,582.8,134.8,582.7
		C134.8,582.8,134.8,582.7,134.8,582.7L134.8,582.7z M137.7,585.1c-0.1-0.1-0.2-0.2-0.3-0.2v0.2H137.7z M133.4,581.2
		C133.4,581.3,133.4,581.3,133.4,581.2C133.4,581.3,133.4,581.3,133.4,581.2C133.4,581.3,133.4,581.3,133.4,581.2
		C133.5,581.3,133.5,581.3,133.4,581.2z M158.8,582.7h-0.3c0.1,0.1,0.2,0.2,0.3,0.2V582.7z"/>
	<path id="small_middle_2_section" d="M185.7,582C185.7,582,185.7,581.9,185.7,582c-0.3-0.1-0.5,0-0.7,0c0,0,0,0.1,0,0.2
		c0,0.1,0.1,0.1,0.1,0.1C185.3,582.2,185.5,582.2,185.7,582C185.6,582.1,185.7,582.1,185.7,582z M186.5,581.1
		c-0.8-0.3-1.1,0-1.7,0.2C185.6,581.6,186,581.1,186.5,581.1z M211,580.5c-0.2,0-0.3-0.1-0.5,0c0,0-0.1,0.1-0.1,0.2
		c0.1,0,0.3,0.1,0.4,0.1C210.9,580.7,210.9,580.6,211,580.5z M214.6,583.1c0-0.1,0.1-0.1,0.1-0.2c0-0.1-0.1-0.2-0.1-0.3
		c-0.2,0.1-0.2,0.1-0.3,0.1C214.4,582.8,214.5,583,214.6,583.1z M197.6,584.7c0.2,0.1,0.3,0.1,0.5,0.1c0,0,0.2-0.1,0.3-0.1
		c-0.1-0.1-0.3-0.1-0.4-0.2L197.6,584.7z M186.6,581.7c0.1,0,0.2-0.1,0.3-0.1c-0.1,0-0.1-0.1-0.2-0.1c-0.1,0-0.2,0.1-0.3,0.1
		C186.4,581.6,186.5,581.6,186.6,581.7z M200.4,580.9c0-0.1,0-0.2,0-0.2c0-0.1-0.1-0.1-0.1-0.2c-0.1,0.1-0.2,0.1-0.3,0.2
		c0,0.1,0,0.2,0,0.2H200.4z M204.4,581L204.4,581l0.2,0.1c0-0.1,0-0.1-0.1-0.2C204.5,581,204.4,581,204.4,581z M198.5,581.7
		L198.5,581.7L198.5,581.7L198.5,581.7z M188.9,581.2c0.2-0.2,0.7-0.4,1-0.3v-0.1c-0.6-0.2-1.2-0.1-1.9,0.4
		C188.3,581.3,188.5,581.6,188.9,581.2z M204.2,582.1c-0.1,0-0.3,0-0.4,0l0,0C204,582.2,204.1,582.2,204.2,582.1
		C204.2,582.2,204.2,582.2,204.2,582.1z M199.7,581l0.2,0.2V581C199.8,581,199.8,581,199.7,581z M206.6,584.7c0.1,0,0.2,0.1,0.3,0.1
		l0.1-0.1c-0.1-0.1-0.1-0.1-0.2-0.2C206.7,584.6,206.7,584.7,206.6,584.7z M214,582.8l-0.2-0.2c-0.2,0-0.5,0.1-0.5,0.2
		c0,0.4-0.3,0.3-0.5,0.4c-0.1,0.2-0.1,0.3-0.2,0.4c0-0.1-0.1-0.2-0.1-0.3s0.1-0.1,0.1-0.2c0.1,0.1,0.1,0.1,0.1,0.1
		c0.2-0.5,0.2-0.5-0.5-0.8c0.6,0,0.9,0,1.3,0c0.8,0-0.2-0.3,0-0.5c-0.2-0.1-0.3-0.1-0.4-0.2c0.1,0,0.2-0.1,0.3-0.1s0.1,0.1,0.2,0.1
		c-0.1,0.1-0.1,0.1-0.1,0.1c0.4,0,0.6-0.1,0.8-0.3c0.2-0.3,0-0.4-0.1-0.6c0.4-0.4-0.1-0.6-0.2-0.6c-0.5,0.4-1,0.1-1.6,0.4
		c0.4,0.1,0.7,0.1,1.1,0.2c-0.4,0.2-0.6,0.4-0.8,0.5c-0.1,0-0.2,0-0.3,0c-0.6-0.3-1.5-0.6-2-0.6c-0.2,0-0.5-0.1-0.7-0.1
		c-0.1,0-0.3,0-0.4,0c0.1,0.1,0.1,0.2,0.2,0.4c0.2,0.3,0.6,0.7,0.9,0.5c0.4-0.2,0.8,0.1,1.1-0.2c0.1,0,0.4,0.1,0.4,0.1
		c0,0.2,0.2,0.5-0.2,0.6c-0.3,0.1-0.5,0.2-1,0.2c-0.1-0.4-0.5-0.7-1-0.2c-0.1,0.1-0.3,0.2-0.4,0.2s-0.2,0-0.3-0.1c0,0-0.1-0.2,0-0.2
		c0.2-0.2,0.4-0.5,0.2-0.7c-0.2-0.3-0.6-0.2-0.8,0c-0.1-0.1-0.1-0.1-0.2-0.2c-0.2-0.3-0.2-0.3-0.5,0c-0.2,0.3-0.4,0.3-0.5,0
		c-0.1-0.5-0.5-0.3-0.7-0.2c-0.3,0.2-0.5,0.3-0.6-0.2l-0.1-0.1c-0.3,0.1-0.6,0.3-0.9,0.3c-0.3,0-0.5,0-0.7,0.1
		c-0.2,0.3-0.5,0.6-0.4,1c0.1,0,0.1,0,0.2,0c0,0,0.1,0-0.2,0.1c0.3,0.1,0.3,0.2,0.3,0.2c-0.2,0-0.4-0.1-0.6-0.1v-0.1
		c-0.4,0-0.7,0-0.9,0.2c-0.4-0.4,0.2-0.6,0.2-0.9c-0.1-0.5,0.6,0,0.7-0.4c-0.4-0.1-0.8-0.4-1-0.3c-0.8,0.4-1.5,0.1-2.3,0.2
		c-0.1,0.5-0.5,0.1-0.7,0.2c0.1,0.3-0.1,0.5-0.3,0.7c-0.1-0.3-0.6,0-0.7-0.5c0-0.2-0.1-0.5-0.2-0.7c0-0.1-0.2-0.1-0.2-0.1
		c-0.3,0.3-0.5,0.1-0.7,0c-0.1,0-0.4,0.2-0.6,0.4c0.6,0.2,0.9,0.4,1.2,0.8l0,0c0,0,0.1,0.1,0,0.1c0.1,0.1,0,0.1,0,0.1
		c-0.1,0-0.1-0.1-0.2-0.1c0,0,0,0,0.1,0c-0.6-0.2-0.6,0.7-1.1,0.4l-0.2,0.9c0-0.2-0.6-0.2-0.3-0.5c0.2-0.2-0.1-0.7,0.3-0.8
		c-0.1-0.1-0.1-0.2-0.2-0.3l-0.9-0.2c-0.3,0-0.5,0.1-0.8-0.1c-0.1-0.1-0.4,0.2-0.6-0.1H194c-0.7,0.4-1.4,0.1-2.1,0.3
		c0.1,0.3,0,0.7,0.2,0.8c0.2,0.3,0,0.3-0.1,0.4c-0.3,0.4-0.5-0.2-0.7-0.1c0,0.1-0.1,0.1-0.1,0.2c0-0.1-0.1-0.1,0-0.1
		s0.1-0.1,0.2-0.1v0.1c0.1-0.1,0.1-0.2,0.2-0.3c0.3-0.4-0.1-0.5-0.3-0.7c-0.1,0.1-0.2,0.3-0.3,0.5c-0.4-0.6-0.7-1.3-1.5-1
		c0.1,0.4,0.2,0.7,0.3,1.3c-0.4-0.3-0.6-0.5-0.9-0.8c-0.2,0.4-0.6,0.6-1.1,0.5c-0.4-0.1-0.1-0.5-0.2-0.7c-0.3-0.1-0.5-0.4-0.9-0.2
		c-0.1,0-0.1,0.2-0.1,0.3c0,0,0.1,0.1,0.2,0.1c0.1,0,0.2-0.1,0.2,0c0.1,0.3,0,0.6-0.4,0.6c-0.5,0-1-0.1-1.5,0.2
		c0,0.4,0.4,0.2,0.6,0.2c0.1,0,0.2,0.2,0.2,0.2c0,0.1-0.1,0.2-0.2,0.2c-0.2,0-0.5,0-0.8,0c0,0.6,0,1.1,0,1.6c0,0.4,0.3,0.6,0.6,0.6
		s0.6-0.2,0.9-0.2c0.3-0.1,0.8,0.1,0.8-0.4c0.4,0,0.8,0,1.1,0c0,0.6,0.4,0.3,0.7,0.4c0.6,0.1,1.1-0.2,1.7,0.2h0.2
		c0.5-0.4,0.9-0.2,1.4-0.2c0.3,0,0.6,0.1,0.9-0.2c0.1-0.1,0.4-0.1,0.7,0s0.6,0.2,0.9,0.3c0.3,0.1,0.5,0.1,0.8-0.1
		c0.3-0.4,0.6-0.5,0.9-0.1l0.4-0.1c0-0.8,0.4,0.1,0.5-0.1c0.1-0.2,0.2-0.5,0.2-0.7c0-0.4,0-0.4,0.3-0.3c0.1,0,0.3,0.1,0.5,0.1
		c0.3,0,0.3,0.2,0.2,0.4s-0.3,0.3-0.4,0.4c0.5,0.1,0.8-0.1,1-0.1c0.4,0,0.7,0.3,0.9,0.5c0.6,0.3,1.2,0.2,1.4-0.3
		c0.3-0.6,0.5-0.4,0.8-0.2s0.5,0.4,0.7,0.7c0-0.1,0-0.2,0.1-0.3s0.3-0.1,0.4-0.1c0,0.1,0,0.2,0.1,0.3h0.2c0.6-0.2,0.7-0.2,1.7,0.1
		c0.1,0,0.2,0,0.2,0c0-0.1,0.1-0.2,0-0.2c-0.1-0.3-0.6-0.4-0.5-0.8c0-0.1-0.1-0.3,0.3-0.2c0.5,0.1,0.8,0.4,0.8,0.9h0.1V584
		c0.5,0.5,0.9,1.1,1.5,0.8c0,0,0.1-0.1,0.1-0.2c-0.2-0.1-0.5-0.1-0.9-0.2c0.7-0.2,1-0.2,1.3,0.3c0,0,0.1,0,0.2,0.1
		c0.1-0.4,0.2-0.3,0.6-0.2c0.3,0.1,0.7,0,0.9,0c0.4,0,0.7-0.1,1,0.1l0.2-0.1c-0.1-0.8,0.4-0.3,0.7-0.3c0.2,0,0.4,0.2,0.6,0.3
		c0.1,0,0.2,0,0.2,0c0-0.4,0.1-0.3,0.4-0.1c0.2,0.1,0.5,0.2,0.7,0.2s0.4-0.3,0.6-0.4c0.1-0.1,0.2-0.2,0.4-0.3
		C214.5,583.6,213.8,583.5,214,582.8z M188.2,583.6c-0.1-0.1-0.2-0.2-0.2-0.2c0.1-0.2,0.3-0.4,0.5-0.6c0.1,0.2,0.2,0.3,0.2,0.4
		C188.6,583.3,188.4,583.4,188.2,583.6z M189.7,583.4c-0.1,0.1-0.2,0.1-0.2,0.1c0-0.1-0.1-0.2,0-0.2c0.1-0.1,0.2-0.2,0.3-0.3
		c0,0,0.1,0,0.2,0c0,0,0,0.1,0.1,0.2C189.9,583.2,189.8,583.3,189.7,583.4z M193.5,582.1c0.1,0,0.1,0.1,0.2,0.1
		c-0.1,0-0.1,0.1-0.3,0.1c0,0-0.1-0.1-0.1-0.2C193.3,582.2,193.4,582.1,193.5,582.1z M193.2,583.3c-0.2,0-0.3-0.1-0.5-0.2
		c0.1-0.2,0.3-0.4,0.4-0.5c0.2,0.3,0.7-0.2,0.8,0.4C193.7,583.1,193.5,583.3,193.2,583.3z M202.5,582.1c-0.1,0.4-0.5,0.2-0.7,0.2
		c-0.1,0-0.2-0.1-0.3-0.1c0.1-0.1,0.1-0.1,0.2-0.2c0.3-0.3,0.5-0.3,0.8-0.1C202.5,582,202.5,582.1,202.5,582.1z M206.7,582.1
		c-0.1,0-0.4,0.1-0.2-0.2c0.1-0.2,0.2-0.3,0.3-0.5c0.3,0.4,0.5,0.6,0.6,0.8C207.2,582.2,206.9,582.1,206.7,582.1z M208,582.9
		c-0.2,0-0.4,0-0.6,0c0-0.1,0-0.1,0-0.2c0-0.1,0-0.2,0-0.3c0.3,0.3,0.4,0.3,0.4,0.3c0.1,0,0.2,0.1,0.2,0.1
		C208.1,582.8,208,582.9,208,582.9z M208.8,582.3c0,0.2-0.2,0.3-0.3,0.5c0,0-0.2,0-0.2-0.1c-0.3-0.2-0.6-0.3-0.9-0.4
		c0.1-0.5,0.7-0.7,1-0.4C208.7,582,208.8,582.1,208.8,582.3z M210.8,582.4C210.7,582.4,210.7,582.4,210.8,582.4L210.8,582.4z
		 M210.8,582.9c-0.2,0-0.5,0-0.7,0c-0.1,0-0.3-0.1-0.3-0.2c-0.1-0.3,0.2-0.3,0.4-0.3c0.1,0,0.2,0,0.7,0l0,0c0.2,0,0.4-0.1,0.4,0.2
		C211.2,582.9,211,582.9,210.8,582.9z"/>
	<path id="small_middle_3_section" d="M262.7,582.1L262.7,582.1l0.1-0.2C262.7,581.9,262.7,581.9,262.7,582.1L262.7,582.1z
		 M245.4,581.2c-0.1,0-0.1,0-0.2,0l-0.1,0.1c0.1,0.1,0.2,0.1,0.4,0.2C245.4,581.4,245.4,581.3,245.4,581.2z M242.2,581.9v0.2h0.5
		C242.7,581.8,242.4,581.9,242.2,581.9z M266.4,584.1c0,0.1,0,0.1,0,0.2h0.1c0,0.1,0.1,0.2,0.1,0.3c0.1-0.1,0.1-0.1,0.2-0.2
		c0,0,0-0.1-0.1-0.1c0.1,0,0.1,0,0.2,0s0.1-0.1,0.2-0.1c-0.1,0-0.2-0.1-0.2-0.1C266.7,584,266.5,584.1,266.4,584.1z M253.8,584.3
		L253.8,584.3c0,0.1,0,0.2,0,0.3l0.1-0.1C253.9,584.4,253.9,584.3,253.8,584.3C253.9,584.3,253.8,584.3,253.8,584.3z M261.9,581.4
		c-0.1,0-0.2,0-0.3,0.1c0.1,0.1,0.2,0.1,0.3,0.2c0.2-0.1,0.3-0.1,0.4-0.1C262.2,581.5,262.1,581.4,261.9,581.4z M261.7,582.4
		c0.3-0.1,0.4-0.1,0.6-0.1c-0.1-0.1-0.1-0.1-0.2-0.1C261.9,582.2,261.8,582.2,261.7,582.4C261.7,582.3,261.7,582.4,261.7,582.4z
		 M271.7,584.6c-0.3-0.4-0.5-0.7-0.2-1.3c0.2-0.4,0.3-1-0.3-1.4c-0.3-0.2-0.2-0.5,0-0.7c0.1-0.1,0.1-0.3,0.2-0.4
		c-0.2,0-0.2,0-0.3,0.1c-0.5,0.2-0.9,0.2-1.4,0.1c-0.3,0-0.6-0.1-0.8,0s-0.4-0.4-0.7-0.1c-0.1,0.2-0.2,0.5-0.3,0.7
		c-0.1,0.1-0.5,0.1-0.7,0.2c-0.1,0-0.1,0.3-0.2,0.3c-0.3,0-0.6-0.4-0.6-0.7c0-0.2,0.4-0.4,0-0.6c-0.2-0.1-0.5-0.3-0.7-0.2
		c-0.4,0.2-0.7,0.3-1-0.1c0,0-0.2,0.1-0.3,0.2c0,0.1,0.1,0.1,0.2,0.2c0.2,0.1,0.4,0.3,0.5,0.4c0,0,0,0.1,0,0.2c0,0-0.1,0-0.2,0
		c-0.2-0.1-0.3-0.5-0.7-0.4c-0.3,0.1-0.4,0-0.2-0.2c0.1-0.2,0.1-0.3-0.1-0.3c-0.4,0.1-0.8,0.3-1.2,0.5c-0.5,0.2-1.2,0-1.2,0.1
		s-0.4,0.8-0.4,0.9c0.1,0.1,1.9,0,2,0c0.2-0.1,0.4-0.4,0.6-0.1c0.2,0.2,0.4,0.3,0.6,0.6c-0.9-0.3-0.9-0.3-1.8,0.1
		c-0.1,0-0.3,0.1-0.3,0.1c-0.7-0.3-1.6-0.4-2.2-1.1c0.2-0.3,0.7,0.1,0.7-0.5c0-0.1,0.5-0.2,0.7-0.3c0.3-0.1,0.5-0.3,1-0.6
		c-0.7,0-1.2,0-1.7,0c-0.4,0-0.9-0.2-1.1,0.5c-0.1,0-0.3,0-0.3-0.1c-0.2-0.2-0.7,0.2-0.7-0.3c0-0.1-0.5-0.1-0.6,0
		c-0.3,0.2-0.7,0.2-0.8,0.7c-0.3,0.6-1,0.6-1.3,0.1c-0.1-0.2-0.1-0.4-0.2-0.6c-0.1,0.2-0.1,0.5-0.2,0.6c-0.2,0.1-0.6,0.1-0.6,0
		c-0.4-0.5-0.8-0.4-1.3-0.4s-0.8,0.5-1.3,0.1c0,0-0.3,0.2-0.5,0.2c0.1,0.1,0.1,0.1,0.2,0.2c0.1,0.1,0.2,0.1,0.2,0.2
		c-0.2,0.2-0.9,0-0.8-0.1c0.2-0.2,0.1-0.3-0.1-0.4c-0.4-0.3-0.9-0.2-1.5,0.3c0.4,0,0.7,0.1,1.1,0.2c-0.3,0.1-0.5,0.2-0.6,0.2
		c-0.4,0.2-0.8,0.4-1-0.2c0-0.1-0.4,0-0.7-0.1v0.1c0.2,0.1,0.3,0.1,0.5,0.2c-0.3,0.3-0.3,0.3-0.6,0.1c-0.4-0.2-0.7-0.3-1.1-0.4
		c-0.1,0-0.1-0.3-0.2-0.4c0,0,0.2-0.1,0.3-0.1s0.2,0,0.2,0c0.1-0.1,0.2-0.2,0.2-0.2c0-0.1-0.1-0.2-0.2-0.2c-0.4,0-0.7,0-1,0.4
		c-0.4,0.6-0.4,0.6-0.9,0.2c-0.2-0.1-0.5-0.3-0.4,0.1c0.3,0.1,0.4,0.2,0,0.3c0.4,0.3,0.3,0.4,0.3,0.4c-0.2-0.1-0.4-0.1-0.6-0.2
		c-0.1,0-0.1-0.2-0.1-0.3l0,0c-0.5-0.3-0.7-0.6-1-0.7c-0.6-0.3-1.1,0-1.8,0c0.3,0.4,0.9,0.8,0.8,1.4c-0.1,0.8-0.4-0.2-0.5,0.1
		c0,0.2,0,0.5,0,0.7c0,0.1,0.2,0.2,0.2,0.3c0-0.3,0.3-0.2,0.4-0.2c0.4,0,0.7,0,1-0.4c0.1-0.1,0.3-0.1,0.3-0.1c0.3,0.4,0.5-0.1,0.7,0
		c0.1,0,0.1,0.3,0.1,0.4c0,0.2-0.2,0.4-0.2,0.6c0,0.2,0.2,0.5,0.2,0.6c-0.2,0.2-0.5,0.3-0.7,0.3c-0.1,0-0.2,0-0.4,0
		c0,0,0.1,0.1,0.1,0.2h-0.1H244c-0.1,0.1-0.1,0.1-0.1,0.1c0,0.1,0.1,0.3,0.1,0.3c0.6,0,1.1,0,1.6,0c0.1,0,0.2,0.2,0.6-0.1
		c-0.5,0.1-0.7-0.1-0.9-0.2c0.1,0,0.3,0,0.4,0c0.5,0,0.4-0.1,0.2-0.4l0.1-0.3c0.3,0,0.7-0.2,0.8,0.1c0.2,0.2,0.3,0.2-0.1,0.3
		c-0.4,0.1-0.2,0-0.1,0.2c0.1,0.2,0.3,0.4,0.5,0.1c0.1-0.1,0.4-0.1,0.6,0c0.4,0.4,0.8,0,1.1,0.2c0-0.3-0.2-0.2-0.1-0.2
		c0.3-0.2,0.6,0,0.6,0.1c0.2,0.6,0.7,0.2,0.9,0c0.6-0.2,1-0.2,1.5,0c0.2,0.1,0.5,0.1,0.7,0.1c0.3-0.1,0.5,0,0.7-0.1
		c-0.1-0.2-0.3-0.3-0.5-0.5c0,0,0-0.1,0-0.2h0.1c0.3,0.1,0.5,0.3,0.7,0.2c0-0.1,0.1-0.1,0.1,0c0.1-0.1,0.2,0,0.2,0.1
		c0,0,0,0.1-0.1,0.1c0.2,0.4,0.6,0.2,0.7,0.1c0.3-0.4,0.4-0.2,0.5,0.1l0.3,0.1c0.1-0.1,0.2-0.3,0.3-0.4c0.1,0.1,0.3,0.3,0.5,0.4
		c0.3,0.1,0.5,0.2,0.8,0.1c0.6-0.1,1.1-0.4,1.7-0.1c0.4,0.2,0.8,0.3,0.8-0.1c0-0.2,0-0.4,0.3-0.4c0.2,0,0.4,0,0.6,0.1
		c0.1,0,0.3,0.2,0.4,0.2c0.4-0.1-0.1-0.3,0-0.4c0.1-0.1,0.4,0,0.4,0c0.1,0.4,0.4,0.7,0.7,0.9c0.1,0.1,0.3,0,0.5,0
		c-0.1-0.1-0.1-0.2-0.2-0.3c0-0.1,0-0.3,0.1-0.3s0.3,0,0.3,0c0.4,0.3,0.8,0.5,1.1,0.4c0.4-0.3,0.7-0.3,1.1,0c0.3,0.2,0.5-0.4,0.7,0
		c0.1-0.1,0.1-0.3,0.2-0.4c0.1-0.2,0.2-0.4,0.4-0.6c0.3-0.3,0.7-0.2,0.9-0.2c0.1,0,0.1,0.3,0.1,0.4c0.2,0.2,0.3,0.3,0.5,0.5
		c0.3,0,0.7-0.1,0.9,0.1c0.5,0.4,0.6-0.2,0.8-0.3c0,0,0.1,0,0.2,0.1c0.7,0.6,1.5,0.7,2.3,0.6C271.7,584.8,271.7,584.7,271.7,584.6z
		 M247.8,583.2c-0.1-0.1-0.3,0-0.4,0c-0.1,0.1,0.5,0.2,0,0.3c-0.3,0.1-0.3-0.2-0.3-0.4c-0.1,0-0.2,0-0.3,0c-0.2,0-0.3,0.1-0.5,0.1
		c-0.1,0-0.2-0.1-0.3-0.2c0.1-0.1,0.2-0.3,0.3-0.3c0.7,0.1,1.4-0.4,2.1,0c0.2,0.1,0.4,0,0.6,0s0.5-0.1,0.5,0.2
		c0,0.2-0.1,0.4-0.2,0.4C248.3,583.6,248,583.4,247.8,583.2z M249.9,583.8c-0.2,0-0.4-0.1-0.7-0.1c0,0,0.1,0,0.1-0.1
		C250,583.7,250,583.8,249.9,583.8z M249.7,583.5C249.8,583.5,249.8,583.4,249.7,583.5c0.2-0.1,0.2,0,0.4,0
		C250,583.5,249.9,583.5,249.7,583.5z M253.3,582.1c-0.1,0.2-0.2,0.3-0.2,0.5c-0.3,0.1,0.1-0.8-0.5-0.3c0,0-0.2-0.1-0.3-0.2
		c0.1-0.1,0.2-0.1,0.3-0.2c0.1-0.1,0.1-0.2,0.2-0.3c0.1-0.2,0.2-0.3,0.2,0c0.1,0.3,0.1,0.3,0.4,0.3
		C253.3,582,253.3,582.1,253.3,582.1z M258.2,583.3c-0.1,0.2-0.6,0.3-0.1,0.6c-0.2,0.1-0.4,0.1-0.4,0.1c-0.3,0-0.5,0.1-0.6,0
		c-0.2-0.1-0.4-0.3-0.4-0.5c-0.1-0.3,0.3-0.2,0.4-0.2s0.2,0,0.3,0c0.3,0,0.7,0.1,0.3-0.4c0.2,0,0.5,0,0.7,0
		C258.2,583.1,258.2,583.2,258.2,583.3z M258.6,582.8c0.1-0.4-0.3-0.4-0.5-0.5c0.7-0.2,0.7-0.2,1.6,0.6
		C259.1,582.8,258.9,582.8,258.6,582.8z M259,583.8c0.6-0.6,0.6-0.6,1.3,0H259z M263.3,584.3c-0.2,0-0.3-0.2-0.5-0.3
		c0,0,0-0.2,0.1-0.2c0.1-0.2,0.3-0.3,0.5-0.1c0.2,0.1,0.5,0.2,0.8,0.3C263.9,584.1,263.6,584.3,263.3,584.3z M264.3,583.5
		c0-0.1-0.1-0.2-0.1-0.3c0,0,0.1-0.1,0.2-0.1C264.4,583.2,264.4,583.3,264.3,583.5C264.4,583.5,264.4,583.5,264.3,583.5z
		 M265.5,582.6c-0.3-0.1-0.6-0.3-0.9-0.4c0,0-0.1-0.1-0.1-0.2c0.1,0,0.1,0,0.2-0.1c0.3,0.1,0.5,0.4,0.7,0.1c0.2-0.1,0.1,0.3,0.1,0.4
		C265.7,582.4,265.5,582.6,265.5,582.6z M267.7,583c0,0-0.1,0-0.2,0.1c0-0.1-0.1-0.2-0.1-0.2c0.1-0.2,0.3-0.3,0.4-0.5c0,0,0,0,0.1,0
		C267.9,582.6,267.8,582.8,267.7,583z M268.1,582.2c0-0.4,0.2-0.6,0.5-0.6C268.4,581.9,268.2,582.1,268.1,582.2z M269.9,582
		c0.1-0.1,0.1-0.3,0.2-0.3c0,0,0.2,0.1,0.3,0.1C270.2,581.9,270.1,582,269.9,582L269.9,582z M270.6,584.5c-0.1,0-0.3-0.1-0.4-0.2
		c-0.3-0.2-0.1-0.6-0.2-0.9c0-0.1,0.2-0.1,0.3-0.1c0.5,0,0.5,0.1,0.4,0.4c-0.1,0.1-0.1,0.3-0.2,0.4
		C270.5,584.3,271.1,584.4,270.6,584.5z M245,583.5c0,0,0.1-0.2,0-0.3l-0.2-0.1c-0.5,0.4-0.8,0.2-1.3,0c-0.2-0.1-0.4,0-0.6,0
		c-0.1,0.1-0.4,0.2-0.4,0.3c-0.1,0.4-0.2,0.9-0.1,1.3c0,0.2,0.5-0.1,0.7,0c0.2,0,0.4,0,0.7,0c-0.1-0.5-0.7,0.2-0.7-0.3v-0.1
		c0.3,0,0.7,0.1,0.9,0.1c0.1,0,0.2,0,0.2,0C244.3,583.8,244.7,583.6,245,583.5z"/>
</g>
</svg>
